<?xml version="1.0" encoding="utf-8"?>
<!-- Generator: Adobe Illustrator 22.1.0, SVG Export Plug-In . SVG Version: 6.00 Build 0)  -->
<svg version="1.1" id="Capa_1" xmlns="http://www.w3.org/2000/svg" xmlns:xlink="http://www.w3.org/1999/xlink" x="0px" y="0px"
	 viewBox="0 0 131.4 388.9" style="enable-background:new 0 0 131.4 388.9;" xml:space="preserve">
<style type="text/css">
	.st0{clip-path:url(#SVGID_2_);fill:#FFFFFF;}
	.st1{clip-path:url(#SVGID_2_);}
	.st2{clip-path:url(#SVGID_2_);fill:#FF9900;}
	.st3{clip-path:url(#SVGID_2_);fill:#FE9900;}
	.st4{clip-path:url(#SVGID_2_);fill:#FEFEFE;}
	.st5{clip-path:url(#SVGID_2_);fill:#CCCDCD;}
	.st6{clip-path:url(#SVGID_2_);fill:#F7F8F8;}
	.st7{clip-path:url(#SVGID_2_);fill:#F9FAFA;}
	.st8{clip-path:url(#SVGID_2_);fill:#CBCBCB;}
	.st9{clip-path:url(#SVGID_2_);fill:#F7FAFA;}
	.st10{clip-path:url(#SVGID_2_);fill:#FC9902;}
	.st11{clip-path:url(#SVGID_2_);fill:#FAFBFB;}
	.st12{clip-path:url(#SVGID_2_);fill:#F1F4F4;}
	.st13{clip-path:url(#SVGID_2_);fill:#FCFBF9;}
	.st14{clip-path:url(#SVGID_2_);fill:#FBFCFC;}
	.st15{clip-path:url(#SVGID_2_);fill:#E6E7E7;}
	.st16{clip-path:url(#SVGID_2_);fill:#E3E5E5;}
	.st17{clip-path:url(#SVGID_2_);fill:#F6F9F9;}
	.st18{clip-path:url(#SVGID_2_);fill:#F6F5F3;}
	.st19{clip-path:url(#SVGID_2_);fill:#F59300;}
	.st20{clip-path:url(#SVGID_2_);fill:#FCF7F4;}
	.st21{clip-path:url(#SVGID_2_);fill:#F89702;}
	.st22{clip-path:url(#SVGID_2_);fill:#E8E9E9;}
	.st23{clip-path:url(#SVGID_2_);fill:#E48900;}
	.st24{clip-path:url(#SVGID_2_);fill:#E5ECEC;}
	.st25{clip-path:url(#SVGID_2_);fill:#F3F0F0;}
	.st26{clip-path:url(#SVGID_2_);fill:#EAEFEF;}
	.st27{clip-path:url(#SVGID_2_);fill:#F5FAFA;}
	.st28{clip-path:url(#SVGID_2_);fill:#F5EFED;}
	.st29{clip-path:url(#SVGID_2_);fill:#EAEEEE;}
	.st30{clip-path:url(#SVGID_2_);fill:#E5EBE6;}
	.st31{clip-path:url(#SVGID_2_);fill:#ED8A03;}
	.st32{clip-path:url(#SVGID_2_);fill:#E4E8E8;}
	.st33{clip-path:url(#SVGID_2_);fill:#120E00;}
	.st34{clip-path:url(#SVGID_2_);fill:#231F1F;}
	.st35{clip-path:url(#SVGID_2_);fill:#090808;}
	.st36{clip-path:url(#SVGID_2_);fill:#1F1313;}
	.st37{clip-path:url(#SVGID_2_);fill:#262121;}
</style>
<g>
	<defs>
		<rect id="SVGID_1_" x="-1693.7" y="-276" width="1920" height="1080"/>
	</defs>
	<clipPath id="SVGID_2_">
		<use xlink:href="#SVGID_1_"  style="overflow:visible;"/>
	</clipPath>
	<path class="st0" d="M99,61.5c6.3,12.2,7.9,24.5,5.1,37.5c-0.8,3.8-2,7.4-3.8,10.8c-1.3,2.3-3.1,3.6-5.7,3.7
		c-2.1,0.1-4.2,0.1-6.2,0.1c-1.7,0.1-2.1,0.4-2.1,1.9c0,5.6,0,11.2,0,16.8c0,1,0.6,1.4,1.5,1.4c2.6-0.1,5.1,0.1,7.5,1.1
		c2.5,1,4.4,2.6,5.3,5.2c0.3,0.9,0.8,1.8,1,2.7c0.5,2.7,1.9,4.4,4.3,5.8c2.4,1.4,3.6,4,4.5,6.6c1.4,4.4,1.6,8.8,0.8,13.3
		c-0.6,3.5-2.4,6.3-5.2,8.3c-1.6,1.1-2.2,2.5-2.5,4.3c-0.4,2.7-1.1,5.3-1.8,7.9c-1.1,4.5-4.1,7.1-8.5,8.1c-0.6,0.1-1.2,0.3-1.9,0.4
		c-0.9,0.2-1.4,0.6-1.2,1.6c0.3,1.5,0.2,3.2,1.4,4.5c1.4,1.7,1.8,3.7,1.7,5.9c-0.1,1.4,0.5,2.4,1.4,3.4c2.6,2.9,4.1,6.4,5.3,10.1
		c2.2,6.5,3.7,13.2,4.7,20c2.3,15.6,2.2,31.2,1.4,46.9c-0.2,3.8-0.4,7.7-0.5,11.5c-0.1,7.2-1.2,14.3-2.1,21.4
		c-0.4,3.2-2.2,5.7-5.1,7.2c-1.4,0.7-1.7,1.7-1.6,3.1c0.2,1.9,0.3,3.8,0.4,5.7c0.5,6.7,1,13.4,1.5,20c0.4,5.3-1.3,9.7-5,13.4
		c-5.6,5.6-11.8,10.4-18.6,14.2c-6.5,3.7-13.6,3.3-20.2-0.2c-2.2-1.2-4.3-2.8-6.2-4.5c-1.4-1.3-2.6-2.1-4.6-1.8
		c-2.6,0.4-5.1-0.1-7.6-0.8c-8.4-2.3-13.6-9.7-12.6-18.4c0.3-2.7,1.2-5.3,1.9-7.9c0.6-2.2,1-4.2,0.9-6.5c-0.3-5.1,0.6-10.2,2.6-15
		c0.4-0.9,0.7-1.8,1.2-2.6c0.4-0.8,0.2-1.6-0.4-2.1c-2.2-2-2.5-4.6-2.9-7.3c-1.2-9.4-1.2-18.8-0.9-28.2c0.6-16.1,1.4-32.2,4.4-48.1
		c1.5-7.6,3.3-15,7.1-21.8c0.5-0.8,0.8-1.8,1.4-2.5c1.5-1.9,2.8-3.8,2.1-6.5c-0.2-0.7,0.1-1.6,0.3-2.3c1.3-3.9,2.6-7.8,4.1-11.7
		c0.4-1,0.4-1.8,0.1-2.7c-0.6-2.1-1.3-4.3-1.6-6.5c-0.6-4.9,0.5-9.6,3.1-13.8c1.2-2,1.8-3.9,1.2-6.3c-0.5-1.8-0.3-3.8-0.3-5.7
		c-0.1-12.6-0.1-25.2-0.1-37.9c0-0.3-0.2-0.5-0.3-0.8c-1.2-0.3-1.6,0.8-2.2,1.4c-5.2,4-12,4.2-17.4,0.5c-3-2.1-5-4.6-6.3-8.1
		C17.3,106,12.5,94,8,81.9c-1.2-3.3-2.4-6.6-3.5-9.9c-2.1-6.4-0.3-12,4.3-16.7c2.5-2.5,5.6-3.6,9.1-3.5c1.4,0.1,2.4-0.2,3.4-1.3
		c7.1-8.2,15.7-14.5,24.6-20.4C61.5,19.9,78.3,12.1,95.9,6.3c6.2-2,12.6-3.3,19-4.7c2.8-0.6,5.7-0.9,8.5-1.1
		c3.8-0.4,6.4,1.4,7.2,4.8c0.2,1,0.1,2.2-0.2,3.2c-0.5,1.8-1.2,3.7-2.1,5.3c-6.6,12-12.9,24.3-20.7,35.6
		C104.9,53.5,101.9,57.4,99,61.5"/>
	<path class="st1" d="M92.9,62.1c7,10,8.6,20.7,7.1,32c-0.4,3-1.2,6-1.9,8.9c-0.3,1.2-1,2.4-1.4,3.5c-0.8,2-2.2,3-4.5,2.9
		c-2.1-0.1-4.2-0.1-6.2-0.1c-0.8,0-1.6-0.2-2.4-0.1c-1.9,0.1-2.5,0.8-2.5,2.7c0,6.2,0,12.5,0,18.7c0,2.2,0,4.5,0.1,6.7
		c0,1.1,0.6,1.8,1.8,1.8c2.1,0,4.2,0,6.2,0.1c1.3,0.1,2.5,0.2,3.8,0.5c1.6,0.4,2.9,1.4,3.4,3.1c0.6,2.1,1.3,4.3,1.8,6.4
		c0.3,1.3,0.7,2.3,2.4,2.6c2.7,0.4,4.1,2.3,5,4.7c1.5,4,1.4,8.2,0.6,12.3c-0.4,2.3-2,4.1-4.1,5c-2,0.8-2.5,2.1-2.8,4
		c-0.4,2.5-1,5-1.5,7.5c-0.2,0.8-0.4,1.6-0.6,2.3c-1.2,3.7-3.1,5.3-6.9,5.4c-2.4,0.1-4.8-0.2-7.2-0.2c-0.5,0-1.1,0.3-1.5,0.7
		c-0.2,0.2,0.1,0.9,0.3,1.2c0.5,0.7,1.2,1.1,1.5,1.8c0.8,1.6,1.7,3.2,1.9,4.8c0.3,2.2,0.2,4.3,2.2,5.9c1.1,1,0.9,2.7,0.5,4.1
		c-0.4,1.5,0.1,2.4,1.1,3.4c3.4,3.1,5.2,7.3,6.5,11.6c2.7,8.9,4.5,18,5.1,27.2c0.9,12.8,0.9,25.5,0.1,38.3
		c-0.3,3.8-0.1,7.7-0.4,11.5c-0.5,6.4-1.3,12.7-2,19c-0.3,2.1-1.7,3.6-3.6,4.2c-3.4,1-3.6,3.1-3.2,6.2c0.9,7.9,1.4,15.9,2,23.9
		c0.1,1.3,0.1,2.6,0.2,3.8c0.2,3-0.9,5.7-2.9,7.9c-1.7,1.9-3.6,3.7-5.6,5.2c-3.5,2.8-7.1,5.4-10.8,8c-5.7,3.9-11.7,3.8-17.7,0.7
		c-2.2-1.2-4.3-2.8-6-4.7c-1.7-2-3.3-2.6-5.8-2.2c-1.7,0.3-3.5,0.2-5.3,0c-6.6-0.7-11.9-5.8-11.2-13c0.3-2.8,1.1-5.6,1.9-8.4
		c0.7-2.3,1.1-4.5,0.9-7c-0.6-6.9,1.6-13.2,5.1-19.1c0.9-1.5,0.8-1.6-0.6-2.6c-0.3-0.2-0.5-0.4-0.8-0.5c-2.1-1.2-2.8-2.9-3.1-5.4
		c-1.4-11-1.3-22-0.7-33c0.4-6.7,0.8-13.4,1.3-20.1c0.6-8.4,1.6-16.9,3.4-25.1c1.8-8.5,4.5-16.7,10.4-23.4c0.6-0.7,0.7-1.4,0.3-2.2
		c-1.3-2.6-0.6-4.9,1-7.2c0.5-0.7,1.1-1.7,1-2.5c-0.1-2.6,0.7-4.7,2.4-6.6c0.9-1,0.7-2,0.1-3c-1.2-2.3-2-4.7-2.3-7.3
		c-0.4-4.5,0.7-8.6,3.3-12.2c1.4-2,1.7-3.9,1.4-6.2c-0.5-4.9-0.8-9.9-0.8-14.8c-0.1-13.7,0-27.5,0-41.2c0-1.1,0-2.2,0-3.4
		c0-1-0.6-1.4-1.5-1.4c-1.1,0-2.3-0.1-3.3,0.2c-2,0.5-2.9,1.7-2.9,3.8c0,0.6,0.1,1.3,0.1,1.9c0.1,3.7-1.5,6.5-4.7,8.2
		c-3.5,1.8-6.7,1.3-9.8-1c-2.1-1.6-3.6-3.4-4.5-5.9c-5.6-15.1-11.2-30.2-16.8-45.4C7.6,67,8.6,63.3,11.4,60c2.3-2.6,5.1-3.8,8.6-2.7
		c1.2,0.4,2.1,0.4,2.9-0.7c5.6-7.3,12.7-13,20.2-18.3C62.6,24.6,83.9,14.6,107,8.5c5.1-1.3,10.3-2.2,15.6-2.6
		c0.6-0.1,1.3-0.1,1.9-0.1c0.8,0,1.5,0.8,1.2,1.7c-0.6,1.8-1.2,3.7-2.1,5.3c-4.8,8.7-9.4,17.5-14.5,25.9
		c-4.1,6.7-8.8,12.9-13.3,19.4C94.8,59.4,93.9,60.7,92.9,62.1"/>
	<path class="st2" d="M43.1,356c-2.6-1-4-3.1-5.2-5.3c-0.6-1-0.7-2.4-0.8-3.6c-0.1-7.1,2.2-13.4,6.4-19.1c2.7,0.7,5.3,1.6,7.9,2
		c7.1,1.1,14.3,1.5,21.4,0.9c2.5-0.2,5.1-0.3,7.6-0.4c4.5,6.5,4.9,14,4.7,21.4c-0.1,3.2-3.7,4.9-7.3,4.6c-2-0.2-3.6-1.3-5.4-1.9
		c-1.4-1.3-2.7-2.5-4.1-3.8c-1.2-1.1-1.6-2.2-0.6-3.7c0.2-0.3-0.1-1.4-0.4-1.6c-0.3-0.2-1.2,0-1.6,0.3c-1.5,1.1-2.8,2.4-4.3,3.6
		c-2.6,1.1-4.7,3.1-7.2,4.4C50.8,355.5,47.1,356.5,43.1,356"/>
	<path class="st3" d="M70,166.2c-4,0.4-7.9,1.3-11.3,3.4c-0.8,0.5-1.5,0-1.5-1c0-2.4,0.2-4.8,0.2-7.2c0.1-15.8,0.1-31.6,0.1-47.4
		c0-1.1-0.1-2.3,0.1-3.3c0.1-0.5,0.7-1,1.1-1.2c0.4-0.2,0.9-0.1,1.4-0.1c2.8,0.1,5.7,0.3,8.5,0.4c1.4,2.7,0.5,5.6,0.5,8.4
		c0,5.6,0.4,11.2,1.2,16.7c0.1,0.4,0.5,0.8,0.7,1.1c0.3-0.4,0.8-0.8,0.9-1.3c0.3-0.9,0.5-1.8,0.7-2.7c2.5,4.3,1.6,8.7,0.7,13.2
		c-2,2.1-2.1-0.5-3.4-1.6c0.7,1.7,2.1,2.3,2.6,3.4C73.6,153.7,72.2,160,70,166.2"/>
	<path class="st4" d="M40.5,111.8c-0.4,1.7-0.7,3.5-1.4,5.1c-1,2.3-3.9,2.8-5.5,1c-1-1.2-1.7-2.7-2.3-4.1
		c-4.8-12.2-9.5-24.4-14.2-36.5c-0.9-2.4-1.9-4.8-3-7c-1.1-2.1-0.8-4,0.2-5.9c1.4-2.6,3.4-3.1,5.9-1.5c2,1.2,3.2,2.9,4,5.2
		c4.5,12.4,9.2,24.8,13.8,37.2c0.6,1.5,1.2,2.9,1.8,4.4C40.1,110.2,40.3,111,40.5,111.8"/>
	<path class="st5" d="M77.6,103.7c-8.5,0.5-18.2,0.4-22.2-0.3c1.4-1.9,3.2-3.2,4.7-4.7c1.6-1.6,3.2-3.1,4.8-4.7
		c1.6-1.6,3.1-3.2,4.7-4.8c1.4-1.5,2.8-3,4.2-4.6c1.5-1.6,3-3.3,4.5-5c1.5-1.7,3-3.3,4.7-5.2c0.7,0.8,1.4,1.5,1.8,2.2
		c2,3.7,2.7,7.8,3.2,12c0.2,1.6,0.5,3.1,0.9,4.7c0.3,1,0.5,1,2,0c1.4,3.6,0.1,6-3.4,7.5C84.4,102,80.9,102.4,77.6,103.7"/>
	<path class="st6" d="M58,325.2c7.4-1.6,13.9-3.1,20.4-4.5c0.3-0.1,0.6-0.1,0.9-0.2c3-1.1,6-2.1,9-3.2c1.3-3,1.5-6.1,1.8-9.3
		c0.8-7.6,1.6-15.2,2.2-22.8c0.2-2.8,0-5.7,0-8.6c0-1.6,0-3.2,0.1-4.8c0.1-0.6,0.5-1.2,0.9-1.6c0.3-0.3,0.9-0.4,1.3-0.3
		c0.4,0.1,0.8,0.6,0.8,0.9c0.1,1.1,0.1,2.2,0.1,3.3c-0.3,7.3-0.5,14.7-0.8,22c-0.2,5.4-0.5,10.8-0.7,16.3c-0.1,2.2,0,4.5,0.3,6.7
		c0.1,1.2-0.4,1.8-1.3,2.2c-3.4,1.6-7,2.2-10.6,2.8c-7.3,1.1-14.6,1.7-21.9,1.3C59.9,325.5,59.2,325.3,58,325.2"/>
	<path class="st7" d="M83.9,217.6c3.3,1.9,4.8,4.9,5.7,8.1c3.4,12.2,5.5,24.6,5.7,37.3c0,0.5,0,1,0,1.4c0,0.9-0.5,1.5-1.4,1.6
		c-6,0.7-11.7,2.8-17.9,2.8c-5.7-0.1-11.5-0.1-17.2-0.2c-0.5,0-1.1-0.1-1.6-0.5c2.2-0.3,4.3-0.6,6.5-0.8c5-0.5,9.7-1.9,14.4-3.4
		c3.6-1.2,7.3-2.3,10.9-3.5c1.3-0.4,1.9-1.1,1.8-2.4c-0.1-3.8,0.1-7.7-0.2-11.5c-0.4-4.4-1-8.9-1.7-13.3c-0.8-4.7-2.1-9.3-4.2-13.7
		C84.5,218.9,84.2,218.2,83.9,217.6"/>
	<path class="st8" d="M73.6,194.9c-2.4,2.4-5.5,3.1-8.7,3.2c-4.7,0.1-7.8-2.1-9.6-6.5c-1.3-3.3-1.3-6.5,0.1-9.8
		c1.6-3.6,3.9-6.5,7.6-8.1c9.1,1.7,12.7,7.1,10.7,16C73.3,191.5,73.4,193.2,73.6,194.9"/>
	<path class="st9" d="M118.8,10.3c-1.1,2-1.7,3.5-2.6,4.6c-0.7,0.7-1.9,1.1-2.9,1.4c-3.9,1-7.8,1.6-11.6,2.7
		c-12.8,3.8-24.7,9.3-35.7,16.9c-1.3,0.9-2.6,1.7-4.1,2.7c-0.7-1.6-1.2-2.9-1.9-4.4C78.2,23.4,97.7,15.8,118.8,10.3"/>
	<path class="st10" d="M64.3,362.9c0-3.1,0.6-5.9,2-8.7c0.5,0.2,0.8,0.3,1,0.5c3.2,3.6,7.3,5.6,11.7,7.1c1.5,0.5,3.1,0.7,4.6,1.1
		c0.8,0.2,2.1-0.4,2.4,0.8c0.1,0.6-0.6,1.4-1.2,1.9c-1.5,1.3-3.2,2.6-4.8,3.8c-0.3,0.1-0.6,0.2-0.9,0.3
		C70,374.9,66.2,373.1,64.3,362.9"/>
	<path class="st11" d="M77.6,103.7c0.6-1,1.5-1.5,2.6-1.9c2.7-0.8,5.3-1.8,8-2.7c1-0.3,1.6-0.8,1.8-1.9c0.2-1.4,0.6-2.7,0.9-4.1
		c1.8-8.2-0.4-15.4-5-22.4c1.1-1.4,2.1-2.7,3.3-4.2c1.6,1.3,2.2,3,2.8,4.5c1.5,3.5,2.4,7.3,2.7,11.1c0.6,6.7,0.4,13.4-0.7,20
		c-0.3,1.7-0.4,1.8-2.1,1.8C87.1,104.3,82.4,104.5,77.6,103.7"/>
	<path class="st12" d="M68.9,67.2c-3-2.4-4.4-5.3-5.6-8.1c-1.8-4.2-3.5-8.6-5.1-12.9c-1.4-3.5-2.6-4.3-6.1-3
		c-2.4,0.8-4.8,1.9-6.8,3.4C41,49.9,36.9,53.4,32.8,57c-1.9,1.7-3.7,3.6-5.5,5.3c-0.2,0.1-0.6,0.1-0.8,0c-0.1-0.1-0.2-0.6-0.1-0.7
		c1.6-2,3-4.1,4.8-5.9c7.5-7.5,16-13.6,25-19.2c1.2-0.7,1.7-0.5,2.2,0.6c3.4,9.3,6.8,18.5,10.2,27.8C68.6,65.4,68.7,66,68.9,67.2"/>
	<path class="st13" d="M71.8,145.9c0.2-0.4,0.6-0.8,0.7-1.2c0.1-4.2,0.2-8.4,0.3-12.7c0.3-5.6,0.6-11.1,0.8-16.7
		c0.1-1.4,0.1-2.9,0.1-4.3c0-0.8,0.2-1.7,1.3-1.5c1.1,0.1,0.9,1.1,1,1.8c0,0.2,0,0.3,0,0.5c0,17.4,0,34.7,0,52.1
		c0,3.5-0.1,4-3.7,2.8c-0.4-0.1-0.7-0.2-1.1-0.3c-0.4-0.1-0.8-0.2-1.2-0.2c0.1-1.9,0.2-3.8,0.4-5.7
		C71.1,155.7,72.3,150.9,71.8,145.9L71.8,145.9z"/>
	<path class="st14" d="M73.6,194.9c-1-0.2-1.9-0.7-1.7-1.9c0.2-1.4,0.3-2.9,0.9-4.1c2.9-6.2-1.9-10.9-6.1-13.1
		c-1.2-0.6-2.8-0.7-3.6-2.1c2.6-2,5.6-2.3,8.6-1.8c4.6,0.7,7,2.8,7.7,7.8C80.2,185.7,78.8,191.1,73.6,194.9"/>
	<path class="st15" d="M43.7,320.1c1.3-6.2,1.6-11.9,2-17.6c0.7-9.9,1.4-19.8,0.7-29.7c0-0.6,0.1-1.3,0.2-1.9
		c0.1-0.2,0.5-0.3,0.8-0.4c0.1,0,0.3,0.1,0.3,0.2c0.3,0.7,0.7,1.5,0.7,2.2c0,2.7,0.1,5.4-0.1,8.2c-0.9,12.9-0.6,25.9-0.3,38.8
		c0,1,0.2,1.9,0.1,2.9c0,0.3-0.7,0.8-1,0.8c-3.7-0.4-7.1-1.8-10.2-3.9c-1.2-0.8-0.8-2-0.5-3c0.1-0.3,0.8-0.6,1-0.5
		c1.4,0.8,2.7,1.7,4,2.6C42.1,319.1,42.6,319.4,43.7,320.1"/>
	<path class="st16" d="M45.6,263c1.5-4.4,1.5-8.8,2.1-13c1.2-8.8,2.4-17.7,4.5-26.4c0.1-0.6,0.3-1.2,0.4-1.9
		c0.6-2.1,0.7-2.1,3.6-1.4c-2,5.7-3.8,11.5-4.8,17.5c-1.5,8.3-2.6,16.7-2.7,25.1c0,1,0,1.9-0.1,2.9c-0.1,1.2-0.7,1.6-2,1.2
		c-2-0.6-4-1.2-5.9-1.9c-2.4-0.8-2.5-1.1-2.3-3.4c0.2-2.7,0.7-2.9,3.1-1.4C42.8,261.3,44.2,262.1,45.6,263"/>
	<path class="st14" d="M65.5,207.9c-2.1-0.1-4-0.2-5.9-0.4c-1.4-0.2-2.8-0.6-4.1-1.1c-2.2-0.8-2.5-2.1-1.1-4.1
		c0.6-0.9,1.3-1.2,2.4-0.7c7.3,3.5,13.9,2,20-2.9c0.6-0.5,1.2-1.2,2-0.7c1.3,0.8,2.6,4.1,2,5.5c-0.3,0.7-0.9,1.5-1.5,1.7
		c-2.4,0.9-4.8,1.7-7.3,2.2C69.8,207.8,67.6,207.7,65.5,207.9"/>
	<path class="st17" d="M63.3,216.1c-2.2,0-4.5,0.1-6.7,0c-1.4-0.1-2.8-0.5-4.2-1c-0.7-0.2-1.4-0.8-1.9-1.4c-0.7-0.8-0.8-1.7-0.2-2.6
		c0.6-1,1.4-1.2,2.4-0.7c4.2,1.8,8.6,2.1,13.1,2c5.9-0.1,11.8-0.4,16.8-4.3c0.4-0.4,1.1,0.3,1.3,1c0.3,1.1-0.2,1.9-0.8,2.6
		c-1.1,1.4-2.6,2.4-4.4,2.7c-3.3,0.6-6.6,1.3-9.9,1.7C67.2,216.2,65.2,216,63.3,216.1C63.3,216,63.3,216,63.3,216.1"/>
	<path class="st18" d="M72.5,354.4c0.9,0.1,1.9,0.3,2.8,0.4c1.3,0.1,2.5,0.4,3.8,0.3c4.4-0.3,5.3-1.2,5-5.6
		c-0.1-2.9-0.5-5.7-1.1-8.5c-0.7-3.6-1.7-7.1-2.5-10.7c0.7-0.3,1.5-0.7,2.2-0.8c0.7-0.1,1.5,0,2.5,0c0.2,1.9,0.4,3.8,0.6,5.7
		c0.6,7.5,1.2,15,1.7,22.4c0.2,2.1-0.3,2.5-2.5,2.2C80.4,359,76.1,357.5,72.5,354.4"/>
	<path class="st19" d="M51.7,371.1c3.1-4.3,6-8.4,9-12.5c1.1,0.2,0.7,1,0.6,1.5c-0.9,5.2-1.1,10.4-0.1,15.7c0.1,0.4-0.1,1-0.4,1.2
		c-0.3,0.2-1,0.1-1.3-0.2C56.9,374.9,54.4,373,51.7,371.1"/>
	<path class="st20" d="M64.3,362.9c0.7,1.6,1.4,3.2,2.2,4.7c2,3.9,4.4,4.9,8.6,3.6c1.7-0.5,3.3-1.2,4.9-1.7c-1,0.8-1.9,1.6-2.9,2.4
		l-0.1,0.1c-1.9,1.4-3.8,2.9-5.8,4.1c-1.3,0.8-2.8,1.4-4.3,1.9c-1.6,0.5-2.2,0-2.5-1.8C63.7,371.8,63,367.4,64.3,362.9"/>
	<path class="st21" d="M36.1,366.9c-1.6-1.2-1.9-3-1.7-4.7c0.2-2.7,0.6-5.4,1-8.6c2,1.8,3.5,3.4,5.2,4.7c1.8,1.3,3.8,2.3,5.7,3.4
		C44.4,365.8,41,367.5,36.1,366.9"/>
	<path class="st22" d="M84.4,247.4c-0.1,0.8-0.1,1.3-0.2,1.8c-0.2,0.9-1.1,1.6-2.1,1.6c-0.9-0.1-1.6-0.6-1.7-1.4
		c-0.3-1.7-0.7-3.5-0.6-5.2c0.5-6.2-1.3-11.9-3.6-17.5c-0.2-0.5-0.2-1.2-0.2-1.8c0-0.1,0.2-0.3,0.3-0.3c0.3-0.1,0.7-0.2,0.9-0.1
		c0.4,0.3,0.7,0.6,0.9,1.1c0.9,1.9,1.8,3.7,2.4,5.7c1.2,4,2.2,8,3.2,12C84,244.5,84.2,246.1,84.4,247.4"/>
	<path class="st23" d="M92.5,149.3c1.5,2.6,1.6,4.9,1.2,7.3c-0.4,2-0.6,4.1-0.9,6.1c-0.3,2.7-0.1,5.4,1,7.9c1.2,2.6,1,5.3-0.1,7.9
		c-0.1,0.3-0.7,0.5-1,0.8c-0.2-0.3-0.6-0.7-0.7-1c-0.4-2.2-1-4.4-1.1-6.6c-0.2-4.5-0.3-8.9-0.3-13.4
		C90.5,155.4,91.7,152.6,92.5,149.3"/>
	<path class="st24" d="M54.6,256.9c0.1-1.9,0.7-3.3,1.9-4.5c0.9-0.9,1.9-1.1,3-0.8c0.7,0.2,1.5,0.5,2.2,0.8c2.4,1,3.7,3.3,3.3,5.6
		c-0.4,2.3-2.6,4.3-4.9,4.5c-2.2,0.2-4.1-1.2-5-3.6C54.8,258.2,54.7,257.5,54.6,256.9"/>
	<path class="st20" d="M43.1,356c0.5-0.3,1-0.7,1.6-0.8c4.4-0.2,8.2-1.8,11.8-4.2c1-0.7,2.1-1.3,3.3-1.8c0.5-0.2,1.2,0,1.7,0
		c-2.2,2.7-4.4,5.3-6.5,8.1c-1.1,1.4-2.4,1.9-4.1,1.7C48,358.7,45.4,357.7,43.1,356"/>
	<path class="st25" d="M89.7,145.4c-0.5,2.1-1,4.2-1.5,6.4c-0.7,2.7-0.7,2.7-3.5,2.7c-3.8,0.1-4.2-0.3-3.5-4c1.2-6,1.8-6.4,7.9-5.5
		C89.3,145,89.4,145.1,89.7,145.4"/>
	<path class="st26" d="M64.2,281.6c0,2.2-1.4,3.9-3.5,5c-2,1-4.4,0.6-5.7-0.9c-1.3-1.6-1.6-4.1-0.2-5.7c1.1-1.3,2.6-2.3,4.1-3.1
		c0.7-0.4,1.9-0.1,2.7,0.3C63.4,277.9,64.2,279.4,64.2,281.6"/>
	<path class="st7" d="M86,170.8h-5.1c-0.3-1.9,0.2-3.8,0.1-5.6c0-1.9,0-3.8,0.2-5.7c0-0.4,0.8-0.9,1.3-1c0.9-0.1,1.9-0.1,2.8,0.1
		c0.4,0.1,1.1,0.8,1.1,1.2c0.1,3,0,6.1-0.1,9.1C86.3,169.5,86.1,170.1,86,170.8"/>
	<path class="st27" d="M82.3,174.2c1.1-0.1,2.1-0.3,3-0.2c0.5,0.1,1.2,0.6,1.4,1c1,4,2,8,3,12.2h-6.1
		C84.4,182.7,84.1,178.5,82.3,174.2"/>
	<path class="st28" d="M36.1,366.9c3.8-0.9,7.5-2.1,10.2-5.2c1.4,0.1,2.8,0.2,4.2,0.3C48.5,369.8,41.3,371.4,36.1,366.9"/>
	<path class="st29" d="M74.4,51.2c-1.9,0.1-3.4-1.3-3.5-3c0-1.9,1.6-3.6,3.6-3.7c1.7-0.1,3.4,1.4,3.5,3.2
		C78,49.6,76.6,51.1,74.4,51.2"/>
	<path class="st15" d="M55.8,59c0,1.9-1.6,3.5-3.3,3.4c-1.6-0.1-2.9-1.6-2.9-3.2c0-1.9,1.4-3.4,3.3-3.3C54.6,55.9,55.8,57.2,55.8,59
		"/>
	<path class="st30" d="M95.8,161.6c0.1-1.2,0.1-2.5,0.3-3.7c0.1-0.8,0.9-1.4,1.7-1.2c0.7,0.1,1.6,0.4,1.9,0.9c1,1.6,1.1,3.6,0.8,5.5
		C98.3,164.9,97.1,163,95.8,161.6"/>
	<path class="st31" d="M95.8,161.6c1.5,0.9,3,1.5,4.7,1.4c0,1.1,0.1,2.2,0,3.3c-0.1,1.2-1,1.9-2.1,2.2c-0.7,0.2-1.3,0.1-1.6-0.5
		C96,166,95.4,163.8,95.8,161.6"/>
	<path class="st32" d="M74.9,238.4c-0.2,0.6-0.3,1.3-0.6,1.8c-0.4,0.8-1.7,1.2-2.5,0.8c-1.4-0.8-2.3-3-1.5-4.5
		c0.3-0.6,1.2-1.2,1.8-1.2c0.7,0,1.5,0.4,2,1C74.6,236.7,74.7,237.6,74.9,238.4"/>
	<path class="st3" d="M71.2,166.5c0.4,0.1,0.7,0.2,1.1,0.3C71.9,166.6,71.5,166.6,71.2,166.5"/>
	<polygon class="st10" points="77.1,372 77,371.8 77.2,371.8 77.2,372 	"/>
	<path class="st33" d="M71.8,145.9c-1.1,0-2.3,0.6-3-0.6c-0.4-0.6-0.7-1.4-0.7-2.2c0-1.2,0.9-2,2.1-2.1c1.1-0.1,2,0.8,2,2.1
		C72.1,144.1,71.9,145,71.8,145.9C71.8,145.9,71.8,145.9,71.8,145.9"/>
	<path class="st34" d="M85.2,87.4c0,0.8,0,1-0.1,1.1c-0.4,1-0.9,1.9-1.3,2.9C82.3,91.2,82.3,90,82,89c-0.4-1.7-0.8-3.4-1-5.1
		c-0.1-0.5,0.4-1.2,0.8-1.5c0.8-0.6,1.7,0,1.9,0.7C84.4,84.7,84.8,86.3,85.2,87.4"/>
	<path class="st35" d="M60.3,185c0-1.8,1.3-4.1,3.6-5.8c0.6-0.4,1.4-0.6,2.2-0.7c1.4-0.1,2.4,1.5,1.7,2.6c-0.5,0.8-1.3,1.4-1.7,2.2
		c-0.4,0.8-0.8,1.7-0.9,2.6c-0.1,1,0.2,1.9,1.2,2.4c0.9,0.4,1.8,0.6,2.6,1c1,0.4,1,1.6,0.1,2.3c-2.1,1.7-4.5,1.7-6.4-0.1
		C61,190.2,60.2,188.3,60.3,185"/>
	<path class="st36" d="M59.1,255.5c1.5,0,2.8,1.2,2.7,2.6c-0.1,1.3-1.1,2.2-2.5,2.3c-1.6,0.1-2.8-1.1-2.7-2.6
		C56.7,256.5,57.8,255.5,59.1,255.5"/>
	<path class="st37" d="M59,279.5c1.5-0.1,2.9,1.2,2.8,2.5c-0.1,1-1.2,2-2.3,2.1c-1.6,0.1-3.1-1-3.1-2.3
		C56.4,280.7,57.6,279.5,59,279.5"/>
</g>
</svg>
