<?xml version="1.0" encoding="utf-8"?>
<!-- Generator: Adobe Illustrator 22.1.0, SVG Export Plug-In . SVG Version: 6.00 Build 0)  -->
<svg version="1.1" id="Capa_1" xmlns="http://www.w3.org/2000/svg" xmlns:xlink="http://www.w3.org/1999/xlink" x="0px" y="0px"
	 viewBox="0 0 129.4 357" style="enable-background:new 0 0 129.4 357;" xml:space="preserve">
<style type="text/css">
	.st0{clip-path:url(#SVGID_2_);fill:#FFFFFF;}
	.st1{clip-path:url(#SVGID_2_);}
	.st2{clip-path:url(#SVGID_2_);fill:#FD9800;}
	.st3{clip-path:url(#SVGID_2_);fill:#FEFEFE;}
	.st4{clip-path:url(#SVGID_2_);fill:#CCCCCC;}
	.st5{clip-path:url(#SVGID_2_);fill:#CBCCCC;}
	.st6{clip-path:url(#SVGID_2_);fill:#F8FAFA;}
	.st7{clip-path:url(#SVGID_2_);fill:#FB9701;}
	.st8{clip-path:url(#SVGID_2_);fill:#F4F4F3;}
	.st9{clip-path:url(#SVGID_2_);fill:#F7F8F8;}
	.st10{clip-path:url(#SVGID_2_);fill:#F2F3F3;}
	.st11{clip-path:url(#SVGID_2_);fill:#F5F6F6;}
	.st12{clip-path:url(#SVGID_2_);fill:#EFF0F0;}
	.st13{clip-path:url(#SVGID_2_);fill:#FBFBFB;}
	.st14{clip-path:url(#SVGID_2_);fill:#F5F8F8;}
	.st15{clip-path:url(#SVGID_2_);fill:#F6F8F8;}
	.st16{clip-path:url(#SVGID_2_);fill:#F4F9F9;}
	.st17{clip-path:url(#SVGID_2_);fill:#FAFBFB;}
	.st18{clip-path:url(#SVGID_2_);fill:#EAEBEB;}
	.st19{clip-path:url(#SVGID_2_);fill:#DD8500;}
	.st20{clip-path:url(#SVGID_2_);fill:#F9FDFD;}
	.st21{clip-path:url(#SVGID_2_);fill:#EFF3F3;}
	.st22{clip-path:url(#SVGID_2_);fill:#DFE7E7;}
	.st23{clip-path:url(#SVGID_2_);fill:#F2F0EB;}
	.st24{clip-path:url(#SVGID_2_);fill:#E5E7E7;}
	.st25{clip-path:url(#SVGID_2_);fill:#F59000;}
	.st26{clip-path:url(#SVGID_2_);fill:#E2E6E6;}
	.st27{clip-path:url(#SVGID_2_);fill:#DFE2E2;}
	.st28{clip-path:url(#SVGID_2_);fill:#F1F0E5;}
	.st29{clip-path:url(#SVGID_2_);fill:#F5F0E4;}
	.st30{clip-path:url(#SVGID_2_);fill:#D0D0D0;}
	.st31{clip-path:url(#SVGID_2_);fill:#D3D9CB;}
	.st32{clip-path:url(#SVGID_2_);fill:#B8B7B7;}
	.st33{clip-path:url(#SVGID_2_);fill:#090805;}
	.st34{clip-path:url(#SVGID_2_);fill:#231400;}
	.st35{clip-path:url(#SVGID_2_);fill:#262424;}
	.st36{clip-path:url(#SVGID_2_);fill:#0B0909;}
	.st37{clip-path:url(#SVGID_2_);fill:#201D1D;}
	.st38{clip-path:url(#SVGID_2_);fill:#151111;}
	.st39{clip-path:url(#SVGID_2_);fill:#869B9B;}
</style>
<g>
	<defs>
		<rect id="SVGID_1_" x="-1543.9" y="-274.3" width="1920" height="1080"/>
	</defs>
	<clipPath id="SVGID_2_">
		<use xlink:href="#SVGID_1_"  style="overflow:visible;"/>
	</clipPath>
	<path class="st0" d="M33.1,62.6c-3.3-4.7-6.7-9.3-9.9-14.1c-3.1-4.7-6-9.4-8.8-14.2c-3.4-5.9-6.7-12-10-18c-1.1-2-1.9-4-2.7-6.1
		c-1.9-5.2,1.4-9.4,7-8.7c5.1,0.6,10.2,1.3,15.1,2.4c25,6,47.8,16.8,68.7,31.6c6.6,4.7,13,9.8,18.3,16.1c0.8,1,1.8,1.2,3,1.1
		c2.8-0.2,5.4,0.7,7.7,2.2c5.1,3.3,8,10.4,6.4,16.4c-1,3.8-2.4,7.6-3.8,11.3c-4.6,12.4-9.4,24.8-13.9,37.2c-1.9,5.4-5.9,8.2-11,9.7
		c-4.6,1.4-8.8,0.1-12.5-2.9c-0.6-0.5-1.1-1-1.7-1.5c-1,1.2-0.6,2.4-0.6,3.4c0,9.1,0.1,18.2-0.1,27.3c-0.1,4.9-0.4,9.9-0.7,14.8
		c-0.1,1.7,0.1,3.1,0.9,4.6c1.1,2.1,2,4.3,2.8,6.6c1.6,4.6,1.1,9.1-0.6,13.6c-0.6,1.6-0.6,3,0.2,4.5c0.7,1.2,0.9,2.7,1.3,4.1
		c0.4,1.2,0.7,2.4,1.1,3.6c0.9,2.4,2.1,4.7,1.3,7.4c-0.3,1.1,0.2,1.8,0.8,2.6c4.8,6.6,7.5,14.1,9.1,21.9c2,9.9,3.4,19.8,4.1,29.9
		c0.9,12.1,1.3,24.2,1.1,36.4c-0.1,5.4-0.7,10.8-1,16.2c-0.2,2.8-1.5,4.8-3.8,6.3c-0.5,0.3-1.1,0.7-1.7,0.9
		c-1.5,0.6-2.1,1.8-2.3,3.3c-0.5,3.6-1.5,7.2-1.8,10.9c-0.5,6.3-4.7,9.4-9.8,11.1c-7.8,2.6-16,3.1-24.2,2c-2.5-0.3-5-1-7.5-1.5
		c-5.6-1.3-9.4-4.5-11.2-10c-1-3-2.2-6-3.1-9.1c-0.5-1.8-1.4-3.1-3.2-3.8c-1-0.4-2-1-3-1.6c-2.8-1.7-4.1-4.3-4.6-7.5
		c-2.8-21-3.3-42-2.7-63.1c0.3-11.7,2.3-23.2,5.8-34.4c1.3-4.3,2.9-8.5,6-11.9c0.9-1,1.2-2.1,1.3-3.5c0-2.1,0.5-4.1,1.8-5.9
		c1.1-1.6,1.2-3.5,1.5-5.4c-1.7-0.5-3.3-0.8-4.7-1.3c-3.2-1-5.6-3.1-6.6-6.4c-0.8-2.7-1.5-5.5-2.1-8.4c-0.4-2.3-1.1-4.1-3.1-5.6
		c-3.6-2.6-4.9-6.6-5.3-10.9c-0.3-3.7,0.2-7.3,1.5-10.8c1-2.9,2.7-5.5,5.5-7c1.4-0.7,2.3-1.6,2.5-3.2c0.2-1.2,0.8-2.4,1.2-3.6
		c1.3-3.9,4.1-5.9,8-6.6c1.1-0.2,2.2-0.3,3.3-0.3c3.6,0,3.5-0.4,3.5-3.4c0-4.6,0-9.3,0-13.9c0-2.5-0.2-2.6-2.8-2.7
		c-2.1-0.1-4.1-0.2-6.2-0.4c-2.5-0.2-4.1-1.5-5.2-3.7c-1.3-2.6-2.6-5.1-3.1-8c-0.6-3.8-1.6-7.5-1.8-11.3
		C26.2,81.3,27.9,71.6,33.1,62.6"/>
	<path class="st1" d="M79.8,141.1c-0.3,9.1-0.6,18.2-0.9,27.3c-0.1,2.1-0.9,4.2-0.5,6.1c0.3,1.8,1.9,3.3,2.8,4.9
		c2.7,5.1,3,10.4,0.6,15.7c-1.1,2.3-1.9,4.3,0.4,6.4c0.5,0.5,1,1.4,1,2.1c-0.1,3,1.4,5.4,2.7,8c0.7,1.4,0.4,2.8-0.2,4.2
		c-0.4,0.9-0.5,1.8,0.2,2.7c6.9,7.9,9.4,17.6,11.2,27.6c1.5,8.8,2.3,17.7,3.1,26.6c1.1,12.3,1,24.6,0.9,36.9c-0.1,4-0.7,7.9-1,11.9
		c-0.1,1.4-0.8,2.4-1.9,3.1c-0.4,0.3-0.8,0.6-1.2,0.7c-3.7,0.6-4.1,3.4-4.5,6.3c-0.6,4.1-1.4,8.2-2.1,12.3c-0.3,1.7-1.1,2.9-2.5,3.9
		c-2.4,1.8-4.9,2.9-7.8,3.4c-7.8,1.5-15.5,1.7-23.3-0.2c-0.9-0.2-1.8-0.5-2.8-0.8c-3.5-1-5.8-3.3-6.9-6.7c-1.3-3.8-2.7-7.5-3.8-11.3
		c-0.6-2-1.6-3.3-3.8-3.8c-1.3-0.3-2.6-1.2-3.8-2c-1.2-0.8-1.8-2.1-2-3.6c-3.1-21.4-3.4-43-2.7-64.5c0.3-10.2,2.2-20.3,5.2-30.1
		c1.4-4.8,3.3-9.4,7.1-12.8c0.9-0.9,1.1-1.8,0.9-3c-0.4-2.1-0.2-4.1,1.8-5.6c0.4-0.3,0.7-1.1,0.7-1.6c-0.3-3.8,1-6.9,3.7-9.5
		c0.3-0.3,0.4-0.9,0.3-1.2c-0.1-0.3-0.7-0.7-1-0.7c-2.2,0-4.5,0-6.7,0.1c-5,0.2-7.4-2.2-8.3-6.8c-0.6-3.3-1.3-6.6-1.9-9.9
		c-0.2-0.8-0.5-1.5-1.3-1.8c-5.2-2.1-6.2-6.5-6-11.4c0.1-1.7,0.3-3.5,0.8-5.2c0.9-3,2.3-5.7,5.9-6.2c1.2-0.2,1.5-0.9,1.8-1.9
		c0.5-2,1.2-4,1.7-6c0.8-3.1,3.1-4.4,6-4.6c2.4-0.2,4.8,0,7.2-0.1c2,0,2.4-0.4,2.4-2.2c0-8.5,0-16.9,0-25.4c0-1.7-0.5-2.2-2.4-2.2
		c-2.7,0-5.4-0.1-8.1,0.1c-2.6,0.2-4.1-0.9-5.2-3.2c-2-4.3-2.8-8.8-3.3-13.4c-0.7-6.1-0.3-12.1,1.3-18.1c1.1-3.9,2.4-7.6,4.9-10.8
		c1.2-1.6,1.2-1.6,0-3.3c-2.4-3.4-4.8-6.8-7.3-10.1c-6.4-8.5-11.3-17.8-16.5-27c-2-3.5-3.9-7-5.7-10.5c-0.7-1.4-1.3-2.9-1.8-4.4
		C5.8,7.1,6.3,6.4,8.6,6.7c4.9,0.7,9.9,1.1,14.7,2.3c28.3,7.3,53.9,19.8,76.3,38.6c3.3,2.8,6.1,6.1,9,9.3c1.1,1.2,1.9,2,3.6,1.4
		c3.5-1.1,6.4,0.1,8.6,2.7c2.5,2.9,3.7,6.4,2.4,10.2c-1.1,3.2-2.2,6.3-3.4,9.5c-4.5,12.1-9.1,24.2-13.5,36.4c-1.2,3.3-3.3,5.4-6,7.1
		c-5.2,3.3-12.4-0.2-13.2-6.3c-0.2-1.3,0-2.6,0.1-3.8c0.2-1.7-0.8-2.6-2.1-3.4c-1.5-0.8-3.1-0.7-4.7-0.4c-0.3,0.1-0.8,0.6-0.9,1
		c-0.1,0.9-0.1,1.9-0.1,2.9c0,8.9,0,17.9,0,26.8C79.5,141.1,79.7,141.1,79.8,141.1"/>
	<path class="st2" d="M59.5,110.5c4.5-0.1,8.9-0.2,13.4-0.2c1.2,0,1.6,0.6,1.7,1.8c0,0.6,0,1.3,0,1.9c0.1,18.3,0.2,36.7,0.3,55
		c0,0.6-0.1,1.2-0.1,2.1c-2.4-1-4.4-2.2-6.7-2.8c-2.3-0.6-4.7-0.6-7.1-0.8c2.1-2.6,1.8-5.5,1.1-8.6c-1.2-5.9-2.3-11.9-2.2-18
		c3.5-6.4,0.6-13.1,1.1-19.6c0.2-2.3,0.4-4.8-2.1-6.4C58.3,113.3,58.2,111.8,59.5,110.5"/>
	<path class="st3" d="M91.5,112.5c0.2-0.6,0.4-1.3,0.7-2.1c5.2-13.7,10.4-27.4,15.5-41.2c1.1-2.9,2.7-5,5.5-6.2
		c1.2-0.5,2.2-0.3,3.1,0.4c2.2,1.6,2.9,4.7,1.9,7.3c-4,10.1-8.1,20.1-12.1,30.2c-1.8,4.6-3.5,9.2-5.3,13.8c-0.5,1.2-0.9,2.4-1.7,3.4
		c-1.9,2.6-5.3,2.2-6.4-0.8C92.1,115.8,91.9,114.2,91.5,112.5"/>
	<path class="st4" d="M41.4,90.9c1.1,1.1,0.6,3.2,2.5,3.9c1.2-1.4,1.1-3.2,1.4-4.9c0.6-4.3,1.2-8.5,1.9-12.7
		c0.1-0.7,0.5-1.4,0.8-2.1c0.4,0,0.5,0,0.6,0.1c0.1,0,0.3,0.1,0.4,0.2c8.8,10,17.8,19.8,27.6,28.9c-0.6,1.2-1.5,0.9-2.2,0.9
		c-4.9,0-9.9-0.2-14.8-0.2c-3.7,0-7.3,0.4-11,0.5c-3.2,0.1-6.4,0-9.5-0.1c-0.2,0-0.4-0.4-0.6-0.7c1.5-1.5,3.5-1.1,5.4-1.3
		C39.5,98.9,38.9,95.9,41.4,90.9"/>
	<path class="st5" d="M58.5,173.5c2-1.5,4.4-1.3,6.4-0.7c5.6,1.7,9.9,5.1,12,10.8c1.5,4.1,0.8,7.9-1.5,11.4c-1.9,2.9-4.9,4.2-8.2,4
		c-4.2-0.2-8.1-1.5-10.7-5.2c-0.2-2.7-1.3-5.2-1.1-8c0.5-5.7,2.7-10.1,8.5-12C62,174.6,60.2,175.3,58.5,173.5"/>
	<path class="st6" d="M60.3,61.2c1.2-4.5,2.5-8.9,3.5-13.4c0.6-2.8,0.8-5.7,1.1-8.5c0.2-1.4-0.3-2.4-1.6-3.2
		c-6.2-3.9-12.4-7.8-19-10.9c-3.8-1.7-7.5-3.4-11.3-5.2c-5.2-2.4-10.6-4.3-16.2-5.7c-1.1-0.3-2.2-0.5-2.8-1.6
		c-0.1-0.3-0.3-0.7-0.2-0.8c0.1-0.2,0.5-0.3,0.8-0.3c0.3,0,0.6,0.1,0.9,0.1C33.4,16.8,50.6,23.2,67,32.1c5.8,3.1,5.1,3.2,3.1,8.4
		c-2.9,7.6-5.8,15.2-8.7,22.8C59.5,63.3,60.1,62.2,60.3,61.2"/>
	<path class="st7" d="M55.5,340.1c0.5,0.5,1.1,1.1,1.6,1.6c0.8,0.8,1.3,0.4,1.9-0.2c2.8-2.6,1.1-6.7,3.3-9.5
		c0.8-0.1,1.6-0.2,2.3-0.2c1.8,0.1,2.2,0.3,2.2,2.2c0,2.3,0.8,4.2,1.9,6.2c2.6,1.2,2.8-1.2,3.6-2.5c1.2-1.9,0.8-4.5,2.7-6
		c0.3-0.1,0.6-0.3,0.9-0.4c0.8-0.2,1.8-0.1,1.6,1c-0.3,2.5-0.6,5,0.6,7.5c1.9-1.6,2.6-3.8,2.9-5.9c0.3-2.6,1.6-4,4.2-4.3
		c0.5-0.1,0.9-0.2,1.7-0.4c0,0.9,0,1.6-0.1,2.3c-0.7,3.8-1.4,7.5-2.1,11.2c-0.2,1.1-0.7,1.7-1.8,1.9c-9,1.8-17.9,2.6-26.9-0.1
		c-0.1,0-0.2-0.2-0.4-0.3C55.1,343,54.2,341.6,55.5,340.1"/>
	<path class="st8" d="M61.1,140.8c0.5,8.6,1.7,17.2,4.1,25.8c-1.5,0.3-2.8,0.6-4.1,0.9c-1.5,0.3-3.1,0.6-4.9,1
		c-0.1-1.5-0.2-2.8-0.2-4.2c0-14.8,0.1-29.5,0.2-44.3c0-2.5-0.1-5.1-0.1-7.6c0-2,0.3-2.2,2.7-2.1c0.3,0,0.6,0.2,0.9,0.2
		c0,1.5,0.1,2.9,0.1,4.4c1.1,1.1,1.2,2.6,1.2,4C60.8,126.2,61.1,133.5,61.1,140.8"/>
	<path class="st9" d="M63.5,269.5c-7.7,0.4-15.3-0.1-22.8-1.9c-0.9-0.2-1.8-0.5-2.8-0.7c-0.9-0.2-1.3-0.8-1.2-1.7
		c0.3-5.1,0.4-10.2,1-15.3c0.9-7.6,2.6-15.1,4.6-22.5c0.9-3.4,2.4-6.6,5.1-9.1c0.3-0.3,1.2-0.3,1.7-0.2c0.2,0.1,0.5,0.9,0.4,1.2
		c-0.3,1.1-0.7,2.1-1.2,3.1c-3.4,8.7-5.4,17.7-6.8,26.9c-0.5,3.3-0.8,6.7-1.3,10c-0.3,2.1,0.5,3.3,2.2,4.3c3.5,1.9,7.2,3.4,11.2,4.1
		c3.1,0.5,6.3,0.7,9.5,1.1C63.6,268.8,63.7,269,63.5,269.5"/>
	<path class="st10" d="M36.7,270.9c5.9,0.4,5.2,1.1,4.4,5.3c-1.9,9.5-2.2,19-1.1,28.5c0.3,3.2,0.9,6.3,1.1,9.5
		c0.1,2.1,1.2,3.6,2.8,4.8c1.8,1.3,3.7,2.5,5.6,3.6c1.3,0.8,2.7,1.4,4.1,2.1c-0.2,0.4-0.2,0.6-0.3,0.6c-5,0.1-9.8-1.1-14.4-3
		c-1.1-0.4-1.3-1.2-1.3-2.2c0.7-9.6-0.3-19.1-0.6-28.6c-0.1-5.7-0.4-11.5-0.5-17.2C36.5,273.1,36.6,272,36.7,270.9"/>
	<path class="st11" d="M84.5,298.4c-0.3-5.8-0.6-12.1-0.9-18.5c-0.1-1.3,0-2.6,0-3.8c0-1.8,0.5-2.9,1-2.7c1.2,0.5,1.5,1.6,1.6,2.7
		c0.2,1.6,0.3,3.2,0.5,4.8c1,11.1,1.9,22.3,1.4,33.5c0,1-0.1,1.9,0,2.9c0.1,0.6,0.5,1.2,0.9,1.5c1,0.7,2.2,1.3,3.3,1.9
		c0.6,0.4,0.7,1.2,0.1,1.5c-1,0.5-2,1-3.1,1.3c-6.8,2.2-5.6,2-5.4-3.8C84.3,312.7,84.4,305.8,84.5,298.4"/>
	<path class="st12" d="M86.3,267.7c-2.2,0.1-2.8-0.4-2.8-1.7c-0.3-4.3-0.4-8.6-0.8-12.9c-0.8-9.5-2.4-18.9-5.5-28.1
		c-0.3-0.9-0.5-1.9-0.5-2.8c-0.1-0.9,0.4-1.5,1.3-1.7c0.5-0.1,0.9-0.2,1.4-0.3c1.4-0.2,2.5,0.5,2.9,1.8c0.1,0.6,0.2,1.3,0.2,1.9
		c-0.5,11.4,1.3,22.5,3.3,33.7c0.3,1.5,0.1,3.5,1,4.5c1.1,1.2,2.9-0.3,4.4-0.4c1-0.1,1.9-0.4,2.3,0.9c0.5,1.5,0.1,2.5-1.4,3
		C89.9,266.6,87.6,267.3,86.3,267.7"/>
	<path class="st13" d="M41.4,90.9c0,2,0,4.1-0.1,6.1c-0.1,1.8,0.6,3,2,4.1c0.9,0.7,1.8,1.3,2.6,2c0.2,0.2,0.3,0.6,0.3,0.8
		c0,0.2-0.4,0.5-0.6,0.5c-2.4,0.1-4.7,0.1-7.1,0.1c-0.2-0.6-0.5-1.2-0.6-1.8c-0.8-6.6-1.3-13.3-0.5-20c0.4-4,1.3-7.8,3-11.5
		c0.6-1.3,1.4-2.4,2.1-3.6c2,1.2,2.7,2.4,1.9,4.5C41.9,78.2,41.1,84.5,41.4,90.9"/>
	<path class="st14" d="M106,62.8c-1.2,2.6-2.4,5.2-3.9,8.4c-0.5-1.7-0.9-2.7-1.1-3.9c-0.7-4.6-2.9-8.4-6-11.7
		c-4.6-5.1-9.9-9.4-16.1-12.6c-1.6-0.8-3.1-1.7-4.5-2.7c-1-0.6-0.8-1.7-0.4-2.6c0.1-0.3,0.7-0.7,1-0.7c0.6,0.1,1.2,0.5,1.7,0.8
		c8,5,15.6,10.6,22.5,17C101.8,57.1,104.1,59.7,106,62.8"/>
	<path class="st15" d="M67.3,208.9c-4.4-0.2-8.1-0.4-11.6-1.6c-0.9-0.3-1.8-0.6-2.6-1.1c-2.1-1.1-2.5-2-1.7-4.3c0.4-1,1-2,1.6-2.9
		c0.2-0.3,0.9-0.4,1.2-0.3c0.6,0.2,1,0.8,1.5,1.1c5.9,4.5,12.3,5.8,19.3,2.7c1.7-0.8,3.4,0.4,3.5,2.4c0,0.5-0.4,1.3-0.8,1.6
		c-1.1,0.6-2.3,1.2-3.5,1.4C71.6,208.5,69.1,208.7,67.3,208.9"/>
	<path class="st16" d="M48.3,208.8c2.3,1,4.5,2.4,6.9,3c7.9,1.9,15.8,2.2,23.6-0.5c1.7-0.6,2.3-0.4,2.8,0.6c0.6,1.3,0.3,2.7-0.9,3.4
		c-1.1,0.6-2.3,1.1-3.5,1.4c-1.4,0.3-2.8,0.5-4.3,0.5c-5.9,0-11.8-0.1-17.6-1.4c-2.2-0.5-4.3-1.1-6-2.7
		C48,211.9,47.5,210.5,48.3,208.8"/>
	<path class="st17" d="M58.5,173.5h6.1c-0.5,0.7-0.7,1.1-1,1.3c-5.7,2.8-7.9,8.7-6.7,15.3c0.1,0.8,0.5,1.5,0.5,2.3
		c0,0.5-0.6,1-0.9,1.5c-4.1-4-4.5-9-3.6-14.1C53.4,176.7,55,174.1,58.5,173.5"/>
	<path class="st18" d="M47.5,256c-1.6-2.1-1.6-3.7-1.3-5.3c1.1-6.6,2.5-13.1,4.8-19.4c0.5-1.3,1.2-2.6,2-3.8
		c0.2-0.3,0.9-0.4,1.3-0.2c0.3,0.1,0.6,0.8,0.5,1.1c-0.2,0.9-0.4,1.9-0.8,2.7c-2.4,5.1-3.3,10.6-4.3,16.1c-0.2,1.3-0.4,2.5-0.7,3.8
		C48.6,252.5,48.1,254,47.5,256"/>
	<path class="st19" d="M38.9,180.8c-1.7-3.4-1.9-6.7-0.4-10.2c1.6-3.9,0.9-7.9,0.1-11.8c-0.5-2.4-0.5-4.7-0.1-7.1
		c0-0.2,0.3-0.6,0.5-0.6c0.2,0,0.7,0.2,0.7,0.3c0.7,2.8,1.7,5.4,1.6,8.4c-0.2,4.1-0.2,8.3-0.1,12.4c0,2.6-0.7,5-1.4,7.5
		C39.8,180.2,39.3,180.5,38.9,180.8"/>
	<path class="st11" d="M44.3,155c-0.7-3-1.4-5.9-2.1-8.8c6.7-1.3,7.2-1,8.5,5c0.1,0.6,0.2,1.2,0.2,1.9c0,0.6-0.1,1.2-0.1,2
		C48.6,155.5,46.5,155.5,44.3,155"/>
	<path class="st20" d="M50.9,159.3v12.3c-0.8,0.1-1.9,0.2-3,0.2c-2,0-2.1-0.1-2.2-2.2c-0.1-2.7-0.1-5.4-0.2-8.1c0-1.8,0.2-2,1.8-2.1
		C48.4,159.3,49.5,159.3,50.9,159.3"/>
	<path class="st21" d="M42.3,188.4c1.1-4.5,2-8.4,2.9-12.2c0.2-0.9,0.8-1.4,1.7-1.4c0.8,0,1.5,0.2,2.3,0.4c0.1,0,0.3,0.6,0.2,0.8
		c-1.6,3.6-1.5,7.4-1.1,11.2c0.1,0.8-0.4,1.1-1.2,1.1C45.7,188.5,44.3,188.4,42.3,188.4"/>
	<path class="st22" d="M77.6,281.9c0,2.6-2.6,5.2-5.3,5.2c-2.4,0-4.3-2.2-4.2-4.8c0.1-2.6,2.4-4.9,4.9-5
		C75.4,277.2,77.6,279.5,77.6,281.9"/>
	<path class="st23" d="M55.5,340.1c0.1,0.9,0.3,1.8,0.3,2.7c0,0.6-0.2,1.1-0.3,1.7c-1.3-0.1-2.4-0.5-2.9-2
		c-1.1-3.4-2.4-6.9-3.5-10.3c-0.4-1.2,0.1-1.7,1.5-1.6c0.3,0,0.6,0.1,0.9,0.1c1.3,0,2,0.6,2.2,1.9C54.2,335.2,54.9,337.6,55.5,340.1
		"/>
	<path class="st24" d="M69.2,260.9c-0.6-1.4-0.6-2.8-0.1-4.2c0.7-2.1,2.3-2.9,4.4-2.4c0.5,0.1,0.9,0.3,1.3,0.5
		c2.7,1,3.8,2.9,3.1,5.5c-0.6,2.4-2.8,3.8-5.4,3.3c-0.6-0.1-1.1-0.6-1.6-0.9c-0.1-1.9,2-1.6,2.7-2.7c0.6-1.4,0-2-1.4-2.1
		c-0.5,0.1-0.9,0.4-1.1,0.9c-0.2,0.5-0.3,1-0.5,1.5C70.2,260.8,69.9,261.1,69.2,260.9"/>
	<path class="st25" d="M36.2,161c0.7,2.6-0.1,5-0.7,7.4c-0.3,1.2-1.5,1.5-2.6,0.8c-0.9-0.6-1.4-1.3-1.4-2.3c0-1.7,0.1-3.4,0.2-5.1
		C33.1,160.9,34.5,160,36.2,161"/>
	<path class="st26" d="M75.7,56.4c-0.1,1.5-1.6,3-3.1,3c-1.7,0-3.3-1.7-3.2-3.4c0.1-1.5,1.7-3.1,3.1-3.1
		C74.1,52.9,75.7,54.7,75.7,56.4"/>
	<path class="st27" d="M56,43.5c1.7,0,3.4,1.8,3.3,3.4c-0.1,1.5-1.8,3-3.3,2.8c-1.5-0.1-3-1.7-3-3.2C52.9,45.1,54.5,43.4,56,43.5"/>
	<path class="st28" d="M75.1,331.8c-0.4,2.9-1,5.7-2.6,8.2c-0.7,1.2-1.8,1.9-3.2,1.4c-0.3-0.1-0.4-0.7-0.6-1.1
		c0.4-0.1,1-0.2,1.2-0.4c1.1-1.8,1.6-3.7,1.9-5.8C72,331.5,72.1,331.5,75.1,331.8"/>
	<path class="st29" d="M62.3,332c0,1.4,0.2,2.9,0,4.2c-0.3,2.2-0.8,4.3-3.3,5.2c0.4-2.7,0.3-5.4-0.4-8.1c-0.4-1.5,0.1-2,1.8-1.9
		C61.1,331.6,61.7,331.9,62.3,332"/>
	<path class="st30" d="M58.9,236.4c0.5,0.7,1.3,1.2,1.3,1.8c0,1.2-0.3,2.5-0.7,3.6c-0.3,0.8-1,1.9-2.1,1.4c-0.7-0.3-1.3-1.3-1.6-2.1
		c-0.4-1.4,0.2-2.8,1.2-3.9C57.4,236.8,58.2,236.7,58.9,236.4"/>
	<path class="st31" d="M36.2,161c-1.5,0.5-2.9,1.2-4.5,0.8c0.1-0.9,0-1.9,0.3-2.8c0.3-0.9,1-1.6,2.2-1.5c1.1,0.1,1.8,0.7,2,1.7
		C36.2,159.8,36.2,160.4,36.2,161"/>
	<path class="st32" d="M60.3,61.2c0.4,0.7,0.7,1.4,1.1,2.1c-0.8,2.4-1.5,4.8-2.4,7.2c-0.1,0.4-0.7,0.6-1,0.9
		c-0.2-0.4-0.5-0.8-0.5-1.1c0-0.6,0.1-1.3,0.3-1.9C58.6,65.9,59.4,63.5,60.3,61.2"/>
	<path class="st9" d="M63.5,269.5c-0.1-0.3-0.3-0.6-0.4-0.9c1.3-0.1,2.5-0.2,3.8-0.2c4.3,0,8.5,0.3,13-0.1c-0.5,0.3-1.1,0.9-1.6,0.9
		C73.3,269.4,68.4,269.5,63.5,269.5"/>
	<path class="st0" d="M69.2,260.9c0.3-0.4,0.7-0.8,1-1.2c1.6-0.3,3.2-0.1,4.5,1c-0.5,0.9-1.3,1.2-2.2,1.1c-0.8,0-1.4,0.1-1.8,0.9
		C69.8,262.5,69.3,261.8,69.2,260.9"/>
	<path class="st33" d="M61.1,140.8c-0.5-1.5-1.3-3-1.3-4.5c-0.2-7.1-0.1-14.3-0.1-21.4c2.1-0.1,2.6,0.1,2.7,1.5c0.1,1,0,1.9,0.1,2.9
		c0.2,4.1,0.4,8.3,0.4,12.4c0,2.4-0.3,4.8-0.6,7.1C62.2,139.5,61.5,140.2,61.1,140.8"/>
	<path class="st34" d="M63.7,119.8c0.3-1.1,0.3-1.9,0.7-2.6c0.3-0.5,1-0.9,1.5-0.9c0.5,0,1.2,0.4,1.5,0.9c1.1,1.8,0.6,4.6-0.9,6.1
		c-0.5,0.5-1.3,0.3-1.6-0.3C64.4,121.9,64.1,120.7,63.7,119.8"/>
	<path class="st35" d="M52.5,87c-0.3,1.2-0.3,2.8-1.8,3.5c-0.9,0.4-2-1.7-2-3.7c0-1.8,1.1-3.3,2.2-3C52,84.1,52.7,85.4,52.5,87"/>
	<path class="st36" d="M71.9,186.7c-0.1,2.3-0.7,4.2-2.2,5.7c-1.7,1.7-4,2-6.1,0.7c-0.7-0.4-1.4-1-1.1-1.9c0.2-0.5,0.8-0.9,1.4-1.2
		c0.4-0.2,0.9-0.2,1.4-0.4c1.8-0.9,2.4-2.6,1.5-4.3c-0.5-1-1.3-1.7-2-2.6c-0.6-0.8-0.7-1.7-0.1-2.6c0.6-0.8,1.9-1,3-0.4
		C70.3,181.4,71.5,183.8,71.9,186.7"/>
	<path class="st37" d="M75.6,282.7c-0.2,1.3-1.3,2.1-2.8,2.2c-1.2,0-2.3-0.6-2.5-1.7c-0.1-0.6,0.1-1.3,0.4-1.7
		c1.2-1.4,3.3-1.4,4.4,0.1C75.4,282,75.5,282.5,75.6,282.7"/>
	<path class="st38" d="M74.8,260.7c-1.7,0.5-3.2,0.4-4.5-1c0-0.5,0-1.1,0-1.6c0.1-0.4,0.3-0.7,0.6-0.9c0.1-0.1,0.3-0.2,0.4-0.3
		c1.2-0.8,2.4-0.7,3.5,0.3C75.9,258.4,75.6,259.6,74.8,260.7"/>
	<path class="st39" d="M70.9,257.2c-0.2,0.3-0.4,0.6-0.6,0.9C70.5,257.8,70.7,257.5,70.9,257.2"/>
</g>
</svg>
