<?xml version="1.0" encoding="utf-8"?>
<!-- Generator: Adobe Illustrator 22.1.0, SVG Export Plug-In . SVG Version: 6.00 Build 0)  -->
<svg version="1.1" id="Capa_1" xmlns="http://www.w3.org/2000/svg" xmlns:xlink="http://www.w3.org/1999/xlink" x="0px" y="0px"
	 viewBox="0 0 39.3 40.7" style="enable-background:new 0 0 39.3 40.7;" xml:space="preserve">
<style type="text/css">
	.st0{fill:#020202;}
</style>
<path class="st0" d="M19.2,25.4c-3.8,3.6-7.4,6.9-10.9,10.4c-1.4,1.4-3,2.4-5.1,2.3c-1.2-0.1-2.1-1.2-1.8-2.3c0.2-0.7,0.5-1.5,1-2.1
	c1.7-2.1,3.4-4.3,5.2-6.3c2.1-2.4,4.4-4.6,6.8-7c-1.6-1.6-2.9-2.9-4.2-4.3c-2.1-2.4-4.3-4.7-6.3-7.2c-1-1.2-1.7-2.7-2.4-4.1
	C1.3,4.2,1.6,3.3,1.9,3c0.4-0.4,1.3-0.6,1.7-0.4c1.4,0.7,2.9,1.4,4.1,2.4c2.7,2.2,5.3,4.7,7.9,7c1.2,1.1,2.4,2.1,3.7,3.4
	c1.2-1,2.2-1.9,3.3-2.8c2.7-2.5,5.4-5,8.2-7.3c1.3-1.1,2.9-1.9,4.5-2.6c0.4-0.2,1.2,0.2,1.7,0.5c0.6,0.4,0.7,1.1,0.3,1.7
	c-0.9,1.5-1.7,3.1-2.8,4.5c-2.1,2.6-4.4,5-6.7,7.5c-1.1,1.2-2.2,2.3-3.4,3.6c2.4,2.4,4.6,4.7,6.8,7c1.7,1.9,3.3,3.9,4.9,5.9
	c0.5,0.6,0.9,1.3,1.2,2.1c0.5,1.2-0.4,2.6-1.8,2.7c-2.1,0.1-3.6-0.8-5.1-2.2c-3.2-3.1-6.5-6.2-9.8-9.2C20.5,26.3,20.1,26,19.2,25.4"
	/>
</svg>
