<?xml version="1.0" encoding="utf-8"?>
<!-- Generator: Adobe Illustrator 22.1.0, SVG Export Plug-In . SVG Version: 6.00 Build 0)  -->
<svg version="1.1" id="Capa_1" xmlns="http://www.w3.org/2000/svg" xmlns:xlink="http://www.w3.org/1999/xlink" x="0px" y="0px"
	 viewBox="0 0 1072.2 845.1" style="enable-background:new 0 0 1072.2 845.1;" xml:space="preserve">
<style type="text/css">
	.st0{clip-path:url(#SVGID_2_);fill:#FFFFFF;}
	.st1{clip-path:url(#SVGID_2_);fill:#010000;}
	.st2{clip-path:url(#SVGID_2_);fill:#FEFEFE;}
	.st3{clip-path:url(#SVGID_2_);}
	.st4{clip-path:url(#SVGID_2_);fill:#010101;}
	.st5{clip-path:url(#SVGID_2_);fill:#030303;}
	.st6{clip-path:url(#SVGID_2_);fill:#060606;}
	.st7{clip-path:url(#SVGID_2_);fill:#CDCDCD;}
	.st8{clip-path:url(#SVGID_2_);fill:#FF9900;}
	.st9{clip-path:url(#SVGID_2_);fill:#CECECE;}
	.st10{clip-path:url(#SVGID_2_);fill:#FDFDFD;}
	.st11{clip-path:url(#SVGID_2_);fill:#FE9800;}
	.st12{clip-path:url(#SVGID_2_);fill:#CCCCCC;}
	.st13{clip-path:url(#SVGID_2_);fill:#CBCBCB;}
	.st14{clip-path:url(#SVGID_2_);fill:#FEFDFC;}
	.st15{clip-path:url(#SVGID_2_);fill:#FE9801;}
	.st16{clip-path:url(#SVGID_2_);fill:#FCFCFC;}
	.st17{clip-path:url(#SVGID_2_);fill:#FC9803;}
	.st18{clip-path:url(#SVGID_2_);fill:#FDFCFB;}
	.st19{clip-path:url(#SVGID_2_);fill:#FD9800;}
	.st20{clip-path:url(#SVGID_2_);fill:#F6F6F6;}
	.st21{clip-path:url(#SVGID_2_);fill:#F9F9F9;}
	.st22{clip-path:url(#SVGID_2_);fill:#F7F7F7;}
	.st23{clip-path:url(#SVGID_2_);fill:#F8F8F8;}
	.st24{clip-path:url(#SVGID_2_);fill:#F0F0F0;}
	.st25{clip-path:url(#SVGID_2_);fill:#C8C8C8;}
	.st26{clip-path:url(#SVGID_2_);fill:#FBFBF9;}
	.st27{clip-path:url(#SVGID_2_);fill:#F6F5F3;}
	.st28{clip-path:url(#SVGID_2_);fill:#FBFBFB;}
	.st29{clip-path:url(#SVGID_2_);fill:#F5F5F5;}
	.st30{clip-path:url(#SVGID_2_);fill:#C3C3C3;}
	.st31{clip-path:url(#SVGID_2_);fill:#EFEFEF;}
	.st32{clip-path:url(#SVGID_2_);fill:#F4F4F4;}
	.st33{clip-path:url(#SVGID_2_);fill:#F7F4F0;}
	.st34{clip-path:url(#SVGID_2_);fill:#EBEBEB;}
	.st35{clip-path:url(#SVGID_2_);fill:#C9C9C9;}
	.st36{clip-path:url(#SVGID_2_);fill:#F9F6F1;}
	.st37{clip-path:url(#SVGID_2_);fill:#F6F3EE;}
	.st38{clip-path:url(#SVGID_2_);fill:#FAF8F5;}
	.st39{clip-path:url(#SVGID_2_);fill:#F1F1F1;}
	.st40{clip-path:url(#SVGID_2_);fill:#F7F4EF;}
	.st41{clip-path:url(#SVGID_2_);fill:#F3F1EE;}
	.st42{clip-path:url(#SVGID_2_);fill:#E5E5E5;}
	.st43{clip-path:url(#SVGID_2_);fill:#F19100;}
	.st44{clip-path:url(#SVGID_2_);fill:#E6E6E6;}
	.st45{clip-path:url(#SVGID_2_);fill:#E1E1E1;}
	.st46{clip-path:url(#SVGID_2_);fill:#EEEEEE;}
	.st47{clip-path:url(#SVGID_2_);fill:#E0E0E0;}
	.st48{clip-path:url(#SVGID_2_);fill:#16130E;}
	.st49{clip-path:url(#SVGID_2_);fill:#F2EDE6;}
	.st50{clip-path:url(#SVGID_2_);fill:#F8F5F1;}
	.st51{clip-path:url(#SVGID_2_);fill:#D9D9D9;}
	.st52{clip-path:url(#SVGID_2_);fill:#E7E7E7;}
	.st53{clip-path:url(#SVGID_2_);fill:#ECECEC;}
	.st54{clip-path:url(#SVGID_2_);fill:#EDE9E3;}
	.st55{clip-path:url(#SVGID_2_);fill:#F3EDE3;}
	.st56{clip-path:url(#SVGID_2_);fill:#DEDEDE;}
	.st57{clip-path:url(#SVGID_2_);fill:#9E9E9E;}
	.st58{clip-path:url(#SVGID_2_);fill:#D9BF98;}
	.st59{clip-path:url(#SVGID_2_);fill:#747474;}
	.st60{clip-path:url(#SVGID_2_);fill:#B5B5B5;}
	.st61{clip-path:url(#SVGID_2_);fill:#DFCDB2;}
	.st62{clip-path:url(#SVGID_2_);fill:#5F5F5F;}
	.st63{clip-path:url(#SVGID_2_);fill:#191919;}
	.st64{clip-path:url(#SVGID_2_);fill:#040404;}
	.st65{clip-path:url(#SVGID_2_);fill:#121212;}
	.st66{clip-path:url(#SVGID_2_);fill:#D1D1D1;}
	.st67{clip-path:url(#SVGID_2_);fill:#020202;}
	.st68{clip-path:url(#SVGID_2_);fill:#070707;}
	.st69{clip-path:url(#SVGID_2_);fill:#0C0C0C;}
	.st70{clip-path:url(#SVGID_2_);fill:#0A0A0A;}
	.st71{clip-path:url(#SVGID_2_);fill:#0D0D0D;}
	.st72{clip-path:url(#SVGID_2_);fill:#0F0F0F;}
	.st73{clip-path:url(#SVGID_2_);fill:#080808;}
	.st74{clip-path:url(#SVGID_2_);fill:#050505;}
	.st75{clip-path:url(#SVGID_2_);fill:#110C06;}
	.st76{clip-path:url(#SVGID_2_);fill:#F5EDE2;}
	.st77{clip-path:url(#SVGID_2_);fill:#131313;}
	.st78{clip-path:url(#SVGID_2_);fill:#373737;}
	.st79{clip-path:url(#SVGID_2_);fill:#1B1B1B;}
	.st80{clip-path:url(#SVGID_2_);fill:#141414;}
	.st81{clip-path:url(#SVGID_2_);fill:#1A1A1A;}
	.st82{clip-path:url(#SVGID_2_);fill:#090500;}
	.st83{clip-path:url(#SVGID_2_);fill:#FC9700;}
	.st84{clip-path:url(#SVGID_2_);fill:#FB9600;}
	.st85{clip-path:url(#SVGID_2_);fill:#F69400;}
	.st86{clip-path:url(#SVGID_2_);fill:#DCDCDC;}
	.st87{clip-path:url(#SVGID_2_);fill:#FAFAFA;}
	.st88{clip-path:url(#SVGID_2_);fill:#F3F3F3;}
</style>
<g>
	<defs>
		<rect id="SVGID_1_" x="-469.8" y="-136.8" width="1920" height="1080"/>
	</defs>
	<clipPath id="SVGID_2_">
		<use xlink:href="#SVGID_1_"  style="overflow:visible;"/>
	</clipPath>
	<path class="st0" d="M535.5,845.1c-50.2,0-100.5,0-150.7,0c-113.9,0-227.8,0-341.7-0.1c-4.2,0-8.3-0.3-12.4-0.5
		c-12.8-0.6-19.4-10.4-21.2-18.9c-1.2-5.6-1.8-11.4-1.8-17.1c0-36.5,0-73,0-109.4c0-48.8,0-97.6,0-146.4c0-80.5-0.1-160.9-0.1-241.4
		c0-88.8,0.1-177.6,0.1-266.4c0-6.1,0.4-12.1,1.7-18.1c0.7-3.1,1.8-6.1,3.6-8.8c4.3-6.4,10.2-10,17.9-10.5C36.1,7.2,41.4,7,46.6,6.9
		c109.3,0,218.5,0,327.8,0c215.8,0,431.6,0,647.5,0c5.9,0,11.8,0.3,17.7,0.6c12.1,0.7,19.3,9,21.6,18.6c1.4,5.6,1.9,11.3,1.9,17.1
		c0,34.4,0,68.8,0,103.2c0,48.8,0,97.6,0,146.4c0,79.4,0.1,158.7,0.1,238.1c0,92-0.1,184-0.1,276c0,6.3-0.4,12.5-1.7,18.6
		c-0.8,4-2.5,7.5-5,10.8c-3.4,4.4-7.7,7.1-13.2,8c-3,0.5-6,0.7-9.1,0.8c-2.7,0.1-5.4,0-8.2,0c-111.4,0-222.7,0-334.1,0L535.5,845.1
		L535.5,845.1z"/>
	<path class="st1" d="M535.1,838.9c-18.7,0-37.4,0-56.2,0c-23.8,0.1-47.7,0.3-71.5,0.2c-121.9-0.1-243.8-0.2-365.7-0.3
		c-3.4,0-6.7-0.1-10.1-0.2c-6.8-0.1-11.5-3.4-14.6-9.2c-1.8-3.3-2.6-6.9-2.8-10.6c-0.3-4.5-0.5-8.9-0.5-13.4c0-80.5,0-160.9,0-241.4
		c-0.1-84.9-0.3-169.9-0.3-254.8c0-88,0.2-176,0.3-264c0-5.6,0-11.2,1.3-16.7c0.9-4,2.6-7.5,5.6-10.4c2.8-2.6,6-4,9.9-4.4
		c7.6-0.9,15.3-0.7,23-0.7c106.9,0,213.7,0,320.6,0c215.3,0,430.7,0,646,0c6.9,0,13.7,0.2,20.6,0.8c6.4,0.6,10.5,4.3,13.3,9.7
		c1.6,3.2,2.4,6.6,2.5,10.2c0.2,4.5,0.5,8.9,0.5,13.4c0,78.6,0,157.1,0,235.7c0.1,83.4,0.3,166.7,0.3,250c0,91.5-0.2,183-0.3,274.5
		c0,5.4-0.1,10.9-1.2,16.2c-0.6,2.7-1.5,5.2-3,7.5c-3.1,4.7-7.4,7.4-13.2,7.6c-3.8,0.1-7.7,0.2-11.5,0.2c-110.4,0-220.8,0-331.2,0
		C643,838.8,589,838.8,535.1,838.9L535.1,838.9z"/>
	<path class="st2" d="M535.4,833.3c-17.9,0-35.8,0-53.8,0c-32.2,0-64.3-0.1-96.5-0.1c-112.3,0-224.6,0.1-336.9,0.2
		c-5.4,0-10.9-0.2-16.3-0.3c-4.9,0-8.2-2.5-10.1-6.8c-0.9-2-1.6-4.2-1.8-6.4c-0.5-4.1-0.8-8.3-0.8-12.4c0-85.4-0.4-170.9,0-256.3
		c0.4-77.1,0.2-154.2,0.2-231.3c0-91.2-0.2-182.4-0.3-273.6c0-4.6,0.3-9.3,0.8-13.9c0.3-2.5,1.1-5,2.1-7.3c1.8-3.9,5.1-6.1,9.5-6.2
		c2.9-0.1,5.8,0,8.6,0c111.7,0,223.3-0.1,335-0.1c30.4,0,60.8,0.1,91.2,0.1c185.7,0,371.5,0,557.2-0.1c4.8,0,9.6,0.1,14.4,0
		c6.4-0.1,9.8,3.7,11.5,8.4c0.6,1.6,1,3.4,1.2,5.1c0.4,4.5,0.8,8.9,0.8,13.4c0,82.5,0.1,165.1,0,247.6c-0.1,79.7-0.6,159.3-0.3,239
		c0.4,90.1,0.1,180.1,0.2,270.2c0,5.4-0.3,10.9-0.7,16.3c-0.2,2.5-0.9,5.1-1.9,7.4c-1.9,4.3-5.2,6.8-10.1,6.8c-5,0-9.9,0.3-14.9,0.3
		c-110.1,0-220.1,0-330.2,0H535.4V833.3z"/>
	<path class="st3" d="M560.9,386.5c-1.5-0.3-2.7-0.6-3.9-0.7c-2.4-0.2-4.2-1.4-5.6-3.3c-0.2-0.2-0.3-0.8-0.2-0.8
		c0.3-0.2,0.8-0.5,1.1-0.5c3.4,0.7,6.7-0.1,9.9-1c4.2-1.1,8.1-2.9,11.8-5.2c3.6-2.3,7.3-4.7,10.9-7c6.1-3.8,12.5-6.5,19.7-6.9
		c9.8-0.6,18.2,2.6,25,9.9c0.6,0.7,1.2,1.5,1.7,2.3c0.4,0.7,0.7,1.4,1.2,2.4c1-0.3,2-0.5,3.1-0.8c12.2-2.8,22.8,0.5,31.8,9
		c1.1,1.1,2.1,2.5,2.8,3.9c0.7,1.4,1.7,1.7,3.1,1.6c1.4-0.1,2.9,0,4.3,0c82.5,0,165.1,0,247.6,0c1.4,0,2.9-0.2,4.3,0.1
		c1.4,0.2,2.7,0.8,4,1.4c0.8,0.4,1.4,1.3,1.1,2.4c-0.2,0.9-0.4,1.9-0.4,2.8c0,50.4,0,100.8,0,151.2c0,34.6,0,69.1,0,103.7
		c0,1.4,0.1,2.9-0.1,4.3c-0.1,0.9-0.3,1.9-0.8,2.7c-3,5.1-6.1,10.1-9.2,15.1c-10.8,17.4-21.5,34.8-33.5,51.4
		c-3.3,4.6-7.5,6.4-13,6.4c-41.1-0.1-82.2,0-123.3,0c-167,0-334,0-501,0c-1.8,0-3.5,0-5.3-0.1c-1.7-0.2-2.9-1.1-3.5-2.8
		c-0.8-2.2-0.9-4.4-0.9-6.6c0-13.4-0.1-26.9-0.1-40.3c0-5,0.1-9.9-0.6-14.8c-0.4-2.8-0.2-5.7-0.3-8.6c0-1-0.5-1.5-1.5-1.5
		c-1.3,0-2.6,0-3.8,0c-18.1,0-36.2,0-54.2-0.1c-1.8,0-3.5-0.1-5.3-0.3c-2.5-0.4-3.3-1.3-3.5-3.8c-0.1-1.3,0-2.6,0-3.8
		c0-14.9,0-29.8,0-44.6c0-2.2,0.4-4.4-0.9-6.5c-0.4-0.6-0.2-1.9,0.1-2.7c0.7-2,0.9-4,0.8-6.1c0-19.5,0-39,0-58.5c0-0.8,0-1.6,0-2.4
		c-0.1-2-0.2-2.2-2.3-2.2c-6.1,0-12.2,0-18.2,0c-10.1,0-20.2-0.2-30.2-0.1c-3,0-5.7-0.7-8.3-1.8c-5.3-2.2-8.1-6.6-8.1-12.4
		c0-33.1,0.1-66.2,0.1-99.3c0-9.8,0-19.5-0.1-29.3c0-6.1,2.7-10.4,8.3-12.8c2.5-1.1,5.1-1.7,7.9-1.7c8.6,0,17.3-0.1,25.9-0.1
		c51.7,0,103.3,0,155,0c3.4,0,6.7,0.2,10.1,0.1c3-0.1,5.7,0.7,8.3,1.9c5.3,2.4,8.2,7.2,7.8,13.1c0,0.6-0.2,1.3-0.2,1.9
		c0,5.8-0.6,5.2,5,5.2c72.9,0,145.9,0,218.8,0c0.5,0,1-0.1,1.4,0C557.8,389.7,559.3,388.6,560.9,386.5"/>
	<path class="st4" d="M27.4,426.9c0-38.6,0-77.1,0-115.7c0-67.2,0.1-134.4,0.2-201.6c0-19.4,0.4-38.7,0.7-58.1c0-1.4,0-2.9,0.3-4.3
		c0.1-0.6,0.9-1.3,1.5-1.6c0.8-0.3,1.8,0.6,1.9,1.7c0.2,1.4,0.3,2.9,0.3,4.3c0.2,12,0.5,24,0.5,36c0.1,37.8,0.2,75.5,0.2,113.3
		c0.1,110.1,0.2,220.1,0.2,330.2c-0.1,72.6-0.5,145.3-0.8,217.9c-0.1,17.4-0.2,34.9-0.3,52.3c0,3,0.1,6.1-1.3,8.9
		c-0.1,0.2-0.5,0.4-0.7,0.4c-0.2,0-0.5-0.3-0.6-0.5c-0.2-0.3-0.3-0.6-0.3-0.9c-0.3-1.9-0.7-3.8-0.8-5.7c-0.1-6.7-0.1-13.4-0.2-20.2
		c-0.1-15.7-0.2-31.4-0.3-47c-0.2-61.6-0.4-123.2-0.5-184.8C27.4,510.1,27.5,468.5,27.4,426.9L27.4,426.9z"/>
	<path class="st5" d="M243,811.9c61.4,0,122.9,0,184.3,0c2.4,0,4.8-0.2,7,1c0.4,0.2,0.9,0.4,1.3,0.6c1.3,0.7,1.4,2.5,0.1,3.1
		c-1.6,0.7-3.3,1.2-5,1.6c-1.2,0.2-2.5,0.1-3.8,0.1c-81.7,0-163.5,0-245.2,0c-37.9,0-75.8-0.2-113.7-0.3c-3.8,0-7.7-0.1-11.5-0.2
		c-0.8,0-1.6-0.1-2.4-0.2c-1.1-0.2-2.1-1.3-2.1-2.3s1-2.3,2-2.4c1.7-0.2,3.5-0.3,5.3-0.3c9.4-0.1,18.9-0.1,28.3-0.2
		c27.2-0.1,54.4-0.1,81.6-0.2c24.6,0,49.3,0,73.9,0V811.9z"/>
	<path class="st6" d="M551.3,38.7c-55.5,0-111,0-166.5,0c-2.1,0-4.1-0.3-6.2-0.6c-1-0.2-1.5-1.1-1.6-2.1c-0.1-1.1,0.6-2.3,1.6-2.7
		c0.7-0.3,1.5-0.5,2.3-0.5c1.3-0.1,2.6-0.1,3.8-0.1c23.3,0,46.7-0.1,70-0.1c80.3,0,160.5,0,240.8,0c5.8,0,11.5,0,17.3-0.1
		c5.8-0.1,11.5,0.3,17.2,1.4c1.4,0.3,2.9,0.2,4.3,0.4c0.5,0.1,1.1,0.8,1.1,1.3c0,0.5-0.7,1.3-1.1,1.3c-5.9,0.5-11.6,1.9-17.6,1.9
		C661.7,38.7,606.5,38.7,551.3,38.7L551.3,38.7z"/>
	<path class="st5" d="M1039.4,139.2c0,27.7,0,55.4,0,83c0,1.3,0,2.6-0.1,3.8c0,0.6-0.1,1.4-0.5,1.8c-0.6,0.7-1.3,1.4-2.1,1.8
		c-0.7,0.3-2.1-0.7-2.5-1.9c-0.3-0.7-0.4-1.5-0.5-2.3c-0.1-1.1,0-2.2,0-3.4c0-45.4,0-90.9,0.1-136.3c0-9.3,0.3-18.6,0.4-27.8
		c0-1.1-0.1-2.2-0.3-3.3c-0.4-2.4-0.8-4.7-1.2-7.1c-0.5-3.2-1.6-6.2-3.8-8.6c-1.4-1.5-2.9-2.1-5.1-2.1c-15.8,0.1-31.7,0-47.5,0
		c-1.1,0-2.2-0.1-3.3-0.3c-1.1-0.3-1.9-1.5-1.7-2.6c0.2-1.1,0.8-1.8,1.8-2c1.1-0.2,2.2-0.3,3.3-0.3c15.2-0.1,30.4-0.2,45.6-0.2
		c2,0,4.1,0.4,6.1,0.9c2.3,0.5,3.9,2.2,5.3,4c2,2.6,3.1,5.6,3.9,8.7c0.4,1.7,1.1,3.3,1.4,5c0.3,1.7,0.5,3.5,0.5,5.2
		c0.1,8.5,0.1,17,0.1,25.4C1039.4,100.2,1039.4,119.7,1039.4,139.2L1039.4,139.2z"/>
	<path class="st3" d="M1036.6,368.2c0,34.5,0,69.1,0,103.6c0,1.1,0,2.2-0.1,3.4c0,0.6,0,1.4-0.3,1.9c-0.6,0.9-1.5,1.6-2.2,2.3
		c-0.7-0.8-1.7-1.5-2.1-2.4c-0.4-1-0.3-2.2-0.3-3.3c-0.1-5.1-0.1-10.2-0.1-15.4c0-48.5,0-96.9,0-145.4c0-15.7,0.2-31.3,0.3-47
		c0-1.9,0.2-3.8,0.5-5.7c0.2-1,1-1.7,2-1.7c1.1,0,1.8,0.8,2,1.8c0.2,1.4,0.3,2.9,0.3,4.3c0.1,14.6,0.2,29.1,0.2,43.7c0,20,0,40,0,60
		H1036.6z"/>
	<path class="st0" d="M745.6,541.9c-0.6-1.3-1-2.7-1.8-3.8c-2.8-4.4-10.1-4.2-12.7,0.3c-0.5,0.8-0.7,1.8-0.8,2.7
		c-0.1,1.2-0.1,2.5-0.1,3.8c-5.2,4-10.9,2.6-16.6,1.5c-0.6-0.1-0.8-0.9-0.7-1.6c1-4.2,2-8.4,3.1-12.5c0.3-1,1-1.6,2.1-1.6
		c1,0,1.9,0,2.9,0c22.2,0,44.5,0,66.7,0.1c31.2,0.1,62.4,0.2,93.6,0.3c2.9,0,5.8,0.1,8.4-1.4c0.4-0.2,0.8-0.4,1.2-0.7
		c0.7-0.4,0.6-1.6-0.1-2c-2-1.1-4.1-1.9-6.3-2c-1,0-1.9,0-2.9,0c-46.4,0.1-92.8,0.2-139.2,0.4c-7.2,0-14.4,0.1-21.6,0.1
		c-0.8,0-1.5-0.2-2.6-0.3c0.3-1.6,0.6-3,0.9-4.3c0.7-3.3,1.5-6.5,2.1-9.8c0.9-4.7,0.1-9.2-2-13.5c-0.9-1.9-2-3.7-3.1-5.4
		c-3.1-4.9-7.6-7.6-13.2-8.7c-4.4-0.9-8.9-0.8-13.4-0.6c-9.7,0.4-19.5,1-29.2,1.5c-2.7,0.2-5.4,0.5-8.1,0.8c-0.4,0-0.9-0.1-1.5-0.2
		c0.2-0.9,0.4-1.6,0.7-2.4c1.9-5.7,5.1-10.7,8.5-15.5c0.8-1.2,1.7-1.8,3.2-1.7c1.3,0.1,2.6,0,3.8,0c47.7,0,95.3,0,143,0
		c26.6,0,53.1-0.2,79.7-0.3c2.2,0,4.5,0,6.7-0.3c4.8-0.6,9.6-0.5,14.4-0.2c0.9,0.1,1.9,0.1,2.9,0c1.4-0.2,2.5-1.5,2.7-3
		c0.1-1.5-1-3.3-2.5-3.7c-0.6-0.2-1.3-0.2-1.9-0.2c-7,0.3-14,0.7-21.1,1c-1.4,0.1-2.9,0.1-4.3,0.1c-72.8-0.1-145.6-0.2-218.4-0.3
		c-1.3,0-2.5-0.1-3.9-0.2c-0.2-3-0.3-5.8-0.5-9c1.5-0.2,3-0.3,4.5-0.7c2.2-0.6,2.5-1.5,1.3-3c-2.8-3.6-3.7-7.8-3.3-12.2
		c0.3-4,0.6-8,1.3-11.9c1.5-8.3,0.9-16.2-2.7-23.9c-0.2-0.4-0.2-0.9-0.3-1.4c1.8-0.7,3.5-0.3,5.3-0.3c42.9,0,85.7,0,128.6,0
		c41.4,0,82.9,0,124.3,0c1.4,0,2.9,0,4.3,0.1c1.4,0.1,1.3,1.1,1.1,2.1c-1,7.3-1,7.3-8.8,7.3c-36.9,0-73.9,0-110.8,0
		c-3.3,0-6.7-0.1-10.3,1.4c1.6,1.6,3.3,1.2,4.9,1.3c39.1,1.6,78.3,0.8,117.5,1c1.3,0,2.6,0,3.8,0c2.3,0,3.6,0.8,3.3,3.4
		c-0.4,3.1,0.6,6.4-0.5,9.5c-1.3,0.2-2.5,0.4-3.8,0.4c-6.4,0.1-12.8,0.2-19.2,0.2c-0.8,0-1.7,0.2-2.4,0c-3.3-1.1-6.7-0.7-10-0.7
		c-29.4,0.1-58.9,0.1-88.3,0.3c-15.5,0.1-31,0.2-46.5,1c-20.3,1-40.6,1.2-60.9,1.6c-1.4,0-2.9,0.2-4.3,0.4c-0.2,0-0.5,0.4-0.5,0.6
		c0,0.4,0.2,1.1,0.5,1.2c1.2,0.3,2.5,0.5,3.8,0.5c7,0.1,14.1,0.2,21.1,0.3c17.8,0.2,35.5,1.1,53.2,1.8c11.8,0.4,23.7,0.4,35.5,0.4
		c29.6,0.1,59.2,0.2,88.8,0.3c2.4,0,4.7-0.4,7.1-0.6c1-0.1,1.9-0.2,2.9-0.2c6.9,0.1,13.8,0.2,20.6,0.3c0.6,0,1.3,0.1,1.9,0.2
		c0.9,0.1,1.4,0.7,1.4,1.6c0,1,0,1.9,0,2.9c0,15.2,0,30.4,0,45.6c0,1,0,1.9-0.1,2.9c-0.1,0.9-0.6,1.4-1.5,1.4c-1.3,0-2.6,0-3.8,0
		c-26.1,0-52.2,0.1-78.2,0.2c-21.8,0.1-43.5,0.2-65.3,0.5c-10.9,0.1-21.7,0.5-32.6,0.8c-1.3,0-2.6,0.1-3.8,0.4c-1,0.2-1.9,1.3-1.6,2
		c0.3,0.7,0.8,1.4,1.5,1.7c0.7,0.3,1.5,0.3,2.3,0.4c2.6,0.1,5.1,0.2,7.7,0.3c47.7,1.2,95.3,1,143,1.1c9.4,0,18.9,0.1,28.3,0.1
		c1,0,1.9-0.1,2.9,0.1c0.5,0.1,1,0.7,1.2,1.2c0.2,0.6,0.1,1.3,0.1,1.9c-0.1,3.8-0.2,7.6-0.3,11.4c-3.7,1.4-7.5,0.4-11.3,0.6
		c-4.1,0.2-8.3,0-12.5,0.1c-19.5,0.2-39,0.3-58.6,0.5c-2.4,0-4.8,0-7.2,0.1c-1,0-1.9,0-2.9,0.2c-1.6,0.3-2.8,1.9-2.8,3.4
		c0,1.6,1.3,3,2.9,3.3c0.9,0.1,1.9,0.1,2.9,0.1c20.6,0.2,41.3,0.4,61.9,0.5c7.5,0,15-0.1,22.5-0.2c1.1,0,2.2,0,3.4,0
		c1.1,0,1.8,0.5,1.8,1.7c0,0.6,0,1.3,0,1.9c0,21.6,0,43.2,0.1,64.8c0,2.4-0.7,4.3-2.3,6c-4.1,4.3-8,8.8-12.3,12.8
		c-4.7,4.3-9.8,8.2-14.7,12.4c-1.4,1.2-2.9,1.8-4.8,1.9c-2.1,0-4.1,0.3-6.2,0.3c-41.6,0.2-83.2,0.3-124.8,0.4
		c-1.9,0-3.8,0.1-5.8,0.2c-0.6,0-1.3,0.1-1.9,0.4c-0.8,0.3-1.3,1-1.1,1.9c0.1,0.6,0.5,1.2,1,1.5c0.7,0.4,1.5,0.5,2.3,0.5
		c2.2,0.1,4.5,0.2,6.7,0.2c39.7,0.1,79.4,0.2,119,0.3c1.1,0,2.2,0,3.4,0.1c0.2,0,0.6,0.3,0.6,0.5c0.1,0.2-0.1,0.6-0.3,0.8
		c-1.3,1-2.5,2-3.8,2.9c-10.8,7.2-21.4,14.5-32.4,21.5c-13.4,8.5-27.2,16.1-41.2,23.5c-2.6,1.4-5.2,2.1-8.2,2.1
		c-41.3-0.1-82.6,0-123.8,0c-1.3,0-2.6,0-3.8-0.1c-0.7-0.1-1.1-0.7-0.9-1.4c1.4-6,2.9-12,4.3-17.9c1.2-0.6,1.4,0.2,1.8,0.6
		c2.4,3.4,5.8,5.1,9.8,5.2c2.7,0,4.9,0.9,7.1,2.2c1.9,1.2,4,2,6.2,2.6c4.9,1.4,9.5,0.7,13.5-2.8c3.9-3.4,7.2-7.2,10-11.6
		c1.3-2,2.6-4,3.9-6c2.5-0.1,5.1-0.3,7.6-0.3c23.7,0,47.4,0,71,0c1.6,0,3.2,0,4.8-0.2c2.4-0.3,4.2-1.9,4.2-3.3c0-1.5-1.7-3-4.1-3.3
		c-2.1-0.3-4.1-0.3-6.2-0.3c-23,0-46.1,0-69.1,0c-4.5,0-4.9,0.4-2.7-4.2c0.3-0.7,0.7-1.4,1-2.2c0.7-2.1,1.6-3.6,4.2-3.9
		c2.2-0.2,3.6-2.1,4.3-4.1c0.7-1.9,1.3-4,1.5-6c0.7-5.1,1.2-10.2,1.6-15.3c0.1-1.8,1-2.5,2.5-3c2.9-1,5.7-2.1,8.6-3.1
		c4.7-1.7,7.7-5,9-9.8c1.5-5.6,2.9-11.1,1.8-17c-0.2-1,0.1-2.3,0.6-3.2c1.9-3.6,0.9-6.8-1.3-9.8c-0.6-0.8-1.2-1.5-1.8-2.2
		c0.9-3.5,4-2.6,6.2-2.6c14.2-0.1,28.5-0.1,42.7-0.1c1.8,0,3.5,0.1,5.3-0.3c1-0.2,2-0.6,1.9-1.8c-0.1-0.9-1-1.1-1.8-1.3
		c-1.7-0.3-3.5-0.3-5.3-0.3c-16.3,0-32.6-0.2-49,0.1c-5.9,0.1-11.7-1.7-17.6-0.7C746.2,546.1,746.2,543.6,745.6,541.9"/>
	<path class="st0" d="M349.2,609.8c-34.2,0-68.4,0-102.7,0c-5.4,0-10.9,0.1-16.3,0.3c-3.1,0.1-6-0.8-8.9-1.6c-2.7-0.7-4.8-2.5-6.2-5
		c-0.7-1.4-1.3-2.7-0.7-4.5c0.5-1.4,0.3-3.2,0.3-4.8c0-21.7,0-43.5,0-65.2c0-4.7-0.3-4.4,4.4-4.4c27.5,0,55,0,82.5,0
		c4.3,0,8.6-0.2,12.9-0.1c3.2,0.1,6-0.9,8.7-2.3c4.9-2.5,7.2-6.7,7.2-12.1c0-10.2-0.2-20.5-0.3-30.7c0-17,0-33.9,0-50.9
		c0-1.3,0-2.6,0.1-3.8c0.1-0.9,0.6-1.4,1.5-1.5c1.1-0.1,2.2,0,3.4,0c40,0,80,0,119.9-0.1c4.5,0,8.9-0.2,13.4-0.3
		c3.1-0.1,6,0.8,8.9,1.7c2.4,0.7,4.3,2.2,5.6,4.3c1,1.6,1.8,3.3,1,5.4c-0.4,1.1-0.3,2.5-0.3,3.8c0,52.3,0,104.6,0,156.9
		c0,1.3-0.2,2.7,0.2,3.8c0.9,2.3-0.1,4.1-1.2,5.8c-1.6,2.4-4,3.6-6.6,4.5c-4,1.3-8.2,1.2-12.3,1.1c-2.4-0.1-4.8-0.3-7.2-0.3
		C420.8,609.8,385,609.8,349.2,609.8"/>
	<path class="st0" d="M482.7,631.4c-0.3,0.9-0.6,1.8-0.9,2.7c-0.9,2.2-2.6,2.8-5,2.8c-17.1-0.1-34.2,0-51.4,0
		c-31.4,0-62.7,0.1-94.1,0.1c-8.3,0-16.6,0.1-25,0.2c-1.3,0-2.6,0-3.8,0.2c-2.1,0.3-3.2,1.4-3.3,2.9c0,1.5,1.2,2.7,3.2,2.9
		c1.1,0.1,2.2,0.1,3.4,0.1c12,0.1,24,0.3,36,0.3c42.7,0,85.4,0,128.1,0c1.7,0,3.5,0,5,0c1,1.2,0.2,2.1,0.1,2.9
		c-0.8,5.8-0.6,11.5,0.9,17.1c0.3,1.2,0.8,2.4,1.4,3.5c0.6,1.1,1.3,2.1,2.2,3.5c-1.7,0.1-3.1,0.2-4.5,0.2c-23.5,0.1-47,0.2-70.5,0.4
		c-3.2,0-6.4,0.1-9.6-0.5c-2.5-0.4-5.1-0.3-7.7-0.3c-44,0-88,0.1-132,0.1c-6.6,0-5.7,1-5.8-5.9c0-2.6,0-5.1-0.7-7.6
		c-0.3-1.1,0.1-2.5,0.2-3.7c0.2-2-0.9-3.5-2.8-3.7c-1.3-0.2-2.6-0.1-3.8-0.1c-18.9,0-37.8,0.1-56.6,0.2c-6,0-5.2,0.6-5.3-5.5
		c0-0.8,0-1.6,0-2.4c0.1-1.8,0.4-2.2,2.3-2.2c6.6,0,13.1,0,19.7,0c19.7,0,39.4,0.1,59,0.1c2.4,0,4.8-0.4,7.1-0.7
		c1.8-0.2,3.4-0.9,4.8-2.3c-1.8-1.7-4-2.3-6.2-2.5c-2.5-0.3-5.1-0.4-7.7-0.4c-23.8,0.1-47.7,0.2-71.5,0.2c-1.1,0-2.2,0-3.4,0
		c-4.1,0-4.2,0.3-4.2-4.2c0-12.8,0-25.6,0-38.4c0-1.8,0-3.5,0.8-5.2c7.4-16.4,16.6-31.7,25.9-46.9c1.4,0.2,1.1,1.2,1.1,1.9
		c0,6.4,0,12.8,0.1,19.2c0,9.1,0.1,18.2,0,27.4c0,3.2-0.1,6.4-0.3,9.6c-0.3,7.5,3.8,13.7,10.7,16.5c3.6,1.5,7.3,2,11.2,2
		c19.7,0,39.4,0.2,59,0.2c56.3,0,112.6,0,168.9,0c4,0,8-0.3,12-0.2c3.8,0.1,7.3-1,10.6-2.5c6.4-3,9.6-8.2,9.6-15.3
		c0-28-0.1-56-0.1-84c0-3.1,0-3.2,3.2-3.1c7,0.1,14.1,0.2,21.1,0.3c1.1,0,2.3,0,3.3-0.3c1.4-0.4,2.3-2,2.3-3.3
		c-0.1-1.4-1.1-2.8-2.6-3c-1.2-0.2-2.5-0.2-3.8-0.2c-7,0.1-14.1,0.2-21.1,0.2c-2.2,0-2.3-0.1-2.3-2.5c0-0.8,0-1.6,0-2.4
		c0-19,0-38.1,0-57.1c0-1.8,0.1-3.5,0.2-5.3c1.3-2.4,3.6-2.4,5.8-2.4c10.1-0.1,20.1-0.1,30.2,0c5.2,0.1,5.6,0.6,5.7,5.9
		c0,2.1-0.4,4.2,0.4,6.2c1.6,3.6,3.1,7.3,4.8,11.1c-0.2,0.7-1.1,0.5-1.9,0.5c-9.9,0.4-19.8,0.7-29.7,1c-0.9,0-1.9,0.1-2.8,0.4
		c-1,0.3-1.5,1.2-1.4,2.2c0.1,1,0.8,1.8,1.8,1.9c0.6,0.1,1.3,0.1,1.9,0.1c9.3,0.3,18.5,0.5,27.8,0.8c2.7,0.1,5.4,0,8.1,0.1
		c1.7,0,2.3,0.6,2.2,2.3c0,1.1-0.2,2.2-0.5,3.3c-0.5,1.6-1.4,2-3.2,1.5c-0.6-0.2-1.2-0.3-1.8-0.4c-1.1-0.3-1.4,0.5-1.6,1.3
		c-0.4,1.6,0.1,2.9,1.2,3.9c2.4,2.2,5,4,8.5,3.7c0.3,0,0.6-0.1,1-0.1c0.1,0,0.3,0.1,0.7,0.4c-0.1,1.5-0.4,3.2-0.4,4.9
		c0,1.6,0.2,3.2,0.2,4.8c0,0.4-0.4,0.9-0.8,1c-0.6,0.2-1.2,0.2-1.9,0.4c-4.4,1-7.8,3.5-10.4,7.2c-2.2,3.2-3.7,6.7-4.7,10.4
		c-1.3,4.6-2.5,9.2-3.8,13.9c-0.5,2-0.6,2.1-2.5,2.1c-5.4,0.1-10.9,0.1-16.3,0.1c-1.3,0-2.6,0.1-3.8,0.5c-0.6,0.2-1.3,1.1-1.3,1.7
		c0,0.6,0.8,1.5,1.4,1.6c1.5,0.4,3.2,0.5,4.7,0.5c4.6,0.1,9.3,0.1,13.9,0.1c1.7,0,2,0.5,1.6,2c-2,7.6-4.1,15.1-6,22.7
		c-4.1,16.4-8.4,32.8-11.6,49.4c-0.4,1.9-0.9,3.9-0.6,5.7c0.5,2.7-0.6,4.2-2.3,5.8c-0.7,0.6-1.8,1.3-1.9,2.1
		c-0.4,2.5-2.2,2.7-4.1,3.1c-1.7,0.3-3.3,1.1-5,1.6c-9.7,2.6-19.7,2.4-29.5,2.4c-74.7,0.2-149.4,0.1-224.2,0.1c-2.5,0-5-0.3-8.5,0.9
		c3.3,1,5.7,0.7,8,0.7c78.2,0,156.5,0,234.7,0c2.4,0,4.8-0.1,7.2,0.3C482.4,627.5,483.7,628.7,482.7,631.4"/>
	<path class="st0" d="M538.7,721.3H534c-92.6,0-185.3,0-277.9,0c-5.4,0-4.9,0.6-4.9-4.8c0-12.5-0.1-25-0.1-37.4
		c0-0.8-0.1-1.6,0.1-2.4c0.1-0.5,0.7-1,1.2-1.2c0.6-0.2,1.3-0.1,1.9-0.1c43.7,0,87.4,0.1,131,0.1c1.7,0,3.5,0.4,5.2,0.5
		c1.6,0.1,3.2,0.2,4.8,0.2c31.7,0.1,63.4,0.1,95,0.2c4.3,0,8.6-0.2,13-0.3c2,0,4-0.1,5.5,2c1.2,1.7,3.4,1.5,5.3,1.6
		c3.2,0.1,6.4,0.1,9.6,0.2c4.7,0.1,9.2,1,13.7,2c2.9,0.6,5.5,1.7,7.8,3.5c1.4,1.1,2.8,2.1,4.4,2.9c3,1.6,6.2,2.5,9.7,1.6
		c2.9-0.7,6-1.2,9-1.7c1.7-0.3,3.5-0.5,5.2-0.7c2.6-0.2,5,0.2,7.4,1.5c2.2,1.2,4.7,2,7.1,2.9c2.4,0.9,4.7,0.6,7-0.6
		c1.7-0.9,3.4-1.8,4.9-2.9c2.9-2.2,5.2-4.8,4.8-8.8c0-0.3,0.3-0.5,0.5-1h234c0.4,1.4-0.7,1.3-1.3,1.6c-9.1,3.9-18.3,7.5-27.3,11.7
		c-19.3,9-38.4,18.3-57.6,27.4c-1,0.5-2,1.1-3,1.4c-1.1,0.2-2.3,0.3-3.3-0.1c-0.7-0.3-1.1-1.4-1.4-2.3c-1.4-3.3-3.7-5.9-6.5-8.2
		c-2-1.6-3.9-3.2-6-4.7c-0.5-0.4-1.2-0.5-1.7-0.7c-6.6-2.3-13.2-4.6-19.9-7c1.5-1.5,3.5-1.8,5.2-2.5c3.4-1.5,6.8-2.7,10.2-4.3
		c1.3-0.6,2.4-1.6,3.4-2.5c0.3-0.3,0.4-1.3,0.1-1.8c-0.2-0.5-1-1-1.4-1c-1.6,0.2-3.1,0.5-4.6,1.2c-5.6,2.4-11.1,4.9-16.6,7.6
		c-2.7,1.3-5.2,1.6-8.3,1c-24.6-4.9-49.5-5.8-74.5-4.6c-14.5,0.7-29,2.3-43.3,5.5c-7.5,1.7-14.9,3.6-22,6.7c-3.8,1.7-7.5,3.6-11,5.8
		c-4.1,2.6-7.4,6.1-8.9,10.9C539.3,720.4,539,720.8,538.7,721.3"/>
	<path class="st7" d="M325.1,377.7c0.2,0.6,0.6,1.1,0.6,1.7c-0.1,1.9-0.5,3.8-0.5,5.7c-0.1,8.9,0,17.9-0.1,26.8c0,1.3,0,2.6-0.2,3.8
		c-0.1,0.4-0.8,1.1-1.2,1.1c-1.4,0.2-2.9,0.1-4.3,0.1c-26.1,0-52.1,0-78.2,0c-5,0-9.9,0.1-14.9,0.3c-4.6,0.2-8.8,1.8-12.3,4.6
		c-4.2,3.3-6,7.8-6,13c0,26.8,0.1,53.7,0.2,80.5c0,4.4-0.1,4.2-4.2,4.2c-19,0-38,0-57.1,0c-6.9,0-13.7,0.1-20.6,0.2
		c-3.1,0.1-6.1-0.3-9-1.2c-1-0.3-1.8-1.1-2.8-1.7c-0.3-2.1-0.4-4.1-0.5-6.2c-0.5-25.4,0.3-50.8,1.2-76.2c0.6-17.2,1.2-34.5,2.7-51.7
		c0.3-4,2.2-5.7,6.1-5.8c2.1,0,4.2,0,6.2,0c62.7,0,125.3,0,188,0C320.7,377.2,322.9,377.2,325.1,377.7"/>
	<path class="st7" d="M265.4,519.7h-44.6c-1.3,0-2.6,0-3.8,0c-1.9-0.1-2.1-0.3-2.2-2.3c0-1.3,0-2.6,0-3.8c0-24.9,0-49.9,0-74.8
		c0-1.4,0.3-3-0.2-4.3c-1-3.3,0.6-5.5,2.6-7.6c1.5-1.5,3.4-2.3,5.5-2.8c4.1-1.2,8.2-1.3,12.3-1c2.1,0.1,4.1,0.2,6.2,0.2
		c26.2,0,52.4,0,78.6,0c6,0,5.4-0.6,5.4,5.4c0,25.9,0,51.8,0.1,77.7c0,1.4-0.2,2.9,0.1,4.3c0.4,1.7,0.3,3.1-0.6,4.5
		c-1.1,1.7-2.5,3-4.4,3.5c-2.4,0.7-4.9,1.4-7.5,1.3c-3.3-0.2-6.7-0.2-10.1-0.2C290.3,519.7,277.9,519.7,265.4,519.7L265.4,519.7z"/>
	<path class="st8" d="M641.8,607.6c-0.5,0.1-1,0.2-1.3,0.5c-1,0.7-1.3,1.7-0.6,2.4c0.9,0.9,1.9,1.7,2.9,2.4c1,0.7,2.1,1.4,3.1,2.1
		c-1.9,2-3.7,3.8-5.4,5.7c-1.9,2.1-3.7,4.4-4.5,7.2c-0.1,0.3,0.2,0.8,0.4,1.2c0.1,0.1,0.7,0,0.9-0.2c1.6-1.5,3.3-3,4.8-4.6
		c1.8-1.8,3.6-3.7,5.4-5.4c0.5-0.5,1.3-0.7,2.2-1.2c0,1.2,0.2,2,0,2.7c-1.7,7.3-3.1,14.6-5.5,21.8c-1.9,5.7-3.2,11.7-4.7,17.6
		c-0.5,2-0.8,4.1-1.4,6.1c-0.6,2.3-1.5,4.6,0.4,7.3c-2.1,0-3.3,0-4.6,0c-9.9,0.1-19.8,0.2-29.7,0.3c-2.2,0-3.9-0.4-5.6-2
		c-3-2.9-6.2-5.6-9.3-8.3c-2.8-2.4-5.8-4.5-9.6-4.9c-0.9-0.1-1.5-0.6-1.4-1.6c0.9-7.8,1.7-15.5,4.2-23c1.8-2.5,2.4-5.6,3.8-8.3
		l0,0.1c0.6-0.4,0.5-1.2,0.9-1.7c1.1-2.1,2.2-4.3,3.1-6.4c2.6-5.8,5.1-11.7,7.7-17.6c0.6-1.4,0.8-3,2.6-4.4
		c-0.3,5.3,0.9,9.9,1.8,14.6c0.9,4.6,0.6,9.2-1.3,13.6c-1.6,3.8-3.3,7.6-4.7,11.5c-1,2.7-1.8,5.5-2.6,8.2c-0.4,1.5-0.7,3-1.8,4.3
		c-1,1.3-0.8,2.5,0.1,3.5c1,1.2,2.3,1.5,3.9,0.8c0.7-0.3,1.4-0.7,2.1-1.2c1.1-0.8,1.9-2,1.4-3.3c-0.7-1.7-0.1-3.1,0.5-4.6
		c1.5-4.4,3.1-8.7,4.7-13.1c2.4-6.5,2.9-13.1,1.2-19.8c-0.4-1.7-0.8-3.4-1.1-5.1c-1-5.6-0.7-11.1,0.8-16.6c0.7-2.3,1.1-4.7,1.8-7
		c0.4-1.3,1.1-2.6,1.9-3.8c5.4-7.8,12.5-13.7,20.6-18.3c6-3.4,12-6.6,18.7-8.4c2.7,2.7,5.9,4.5,9.4,6c1.3,0.5,2.8,0.8,3.3,2.4
		c-1.6,1.9-3.4,3.7-4.9,5.7c-1.7,2.1-2.9,4.5-3.1,7.3c-0.1,0.8,0,1.6,0.2,2.3c0.3,1.2,1.1,0.7,1.8,0.5c1.9-0.3,3.7-1.1,5.2-2.3
		c3.1-2.5,5.8-1.7,8.5,0.8c3,2.7,5.3,5.9,7.6,9.2c4.2,6,8.2,12.2,13.3,17.5c0.8,0.8,1.5,1.7,1.2,3c-0.2,0.2-0.4,0.5-0.6,0.7
		c-2.1,2.3-2.1,2.5-0.2,5.3c0,2.5-2.1,3.7-3.1,5.6c-0.9,1.6-2.4,3-2.1,5.1c-0.2,1-0.5,2-0.8,3.5c2-0.7,3.1-1.8,4.3-2.7
		c3.7-3,7.6-5.9,11.9-8c1.3-0.6,2.6-1.2,4-1.7c1.1-0.4,1.5,0,1.9,1.3c0.6,1.8,0.3,3.3-0.9,4.9c-2.1,3-3.9,6.2-5.8,9.4
		c-0.7,1.1-1.3,2-2.5,2.7c-6.3,3.7-9.8,9.4-11.1,16.5c-0.2,0.9-0.2,1.9-0.4,2.9c-0.2,0.8,0.4,2.2-0.9,2.3c-0.6,0-1.2-1.3-1.7-2
		c-1.5-2.1-1.5-4.4-0.7-6.8c1.7-4.9,4.2-9.3,7.8-13c1-1,2.1-2,3.1-3c0.2-0.2,0.1-0.8,0-1.2c-0.1-0.2-0.5-0.3-0.8-0.3
		c-0.5,0-0.9,0.1-1.4,0.1c-7.6,1.2-10.9,7.3-14.4,13c-0.9,1.4-0.9,3.5-2.9,4.2c-0.8-0.4-1-1.2-1-2c0-1.6,0.1-3.1,0.2-4.7
		c0.1-2.8-0.9-5.2-2.9-7.2c-1.8-1.8-3.4-3.7-5.1-5.5c-0.3-0.3-0.6-0.6-0.9-0.9l0.1,0.1c-3.2-4.6-6.1-9.3-11.1-12.3
		c-3.8-2.3-7.7-3.5-11.1-2.9c-0.4,0.2,0.2,0.2,0.7,0.7c0.5,0.4-0.3-0.2-0.1,0.4C642.5,607.8,642.1,607.9,641.8,607.6"/>
	<path class="st0" d="M621.8,459.2c1.3,0.9,2.5,2,4,2.5c2,0.7,3.5,2,5.2,3.5c-0.7,1.1-1.4,2.1-2,3.2c-0.3,0.6-0.3,1.3,0.4,1.6
		c0.3,0.1,1,0,1.2-0.3c0.9-0.9,1.6-2,2.5-2.9c3-2.8,5-2.2,6.2,1.8c1.4,4.8,0.6,9.5-0.7,14.2c-0.5,2-1.3,3.9-2.3,5.8
		c-1.3,2.4-3.3,3.7-6.3,3.6c-3.5-0.1-4.3,0.6-5.4,4.1c-0.2,0.6-0.3,1.2-0.5,1.8c-0.6,1.3-1.7,1.5-2.6,0.4c-2.2-2.4-3.8-5.1-4.7-8.3
		c-0.5-1.7-1.3-2.4-2.1-2c-1.1,0.5-1,1.5-0.9,2.5c0.4,4.2,2.3,7.6,5.2,10.5c0.6,0.6,1.6,1.5,1.5,2.1c-0.2,1-1,2.3-1.8,2.6
		c-2.8,1-4.2,3.4-6,5.3c-5,5.4-9.8,11-14.7,16.5c-0.8,0.9-1.8,1.8-2.8,2.6c-0.8,0.6-1.6,0.3-2.2-0.8c-0.2-0.4-0.3-1-0.6-1.3
		c-0.4-0.4-1.1-0.8-1.6-0.7c-0.5,0.1-0.9,0.8-1,1.4c-0.1,0.6,0.2,1.2,0.3,1.8c0.2,0.6,0.3,1.3-0.6,1.5c-0.9,0.2-1.5-0.1-1.8-1.1
		c-0.2-0.6-0.2-1.3-0.6-1.8c-0.3-0.5-1-1-1.5-0.9c-0.5,0-1.1,0.5-1.4,1c-0.3,0.5-0.2,1.2-0.3,1.9c-0.3,1.8-0.3,1.8-3,1.8
		c-0.9-0.8-0.2-1.7-0.3-2.6c0-0.8,0.2-1.6,0-2.4c-0.1-0.5-0.7-1.2-1.1-1.3c-0.5-0.1-1.3,0.2-1.6,0.7c-1.1,1.5-1.2,3.3-1.4,5
		c-0.1,0.8-0.8,0.9-1.5,0.8c-1-0.1-1.5-0.6-1.4-1.5c0.3-1.6,0.8-3.1,1-4.7c0.1-0.8,0.1-1.6,0-2.3c-0.1-0.4-0.5-0.8-0.9-0.9
		c-0.4-0.1-1.1,0-1.3,0.3c-0.6,0.9-1.3,1.8-1.6,2.9c-0.6,1.6-0.9,3.4-1.4,5.2c-0.9-0.3-1.6-0.6-2.4-0.9c-0.8-0.4-1.2-0.9-0.8-1.9
		c0.6-1.3,1.2-2.6,1.7-4c0.2-0.6,0.5-1.2,0.6-1.8c0.2-0.9-0.2-1.7-1-1.9c-0.5-0.1-1.4,0-1.7,0.3c-1.1,1.3-2,2.8-3.3,4.6
		c-2.3-6.1-4.7-11.8-6-17.8c-1.4-6.1-2.5-12.2-3.5-18.4c-0.4-2.5-0.2-5.1,0-7.6c0.2-2.5,0.7-5.1,1-7.6c0.5-4,0.5-7.9-0.2-11.9
		c-1.3-7.3-1.6-14.6-1.6-22c0-1.2,0.5-2.5,1.1-3.6c4.7-9.8,12.8-14.4,23.4-14.9c4.8-0.2,9.6,0,14.4,0.1c5,0.1,9.9,0.2,14.7-1.3
		c1.8-0.6,3.6-1.2,5.8-2c0,0.9,0.1,1.6-0.1,2.3c-1.8,6.2-1.3,12.3,0.4,18.4c0.4,1.4,0.9,2.8,1.6,4c1.2,1.9,2.1,3.9,2.3,6.2
		c0.2,2.2,1.4,4.2,3.1,5.8c0.1,0.4,0.4,0.7,0.7,0.8l0.1,0.1c0.2,0.4,0.5,0.7,0.9,0.9l0,0C621.1,458.7,621.4,459,621.8,459.2"/>
	<path class="st8" d="M514.1,623.9c0.5-0.4,1.3-0.6,1.4-1.1c0.3-1-0.6-1.3-1.3-1.6c-0.7-0.3-1.5-0.4-2.3-0.5
		c-1.1-0.2-2.1-0.3-3.7-0.5c1.3-1.6,2.6-2.8,3.2-4.3c0.7-1.6,0.8-3.4,1.1-5.1c0.8-1.2,2.1-1.9,3.2-2.8c0.3-0.2,0.7-0.4,1-0.7
		c0.3-0.3,0.7-0.5,1-0.8c0.1-0.2,0.3-0.3,0.4-0.5c0.3-0.3,0.6-0.6,0.9-1c6-6.4,10.9-13.6,15.2-21.3c2.7-4.9,5.6-9.6,8.8-14.1
		c4-5.8,10-7.2,16.5-7.7c1.4,1.7,2.6,3.6,4.3,5.1c3.2,2.7,5,6.2,6.1,10.1c0.1,0.5,0.2,0.9,0.3,1.4c1.1,6.5,3,12.7,6.4,18.4
		c0.7,1.1,0.7,2.3,0.5,3.7c-0.7,5.3-3.1,9.7-7,13.3c-1.5,1.4-3,2.9-4.3,4.5c-2.3,2.8-3.4,6.1-2.9,9.8c0.2,1.6,0.4,3.2,0.5,4.8
		c0.2,2.7-0.1,5.4-1.1,8c-0.8,2.1-1.5,4.2-2.2,6.3c-0.7,2.1-0.8,4.4-3,5.7c-1,0.6-0.9,2-0.4,3.1c0.5,1.2,1.9,1.9,3.2,1.7
		c1.1-0.2,2.2-0.6,3.1-1.2c1.3-0.8,2.1-2.1,1.4-3.7c-0.6-1.4-0.2-2.4,0.5-3.5c4.4-6.4,5.9-13.4,4.3-21c-0.5-2.5,0-4.8,1.3-6.9
		c0.5-0.8,1.1-1.6,1.6-2.4c2.8-3.7,5.5-7.5,6.7-12.1c0-0.2,0.5-0.4,0.7-0.4c0.2,0,0.6,0.3,0.6,0.5c1.2,3.3,1.8,6.7,1.2,10.3
		c-0.8,4.9-1.5,9.8-3,14.5c-2.4,7.3-4,14.8-4.8,22.5c-0.1,0.6-0.3,1.3-0.3,1.9c0,2.5-1.2,3.7-3.6,4.3c-3.4,0.8-6.8,1.9-10.2,2.7
		c-1.7,0.4-3.4,0.4-5.1-0.5c-5.4-2.8-10.8-5.5-16.2-8.2c-1-0.5-1.9-1.3-1.9-2.5c-0.4-1.5,0.2-2.9,1-4.1c4.3-6.7,6.9-14.4,10.6-21.4
		c3.7-7.1,5.4-14.7,4.6-22.7c-0.4-3.9-0.8-8-4.8-10.3c-2.8-0.5-3.8-0.2-4.4,2c-0.5,2-0.7,4.1-1,6.1c-0.3,2.7-0.7,5.4-0.8,8.1
		c-0.2,3.1-1,5.9-2.5,8.6c-1.1,1.9-1.9,4-2.8,6c-0.3,0.7-0.9,1.3-1.4,1.9c-1.6-0.2-2.4-1.4-3.6-2.3c-1.5-1.2-3.1-1.8-4.6-0.1
		c-2,4.2,1.5,5.1,4,6.4c1.1,0.6,3.2,0,2.1,2.4l-0.1,0.2c-0.6,0.5-0.3,1.3-0.8,1.8c-1.3,3.2-2.7,6.5-4,9.7c-0.6,1.7-2.4,2.6-3.5,1.3
		c-2.3-2.7-5.6-3-8.5-4c-2.9-1-6-1.1-9,0c-0.7,0.2-1.6,0.5-2.3,0.5c-4-0.5-7.1,1.4-10,3.9c-2.9,2.5-4.6,5.6-5.3,9.4
		c-0.7,3.8,0.1,7.3,1.8,10.6c0.4,0.7,0.8,1.3,1.2,2.1c-3.4-0.2-3.4-0.2-7.5-2.7c-1.5-5.6,1.2-10.5,2.4-15.7c0.5-2.1,2.1-4.1,0.6-6.4
		c-1.3-1.3-2.8,0-4.1-0.2l0.1,0.1c0.2-0.7,0.3-1.5,0.6-2.1c1.2-1.9,2.4-3.7,3.6-5.5c5.1-5.4,11.8-7.8,18.7-9.6
		C509.1,625.8,511.7,625.1,514.1,623.9"/>
	<path class="st0" d="M489.4,428.6c-2.7-6.3-8-9.3-14.2-11c-1.1-0.3-2.2-0.3-3.3-0.3c-5-0.1-9.9-0.3-14.9-0.3
		c-30.5,0-61.1,0-91.6-0.1c-1.6,0-3.1,0-4.7,0c-0.3-1.3,0.7-1.5,1.3-1.8c9.5-4.1,19.1-8.2,28.6-12.3c4.7-2,9.5-3.7,14.2-5.7
		c2.9-1.2,5.8-1.6,8.9-1.6c23.5,0.1,47,0,70.5,0c21.1,0,42.2,0,63.3,0c1.5,0,3.1,0.1,4.8,0.2c-2.5,4.2-4.4,5.9-8.8,8
		c-1.9,0.9-3.8,1.6-5.7,2.5c-0.3,0.2-0.7,0.7-0.7,1c0,0.4,0.5,0.9,0.8,1c1.4,0.3,2.8,0.6,4.2,0.6c1.1,0,2.2-0.3,3.8-0.6
		c-2.7,3.4-5.4,6.3-7.3,9.6c-2,3.4-3.4,7.2-5,10.8c-1.9,1.5-4.2,1.4-6.4,1.4c-11,0.3-22-0.6-32.9,0.7
		C492.3,431,490.4,430.6,489.4,428.6"/>
	<path class="st7" d="M675.5,565c-1.6-2.3-3.5-4.6-4.9-7c-1.5-2.8-3.4-5-6.4-6.2c-1.5-0.6-2.2-1.3-2.1-3.2c0.4-5.3-2.7-8.8-7-11
		c-5.4-2.8-11.2-3.9-17.2-2.1c-0.8,0.2-1.5,0.5-2.3,0.8c-1,0.3-1.9,0.1-2.5-0.8c-0.2-0.3-0.4-0.5-0.6-0.8c-2.1-3.8-5.3-5.8-9.9-6
		c0.1-2.7,0.2-5.2,0.5-7.8c0.2-1.5-0.5-3.6,1-4.4c1.1-0.5,2.8,0.2,4.2,0.3c0.6,0.1,1.3,0.2,1.9,0.1c2.5,0,3.9-1.2,4.4-3.5
		c0.2-1.1,0.2-2.2,0.4-3.3c0.3-1.4,0.5-2.8,1-4.2c0.8-2.2,1.1-2.2,3.6-1.9c2.5,0.3,5.1,0.5,7.6,0.5c2.6-0.1,3.6-1.6,2.8-4.2
		c-0.6-1.7-0.6-3.4-0.4-5.2c5.7-3.9,12.1-2.4,18.1-2.1c5.5,0.3,11.2,0.3,16.7,1.6c6.4,1.5,8.7,4.1,8.7,10.6c0,8.5-1.7,16.9-4,25
		c-3,10.8-6.8,21.3-11.1,31.7C677.6,563.1,677.1,564.4,675.5,565"/>
	<path class="st2" d="M325.1,377.7c-0.7,0.4-1.3,0.9-2,1c-1.3,0.2-2.6,0.1-3.8,0.1c-64.8,0-129.5,0-194.3-0.1
		c-5.6,0-5.3-0.1-5.3,5.2c0,2.9-0.1,5.7-0.7,8.6c-0.5,2.8-0.2,5.7-0.3,8.6c-0.1,2.1-0.4,4.1-0.6,6.2c-0.1,1.3-0.2,2.5-0.2,3.8
		c-0.1,4-0.1,8-0.1,12c0,2.5,0.1,5.1-0.7,7.6c-0.4,1.2-0.2,2.5-0.2,3.8c0,5.8,0,11.5-0.1,17.3c0,3.3,0.2,6.7-0.7,10
		c-0.4,1.3-0.1,2.9-0.1,4.3c0,15.4-0.1,30.7-0.1,46.1c0,1.7,0.6,3.6-1,4.9c-2.2-1.5-3.2-3.4-2.7-6.1c0.2-1.2,0.1-2.6,0.1-3.8
		c0-40.8,0-81.6,0-122.4c0-1.3,0-2.6-0.1-3.8c-0.2-3.8,1.4-6.5,4.9-7.8c2.4-0.9,4.9-1.5,7.5-1.3c3.4,0.1,6.7,0.2,10.1,0.2
		c56.3,0,112.6,0,168.9,0c3,0,6.1-0.3,9.1-0.2c2.4,0.1,4.8,0.5,7.1,1C322.3,373.5,324.3,375,325.1,377.7"/>
	<path class="st0" d="M761.1,723c28.2-15.5,57.5-28.4,86.9-41.4c0.1,0.6,0.2,1.1,0.2,1.5c0,12.8,0,25.6,0,38.4
		c0,1.1-0.5,1.4-1.4,1.4c-0.8,0-1.6,0-2.4,0c-26.7,0-53.4,0.1-80.1,0.1C763.3,723,762.2,723,761.1,723"/>
	<path class="st7" d="M549,501.3c0.7,2.9,1.3,5.9,2.1,8.8c1.6,5.5,3.4,10.9,5.1,16.4c1.6,5.4,5.1,9.1,10.4,11c0.7,0.3,1.5,0.6,2.4,1
		c-0.7,0.6-1.1,1.3-1.8,1.7c-2.2,1.7-3.9,3.8-4.8,6.4c-0.5,1.6-1.5,2.3-2.9,2.8c-5,2-10,4-15,6.1c-1.6,0.7-3.2,1.5-4.7,2.4
		c-2.4,1.4-4.3,3.4-5,6.2c-0.6,2.2-1.9,4-3.1,5.9c-3.5,5.1-7,10.2-10.4,15.4c-2.9,4.4-5.4,9-7.2,14c-2.3-0.3-1.2-1.7-1-2.9
		c3.5-14.1,6.8-28.3,10.4-42.3c3.1-12.4,6.5-24.7,9.7-37.1c0.7-2.5,1.3-4.9,2.2-7.4c0.9-2.5,1.8-5.1,3.8-7.1
		C542.4,501.8,545.6,501.1,549,501.3"/>
	<path class="st2" d="M677,706.2c-2,0.8-3.1,1.3-4.2,1.7c-7.2,2.6-14.4,5.1-21.6,7.7c-3.1,1.2-6.3,2.4-9.2,4
		c-2.2,1.3-4.4,1.6-6.8,1.6c-10.2,0-20.5,0-30.7,0c-10.9,0-21.7,0-32.6,0c-1.3,0-2.6,0-3.8-0.1c-0.6,0-1-0.9-0.8-1.4
		c0.6-1.6,1.6-2.8,3-3.6c2.2-1.3,4.4-2.5,6.8-3.5c7.1-2.9,14.7-4.4,22.2-5.6c19.8-3.1,39.8-3.5,59.7-2.7c4.3,0.2,8.6,0.6,12.9,0.9
		C673.4,705.5,674.8,705.8,677,706.2"/>
	<path class="st7" d="M482.7,631.4c-0.6-2.9-0.6-2.9-2.7-3c-2.1-0.1-4.2,0-6.2,0c-79.8,0-159.6,0-239.4,0c-1.6,0-3.2,0-4.8,0
		c-1.5-0.1-2.2-0.7-2.3-1.9c0-1.5,0.7-2.6,2.1-2.8c1.1-0.2,2.2-0.2,3.3-0.2c5.6,0,11.2,0,16.8,0c72,0,143.9,0,215.9,0
		c2.5,0,5.1,0.2,7.6-0.6c1-0.3,2.2-0.2,3.3-0.2c5.3,0,10.6-0.1,15.8-0.1c-0.8,0.5-1.6,1.1-2.4,1.5
		C486.7,625.9,483.9,627.9,482.7,631.4"/>
	<path class="st0" d="M729.4,555.6c-0.1,3.5-1.7,6.4-3.2,9.4c-2,4.1-3.2,8.3-2.8,12.9c0.2,2,0.4,4.2,1.1,6.1
		c0.7,1.9,0.7,3.2-0.8,4.7c-5,5.1-9.9,10.4-14.9,15.5c-1.3,1.3-1.8,1.4-3.2,0.1c-1.5-1.3-3-2.3-4.9-2.8c-0.7-0.2-1.4-0.7-1.8-1.3
		c-2.6-4-2.5-4-1-8.7c4.1-12.9,8.2-25.8,12.4-38.7c0.2-0.8,0.6-1.5,0.9-2.2c5.3-2.8,11-1.8,16.5-0.9
		C730.9,550.3,729.6,553.4,729.4,555.6"/>
	<path class="st7" d="M713.8,515c-0.4,2-0.9,4-1.4,6c-4.8,19.2-10.6,38.2-16.1,57.2c-0.9,3.2-1.7,6.5-2.6,9.7
		c-0.3,0.9-0.6,1.8-1,2.7c-0.4-0.2-0.8-0.3-0.9-0.5c-3-4.6-5.9-9.1-8.9-13.7c-0.8-1.2-1-2.2-0.5-3.6c3.5-11.1,6.9-22.3,10.4-33.4
		c3-9.4,6-18.9,8-28.6c0.4-2.2,1-4.3,1.4-6.5c0.2,0.1,0.4,0.3,0.6,0.4C704,510.8,709.4,512.4,713.8,515"/>
	<path class="st0" d="M730,626.4c-0.2,0.7-0.2,1.2-0.4,1.6c-2.7,5.6-5.3,11.2-8.2,16.8c-2.4,4.6-5.7,8.4-9.5,11.9
		c-2.3,2.1-4.9,2.9-7.9,1.8c-2.4-0.9-4.8-1.8-7-3c-2.4-1.2-4.6-2.8-6.9-4.2c-1-0.6-1.6-1.4-1.4-2.7c0.6-4.2,2.3-7.8,5.9-11.3
		c0.1,2.1,0.2,3.5,0.3,4.9c1.6,0.1,2.1-1,2.7-1.9c2.6-4,5.1-8.1,7.6-12.2c0.9-1.5,1.8-3,2.8-4.4c0.8-1.2,1.5-2.9,2.6-3.2
		c1-0.3,2.5,0.9,3.7,1.5c3.6,1.9,7.4,3,11.3,3.6C727.2,625.7,728.5,626.1,730,626.4"/>
	<path class="st9" d="M927,421.8c0-3.8,0.2-7.6,0-11.4H825.5c-8.9-1.3-17.9-0.6-26.8-0.9c-0.8,0-1.6-0.1-2.4-0.3
		c-1-0.3-1.6-1.1-1.6-2.1c0-1.1,0.6-2,1.6-2.1c3-0.5,5.9-1.2,9-1.2c15.5,0.1,31,0,46.5,0c21.8,0,43.5,0,65.3,0c3.2,0,6.3,0,9.6,0
		c1.2-1.7-0.4-4.1,1.3-5.8c0,7.5,0.1,15.1,0.1,22.6C928,421.2,927.7,421.7,927,421.8"/>
	<path class="st10" d="M927.9,596.5c0,1.3,0,2.2,0,3.2c0,17.1,0,34.2,0,51.4c0,2.5-0.5,4.6-2,6.7c-1.6,2.2-2.9,4.6-4.3,6.9
		c-8.6,14.8-17.9,29.1-27.3,43.4c-3.3,5.1-7,9.9-10.5,14.9c-0.8,1.2-1.8,1.7-3.2,1.6c-2-0.2-4,0.1-6.3-0.3c0.6-1.8,1.7-3,2.6-4.2
		c9.7-13.3,19.5-26.5,28.4-40.5c6.2-9.7,11.9-19.7,17.9-29.5c0.8-1.3,0.9-2.7,0.9-4.1c0-6.7,0-13.4,0.2-20.2
		c0.1-8.2,0.4-16.3,0.6-24.5C924.9,599.3,925.1,597.4,927.9,596.5"/>
	<path class="st11" d="M730.2,609.9c0.3-0.9,0.4-1.4,0.5-1.8c1.3-5.3,0.4-7.9-4-11.2c-1.5-1.1-1.5-1.5-0.2-2.9
		c0.9-0.9,1.7-1.3,3-0.9c2.3,0.9,4.4,0.2,6.4-0.8c3.4-1.7,6.9-3.4,10.3-5c1-0.5,2.1-0.9,3.1-1.2c3.6-1.1,6.6-3.1,9.6-5.3
		c0.3-0.2,0.4-0.9,0.2-1.2c-0.2-0.4-0.8-0.8-1.1-0.7c-2.1,0.7-4.2,1.3-6.3,2.2c-4.1,1.7-5.4,1.1-6.1-3.3c-0.3-1.9-0.3-3.8-0.3-5.7
		c0-2.6-0.1-5.1-1.2-7.5c-0.8-1.7-0.4-3.2,0.7-4.5c2.1-2.6,4.4-5.1,6.7-7.5c0.3-0.4,1.2-0.5,1.7-0.3c1.1,0.3,2.1,0.8,3.1,1.2
		c1.2,0.5,1.7,1.4,1.4,2.7c-0.4,1.7-0.9,3.4-1.3,5.1c-0.3,1.1-0.6,2.2-0.7,3.3c-0.2,1.7,0.5,3.2,1.9,4.2c0.9,0.7,1.9,1.3,2.9,1.7
		c2,0.7,2.8,2,2.3,4c-0.7,3.3-1.3,6.6-2.2,9.8c-0.7,2.7-2.9,4.1-5.4,5c-3.3,1.1-6.7,2.2-9.9,3.5c-1.6,0.6-3.1,1.5-4.6,2.5
		c-0.4,0.3-0.9,1.2-0.7,1.6c1.6,2.9,0.7,6,0.3,8.9c-0.7,6.2,0.6,5.8-6.6,5C732.8,610.7,731.7,610.3,730.2,609.9"/>
	<path class="st10" d="M675.5,565c4.1-10.4,7.9-20.9,11.3-31.5c1.9-6.1,3-12.4,4.1-18.6c0.7-3.8,1-7.6,0.9-11.4
		c-0.1-3.9-2.2-6.7-6.1-7.4c-3.1-0.6-6.2-1.3-9.5-1.2c-2.4,0.1-4.7-0.7-7.1-0.7c-5.6,0-11.2-0.7-16.7,0.5c-0.9,0.2-1.9,0.2-2.9,0.2
		c-0.2-0.8-0.5-1.5-0.7-2.3c-0.2-0.9,0.1-1.6,1.1-1.7c1.4-0.2,2.8-0.5,4.3-0.6c11.6-0.4,23.3-0.8,34.9-1.2c1.7-0.1,3.4,0.1,5.1,0.9
		c3.4,1.7,4.9,4.5,5.1,8c0.1,2.4-0.1,4.8-0.5,7.1c-1.5,8.4-4.2,16.4-7,24.3c-4.4,12.5-8.8,25-12.2,37.8c-0.2,0.7-0.5,1.4-0.8,2.5
		c-1.4-1.1-2.1-2.2-2.7-3.6C676.2,565.7,675.9,565.3,675.5,565L675.5,565z"/>
	<path class="st2" d="M612.1,550.5c0.4,1.2-0.6,1.8-1.1,2.4c-2.4,3-4.9,5.9-7.3,8.9c-8.3,10-13.9,21.4-16.6,34.1
		c-0.2,0.8-0.5,1.5-0.7,2.2c-0.4-0.2-0.8-0.3-0.8-0.4c-0.9-6.6-1.5-13.3-2.6-19.9c-1.1-7.1-1.6-14.3-2.2-21.4
		c-0.2-2.2-0.1-4.4,0.5-6.8c9.4,5.6,18.8,5.1,28.3,1.4c0.9-0.3,1.6-1,2.7-0.5L612.1,550.5z"/>
	<path class="st10" d="M649.6,720.4c1-0.4,2-0.9,3-1.3c10.5-3.8,21-7.5,31.5-11.2c1.2-0.4,2.4-0.8,3.7-0.5
		c6.1,1.2,12.2,2.3,18.1,4.5c2.7,1,5.2,2.3,7.8,3.6c1.1,0.6,2.1,1.5,2.9,2.4c0.6,0.7,1.1,1.7,1,2.5c-0.2,1.3-1.5,0.9-2.4,0.9
		c-21.9,0-43.7,0-65.6,0L649.6,720.4z"/>
	<path class="st2" d="M593.4,549.8c-2.2,0-4.5-0.2-6.8-1.1c-1-0.4-1.6-1-1.6-2.1c0-0.8-0.3-1.6-0.2-2.4c0.2-1.6,0.1-3.4,0.9-4.6
		c0.7-0.9,2.6-0.9,3.9-1.3c5.6-1.7,10.7-4.2,13.6-9.7c0.3-0.6,0.7-1.1,1.1-1.5c3.9-4.2,7.8-8.5,11.7-12.7c0.1-0.1,0.2-0.3,0.3-0.3
		c0.3-0.1,0.6-0.2,0.9-0.1c0.2,0.1,0.6,0.4,0.6,0.6c-0.1,1.6-0.2,3.2-0.3,4.8c-0.3,4.1-0.7,8.3-0.9,12.4c-0.1,1.6-0.2,3.3,0.2,4.8
		c0.7,2.7-0.6,4.3-2.5,5.7C608.2,546.9,601.5,550,593.4,549.8"/>
	<path class="st9" d="M745.6,541.9c0.3,0.5,0.8,1,1,1.6c0.3,0.8,0.9,1.3,1.8,1.3c1.3,0,2.6,0,3.8,0c22.1,0,44.1,0,66.2,0
		c1.4,0,2.9,0,4.3,0.1c1.4,0.1,2.3,1.1,2.5,2.4c0.3,1.7-0.3,3.1-1.8,3.5c-1.3,0.4-2.8,0.6-4.2,0.6c-9.8,0-19.5,0-29.3,0
		c-6.7,0-13.4,0-20.1,0c-1.3,0-2.6-0.2-3.4,1.2c-1.5-1.1-3.1-2.2-4.7-3.3c-2.3-1.5-4.7-2.6-7.4-3.1c-2.4-0.5-4.4-0.5-5.9,1.8
		c-0.3,0.4-0.7,0.7-1.1,1c-0.5,0.4-1.3,0.1-1.4-0.5C745.9,546.4,745.8,544.1,745.6,541.9"/>
	<path class="st12" d="M663.1,630.5c2.9,1.7,4.1,4,3.8,7c0,0.3,0,0.6,0,1c0.2,5.2,1.4,6.9,6.5,9.1c-2.7,7.6-3.9,15.6-6.1,23.4
		c-0.6,2-0.7,2.1-2.6,2.1c-3.7,0-7.3-0.2-11-0.3c-0.6-3.8,1.3-7.1,2.2-10.6c2.5-9.9,5-19.8,6.5-30
		C662.5,631.8,662.8,631.4,663.1,630.5"/>
	<path class="st13" d="M562,721.2c-5.6,0-10.9,0-16.2,0c-0.9,0-1.3-0.9-0.9-1.7c1-2.1,2.5-3.7,4.3-5.1c3-2.5,6.3-4.3,9.9-5.9
		c7-3.2,14.4-5.3,21.9-7c10.4-2.4,21.1-3.8,31.7-4.9c1-0.1,1.9-0.1,2.9-0.2c1.3,0,1.8,0.4,1.8,1.6c0,1.6-0.3,2.1-1.8,2.3
		c-7.3,1-14.6,1.8-21.8,2.9c-6,0.9-11.9,2.4-17.6,4.6c-2.1,0.8-4.1,1.7-6.1,2.8C566,712.9,562.8,715.9,562,721.2"/>
	<path class="st2" d="M744.1,585.8c-2.9,1.9-6,3.1-9.2,3.9c-1.7,0.4-2.2,0.1-2.8-1.5c-0.1-0.1,0-0.3-0.1-0.5
		c-3.5-7.5-3.2-15.1-0.3-22.7c2.3-6,3-12.3,3.3-18.7c0-1,0-1.9,0.1-2.9c0.2-1.5,0.9-2.2,2.4-2.5c1.8-0.3,2.9,0.1,3.4,1.8
		c0.5,1.5,0.6,3.1,0.8,4.7c0.2,1.9-0.4,3.8,0.5,5.7c0.2,0.4-0.1,1.2-0.4,1.7c-0.5,1-1.3,1.8-1.7,2.8c-1.2,2.5-1.7,5.2-0.2,7.8
		c1.1,1.8,0.9,3.6,0.6,5.5c-0.3,1.4-0.6,2.8-0.7,4.2c-0.2,3.6,0.5,7,3.4,9.5C743.6,584.9,743.8,585.3,744.1,585.8"/>
	<path class="st14" d="M547.5,593.8c0.6-0.3,1.3-0.8,1.6-0.7c0.8,0.4,1.8,1,2,1.8c1.2,3.3,2.4,6.6,2.6,10.1
		c0.3,5.8-0.4,11.5-2.6,16.9c-4.3,10.5-9.3,20.6-15,30.4c-1.1-0.9-2.2-1.8-3.4-2.6c-1.5-1.1-1.5-1-0.4-2.8c2.6-4.4,4.4-9.1,5.7-14.1
		c0.6-2.2,1.3-4.1,2.6-6c2.1-3.1,3.8-6.6,5.5-10c0.6-1.1,0.9-2.4,1-3.6c0.4-5.2,0.7-10.4,0.9-15.7
		C548.2,596.3,547.7,595,547.5,593.8"/>
	<path class="st2" d="M506.4,670.9c-4.1-1.4-7.4-3.6-10.7-5.7c-2.9-1.8-4.2-6.2-3.2-9.8c1.2-4.2,4-7.2,8-9c0.6-0.2,1.2-0.4,1.8-0.3
		c4.4,0.8,8.7,1.7,13.1,2.6c0.7,0.2,1.4,0.6,2.6,1.1C511.1,655.4,508.1,662.7,506.4,670.9"/>
	<path class="st15" d="M570.8,668.6c1.4,1.5,2.7,3,4.2,4.6c-0.3,0.9-1.2,0.4-1.9,0.6c-5.1,1.3-10.2,2.6-15.3,3.9
		c-1.5,0.4-3.1,0.8-4.6,1.2c-2.8,0.7-5.4,0.7-8.2-0.9c-4-2.4-8.8-2.8-13.3-3.6c-2.3-0.4-4.7-0.7-7.3-1c0.2-1.4,0.2-2.6,0.4-3.8
		c0.2-1.2,0.6-2.4,1-4c2,1.1,3.6,2.4,5.5,2.8c2,0.5,4.1,0.3,6.2,0.2c2.2-0.1,3.8-1.5,5.6-2.6c2.8,0,4.9,1.9,7.5,2.8
		c4.9,1.7,9.8,1.8,14.9,0.4C567.1,668.7,568.9,667.8,570.8,668.6"/>
	<path class="st9" d="M489.4,428.6c1.9,1.1,4,1,6,0.7c1.9-0.3,3.8-0.6,5.7-0.6c10.8,0,21.7,0,32.5,0c-0.2,1.9-0.5,3.7-0.6,5.6
		c-0.3,4.2-0.4,8.4-0.6,12.6c-1.4-1.3-1-3-1-4.5c0.2-6.4,0.7-6-5.8-6c-10.1,0-20.1,0-30.2,0c-1.8,0-3.5-0.1-5.1,0.9
		C490.3,434.4,490.3,431.5,489.4,428.6"/>
	<path class="st16" d="M655.4,623c4.2,2.2,4.7,5,3.7,8.9c-3.3,12.4-5.6,25.2-9.4,37.5c-0.2,0.6-0.3,1.2-0.5,1.8
		c-0.3,1.2-1,1.9-2.4,1.8c-1.6-0.1-3.1,0-5,0c2.4-7.1,3.4-14.2,5.2-21.1c0.6-2.2,1.1-4.4,2-6.4c2.8-6.3,4.6-12.9,5.7-19.7
		C654.7,625.1,655.1,624.2,655.4,623"/>
	<path class="st17" d="M647.9,545.7c-18.7,5.1-33.5,15.7-44.5,31.6c-0.5,0.7-1.2,1.4-1.8,2c-1.7-2.7,0.3-4.8,1.4-6.9
		c1.3-2.3,3.3-4.2,3.9-6.9c2.7-3.5,5.6-6.9,8.1-10.5c2.1-3,4-6.1,5.6-9.3c1.2-2.4,1.7-5,2.6-7.6c2.2-0.7,3.4,1.3,5.2,1.8
		c-0.6,1.2-2.1,1.9-1.8,3.6c0,1.6-1.2,2.5-2.5,3.9c6.5-2.4,12.6-4.2,19.2-3.8C645,543.8,647.2,543.1,647.9,545.7"/>
	<path class="st18" d="M517.1,607.9c-0.3,0.2-0.5,0.3-0.8,0.5c-0.8,0.2-1.1-0.2-1.1-0.9c0.7-0.7,1.4-1.4,2.2-2.2
		c0.1-0.4,0.3-0.7,0.7-0.9c4.6-9.1,9.8-17.9,15.5-26.3c2.3-3.4,4.4-7,6.3-10.7c1.3-2.5,3.2-4.3,5.8-5.4c4.5-1.9,9-3.9,13.8-5.9v5.9
		c-3.3,1.1-6.6,2.4-9.9,3.4c-1.7,0.6-3.1,1.4-4.1,3c-3.3,5.2-6.8,10.4-10,15.7c-3.5,5.9-7,11.8-11.4,17c-1.5,1.8-3.3,3.4-5,5.1
		c-0.3,0.3-0.6,0.5-0.9,0.8l-0.1,0.1C517.7,607.5,517.5,607.8,517.1,607.9"/>
	<path class="st19" d="M577.5,545.6c-1.9,5.2-2.2,10.6-1.2,16c1.6,9.6,3.2,19.2,4.7,28.8c0.1,0.8,0.2,1.6,0.4,3.4
		c-1-1.7-1.7-2.5-2-3.4c-1-3.2-2-6.4-2.9-9.6c-0.4-1.2-0.6-2.5-0.9-3.7c-1.2-5-3.7-9.1-7.9-12.2c-4.5-3.3-4.8-3.8-3-10.2
		c0.5-1.8,1.7-3.4,2.6-5.1C570.1,546.9,573,544.1,577.5,545.6"/>
	<path class="st20" d="M185.9,524.7c0.1,4.2,0.2,7.8,0.3,11.5c0.1,8.4,0.1,16.9,0.4,25.3c0.1,2.8-0.4,5.3-1.8,7.7
		c-1.1,1.8-1.9,3.7-2.9,5.5c-0.1,0.2-0.5,0.4-0.8,0.3c-0.2-0.1-0.5-0.4-0.5-0.6c-0.1-0.8-0.1-1.6-0.1-2.4c0-14.3,0-28.7,0-43
		c0-1,0-1.9,0.1-2.9c0.1-0.9,0.6-1.4,1.5-1.4C183.2,524.7,184.3,524.7,185.9,524.7"/>
	<path class="st18" d="M691,603.2c-0.1-0.3-0.2-0.6-0.4-0.8c-6.7-6-11.4-13.7-16.3-21c-2.1-3.1-4.6-5.7-7.5-7.9
		c-2.2-1.7-2.8-1.7-5.1-0.2c-1.3,0.9-2.6,1.8-4,2.5c-1,0.6-1.8,0-2.5-0.8c1.6-2.2,3.2-4.4,4.8-6.6c1.7-2.3,3.5-4.5,5.6-6.2
		c1.5,0.1,1.6,1.3,2.1,2c6.1,9.2,12.1,18.4,18.2,27.6c1.3,2,2.9,3.8,4.5,5.5c1.3,1.4,2.6,2.7,3.2,4.8
		C692.7,602.5,691.8,602.9,691,603.2"/>
	<path class="st21" d="M551.6,682c6.4-1.6,12.4-3.1,18.4-4.7c3.2-0.8,6.4-0.3,9.5,0.2c5.7,0.8,11.2,2.3,16.7,4
		c0.6,0.2,1,0.6,1.6,0.9c-0.8,1.7-2.1,2.6-3.5,3.4c-1.7,1-3.6,1.3-5.5,0.4c-1.7-0.8-3.5-1.5-5.2-2.5c-4.1-2.4-8.4-2.9-12.9-2.1
		c-3.9,0.7-7.8,1.4-11.8,2.2C556.4,684.2,554,684.3,551.6,682"/>
	<path class="st22" d="M542.2,454.4c-2.8-2.4-4-5.3-4.2-8.5c-0.7-12.7,3.5-23.5,12.7-32.3c2.7-2.6,6-4.8,9.1-7.1
		c0.6-0.5,1.3-0.9,2.1-1.2c0.3-0.1,0.8,0.1,1.2,0.4c0.2,0.1,0.2,0.7,0,0.9c-0.8,1-1.6,1.9-2.5,2.8c-3.1,3-6.2,6-9.2,9.1
		c-4.2,4.3-6.9,9.6-8.9,15.2c-1.9,5.6-1.9,11.3-0.8,17C541.8,451.9,542,453.1,542.2,454.4"/>
	<path class="st23" d="M576.6,380.6c3.7-2.5,7.3-5.1,11-7.6c3.7-2.5,7.8-4.4,12.1-5.4c9.4-2.2,17.6,0,25.2,7.2
		c-1.5-0.1-2.3,0-2.9-0.3c-2.1-0.8-4.1-1.8-6.2-2.4c-7.2-2.1-14.2-1.3-21,1.6c-3.8,1.6-7.5,3.5-11.2,5.3c-1.7,0.8-3.4,1.7-5.1,2.5
		C577.4,382.2,576.5,382.4,576.6,380.6"/>
	<path class="st24" d="M659.3,424.5c0-4.3,0.2-8.6,0-12.9c-0.5-7.9-3.1-14.9-9.4-20.2c-0.4-0.3-0.7-0.7-1-1.1
		c-0.1-0.2-0.1-0.6,0.1-0.8c0.2-0.2,0.6-0.3,0.9-0.2c0.7,0.3,1.5,0.5,2.1,1c3.8,2.6,6.4,6.1,8.1,10.4c2.5,6.4,3.3,12.9,2.6,19.7
		c-0.3,3-0.6,6-0.9,9c-0.5,5-0.6,9.9,1.7,14.6c0.1,0.2-0.1,0.6-0.3,0.7c-0.2,0.1-0.6,0.2-0.9,0.1c-1.6-0.7-2.5-2-2.8-3.6
		c-0.3-1.4-0.4-2.8-0.4-4.3c-0.1-4.1,0-8.3,0-12.5H659.3z"/>
	<path class="st20" d="M393.5,396c-4.1,2.3-7.4,3.2-11,3.1c-12.8-0.3-25.5-0.3-38.3-0.5c-3.8-0.1-7.6-0.3-11.5-0.5
		c-0.6,0-1.3-0.1-1.9-0.3c-0.3-0.1-0.5-0.7-0.6-1.1c0-0.2,0.3-0.6,0.5-0.7c0.9-0.2,1.9-0.3,2.8-0.3c18.8,0,37.6,0,56.5,0
		C390.9,395.7,391.7,395.8,393.5,396"/>
	<path class="st25" d="M720.3,713.8c2.8-1.4,5.7-2.1,8.6-3c0.6-0.2,1.3-0.1,1.8,0.1c3.8,2.1,7.3,4.5,9.4,8.5
		c0.5,0.9,0.1,1.7-0.9,1.7c-4.9,0-9.9,0-14.8,0c-0.9,0-1.4-0.5-1.7-1.4C722.1,718,721.2,716.1,720.3,713.8"/>
	<path class="st26" d="M647.9,545.7c-3.7-1.4-7.5-1.1-11.2-0.6c-4.5,0.6-8.9,1.9-13.1,4c-0.4,0.2-0.9,0.5-1.3,0.5
		c-0.4,0-0.8-0.3-1.2-0.5c-0.1-0.1,0-0.7,0.2-0.9c0.8-0.8,1.6-1.6,2.4-2.3c0.9-0.8,1.9-1.6,2.9-2.4c1.2,0.5,2.1-0.1,3.1-0.6
		c4.4-2.1,8.9-3.3,13.8-3.1c2.6,0.1,5,0.8,7.4,1.6c3.2,1.2,5.3,3.3,6.2,6.7c-1.1,0.8-2.5,1-3,0c-1.1-2.1-2.9-2.2-4.8-2.4
		C648.8,545.8,648.3,545.8,647.9,545.7"/>
	<path class="st27" d="M606.9,565.6c0.6,1,0.1,1.8-0.4,2.7c-1.4,2.8-2.9,5.6-4.3,8.5c-0.4,0.8-0.5,1.8-0.7,2.7l0.1,0
		c-0.6,0.5-0.4,1.5-1,2l0-0.1c-0.5,0.6-0.4,1.5-1,2l0-0.1c-0.5,0.5-0.4,1.4-0.9,1.9c-2.6,6.5-5.2,13-7.8,19.6c-1,2.5-1.9,5-3.5,7.2
		C589.2,594.4,595.1,578.8,606.9,565.6"/>
	<path class="st28" d="M734.7,621.4c-4.7-0.6-9.4-1.3-14.1-1.9c-1-0.1-1.4-0.8-1-1.7c0.8-1.7,1.7-3.4,2.6-5.1
		c0.4-0.8,0.9-1.3,1.9-1.1c4.6,1.3,9.2,2.3,14,2.8c0.8,0.1,1.5,0.6,1.2,1.6c-0.1,0.6-0.2,1.3-0.3,1.9
		C738.2,621,737.8,621.3,734.7,621.4"/>
	<path class="st29" d="M656.8,696.3c-0.3,0.4-0.7,0.9-0.9,1.4c-0.6,1.3-1.5,1.9-3,1.8c-2.5-0.1-5.1-0.1-7.6-0.1
		c-7.3,0.1-14.7,0.3-22,0.4c-0.8,0-1.7,0.3-1.9-0.8c-0.3-1.3,0.7-2.8,1.7-3.1c0.3-0.1,0.6-0.1,0.9-0.1c10.8,0,21.7-0.1,32.5-0.1
		C656.5,695.7,656.6,695.9,656.8,696.3"/>
	<path class="st12" d="M702.2,504.3c0-3.1,0-6.3,0.1-9.4c3.7-0.6,6,3.6,9.7,2.8c3.6,4.8,3.8,10.1,2.1,15.6
		c-3.3-3.4-7.7-5.5-11.4-8.6C702.6,504.7,702.4,504.5,702.2,504.3"/>
	<path class="st30" d="M660.1,699.1c1.1-2,2.6-3.1,5-3c8.7,0.5,17.4,1.4,26,2.9c0.8,0.1,1.5,0.3,2.7,0.6c-2.6,1.7-4.9,2.9-7.7,2.7
		c-8.2-0.9-16.4-1.7-24.6-2.6C661.1,699.6,660.7,699.4,660.1,699.1"/>
	<path class="st31" d="M590.3,380c1.4-0.4,2.2-0.9,3.1-0.9c7.4-0.5,14.6,0.6,21.4,3.5c2.8,1.2,5.2,3,7.3,5.3
		c0.4,0.4,0.7,1.1,0.9,1.6c0.3,0.9-0.6,2.1-1.5,1.9c-0.7-0.2-1.6-0.4-2.1-0.9c-6.4-5.6-14.1-7.7-22.2-8.9
		C595,381.3,592.8,381.3,590.3,380"/>
	<path class="st32" d="M554.4,401.8c2.3-2.7,4.5-5.4,6.8-8c2.9-3.2,6.3-5.3,10.7-5.8c2.4-0.2,4.7-0.7,7.1-0.9
		c1.2-0.1,2.4,0.5,3.7,0.8c0.2,0.1,0.5,0.4,0.6,0.7c0,0.3-0.2,0.6-0.4,0.8c-0.4,0.3-0.8,0.5-1.3,0.6c-0.6,0.2-1.2,0.3-1.9,0.3
		c-7.2,0.5-13.1,3.5-18.3,8.3C559.5,400.5,557.2,401.5,554.4,401.8"/>
	<path class="st31" d="M624.3,423.8c0.1,0,0.4,0,0.4,0.1c0.3,0.5,0.6,1.1,0.7,1.7c1.6,7,5.8,11.9,12.2,14.9c3.3,1.5,6.7,3,9.5,5.4
		c0.7,0.6,1.2,1.4,1.8,2.2c0.1,0.1,0,0.3,0,0.4c-0.1,0.1-0.3,0.2-0.4,0.2c-0.4-0.1-0.9-0.3-1.3-0.4c-3.1-1.3-6.1-2.8-9.2-4
		c-3-1.2-5.8-2.6-8.3-4.6c-4.9-3.9-7.1-8.8-6-15.1C623.8,424.2,624.1,424,624.3,423.8"/>
	<path class="st21" d="M722.6,707.7c-1.3,0.5-2.4,0.8-3.4,1.3c-2.8,1.2-5.3,1.2-8.2-0.2c-3.4-1.6-7.2-2.5-10.9-3.7
		c-1.3-0.4-2.7-0.8-4.6-1.4c1.9-0.9,3.3-1.6,4.8-2.1c1-0.3,2.2-0.5,3.3-0.3c6.1,1.4,12.1,2.9,17.9,5.3
		C721.8,706.8,722,707.1,722.6,707.7"/>
	<path class="st33" d="M514.1,623.9c-0.5,1.7-1.7,2.7-3.4,3c-0.9,0.2-1.9,0.4-2.8,0.6c-5.9,1.2-11.3,3.3-16.3,6.8
		c-1.1,0.8-2.5,1.3-3.8,1.9c0.2-3.4,2.1-5.6,5.1-6.9c0.9-0.4,1.7-0.9,2.5-1.4C501.1,623.9,507.4,622.8,514.1,623.9"/>
	<path class="st34" d="M648.6,435.1c0,0.9,0,1.9,0,2.9c0,0.3-0.2,0.5-0.3,0.8c-0.4-0.2-1-0.4-1.1-0.6c-0.8-3.6-1.6-7.1-2.4-10.7
		c-0.6-2.5-0.9-5-1.7-7.4c-1.6-4.7-4.6-8.4-9-10.8c-0.7-0.4-1.4-0.8-2-1.3c-0.2-0.2-0.3-0.6-0.3-0.8c0.1-0.2,0.5-0.4,0.8-0.4
		c0.9,0.1,1.9,0.2,2.8,0.6c3,1.2,5.5,3.3,7.3,6c1.3,1.8,2.4,3.8,3.1,5.9C647.5,424.3,648.5,429.6,648.6,435.1"/>
	<path class="st35" d="M729.4,555.6c-0.1-0.6-0.2-1.2-0.2-1.9c-0.2-3-0.2-3.1-3.3-3.1c-4.9,0-9.8,0-14.6,0c0.6-2,1.1-3.9,1.7-5.9
		c0.5,0.3,1.1,0.9,1.6,0.9c4,0.1,8,0.1,12,0c1.3,0,2.5-0.5,3.7-0.8C730.2,548.4,730.9,552.1,729.4,555.6"/>
	<path class="st31" d="M602.5,396.8c2.1,0.4,4.5,0.8,6.8,1.3c0.8,0.2,1.5,0.6,2.1,1.1c0.4,0.4,0.7,1.1,0.7,1.6
		c0,0.9-0.7,1.4-1.5,1.6c-0.6,0.1-1.3,0-1.9-0.2c-8.5-2.2-16.8-1.1-24.9,2c-0.3,0.1-0.7,0.3-0.9,0.2c-0.2-0.1-0.4-0.4-0.5-0.7
		c-0.1-0.1-0.1-0.4,0-0.5c0.2-0.2,0.4-0.5,0.7-0.6c5-1.8,9.9-3.6,14.9-5.3C599.3,396.9,600.8,397,602.5,396.8"/>
	<path class="st36" d="M673.6,641.9c1.7-5.8,5.1-10.6,9.3-14.8c1.4-1.4,2.9-2.4,4.8-3c1.2-0.4,2.2-0.2,3.1,0.6
		c-5.4,4.3-9.7,9.5-12,16.2c-0.7,2.1-0.8,2.1-3.2,1.8C675,642.6,674.3,642.2,673.6,641.9"/>
	<path class="st37" d="M570.8,668.6c-1.3,0.5-2.6,1.1-4,1.5c-8.7,2.8-16.6,1.2-23.8-4.1c0.5-1.1,1.1-2,2.5-1.3
		c1.4,0.7,2.9,1.3,4.2,2.2c3.5,2.3,7.1,2.3,10.9,1.1c2.4-0.8,4.8-1.6,7.2-2.4c0.9-0.3,1.8-0.5,3-0.9V668.6z"/>
	<path class="st38" d="M641.8,607.6c-0.4-0.2-1.1-0.6-1.1-0.7c0.1-0.5,0.4-1.3,0.8-1.4c2.2-0.8,4.4-0.7,6.5,0.1
		c7.6,2.6,12.9,7.8,16.1,15.2c0.1,0.3,0,0.6,0,0.9c-1.3-1.1-2.7-2.2-3.9-3.4C654.9,613.2,648.7,609.7,641.8,607.6"/>
	<path class="st31" d="M621.2,440.3c0.3,0.2,0.7,0.2,0.8,0.4c3.4,4.9,8.6,6.8,13.9,8.8c1.5,0.6,3.1,0.8,4.6,1.3c1.3,0.5,2.7,1,4,1.6
		c1.2,0.6,2.1,2.2,1.5,2.6c-0.8,0.7-1.8,0.4-2.7,0.1c-2.7-0.9-5.5-1.6-8.2-2.5c-4.2-1.4-8.3-3.1-11.6-6.4c-1.5-1.5-2.8-3.1-2.8-5.3
		C620.6,440.7,621,440.5,621.2,440.3"/>
	<path class="st39" d="M653.2,464c0.1-0.6,0.2-1.1,0.3-1.7c0.6-1,0.1-2.1,0.6-3.1c0.3-5.9-0.1-11.8-1.5-17.6c-0.4-1.8-0.6-3.7-1-6.2
		c0.8,1,1.4,1.5,1.6,2c1.3,3.1,2.5,6.2,3.7,9.3c2.1,6,1.9,11.9-1.9,17.3c-0.1,0.4-0.4,0.8-0.7,1.1C653.5,465.3,653,465.1,653.2,464"
		/>
	<path class="st21" d="M520.9,664.9c-0.2,2.9-0.4,5.5-0.7,8.4c-2.1,0.1-4.4,0.2-6.8,0.3c-1.4,0-2-0.6-2-2c0-3.1,0.9-5.9,2.2-8.8
		C516.2,663.6,518.6,664.3,520.9,664.9"/>
	<path class="st40" d="M487.6,643.8c1.2,0.3,2,0.9,1.9,2.3c-0.1,0.8-0.2,1.6-0.5,2.3c-2.1,5.2-3.3,10.6-4,16.1
		c-0.1,0.5-0.3,0.9-0.4,1.4c-3.1-2.9-3.8-6.3-2.5-10.3c1-3.2,2.3-6.2,4.4-8.9C487.1,646,487.2,644.9,487.6,643.8"/>
	<path class="st29" d="M528.4,654.5c-1.7,2.1-3.4,4.1-5.1,6.2c-0.5,0.7-1.1,1.1-2,0.9c-2-0.5-3.9-1-6.1-1.6c1.9-3.6,4.5-6.1,7.8-7.7
		c1.3-0.6,2.4-0.6,3.4,0.5C527.1,653.4,527.9,654,528.4,654.5"/>
	<path class="st32" d="M588.7,671c-0.6,0.7-1,1.2-1.5,1.7c-0.6,0.6-1.3,1-2.1,0.6c-3-1.4-6-2.8-9-4.3c-1.5-0.8-1.5-3.8-0.1-4.9
		c0.3-0.3,0.9-0.4,1.3-0.3c1.4,0.3,2.8,0.6,4,1.2C584.3,666.5,586.4,668.8,588.7,671"/>
	<path class="st41" d="M685,619.9c-1.2-0.5-1.8-1.4-0.9-2.6c2-2.8,4.1-5.4,6.2-8.1c2.4,0.1,4.2-1.4,6.1-2.5c1.1-0.6,2.3-1.2,3.5-1.3
		c0.8-0.1,2.2,0.5,2.4,1.2c0.4,1.2-1,1.2-1.8,1.6c-2.3,1.2-4.5,2.3-6.7,3.6C690.2,613.9,687.3,616.6,685,619.9"/>
	<path class="st42" d="M600.8,387.3c6.1,0.2,11,2.3,15.4,5.6c0.5,0.4,0.9,0.9,1.1,1.5c0.1,0.5,0,1.3-0.3,1.7
		c-0.3,0.4-1.1,0.6-1.6,0.5c-0.7-0.2-1.4-0.8-2-1.2c-4.8-3.5-9.9-6.3-16.1-6.1c-0.2,0-0.6-0.4-0.5-0.5c0.1-0.3,0.3-0.7,0.5-0.7
		C598.6,387.7,600,387.5,600.8,387.3"/>
	<path class="st10" d="M702.7,504.8c1,0.3,2.1,0.5,3,1c2,1.2,3.9,2.6,5.9,3.8c1.4,0.9,2.2,2.2,2.5,3.8c-0.1,0.5-0.2,1.1-0.3,1.6
		c-0.9,0.4-1.7,0.7-2.7,0.1c-1.8-1.2-3.6-2.6-5.5-3.6C702.9,510,701.8,507.9,702.7,504.8"/>
	<path class="st43" d="M716.2,617.8c-1.8,0-2.9-1.2-4-2.3c-2.5-2.6-2.5-3.3,0.1-5.8c0.6-0.6,1.1-1.2,1.7-1.7
		c0.5-0.3,1.3-0.5,1.7-0.2c1.4,0.7,2.7,1.6,4.1,2.5C718.6,612.9,717.4,615.3,716.2,617.8"/>
	<path class="st44" d="M562,412.4c1-1.3,1.4-2.2,2.2-2.7c2.7-1.7,5.7-3,8.9-3.2c2.9-0.2,5.7,0,8.6,0.1c0.5,0,1,0.1,1.4,0.3
		c0.4,0.2,0.7,0.6,1.1,0.9c-0.3,0.3-0.6,0.8-1,0.9c-0.9,0.2-1.9,0.4-2.8,0.4c-5-0.2-9.8,0.7-14.5,2.6
		C564.9,412.2,563.7,412.2,562,412.4"/>
	<path class="st45" d="M657.9,384.4c-1,0-1.7,0.1-2.3,0c-5.1-1.5-10.3-1.9-15.6-2c-1.7,0-3.6,0.4-4.9-1.2c1-2.4,3.2-1.5,4.9-1.7
		c5.5-0.5,10.8,0.3,15.8,2.9c0.4,0.2,0.8,0.4,1.2,0.7C657.3,383.4,657.4,383.7,657.9,384.4"/>
	<path class="st31" d="M602.8,412.6c-2.6,0-5.1,0-7.7,0c-0.4,0-0.9-0.4-1-0.6c-0.1-0.3,0.3-1,0.5-1.1c2.6-0.8,5.2-1.7,7.8-2.1
		c2-0.3,4.1-0.1,6.2,0c0.9,0.1,1.9,0.4,2.7,0.9c0.4,0.3,0.8,1.1,0.7,1.6c-0.1,0.5-0.7,1.2-1.2,1.2c-1.4,0.2-2.8,0-4.3,0
		C605.3,412.5,604,412.5,602.8,412.6L602.8,412.6z"/>
	<path class="st46" d="M712,497.8c-0.2,0.9-0.3,2.2-1.7,1.5c-2.7-1.3-5.3-2.9-8-4.3c-0.8-1.7-1.6-3.4-2.4-5.2
		C705.5,489.7,708.9,491.9,712,497.8"/>
	<path class="st39" d="M728.5,605c-0.1,0.4-0.2,1.2-0.5,1.9c-0.8,1.9-3.6,2.5-5.1,0.9c-0.3-0.3-0.4-0.9-0.4-1.3
		c0.2-1.8,0.2-3.5-1.2-4.9c-0.5-0.5-0.7-1-0.3-1.6c0.6-0.9,1.3-1.9,2.6-1.6C726.6,599,728.6,601.7,728.5,605"/>
	<path class="st47" d="M633.1,398.7c4.8,0.1,8.3,2.1,11,5.4c0.9,1.1,1.4,2.5,1.8,3.8c0.6,1.8,0,3.8-0.5,3.4
		c-0.8-0.6-1.5-1.5-1.9-2.4c-2.1-4.8-5.9-7.3-10.9-8.3c-0.4-0.1-0.9-0.3-1.3-0.5c-0.1,0-0.2-0.3-0.2-0.4c0.1-0.3,0.2-0.7,0.3-0.7
		C632.1,398.8,632.8,398.7,633.1,398.7"/>
	<path class="st48" d="M532.5,633.1c-0.2-0.4-0.6-1.1-0.7-1c-2,0.4-3.4-0.4-4.6-1.7c-0.8-0.8-1.7-1.5-2.4-2.3
		c-1.3-1.5-1.2-2.4,0.5-4c0.2-0.2,0.5-0.3,0.8-0.5c4.4-0.1,6.8,2.1,7.3,6.4C533.5,631.1,533.7,632.3,532.5,633.1"/>
	<path class="st49" d="M661,559.1c-3.4-1.6-6.8-3.1-10.2-4.7c-1.5-0.7-2.4-1.9-2.5-3.7c0.9-0.4,1.7-0.8,2.6-1
		c0.4-0.1,1.1,0.2,1.2,0.4c0.8,2.8,3.5,3.5,5.6,4.8c1.3,0.9,2.8,1.4,4.2,2.3c1.2,0.8,0.1,1.2-0.4,1.7
		C661.4,559,661.2,559.1,661,559.1L661,559.1z"/>
	<path class="st50" d="M577.5,545.6c-3.7,0.5-6.9,2.6-10.2,4c0.1-1.7,1-3,2.1-4.2c2.6-2.6,5.7-4.3,9.4-6.1
		C578.5,541.9,579.4,543.9,577.5,545.6"/>
	<path class="st51" d="M636.5,389.9c5.6,0.5,10.6,2.4,14.6,6.5c0.5,0.6,1,1.3,1.2,2c0.1,0.4-0.1,0.9-0.2,1.3
		c-0.3-0.1-0.6-0.1-0.9-0.2c-0.3-0.1-0.5-0.4-0.7-0.6c-4.2-4.6-9.4-7-15.7-6.8c-0.3,0-0.7-0.1-0.9-0.2c-0.2-0.1-0.5-0.4-0.5-0.7
		c0-0.2,0.2-0.7,0.3-0.7C634.7,390.2,635.6,390.1,636.5,389.9"/>
	<path class="st52" d="M536,659.3c-1.7,2-3.1,3.7-4.6,5.3c-0.3,0.3-0.7,0.7-1.2,0.7c-1.3,0.2-3.2-2.6-2.4-3.8c0.9-1.5,2-2.8,3.1-4.2
		c0.3-0.3,1.2-0.4,1.6-0.2C533.7,657.7,534.7,658.5,536,659.3"/>
	<path class="st53" d="M761.1,556.7c0.9,0.6,1.7,1,2.4,1.6c1.7,1.3,2.2,3,1.3,5.1c-0.3,0.6-0.5,1.2-0.7,1.8c-0.3,0.9-0.4,2-1.7,1.7
		c-1.5-0.4-2.6-1.4-2.5-2.5C760,561.9,759.8,559.3,761.1,556.7"/>
	<path class="st54" d="M628.3,540c-3.4,0.8-3.5,0.8-5.2-1.8c-0.4-1-0.9-2-1.2-3c-0.4-1.2,0.4-2.1,1.7-2.1c1.5,0,2.8,0.5,3.7,1.7
		c0.7,0.9,1.2,1.8,1.8,2.8C629.7,538.5,629.1,539.3,628.3,540"/>
	<path class="st24" d="M549,501.3c-0.4,0.3-0.7,0.8-1.1,0.9c-2.3,0.5-4.7,0.9-7,1.2c-0.5,0.1-1.1-0.5-1.7-0.7c1.6-3,4.5-4.1,7.5-4.9
		c1.2-0.3,1.7-0.1,2,1.2C548.9,499.8,548.9,500.6,549,501.3"/>
	<path class="st55" d="M533.3,630c-1.5-3.2-4.1-5.1-7.3-6.4c1.4-2.1,2.3-2.5,4-1.6c2,1.1,3.3,2.8,4.6,4.6
		C534.2,627.7,533.7,628.8,533.3,630"/>
	<path class="st56" d="M541.6,663.2c-0.1,0.3-0.2,0.6-0.4,0.8c-1,1.4-2.5,2-4.1,2.2c-0.9,0.2-2.4,0.5-2.7,0
		c-0.8-1.1,0.6-1.8,1.2-2.7c0.3-0.4,0.6-0.7,1-1.1c0.6-0.6,1-1.9,2.1-1.6c1,0.3,1.8,1.2,2.8,1.8
		C541.5,662.9,541.6,663.1,541.6,663.2"/>
	<path class="st57" d="M653.2,464c0.4,0.4,0.8,0.8,1.1,1.1c-2,3.9-4,7.8-6.5,12.5c-0.1-1.4-0.4-2.1-0.2-2.7c0.5-1.3,1.1-2.6,1.8-3.9
		C650.7,468.7,652,466.4,653.2,464"/>
	<path class="st58" d="M586.2,625.4c-0.1,1.1,0,2.2-0.3,3.2c-0.5,1.6-1.2,3.2-2,4.7c-0.2,0.3-1,0.3-1.6,0.4
		C582.4,630.4,583.6,627.5,586.2,625.4"/>
	<path class="st51" d="M595.8,677.5c-2.6-0.5-4-0.8-5.3-1.1c-0.8-0.2-0.6-1-0.3-1.5c0.8-1.3,1.6-1.4,2.6-0.5
		C593.6,675.1,594.3,675.9,595.8,677.5"/>
	<path class="st12" d="M720.6,605.3c-0.1,0.3-0.2,0.8-0.3,0.8c-0.7,0-1.5,0.1-2.1-0.1c-0.4-0.2-1-1.1-0.8-1.3
		c0.5-0.7,1.2-1.2,1.8-1.8c0.5,0.5,1,1,1.4,1.6C720.7,604.6,720.6,605,720.6,605.3"/>
	<path class="st59" d="M513.2,596.6c0.5,0.9-0.4,2.3,1,2.9c0.1,1.7-0.7,2.9-2.8,3.7C512.2,600.7,511.9,598.5,513.2,596.6"/>
	<path class="st60" d="M576.6,380.6c0.3,1,1.2,0.7,1.9,1c-1.8,1.5-3.8,2.3-7.1,1.9C573.6,382,574.9,381,576.6,380.6"/>
	<path class="st61" d="M515.2,607.5c0.4,0.3,0.7,0.6,1.1,0.9c-0.9,1.5-2.4,1.8-3.8,2.3C512.5,608.9,513.8,608.1,515.2,607.5"/>
	<path class="st62" d="M657.3,387.8c0.6,0.2,1.2,0.3,1.7,0.6c0.1,0.1,0.2,0.5,0.2,0.7c0,0.1-0.2,0.3-0.4,0.2
		c-0.6-0.1-1.2-0.1-1.8-0.3c-0.2-0.1-0.4-0.5-0.4-0.8C656.6,388.2,657,388,657.3,387.8"/>
	<path class="st57" d="M654.2,459.2c0.4,1.2,0.4,2.2-0.6,3.1C653.8,461.3,654,460.2,654.2,459.2"/>
	<path class="st17" d="M600.6,581.3c-0.1-0.9-0.1-1.7,1-2C601.8,580.3,601.4,580.9,600.6,581.3"/>
	<path class="st48" d="M531.6,635c0.3-0.6,0.5-1.2,0.8-1.8C532.1,633.8,531.9,634.4,531.6,635"/>
	<path class="st58" d="M587.1,623.8c-0.1,0.7,0,1.5-0.9,1.7C586.5,624.9,586.8,624.3,587.1,623.8"/>
	<path class="st17" d="M598.7,585l0.9-1.9L598.7,585z"/>
	<path class="st17" d="M599.6,583.2c-0.1-0.9,0-1.7,1-2L599.6,583.2z"/>
	<path class="st38" d="M663.9,621.6c0.3,0.3,0.6,0.6,0.9,0.9C664.5,622.2,664.2,621.9,663.9,621.6"/>
	<path class="st61" d="M518.1,604.4c-0.2,0.3-0.5,0.6-0.7,0.9C517.6,605,517.9,604.7,518.1,604.4"/>
	<path class="st8" d="M483.5,643.7c-0.1,0.2-0.2,0.4-0.3,0.6C482.7,643.7,483.1,643.7,483.5,643.7L483.5,643.7z"/>
	<path class="st7" d="M675.5,565c0.3,0.4,0.5,0.8,0.8,1.2C676.1,565.8,675.8,565.4,675.5,565"/>
	<path class="st8" d="M661,559.2l0.2-0.3c0,0,0.4,0.1,0.4,0.1c0,0-0.2,0.3-0.2,0.3L661,559.2z"/>
	<polyline class="st2" points="612.2,550.6 612.3,550 612.8,550.3 612.1,550.5 612.2,550.6 	"/>
	<path class="st63" d="M619.9,457.3c-0.2-0.3-0.5-0.6-0.7-0.8C619.4,456.8,619.6,457.1,619.9,457.3"/>
	<path class="st63" d="M620.8,458.3c-0.3-0.3-0.6-0.6-0.9-0.9C620.2,457.7,620.5,458,620.8,458.3"/>
	<path class="st63" d="M621.8,459.2c-0.3-0.3-0.6-0.6-0.9-0.9C621.2,458.7,621.5,459,621.8,459.2"/>
	<path class="st57" d="M654.4,465.1c0.2-0.4,0.5-0.7,0.7-1.1C654.9,464.4,654.6,464.8,654.4,465.1"/>
	<path class="st9" d="M837.7,440.1c18.1,0,36.1,0,54.2,0c1.3,0,2.6,0,3.8,0c0.8,0.1,1.6,0.2,2.3,0.5c1.2,0.5,2.1,2,2,3
		c-0.1,1.2-0.9,2-1.9,2.6c-0.5,0.3-1.2,0.5-1.8,0.6c-1.1,0.1-2.2,0.1-3.4,0.1c-34.7,0-69.4,0-104.1-0.1c-2.2,0-4.4-0.4-6.6-0.6
		c-1.4-0.1-2.9-0.2-4.3-0.2c-8-0.1-16,0-24-0.1c-4,0-8,0.3-11.9-0.7c-1.2-0.3-2.5-0.1-3.8-0.1c-12,0-24,0-36-0.1
		c-1.4,0-2.8-0.2-4.2-0.5c-0.3,0-0.5-0.7-0.6-1.1c0-0.2,0.3-0.7,0.5-0.7c1.1-0.2,2.2-0.5,3.2-0.5c5.9-0.1,11.8,0,17.7-0.1
		c2.1,0,4.1-0.4,6.2-0.6c1.6-0.1,3.2-0.2,4.8-0.2c13.8-0.1,27.5-0.1,41.3-0.1c2.4,0,4.8,0,7.1-0.6c1.5-0.4,3.2-0.2,4.8-0.2
		c18.2,0,36.5,0,54.7,0V440.1z"/>
	<path class="st9" d="M872.7,543c10.7,0,21.4,0,32.1,0c2.2,0,4.4,0.5,6.6,0.8c0.5,0.1,1,0.1,1.4,0.3c1.4,0.5,2.6,2,2.6,3.2
		c0,1.3-1.5,3-3.1,3.3c-0.8,0.2-1.6,0.1-2.4,0.2c-23.1,1.6-46.2,0.6-69.4,0.9c-1.9,0-3.8,0.2-5.6-0.8c-1.4-0.8-2.1-1.8-2.1-3.5
		c0-1.6,0.7-2.7,2.1-3.4c1.6-0.9,3.4-0.8,5.1-0.8c8.8,0,17.6,0,26.3,0C868.6,542.9,870.7,542.9,872.7,543L872.7,543z"/>
	<path class="st6" d="M829.5,600.7c-19.9,0-35.6,0-51.2,0c-1.4,0-2.9,0-4.3-0.2c-1.1-0.1-1.7-0.8-1.7-2c0-1.1,0.6-1.8,1.7-2
		c1.1-0.2,2.2-0.2,3.3-0.2c16.8-0.1,33.5-0.2,50.3-0.3c14.9-0.1,29.7-0.3,44.6-0.4c1.6,0,3.2-0.1,4.8,0.1c0.8,0.1,1.6,0.4,2.2,0.7
		c1.5,0.9,1.5,3.2,0,3.9c-1.1,0.5-2.4,0.9-3.6,0.9c-4.2,0.1-8.3,0-12.5,0C850.5,601.1,837.9,600.8,829.5,600.7"/>
	<path class="st5" d="M892.1,577.3c-6.2,0-12.4,0-18.6,0c-1.1,0-2.2,0-3.3-0.2c-1.6-0.3-2.7-1.5-2.7-2.9c0-1.4,1-2.7,2.6-3
		c1.4-0.3,2.8-0.3,4.3-0.3c8.1-0.1,16.2-0.1,24.4-0.2c4,0,8,0,11.9,0c1.1,0,2.2,0,3.3,0.2c1.6,0.3,2.6,1.5,2.8,2.9
		c0.1,1.6-0.9,3.1-2.6,3.5c-1.2,0.3-2.5,0.3-3.8,0.3c-6.1,0-12.1,0-18.2,0V577.3z"/>
	<path class="st64" d="M827.9,576.3c-8.1,0-16.3,0-24.4,0c-1.4,0-2.9-0.2-4.2-0.7c-0.5-0.2-1.1-1.2-1.1-1.9c0-0.6,0.6-1.7,1.2-1.8
		c1.4-0.4,2.8-0.4,4.2-0.4c9.4,0,18.8,0,28.2-0.1c6.9,0,13.7-0.2,20.6-0.2c0.8,0,1.6,0,2.3,0.2c1.4,0.3,2.3,1.7,2.1,2.8
		c-0.3,1.2-1,2-2.2,2.2c-0.8,0.2-1.6,0.1-2.4,0.1c-8.1,0-16.3,0-24.4,0V576.3z"/>
	<path class="st9" d="M755.7,411.4c-4.1,0-8.3,0-12.4,0c-1,0-1.9,0-2.9,0c-2.6-0.2-3.8-1.5-3.4-4.1c0.2-1.4,1-2.3,2.4-2.5
		c0.9-0.1,1.9-0.1,2.9-0.1c9.4,0,18.8,0,28.2,0c1,0,1.9,0,2.9,0.2c1.4,0.3,2.6,1.7,2.8,3c0.2,1.4-1.2,3.1-2.8,3.4
		c-1.1,0.2-2.2,0.2-3.3,0.2C765.2,411.4,760.5,411.4,755.7,411.4"/>
	<path class="st65" d="M802.8,512.9c-4.5,0-9,0.1-13.4,0c-1.2,0-2.5-0.5-3.6-0.9c-0.8-0.3-0.8-1.9-0.1-2.5c0.5-0.4,1.1-0.7,1.7-0.9
		c0.9-0.2,1.9-0.2,2.9-0.2c8.8-0.1,17.6-0.1,26.4-0.2c0.6,0,1.3,0,1.9,0.1c1,0.2,2.1,1.5,1.9,2.4c-0.2,1-0.8,1.8-1.8,2
		c-0.8,0.2-1.6,0.2-2.4,0.2c-4.5,0-8.9,0-13.4,0V512.9z"/>
	<path class="st66" d="M725.2,407.4c-0.2,1.6-1.8,3-3.1,2.6c-2.8-0.8-5.7-0.5-8.5-0.5c-10.5-0.1-21,0-31.6,0c-1.4,0-2.8-0.2-4.2-0.5
		c-0.3,0-0.5-0.7-0.6-1.1c0-0.2,0.3-0.6,0.5-0.7c0.9-0.2,1.8-0.5,2.8-0.5c3.5-0.1,7,0,10.5,0c7.8,0,15.6,0,23.4,0
		c2.7,0,5.4,0.3,8-0.6c0.5-0.2,1.3,0,1.8,0.3C724.7,406.5,724.9,407.1,725.2,407.4"/>
	<path class="st3" d="M419.8,453.3c5.6,2.3,8.4,6.3,9.4,11.7c0.3,1.4,0.1,2.6-1.1,3.4c-1.1,0.7-1.4,1.6-1.3,2.8
		c0.1,2.9,0.2,5.8,0.1,8.6c0,1.1,0.3,1.8,1.2,2.4c1.5,1,1.8,2.5,1.8,4.2c0.1,5.3,0.4,10.5,0.5,15.8c0,1,0.2,2-0.1,2.9
		c-1,2.4-0.5,4.6,0.1,7c0.4,2,0.7,4.1,0.6,6.2c-0.2,3.1-1.7,4.5-4.9,4.9c-3,0.4-6,0.6-9-0.2c-3.3-0.9-4.5-2.6-4.1-5.9
		c0.4-2.7,0.8-5.4,1.2-8c0.1-0.8,0.1-1.6,0.1-2.4c0-6.7,0.1-13.4,0.1-20.1c0-1.6,0.2-3.1,1.1-4.6c0.5-0.9,0.7-2.1,0.8-3.2
		c0.2-2.6,0.2-5.1,0.2-7.7c0-2,0-2-2.2-2.1c-0.6,0-1.3,0-2.2,0c0,4.6-1.7,8.7-3.9,12.6c-1.7,3-3.4,6.1-5.1,9.2
		c-0.7,1.4-1.4,2.8-2.2,4.6c2.3,0.1,4.2,0.1,6,0.2c2.4,0.2,3.1,0.8,3.3,3.2c0.2,2.9,0.2,5.8,0.1,8.6c0,1.6-0.8,2.7-2.5,3.1
		c-1.1,0.3-2.1,0.6-3.1,0.8c0,0.4-0.1,0.6,0,0.6c1.8,2.4,2.1,5.2,2,8.1c-0.1,2.4,0.2,4.8,0,7.2c-0.2,3,0,5.5,2.7,7.5
		c1.7,1.2,2.1,3.5,2.2,5.6c0.2,4.6,0.4,9.3,0.5,13.9c0.1,3.7,0,7.4-0.2,11c-0.1,1.1,0.2,1.8,0.8,2.6c1.6,2,2.7,4.3,2.9,7
		c0.2,2.2-0.5,3.2-2.7,3.9c-0.6,0.2-1.2,0.4-1.8,0.5c-5.7,0.4-11.4,1.4-17.2,0.5c-1.9-0.3-3.9-0.2-5.7,0c-5.8,0.9-11.5-0.2-17.2-0.6
		c-0.6,0-1.2-0.3-1.8-0.6c-1.9-0.7-2.5-1.6-2.4-3.6c0.2-2.3,0.9-4.5,2.3-6.2c1.3-1.5,1.3-2.9,1.3-4.8c-0.1-7.5,0.2-15,0.3-22.5
		c0.1-3.4,1.1-6.2,3.9-8.4c0.8-0.6,1.2-1.3,1.2-2.4c0-6.1,0-12.2,0.1-18.2c0-1.2-0.2-2.1-1.5-2.7c-1.2-0.5-1.6-1.5-1.6-2.7
		c0-2.4,0-4.8,0.2-7.2c0.3-3.2,1.3-4.2,4.5-4.3c1.3-0.1,2.5,0,4.2,0c-0.3-1-0.3-1.8-0.7-2.4c-2-3.5-4-6.9-6.2-10.3
		c-2.6-4.1-4.9-8.2-5.7-13c-0.2-1.1-0.9-1.1-1.7-1c-0.9,0.1-1.4,0.6-1.4,1.5c0.1,3,0.2,6.1,0.3,9.1c0,0.6,0,1.4,0.4,1.8
		c1.7,2.1,1.4,4.5,1.4,6.9c0,6.2,0,12.5,0.1,18.7c0,0.9,0.3,1.9,0.4,2.8c0.1,1.1,0.3,2.2,0.2,3.3c-0.2,2.8-1.4,4-4.2,4.3
		c-3,0.3-6.1,0.7-9-0.2c-2.2-0.7-3.1-1.5-2.9-3.8c0.4-4.5-0.8-8.9-0.6-13.3c0.2-4.5,0.4-8.9,0.5-13.4c0-1.8,0.3-3.5,2-4.6
		c0.9-0.6,1-1.5,1-2.5c0-2.7,0-5.4,0.1-8.2c0.1-1.4-0.1-2.4-1.5-3.2c-1.2-0.7-1.2-2-0.9-3.4c0.7-3.2,1.7-6.1,4.6-8.3
		c-1.2-1.8-2.3-3.4-3.3-5c-0.5-0.8,0-2,0.9-2.4c0.6-0.2,1.2-0.4,1.8-0.5c6.7-1.1,13.1-0.4,18.6,4.1c1.3,1.1,2.5,1.1,4,1
		c1.2-0.1,1.5-0.8,1.6-1.9c0.2-2.7,0.5-5.4,1-8.1c0.5-2.4,1.8-4.4,3.7-6c3.7-3.1,8.6-2.3,11,1.9c1,1.8,1.7,3.8,2.2,5.8
		c0.6,2.5,0.8,5,1.2,7.7c1.6,0.8,2.9,0.3,4.4-1.1c3.9-3.5,8.6-5.4,14-5.4c0.8,0,1.6,0.1,2.3,0.4c1.4,0.5,2,2.4,0.9,3.6
		C421.8,451.5,420.9,452.2,419.8,453.3"/>
	<path class="st67" d="M334.5,602.2c-5.4-0.1-8.9-4.5-7.6-9.7c0.3-1.4,1-2.7,1.8-3.9c1.1-1.9,2.6-3.6,3.6-5.6
		c0.5-0.9,0.5-2.1,0.5-3.2c0.1-10.2,0.1-20.5,0.2-30.7c0-1.9,0.2-3.8,0.5-5.7c0.5-2.8,1.3-3.4,4.2-3.5c0.3,0,0.6,0,1,0
		c6.7,0,13.4,0,20.1,0.1c1.4,0,2.9,0.1,4.3,0.4c1.3,0.2,2.1,1.3,2.2,2.2c0,1-0.7,2-2.1,2.3c-1.9,0.3-3.8,0.5-5.7,0.6
		c-5.1,0.1-10.2,0-15.3,0.1c-1,0-1.9,0-2.9,0c-1.2,0.1-1.6,0.5-1.6,1.8c0,10.7,0.1,21.4,0,32.1c0,1.7,0.6,2.5,2.2,3.1
		c4.3,1.8,6.4,6,5.1,11.1C343.9,598.5,339,602.3,334.5,602.2"/>
	<path class="st68" d="M446.1,580.2c-5.3-0.1-10.5-0.2-15.8-0.4c-1,0-1.9-0.2-2.8-0.3c-1.3-0.2-1.8-1.2-2.1-2.4
		c-0.2-1.1,0.7-2.5,2-2.9c0.8-0.2,1.5-0.4,2.3-0.4c1.4-0.1,2.9-0.1,4.3-0.1c8.9,0,17.9,0,26.8,0c1.1,0,2.2,0,3.3,0.3
		c1.2,0.3,2.1,1.6,2.2,2.8c0,1.3-0.7,2.5-2.1,2.9c-1.2,0.3-2.5,0.4-3.8,0.4c-4.8,0-9.6,0-14.4,0L446.1,580.2z"/>
	<path class="st68" d="M288.1,570.8c4.8,0,9.6,0,14.4,0c1.1,0,2.2,0,3.3,0.3c1.2,0.3,2.1,1.6,2.2,2.9c0,1.3-0.8,2.4-2.1,2.9
		c-0.7,0.2-1.6,0.4-2.3,0.4c-10.5-0.1-21-0.1-31.6-0.3c-0.9,0-1.9-0.2-2.8-0.3c-1.3-0.2-1.8-1.2-2.1-2.4c-0.2-1.1,0.8-2.6,2-2.9
		c1.1-0.3,2.2-0.4,3.3-0.4c5.3,0,10.5,0,15.8,0V570.8z"/>
	<path class="st68" d="M288,546.8c4.8,0,9.6,0,14.4,0c1.1,0,2.2,0,3.3,0.3c1.2,0.3,2.2,1.6,2.2,2.8c0,1.3-0.7,2.4-2.1,2.9
		c-0.7,0.2-1.6,0.4-2.3,0.4c-10.5-0.1-21-0.1-31.6-0.3c-0.9,0-1.9-0.2-2.8-0.3c-1.3-0.2-1.8-1.2-2.1-2.3c-0.2-1.1,0.7-2.6,2-2.9
		c1.1-0.3,2.2-0.4,3.3-0.4c5.3,0,10.5,0,15.8,0C288,546.9,288,546.8,288,546.8"/>
	<path class="st68" d="M287.9,582.3c4.8,0,9.6,0,14.4,0c1,0,1.9,0,2.9,0.1c1.5,0.2,2.7,1.5,2.8,2.9c0.1,1.4-0.8,2.7-2.4,3.2
		c-0.6,0.2-1.3,0.3-1.9,0.3c-10.7-0.1-21.4-0.2-32-0.3c-0.9,0-1.9-0.2-2.8-0.4c-1-0.3-1.5-1.2-1.7-2.1c-0.2-1,0.4-2.4,1.4-2.8
		c1.2-0.4,2.5-0.7,3.7-0.7c5.3-0.1,10.5,0,15.8,0V582.3z"/>
	<path class="st68" d="M287.7,541.8c-5.3-0.1-10.5-0.2-15.8-0.4c-1,0-1.9-0.2-2.8-0.3c-1.3-0.2-1.8-1.2-2.1-2.4
		c-0.2-1.1,0.8-2.5,2-2.9c0.8-0.2,1.6-0.4,2.3-0.4c1.4-0.1,2.9-0.1,4.3-0.1c8.9,0,17.9,0,26.8,0c1.1,0,2.2,0,3.3,0.3
		c1.2,0.3,2.1,1.6,2.2,2.9c0,1.3-0.7,2.5-2.1,2.9c-1.2,0.3-2.5,0.4-3.8,0.4c-4.8,0-9.6,0-14.4,0
		C287.7,541.7,287.7,541.8,287.7,541.8"/>
	<path class="st69" d="M461,460c0,3.8,0,7.7,0,11.5c0,1.3-0.1,2.6-0.5,3.8c-0.6,1.8-1.7,2.5-3.6,2.4c-7.3-0.2-14.7-0.5-22-0.7
		c-1.7-0.1-2.8-0.7-2.6-1.4c0.5-1.3,1.7-1.3,2.8-1.4c4.8-0.1,9.6-0.2,14.4-0.3c1.4,0,2.9,0,4.3-0.1c2.5-0.1,2.8-0.4,2.7-2.8
		c0-7-0.1-14-0.2-21.1c0-1.3,0-2.6,0.2-3.8c0.2-1,1-1.6,2-1.7c1.1-0.1,1.9,0.4,2.3,1.4c0.3,0.9,0.5,1.8,0.5,2.8c0,3.8,0,7.7,0,11.5
		C461.2,460,461.1,460,461,460"/>
	<path class="st67" d="M445.9,567.8c-5.3,0-10.5,0-15.8,0c-0.9,0-1.9-0.1-2.8-0.3c-1.2-0.3-2.2-1.9-1.9-3c0.3-1.1,0.9-2.1,2.1-2.4
		c0.8-0.2,1.6-0.2,2.4-0.2c10.7-0.1,21.3-0.2,32-0.2c0.8,0,1.6,0.1,2.4,0.3c1.2,0.3,2.1,1.6,2,2.9c0,1.3-1,2.6-2.2,2.8
		c-1.1,0.2-2.2,0.2-3.3,0.2c-4.9,0-9.9,0-14.8,0V567.8z"/>
	<path class="st67" d="M287.3,565c-5.1,0-10.2,0-15.3,0c-0.9,0-1.9,0-2.8-0.2c-1.2-0.3-2.2-1.7-2.2-2.8c0.1-1.2,1.1-2.4,2.4-2.6
		c0.9-0.2,1.9-0.2,2.9-0.2c10.3-0.1,20.7-0.1,31-0.2c0.8,0,1.6,0.1,2.4,0.3c1.3,0.3,2.2,1.4,2.2,2.7c0.1,1.5-0.9,2.8-2.5,3.1
		c-1.1,0.2-2.2,0.2-3.3,0.2c-4.9,0-9.9,0-14.8,0V565z"/>
	<path class="st67" d="M446,550.2c4.8,0,9.6,0,14.3,0c1.3,0,2.5,0.1,3.8,0.3c1.3,0.2,2.1,1.5,2.1,2.8c0,1.2-0.9,2.6-2.1,2.9
		c-0.8,0.2-1.6,0.2-2.4,0.2c-10.5,0-21-0.1-31.5-0.1c-0.8,0-1.6,0-2.4-0.2c-1.5-0.3-2.6-1.7-2.5-3c0.1-1.2,1.2-2.3,2.5-2.5
		c0.9-0.1,1.9-0.2,2.9-0.2c5.1,0,10.2,0,15.3,0V550.2z"/>
	<path class="st67" d="M445.7,591.9c-5.1,0-10.2,0-15.3,0c-0.9,0-1.9,0-2.8-0.2c-1.2-0.3-2.2-1.7-2.2-2.8c0.1-1.2,1.1-2.4,2.4-2.6
		c0.9-0.2,1.9-0.2,2.9-0.2c10.3-0.1,20.7-0.1,31-0.2c0.8,0,1.6,0.1,2.4,0.3c1.3,0.3,2.2,1.4,2.2,2.7c0.1,1.5-0.9,2.8-2.5,3.1
		c-1.1,0.2-2.2,0.2-3.3,0.2c-4.9,0-9.9,0-14.8,0V591.9z"/>
	<path class="st67" d="M445.6,603.4c-5.3,0-10.5,0-15.8,0c-0.9,0-1.9-0.2-2.8-0.5c-1-0.3-1.8-1.7-1.7-2.7c0.1-1,1-2.3,2-2.5
		c0.6-0.2,1.3-0.2,1.9-0.2c11-0.1,22-0.2,33-0.2c0.6,0,1.3,0.1,1.9,0.3c1.3,0.3,2.2,1.5,2.2,2.8c0,1.2-0.9,2.6-2.1,2.9
		c-1.1,0.2-2.2,0.3-3.3,0.3c-5.1,0-10.2,0-15.3,0V603.4z"/>
	<path class="st70" d="M225.9,574.2c0,2.6,0,5.1,0,7.7c0,1.3-0.2,2.5-0.5,3.8c-0.3,1.3-1.6,2.3-2.7,2.3c-1.1,0-2.5-1-2.8-2.2
		c-0.2-0.8-0.3-1.6-0.3-2.4c0-5.4,0.1-10.8,0.2-16.3c0-1.3,0.3-2.5,0.6-3.8c0.2-1,1-1.6,2-1.8c0.9-0.2,2.3,0.7,2.6,1.7
		c0.3,0.9,0.4,1.9,0.4,2.8c0.2,2.7,0.3,5.4,0.4,8.1C225.8,574.2,225.9,574.2,225.9,574.2"/>
	<path class="st71" d="M457.7,437.5c-2.7,0-5.4,0-8.2,0c-1,0-2,0-2.8-0.4c-0.6-0.3-1.3-1.1-1.3-1.8c0-0.6,0.6-1.5,1.2-1.8
		c0.8-0.4,1.8-0.5,2.8-0.5c5.8-0.1,11.5-0.2,17.3-0.3c0.6,0,1.3,0,1.9,0.1c1.4,0.2,2.4,1.4,2.3,2.6c-0.1,1-1,2-2.2,2.2
		c-0.8,0.1-1.6,0.2-2.4,0.2c-2.9,0-5.8,0-8.6,0C457.7,437.6,457.7,437.6,457.7,437.5"/>
	<path class="st72" d="M226.4,592.7c0.2,0.1,1.4,0.3,2.2,1c1.7,1.4,1.9,4,0.7,5.5c-1.3,1.6-3.5,1.7-5.5,0.2
		c-0.6-0.5-1.2-1.1-1.6-1.7c-1.6-2.4-0.4-4.8,2.5-5C225,592.7,225.3,592.7,226.4,592.7"/>
	<path class="st7" d="M428.4,653.3c5.6,0,11.2,0,16.8,0c1.1,0,2.3-0.1,3.4,0.1c2.2,0.3,4,2.2,4.1,4.1c0,1.5-2.1,3.9-4,4.3
		c-0.8,0.1-1.6,0.1-2.4,0.1c-4.5-0.2-8.9,0.4-13.4-0.7c-1.4-0.3-2.9-0.1-4.3-0.1c-44.1-0.1-88.3-0.1-132.4-0.2
		c-2.5,0-5.1,0.1-7.6-0.6c-1.5-0.4-3.2-0.2-4.8-0.2c-4.6,0-9.3,0-13.9-0.1c-2.3,0-3.4-1.1-3.2-2.6c0.1-1.4,1.1-2.1,3.2-2.2
		c2.2-0.1,4.5,0.1,6.7-0.1c2.4-0.1,4.7-0.5,7.1-0.6c1.8-0.1,3.5-0.2,5.3-0.2c36.8-0.1,73.5-0.1,110.3-0.1c2.9,0,5.7,0.2,8.6-0.6
		c1.2-0.3,2.5-0.2,3.8-0.2C417.3,653.4,422.9,653.4,428.4,653.3L428.4,653.3z"/>
	<path class="st9" d="M205.5,629.3c-3.3-0.3-7.5-0.7-11.7-1.1c-1.4-0.2-2.1-1.3-2.1-2.7c0-0.9,0.4-1.6,1.3-1.8
		c1.9-0.4,3.7-0.8,5.6-0.9c4.1-0.2,8.2-0.2,12.4-0.2c1.9,0,2.8,1.2,2.8,3.2c0.1,2.2-0.9,3.3-3,3.5c-0.3,0-0.6,0-0.9,0
		C208.7,629.3,207.6,629.3,205.5,629.3"/>
	<path class="st4" d="M439.3,683.8c8.6,0.6,17.2,1.2,25.8,1.8c5.7,0.4,11.5,0.9,17.2,1.2c12.8,0.6,25.5,1.9,38.2,3.2
		c0.6,0.1,1.3,0.1,1.9,0.2c3,0.6,4,1.9,4,5c0,1.4-0.3,2.9-0.3,4.3c0,2.2-0.8,3.6-2.8,5.1c-5,3.7-9.8,7.7-14.5,11.8
		c-2.6,2.3-5.5,3.1-8.8,2.9c-5.4-0.4-10.8-0.7-16.3-1.1c-1.9-0.1-3.8-0.4-5.7-0.5c-19.5-1-39-2-58.4-3.1c-5.7-0.3-11.5-1.1-17.2-1.6
		c-2.3-0.2-3.3-2.3-5.1-3.2c-1.2-0.6-1.2-2.2-1.3-3.5c0-0.2,0-0.3,0-0.5c0.6-6.1-1.5-5.2,4.9-8.5c7.1-3.6,14.2-7.3,21.4-10.9
		c0.1-0.1,0.3-0.2,0.4-0.2c5.6-2.9,5.6-2.9,11.8-2.6c1.6,0.1,3.2,0.2,4.8,0.2C439.3,683.9,439.3,683.8,439.3,683.8"/>
	<path class="st67" d="M168.4,506.2c-8.1,0-16.3,0-24.4,0c-6.1,0-6.8-0.4-7-6.3c-0.2-7.3,0.3-14.7,0.5-22c0-0.3,0.1-0.6,0.1-1
		c0.4-2.5,0.8-3,3.3-3.2c2.9-0.3,5.7-0.4,8.6-0.5c13.7-0.1,27.5-0.3,41.2-0.3c1.9,0,3.8,0.2,5.7,0.4c1.5,0.1,2.3,1.1,2.5,2.5
		c0.2,1.1,0.3,2.2,0.3,3.3c0.1,6.2,0.2,12.5,0,18.7c0,2.2-0.6,4.4-1.2,6.5c-0.3,1.2-1.3,1.8-2.5,1.9c-1.3,0.1-2.5,0.1-3.8,0.1
		c-7.8,0-15.7,0-23.5,0V506.2z"/>
	<path class="st4" d="M181.7,444.1c-2.2,0-4.5,0-6.7,0c-1.1,0-1.8,0.5-2.1,1.5c-0.1,0.3-0.2,0.6-0.2,0.9
		c-3.3,10.4-13.1,16.9-23.9,15.7c-7.9-0.9-15.6-8.2-14.9-17.5c0.7-8.2,7-16.3,14.7-18.2c2.8-0.7,5.7-1,8.5-0.9
		c6.9,0.2,11.9,3.9,14.4,10.1c1.4,3.5,3.1,4.6,6.7,4.2c3.6-0.4,7.3,0.2,10.9-0.9c0.3-3.5,0.5-7,0.8-10.5c0.1-1.4,0.3-2.8,0.7-4.2
		c0.1-0.4,1-1,1.5-0.9c0.5,0,1,0.6,1.4,1.1c0.3,0.4,0.3,0.9,0.3,1.4c0.3,4.8,0.6,9.6,0.8,14.4c0.1,2.9-0.6,3.5-3.7,3.7
		c-3,0.2-6,0.3-9.1,0.5C181.7,444.3,181.7,444.2,181.7,444.1"/>
	<path class="st6" d="M194.1,395.5c-16.8,0-33.6,0-50.3,0c-1.4,0-2.9-0.1-4.3-0.3c-1-0.2-1.7-0.9-1.8-2c-0.1-1.2,0.6-2.2,1.8-2.5
		c1.1-0.2,2.2-0.3,3.3-0.3c5.8-0.1,11.5-0.1,17.3-0.1c28.1,0,56.2,0,84.4-0.1c1.1,0,2.3-0.2,3.3,0.1c1.2,0.3,2.4,0.8,3.4,1.5
		c0.9,0.5,0.8,1.8,0,2.5c-1.4,1.2-3.1,1.6-4.9,1.6c-3.4,0-6.7,0-10.1,0h-42.2V395.5z"/>
	<path class="st73" d="M162.4,408.9c-5.9,0-11.8,0-17.7,0c-1.4,0-2.9-0.1-4.3-0.3c-1.1-0.2-1.9-1.4-2-2.4c0-1.1,0.7-2.3,1.8-2.5
		c1.2-0.3,2.5-0.5,3.8-0.5c12.8-0.1,25.6-0.2,38.3-0.2c0.9,0,1.9,0.1,2.8,0.3c1.2,0.3,2.2,1.7,2.3,2.8c0,1.1-0.9,2.6-2.1,2.9
		c-1.2,0.3-2.5,0.4-3.8,0.4c-6.4,0-12.8,0-19.2,0V408.9z"/>
	<path class="st6" d="M289.7,482.4c4.9,0,9.9,0,14.8,0c1.1,0,2.2,0.1,3.3,0.4c1.3,0.4,2,1.7,2,3c-0.1,1.2-0.7,2.1-1.9,2.5
		c-0.9,0.3-1.9,0.5-2.8,0.5c-10.2,0-20.4-0.1-30.6-0.2c-1.3,0-2.5-0.2-3.8-0.5c-1-0.2-2.1-1.5-1.8-2.5c0.2-0.9,0.7-2,1.4-2.3
		c1.1-0.6,2.4-0.8,3.7-0.8c5.3-0.1,10.5,0,15.8,0C289.7,482.5,289.7,482.5,289.7,482.4"/>
	<path class="st6" d="M289.4,446.9c4.9,0,9.9,0,14.8,0c1.1,0,2.2,0,3.3,0.3c1.2,0.3,2.2,1.6,2.2,2.8c0,1.3-0.7,2.5-2,2.9
		c-0.7,0.3-1.5,0.4-2.3,0.4c-10.5-0.1-21-0.1-31.5-0.2c-0.9,0-1.9-0.2-2.8-0.3c-1.3-0.2-1.9-1.2-2.1-2.3c-0.2-1.2,0.6-2.6,1.9-2.9
		c1.1-0.3,2.2-0.5,3.3-0.5c5.1,0,10.2,0,15.3,0V446.9z"/>
	<path class="st6" d="M289.7,470.9c4.9,0,9.9,0,14.8,0c1.1,0,2.2,0.1,3.3,0.4c1.3,0.4,2,1.7,2,3c-0.1,1.2-0.7,2.1-1.9,2.5
		c-0.9,0.3-1.9,0.5-2.8,0.5c-10.2,0-20.4-0.1-30.6-0.2c-1.3,0-2.5-0.2-3.8-0.5c-1-0.2-2.1-1.5-1.8-2.5c0.2-0.9,0.7-2,1.4-2.3
		c1.1-0.6,2.4-0.8,3.7-0.8c5.3-0.1,10.5,0,15.8,0C289.7,471,289.7,471,289.7,470.9"/>
	<path class="st6" d="M289.5,435.4c4.9,0,9.9,0,14.8,0c1.1,0,2.2,0,3.3,0.3c1.2,0.3,2.1,1.6,2.2,2.8c0,1.3-0.8,2.4-2.1,2.9
		c-0.7,0.2-1.5,0.4-2.3,0.4c-10.5-0.1-21-0.1-31.5-0.3c-0.9,0-1.9-0.2-2.8-0.3c-1.3-0.2-1.8-1.2-2.1-2.4c-0.2-1.1,0.7-2.6,2-2.9
		c1.1-0.3,2.2-0.4,3.3-0.4c5.1,0,10.2,0,15.3,0V435.4z"/>
	<path class="st74" d="M321.1,480.1c0.2,6.1,0.2,12.2,0.8,18.2c0.3,3.9-1.4,6.8-3.6,9.5c-1.4,1.8-3.6,2.6-6,2.5
		c-1.3-0.1-2.3-0.7-2.6-1.8c-0.3-1.1,0.2-2.2,1.4-2.7c0.7-0.3,1.5-0.5,2.2-0.9c2-1.2,3.2-2.7,3.2-5.3c0.2-12.5,0.6-24.9,1.1-37.4
		c0.1-1.9,0.3-3.8,0.6-5.7c0-0.3,0.7-0.8,1-0.8c0.3,0,0.9,0.5,0.9,0.8c0.2,1.1,0.3,2.2,0.3,3.3c0.3,6.7,0.5,13.4,0.8,20.1
		C321.2,480.1,321.1,480.1,321.1,480.1"/>
	<path class="st67" d="M289.2,465.1c-5.1,0-10.2,0-15.4,0c-1.1,0-2.2-0.2-3.3-0.5c-1.1-0.3-1.8-1.7-1.7-2.7c0.2-1.2,0.8-2.1,2-2.5
		c0.7-0.2,1.6-0.3,2.4-0.3c10.7-0.1,21.4-0.2,32.1-0.2c0.8,0,1.6,0.1,2.4,0.3c1.2,0.4,1.8,1.3,2,2.5c0.1,1.2-0.7,2.7-1.9,3
		c-1.1,0.3-2.2,0.4-3.3,0.4c-5.1,0-10.2,0-15.4,0V465.1z"/>
	<path class="st75" d="M681.4,601.2c0.5,0,1,0,1.4,0.2c0.7,0.2,1,0.7,0.7,1.4c-0.2,0.4-0.5,0.8-0.9,1.1c-3.8,2.7-6.9,6-9.6,9.8
		c-0.6,0.8-1.2,1.5-1.9,2.1c-0.3,0.3-0.8,0.4-1.2,0.6c-0.2-0.5-0.6-1.1-0.6-1.6c0-0.8,0.2-1.6,0.3-2.3
		C671,605.9,675.3,602.6,681.4,601.2"/>
	<path class="st76" d="M681.4,601.2c-5,2.6-9,6.2-11.8,11.1c-0.9-0.7-1-1.6-0.7-2.5c1.4-3.9,4-6.7,7.5-8.7
		C678.1,600.2,679.8,600.1,681.4,601.2"/>
	<path class="st6" d="M572.6,463.6c0,2.1,0,4.1,0,6.2c0,0.9-0.1,1.9-0.4,2.8c-0.5,1.7-1.8,2.6-3.5,2.8c-1.7,0.2-3.4-1.1-3.9-2.9
		c-0.3-0.9-0.4-1.9-0.4-2.8c0-4.3,0-8.6,0-12.9c0-1.1,0.2-2.2,0.6-3.2c0.6-1.6,2.1-2.5,3.8-2.3c1.5,0.1,2.8,0.9,3.3,2.4
		c0.3,1,0.5,2.2,0.6,3.3C572.7,459.1,572.6,461.4,572.6,463.6"/>
	<path class="st68" d="M598.6,463.5c0,2.1,0,4.1,0,6.2c0,0.8,0,1.6-0.2,2.4c-0.4,1.9-2.4,3.4-4.1,3.3c-1.7-0.1-3.5-1.4-3.6-3.3
		c-0.2-5.9-0.2-11.7,0-17.6c0.1-2,1.7-3.2,3.5-3.3c1.9-0.1,3.7,1.2,4.2,3.2c0.2,0.8,0.2,1.6,0.2,2.4
		C598.7,459.1,598.6,461.3,598.6,463.5L598.6,463.5z"/>
	<path class="st70" d="M576.5,502.9c-4.4,0-7.4-0.5-10.3-1.6c-0.8-0.4-1.6-1.1-2.3-1.7c-0.2-0.1-0.2-0.7-0.1-0.8
		c0.3-0.3,0.7-0.5,1.1-0.7c0.1-0.1,0.3,0,0.4,0.1c4.3,2.6,9,2.1,13.5,1.3c4.9-0.8,9.5-2.8,13.3-6.2c1.1-1,1.9-1.9,1.7-3.7
		c-0.3-2.4,2.3-3.1,4-2.1c0.5,0.3,1,0.8,1.4,1.2c1.1,1.4,0.8,3.1-0.7,4.1c-0.9,0.6-1.9,1.2-2.7,1.9
		C590.2,500.4,583.1,502.7,576.5,502.9"/>
	<path class="st70" d="M567,435.1c1.8,0.4,3.7,0.8,5.5,1.4c1.2,0.4,1.8,2,1.4,3.1c-0.3,1-1.4,1.7-2.7,1.6c-0.8-0.1-1.6-0.2-2.3-0.5
		c-3.2-1-6.3-0.6-9,1.4c-0.4,0.3-0.8,0.5-1.3,0.6c-0.5,0.2-1.2-0.4-1.3-1c-0.2-1.2,0.3-2.2,1.1-3C560.6,436.1,563.6,435.3,567,435.1
		"/>
	<path class="st65" d="M594.6,433.6c2.3,0.1,4.3,0.4,6,1.7c0.8,0.6,1.4,1.7,2,2.6c0.2,0.3-0.1,0.9-0.3,1.3c-0.1,0.2-0.6,0.2-0.8,0.2
		c-0.9-0.3-1.8-0.6-2.7-0.9c-2.4-1-4.7-0.7-6.8,0.6c-0.9,0.6-1.9,1.2-2.9,1.7c-1,0.5-1.9,0-2.6-0.7c-0.6-0.8-0.7-1.8-0.2-2.7
		c1-1.6,2.5-2.5,4.2-2.9C591.8,434,593.3,433.8,594.6,433.6"/>
	<path class="st77" d="M575.5,508c2.3-0.4,4.7-0.8,7-1.3c0.5-0.1,0.9-0.2,1.4-0.3c1.5-0.2,2.8,0.2,2.9,0.9c0.1,1.2-0.5,2.1-1.4,2.9
		c-2.8,2.5-10.3,3.3-13.8-0.1c-0.4-0.4-0.7-1.2-0.5-1.6c0.2-0.4,0.9-0.8,1.5-0.9c0.9-0.1,1.9,0,2.9,0
		C575.5,507.7,575.5,507.9,575.5,508"/>
	<path class="st63" d="M626.8,470c-0.4,0.2-0.8,0.6-1.3,0.6c-0.9,0-2,0.2-2.7-0.2c-3.8-2.1-6-5.5-6.9-9.7c-0.2-1,0.2-2,1.3-2.2
		c0.7-0.1,1.4,0.3,2.1,0.6c0.3,0.1,0.4,0.5,0.6,0.7c1.4,2.9,3.4,5.3,5.5,7.7C626,468.1,626.2,468.9,626.8,470"/>
	<path class="st78" d="M620.8,475.6c-0.1,0.4-0.3,0.9-0.1,1c0.8,0.7,1.8,1.3,2.7,1.9c0.6,0.4,1.4,0.7,1.9,1.3
		c0.4,0.4,0.6,1.2,0.4,1.7c-0.1,0.5-0.8,1-1.3,1.1c-1.6,0.4-3.1-0.2-4.5-1c-0.8-0.5-1.5-1.1-2.2-1.8c-0.9-0.9-1.8-1.9-1.6-3.3
		c0.2-1.3,1.5-1.5,2.5-1.9c0.2-0.1,0.2-0.5,0.3-0.8C620.4,473.5,621,474.1,620.8,475.6"/>
	<path class="st63" d="M623.6,493.4c-0.1,0.2-0.1,0.7-0.3,0.7c-0.4,0.1-0.9,0-1.3-0.1c-0.3-0.1-0.6-0.3-0.8-0.5
		c-2.1-3.5-4.3-7-6.3-10.6c-0.2-0.3,0.1-1,0.4-1.2c0.3-0.2,1-0.2,1.3,0c3.1,3,5.4,6.6,7,10.6C623.7,492.6,623.6,493,623.6,493.4"/>
	<path class="st79" d="M630.6,478.6c0.5-3.2,1.6-5.6,3.8-7.4c0.3-0.2,1-0.3,1.3-0.2c0.3,0.2,0.6,0.9,0.5,1.2c-0.9,1.8-1.1,3.5,0,5.3
		c0.1,0.2-0.3,1-0.6,1.1c-1.6,0.2-2.1,1.2-2.2,2.6c0,0.3-0.5,0.9-0.8,0.8c-0.4,0-0.9-0.4-1.1-0.7
		C631.1,480.3,630.8,479.2,630.6,478.6"/>
	<path class="st63" d="M620.8,475.6c-0.6-0.6-1.3-1.2-1.9-1.8c-0.4-0.5-0.9-0.9-1.2-1.4c-0.8-1.3-1-2.8-0.3-2.9
		c1.1-0.2,1.7,0.6,2.3,1.3c1.5,1.9,3.4,3.2,5.6,4.2c0.8,0.4,1.5,1,2.3,1.5c0.2,0.4,0.2,0.8-0.1,1.1c-1,0-1.9-0.1-2.9-0.1
		c-0.4-0.3-0.8-0.7-1.4-0.6c-0.2,0.1-0.4,0-0.6-0.2c-0.3-0.4-0.7-0.7-1.3-0.8C621.1,475.9,620.9,475.8,620.8,475.6"/>
	<path class="st80" d="M616.3,503c-0.4,0.2-0.9,0.7-1.3,0.6c-2.3-0.3-3.6-3-2.4-4.9c0.4-0.6,1.5-0.8,2-0.3
		C615.7,499.6,616.3,501,616.3,503"/>
	<path class="st81" d="M623.2,485.1c0.9,0.4,1.7,0.7,2.5,1.1c1.3,0.7,1.6,1.5,1.1,2.1c-0.7,0.9-1.7,0.9-2.5,0.6
		c-0.8-0.4-1.6-1-2.3-1.6c-0.2-0.2-0.2-0.9,0-1.3C622.2,485.6,622.7,485.4,623.2,485.1"/>
	<path class="st78" d="M627.5,477.6c0-0.4,0.1-0.7,0.1-1.1c0.2,0.3,0.4,0.5,0.7,0.8C628,477.4,627.8,477.5,627.5,477.6"/>
	<path class="st78" d="M623.3,476.9c0.5,0.2,0.9,0.4,1.4,0.6C624.2,477.3,623.7,477.1,623.3,476.9"/>
	<path class="st78" d="M621.4,475.9c0.4,0.3,0.9,0.5,1.3,0.8C622.3,476.4,621.9,476.1,621.4,475.9"/>
	<path class="st82" d="M509.6,632.4c3.9,0.4,7.8,1.1,11.5,2.8c0.8,0.4,1.6,1.1,2.1,1.9c1,1.4,0.2,3.4-1.5,3.8
		c-1.6,0.4-3.1-0.1-4.7-0.6c-3.2-0.9-6.5-1.6-9.7-2.5c-2.8-0.7-5.4-0.3-7.8,1.1c-0.5,0.3-1.1,0.6-1.8,0.7c-0.2,0.1-0.7-0.1-0.8-0.3
		c-0.2-0.4-0.3-0.9-0.2-1.3c0.1-0.4,0.5-0.8,0.9-1.1C501.1,634.1,505.1,632.7,509.6,632.4"/>
	<path class="st61" d="M517.1,607.9c0.3-0.2,0.6-0.5,0.8-0.7C517.7,607.5,517.4,607.7,517.1,607.9"/>
	<path class="st61" d="M518.1,607.1c0.3-0.3,0.6-0.5,0.9-0.8C518.7,606.6,518.4,606.9,518.1,607.1"/>
	<path class="st67" d="M452.9,404.9c13.7-0.2,27.5-0.3,41.2-0.5c1.3,0,2.6,0,3.8,0.1c2,0.2,3.4,1.6,3.5,3.3c0.1,1.9-1.5,3.4-3.7,3.6
		c-0.6,0.1-1.3,0-1.9,0c-9.9,0-19.8,0.3-29.7-0.2c-12.6-0.7-25.2-0.6-37.8-1c-5.9-0.2-11.8-0.1-17.7-0.2c-1.7,0-3.5-0.3-5.2-0.5
		c-0.8-0.1-1.5-0.8-1.3-1.7c0.1-0.5,0.6-1.3,1.1-1.4c1.7-0.4,3.4-0.6,5.2-0.7c11.8-0.2,23.6-0.3,35.4-0.5c2.4,0,4.8,0,7.2,0
		C452.9,405.2,452.9,405,452.9,404.9"/>
	<path class="st19" d="M406.5,473.7c-3.5,6.3-6.7,11.9-9.8,17.7c-0.9,1.6-1.9,2.5-3.8,2.3c-0.5,0-1-0.1-1.4,0
		c-2.7,0.4-4.3-0.8-5.7-3.2c-2.5-4.5-5.3-8.7-8-13.1c-0.8-1.3-2-2.5-1.9-4.6C386.1,473,396.1,472.7,406.5,473.7"/>
	<path class="st16" d="M390,469.6c-4.6,0-9.2,0-13.9,0c-1.1,0-1.8-0.5-1.9-1.7c-0.1-1.1,0-2.2-0.1-3.3c-0.1-1.4,0.4-2.3,1.5-3.2
		c4-3.2,3.9-3.2,9-3.1c4.9,0.1,9.9,0.2,14.8,0.1c1.9,0,3.3,0.3,4.1,2.3c0.5,1.3,1.4,2.5,2.3,3.6c0.9,1.1,1,2.3,0.7,3.6
		c-0.1,0.4-0.5,0.9-0.8,0.9c-0.9,0.2-1.9,0.2-2.8,0.2c-4.3,0-8.6,0-12.9,0C390,469.2,390,469.4,390,469.6"/>
	<path class="st83" d="M406.6,551c0,3.7,0,7.3,0,11c0,1.1-0.6,1.8-1.7,1.8c-2.4,0-4.8,0-7.2,0c-1.2,0-1.8-0.6-1.8-1.7
		c0-6.1,0.1-12.1,0.1-18.2c0-2.6,0.7-5.1,2.4-7.1c1.1-1.3,2.3-1.7,3.8-1.1c1,0.4,2,1,3,1.5c1.2,0.7,1.7,1.8,1.7,3.2
		c-0.1,3.5,0,7,0,10.5H406.6z"/>
	<path class="st83" d="M375.8,550.8c0-3.2,0.2-6.4-0.1-9.6c-0.2-2.3,0.9-3.6,2.6-4.6c0.6-0.3,1.1-0.6,1.7-0.8c1.8-0.7,3-0.4,4.2,1.1
		c1.7,2.1,2.3,4.5,2.3,7.2c0,3.5-0.1,7-0.1,10.5c0,2.2,0.1,4.5,0.3,6.7c0.1,2-0.3,2.5-2.4,2.5c-9.8-0.1-8.1,1.6-8.3-7.8
		c0-1.8,0-3.5,0-5.3H375.8z"/>
	<path class="st20" d="M391.3,499.8c4,0,8,0,11.9,0c1.7,0,2.1,0.4,2.1,1.9c0,5.2,0.4,4.8-4.5,4.8c-7,0-14,0-21,0
		c-2.1,0-2.4-0.2-2.4-2c-0.1-5.1-0.7-4.8,4.4-4.7C385,499.7,388.2,499.7,391.3,499.8L391.3,499.8z"/>
	<path class="st21" d="M391.4,537.2c-1.3-1.9-2.4-3.4-3.5-4.9c-0.2-0.4-0.3-0.9-0.3-1.3c-0.1-6.1-0.1-12.1-0.1-18.2
		c0-1.3,0.3-1.6,1.7-1.7c0.5,0,1,0,1.4,0c5.2,0,4.6-0.5,4.6,4.6c0,4.6-0.2,9.2-0.1,13.9c0,1.7-0.2,3.1-1.4,4.3
		C392.8,534.7,392.3,535.8,391.4,537.2"/>
	<path class="st84" d="M424.9,495.3c0,2.2,0,4.4,0,6.7c-0.1,2.1-0.4,2.3-2.6,2.4c-0.2,0-0.3,0-0.5,0c-2.5,0-2.6-0.1-2.7-2.7
		c-0.2-4.4-0.3-8.9-0.4-13.3c0-1.6,0.4-2,1.9-2.1c0.8,0,1.6,0,2.4,0c1.8,0.1,2.1,0.4,2.1,2.3c0,2.2,0,4.4,0,6.7H424.9z"/>
	<path class="st84" d="M357.6,495.2c0-2.4,0-4.8,0-7.1c0-1.1,0.6-1.7,1.7-1.7c0.2,0,0.3,0,0.5,0c4.1-0.2,4.3-0.1,4.2,4.1
		c0,3.8-0.3,7.6-0.4,11.4c-0.1,2.4-0.3,2.6-2.9,2.6c-0.5,0-1,0-1.4,0c-0.9-0.1-1.5-0.6-1.5-1.5c0-2.5,0-5.1,0-7.6H357.6z"/>
	<path class="st29" d="M381,574.8c-3.2-0.2-5.6-0.3-8-0.5c-0.9-0.1-1-0.9-0.7-1.4c1.2-2.4,2.7-4.2,5.8-4.1c3.3,0.2,6.7,0,10,0.1
		c0.4,0,1.1,0.7,1.1,1.1c0.2,0.9,0.1,1.9,0,2.9c0,0.9-0.6,1.5-1.5,1.5C385.3,574.6,382.7,574.7,381,574.8"/>
	<path class="st85" d="M390.6,453.5c-5.8,0.1-4.9,0.1-4.1-4.9c0.3-1.7,0.7-3.4,1.3-5.1c0.3-0.8,1.1-1.6,1.8-2.2
		c0.8-0.8,2.3-0.6,2.9,0.4c0.6,1.1,1.2,2.3,1.6,3.5c0.3,1,0.4,2.2,0.6,3.3C395.7,454.1,395.5,453.4,390.6,453.5"/>
	<path class="st22" d="M394.2,574.4c-0.2-1.4-0.4-2.7-0.4-3.9c-0.1-1.3,0.3-1.7,1.7-1.7c3.4,0,6.7-0.1,10.1,0
		c2.2,0.1,4.5,2.3,4.9,4.5c0,0.3-0.5,0.9-0.8,0.9C404.6,574.7,399.5,575,394.2,574.4"/>
	<path class="st39" d="M420.6,518.8c-3.4,0-3.9-0.6-3.3-3.9c0.1-0.3,0.1-0.6,0.2-0.9c1-3.9,1-3.9,5.1-3.7c1.7,0.1,1.8,0.1,2.2,1.8
		c0.1,0.5,0.1,1,0.2,1.4C426.3,517.7,426.7,518.9,420.6,518.8"/>
	<path class="st21" d="M402.2,520.5c0,2.7,0,5.4,0,8.1c0,0.5-0.6,0.9-0.9,1.4c-0.4-0.4-1.2-0.8-1.2-1.2c-0.2-5.5-0.3-11.1-0.3-16.6
		c0-0.3,0.8-0.9,1.3-0.9c0.5,0,1.2,0.4,1.5,0.8c0.2,0.3,0.1,0.9,0.1,1.4c0,2.4,0,4.8,0,7.1C402.5,520.5,402.3,520.5,402.2,520.5"/>
	<path class="st21" d="M382.8,520.4c0,2.4,0,4.8,0,7.1c0,0.6-0.1,1.2-0.3,1.8c-0.1,0.2-0.5,0.5-0.7,0.5c-0.4-0.1-0.9-0.3-1.1-0.6
		c-0.2-0.4-0.2-0.9-0.2-1.4c-0.2-4.9-0.3-9.8-0.4-14.7c0-0.3,0-0.6,0-0.9c0.2-0.9,1-1.3,1.8-1c0.5,0.1,1.1,0.7,1.1,1.1
		c0.1,1.1,0,2.2,0,3.3c0,1.6,0,3.2,0,4.8H382.8z"/>
	<path class="st53" d="M372.9,456.9c-2.4,4.2-2.5,3.5-5.7,1.4c-1.5-1-2.8-2.1-4.2-3.2c-0.6-0.5-1-1.1-1.7-1.8
		c2.6-0.7,2.6-0.7,4.6-0.2C368.6,453.8,371.2,454.6,372.9,456.9"/>
	<path class="st86" d="M415.9,452.3c-2.1,2.6-3.5,4.3-4.8,6.1c-1.6,2.1-2.3,1.2-3.3-0.6c-0.2-0.4-0.1-1.3,0.3-1.6
		C410,454.4,412.2,453.1,415.9,452.3"/>
	<path class="st87" d="M421.9,482c-0.6-1.4-1-1.9-1-2.4c-0.2-3.1-0.4-6.3-0.5-9.5c0-0.7,0.5-1.2,1.2-1c0.4,0.1,1,0.5,1,0.8
		C422.4,473.6,422.6,477.4,421.9,482"/>
	<path class="st87" d="M362.3,474.5c-0.2,1.6-0.4,3.7-0.6,5.7c0,0.2-0.4,0.5-0.5,0.7c-0.3-0.3-0.7-0.5-0.7-0.8
		c-0.2-3.2-0.2-6.3-0.3-9.5c0-0.3,0-0.7,0.1-0.9c0.3-0.3,0.7-0.7,1.1-0.6c0.3,0,0.9,0.5,0.9,0.8
		C362.3,471.3,362.3,472.7,362.3,474.5"/>
	<path class="st39" d="M360.6,513.4c-0.8-0.1-1.8,0-2.7-0.2c-0.9-0.2-1.3-1-1-1.8c0.1-0.5,0.7-1.1,1.1-1.2c1.9-0.2,3.8-0.2,5.7-0.1
		c0.4,0,0.8,0.8,1,1.3c0.2,0.8-0.1,1.6-1.1,1.7C362.6,513.3,361.6,513.3,360.6,513.4"/>
	<path class="st88" d="M334.7,597.6c-2.2,0.2-4.6-1.9-3.3-4.8c1-2.1,2.3-3.7,4.4-4.8c1.5-0.8,3.2-0.3,4,1.3c0.2,0.4,0.4,0.9,0.5,1.3
		C340.9,593.8,337.9,597.5,334.7,597.6"/>
	<path class="st2" d="M405.7,700.5c1.2-0.7,2.4-1.4,3.6-2c5.9-3.2,11.8-6.4,17.7-9.4c0.9-0.5,2.1-0.7,3.2-0.7
		c8.8,0.6,17.5,1.3,26.3,1.9c2.9,0.2,5.7,0.4,8.6,0.6c1.2,0.1,2.5-0.1,3.9,0.8c-2.5,2-4.8,3.4-8.1,3.1c-8.1-0.8-16.2-1.4-24.4-2
		c-2.4-0.2-4.8-0.2-7.2-0.3c-0.8,0-1.6,0.4-1.6,1.4c0.1,0.9,0.8,1.3,1.7,1.4c3,0.3,6,0.7,9,1c7.6,0.7,15.3,1.2,22.9,1.9
		c10.2,0.9,20.4,1.8,30.6,2.6c1.4,0.1,2.9,0.1,4.3,0c0.4,0,0.9-0.8,1-1.4c0.1-0.3-0.4-1-0.7-1.1c-1.4-0.4-2.8-0.7-4.2-0.9
		c-7.1-0.7-14.2-1.3-22.3-2.1c3.4-2.2,5.8-4,9.4-3.6c11.4,1.1,22.9,1.9,34.4,2.9c0.9,0.1,1.7,0.4,2.9,0.7c-1.8,2-3.9,2.9-5.7,4.1
		c-3.6,2.3-7.3,4.6-11,6.8c-0.6,0.4-1.5,0.5-2.3,0.5c-2.7-0.1-5.4-0.4-8.1-0.6c-18.2-1.5-36.3-2.3-54.5-3.1
		c-9.7-0.4-19.4-1.2-29.2-1.9L405.7,700.5z"/>
	<path class="st28" d="M520.7,698.5c0.6,2.2,0.5,3.9-1.5,5.4c-4,2.9-7.8,6.1-11.7,9.1c-1.6,1.2-3.3,1.8-5.3,1.7c-4-0.1-8-0.1-12-0.3
		c-5.3-0.2-10.5-0.5-15.8-0.8c-18.7-1-37.3-1.9-56-3c-5.1-0.3-10.2-1-15.2-1.5c-1.4-0.1-1.3-1.2-1.3-2.1c0-1.4,0.3-1.8,1.6-1.7
		c6.4,0.3,12.8,0.7,19.1,1.1c6.4,0.4,12.7,1,19.1,1.4c12.9,0.8,25.8,1.5,38.7,2.3c4.8,0.3,9.5,0.9,14.3,1.5c3.6,0.4,6.7,0,9.9-2.4
		C509.7,705.4,515.2,702.2,520.7,698.5"/>
	<path class="st0" d="M142.3,500.5c-0.2-7.3-0.3-14.1-0.5-21c0-1.3,0.4-1.7,1.7-1.7c2.4,0,4.8,0,7.2,0.1c13.2,0.2,26.5,0.3,39.7,0.5
		c0.8,0,1.6-0.1,2.4,0.1c0.5,0.1,1.1,0.8,1.1,1.2c0,6.4,0,12.8-0.1,19.1c0,1.1-0.5,1.8-1.7,1.8c-1.9,0-3.8,0.1-5.7,0.1
		c-13.6,0-27.1,0-40.7,0C144.7,500.7,143.8,500.6,142.3,500.5"/>
	<path class="st2" d="M166.5,444.5c-0.5,3.3-2.1,5.9-4.8,7.8c-3.2,2.3-6.8,3.6-10.7,3.8c-6.2,0.4-11.3-4.3-11.4-10.3
		c0-1.5,0.4-2.1,1.9-2.1c8,0.1,16,0.2,23.9,0.3C165.8,444.1,166,444.3,166.5,444.5"/>
	<path class="st23" d="M141.2,440.2c2.1-4.9,5.3-7.8,10-9.2c0.4-0.1,0.9,0,1.4,0c1.6,0.2,3.1,0.4,4.7,0.6c4.1,0.6,7,2.8,8.6,6.6
		c0.4,0.8-0.1,1.6-1,1.7c-1.6,0.1-3.2,0-4.8,0.1c-5.2,0.1-10.5,0.1-15.7,0.2C143.5,440.2,142.6,440.2,141.2,440.2"/>
</g>
</svg>
