<?xml version="1.0" encoding="utf-8"?>
<!-- Generator: Adobe Illustrator 22.1.0, SVG Export Plug-In . SVG Version: 6.00 Build 0)  -->
<svg version="1.1" id="Capa_1" xmlns="http://www.w3.org/2000/svg" xmlns:xlink="http://www.w3.org/1999/xlink" x="0px" y="0px"
	 viewBox="0 0 359.5 202.5" style="enable-background:new 0 0 359.5 202.5;" xml:space="preserve">
<style type="text/css">
	.st0{clip-path:url(#SVGID_2_);fill:#FFFFFF;}
	.st1{clip-path:url(#SVGID_2_);fill:#010000;}
	.st2{clip-path:url(#SVGID_2_);fill:#CDCDCD;}
	.st3{clip-path:url(#SVGID_2_);fill:#FDFDFD;}
	.st4{clip-path:url(#SVGID_2_);}
	.st5{clip-path:url(#SVGID_2_);fill:#FEFEFE;}
	.st6{clip-path:url(#SVGID_2_);fill:#030303;}
	.st7{clip-path:url(#SVGID_2_);fill:#040404;}
	.st8{clip-path:url(#SVGID_2_);fill:#010101;}
	.st9{clip-path:url(#SVGID_2_);fill:#FCFCFC;}
</style>
<g>
	<defs>
		<rect id="SVGID_1_" x="-111" y="-203.5" width="1920" height="1080"/>
	</defs>
	<clipPath id="SVGID_2_">
		<use xlink:href="#SVGID_1_"  style="overflow:visible;"/>
	</clipPath>
	<path class="st0" d="M179.9,203.3c-52.8,0-105.6,0-158.4,0.1c-4.2,0-7.9-0.9-11.4-3c-6.7-4-10.3-10.1-10.4-17.8
		c-0.2-16.8-0.1-33.6-0.1-50.4c0-36.8,0-73.6,0-110.4c0-3.8,0.7-7.3,2.3-10.6c1.9-3.9,4.6-6.8,8.4-8.9c3.5-1.9,7-2.7,11-2.7
		c94.1,0,188.2,0,282.2,0c12,0,24,0.3,36,0c9.4-0.2,17.8,6,20.6,15.5c0.4,1.5,0.5,3.2,0.5,4.8c0.1,3.5,0.1,7,0.1,10.6
		c0,50.6,0,101.1,0,151.7c0,3.4-0.6,6.6-2.2,9.7c-3.5,7.1-10.5,11.6-18.4,11.6c-39,0-78.1,0-117.1,0
		C208.7,203.4,194.3,203.4,179.9,203.3L179.9,203.3z"/>
	<path class="st1" d="M180.9,5.7c52.6,0,105.2,0,157.9,0c2,0,4.1-0.2,6.1,0.6c6.7,2.8,9.8,7.7,9.8,14.9c0,42.4,0,84.8,0,127.1
		c0,11.2-0.1,22.4,0,33.6c0.1,6.2-3.2,12-10.2,14.6c-0.7,0.3-1.5,0.4-2.3,0.5c-1.1,0.1-2.2,0-3.4,0c-105.7,0-211.4,0-317.1,0
		c-2.9,0-5.6-0.4-8.3-1.8c-4.8-2.7-7-6.9-7.4-12.1c-0.3-3.8-0.1-7.7-0.1-11.5c0-50.1,0-100.1,0-150.2c0-2.8,0.3-5.4,1.6-7.9
		c2.6-5.2,7-7.9,12.7-7.9C35,5.6,49.9,5.6,64.8,5.6C103.5,5.6,142.2,5.6,180.9,5.7L180.9,5.7z"/>
	<path class="st2" d="M347.9,15.3c1.4,1.5,1.4,3.5,1.5,5.4c0,2.7,0,5.4,0,8.2c0,49.9,0,99.8,0.1,149.7c0,1.8,0,3.5-0.1,5.3
		c-0.2,2.5-1.3,4.6-3.3,6.1c-1.1,0.8-2.1,1.4-3.5,1.3c-0.8-0.1-1.6,0-2.4,0c-106,0-212.1,0-318.1,0c-1.1,0-2.2-0.1-3.3-0.2
		c-1.2-1.2-1.4-2.8-1.5-4.4c-0.3-12-1.2-23.9-1.9-35.9c-1.4-24.3-1-48.6-1-72.8c-0.1-17,1.7-33.8,3.5-50.6c0.6-5.9,3.7-9.2,9.2-10.9
		c3.2-1,6.5-1.5,9.9-1.5c69.5,0,139.1-0.6,208.6,0.3c30.7,0.4,61.4,0.2,92,0.7C340.9,15.8,344.4,15.7,347.9,15.3"/>
	<path class="st3" d="M347.9,15.3c-0.3,0.9-0.5,1.9-1.7,1.9c-1.1,0-2.2,0.1-3.4,0.1c-28.6,0-57.2,0-85.9-0.1c-1.9,0-3.8-0.4-5.7-0.5
		c-1.9-0.1-3.8-0.2-5.7-0.2c-61.9,0-123.8,0-185.6-0.1c-8.2,0-16.3,0.1-24.5-0.1c-4.1-0.1-7.9,1.2-11.5,2.8
		c-2.9,1.2-4.4,3.3-4.5,6.7c-0.2,4.3-1,8.5-1.6,12.8c0,0.2-0.1,0.3-0.1,0.5C17.4,44,17,49.1,16.7,54.2c-0.2,2.9,0.1,5.7-0.8,8.6
		c-0.3,1.2-0.2,2.5-0.2,3.8c0,20.9,0,41.9,0,62.8c0,1.9,0.4,3.8,0.6,5.7c0.1,1.3,0.2,2.5,0.2,3.8c0.1,3.8,0,7.7,0.1,11.5
		c0.1,1.9,0.4,3.8,0.6,5.7c0.1,1.6,0.2,3.2,0.3,4.8c0.2,4.6,0.2,9.2,0.7,13.8c0.7,5.4,0.2,10.9,0.2,16.3c-3.5,0.4-5.4-1.7-6.6-4.4
		c-0.6-1.4-0.8-3.1-0.8-4.7c-0.1-4.2,0-8.3,0-12.5c0-48.6,0-97.2,0-145.9c0-1.4-0.1-2.9,0.1-4.3c0.3-2.6,1.3-4.9,3.6-6.5
		c1.1-0.7,2.2-1.3,3.6-1.2c1,0.1,1.9,0,2.9,0c106,0,212.1,0,318.1,0c0.6,0,1.3,0,1.9,0C344.3,11.4,346.5,12.6,347.9,15.3"/>
	<path class="st4" d="M185.1,74.6c1.6,0,3.2,0,4.8,0c10.9,0,21.8,0,32.6,0c5.9,0,6.2,0.3,6.6,6.2c0.2,2.6,0.2,5.1,0.2,7.7
		c0,15.7,0,31.4,0,47c0,1.3,0,2.6,0.1,3.8c0.1,0.9,0.6,1.5,1.5,1.5c0.8,0,1.6,0,2.4,0c20.8,0,41.6,0,62.4,0c4.2,0,4.2,0.2,4.3-4.1
		c0.2-9-0.2-17.9-0.5-26.8c-0.3-8.8-0.3-17.6-0.3-26.4c0-15.5,0-31,0-46.6c0-1,0-1.9,0-2.9c0.2-3.1,0.9-3.5,3.9-4.2
		c9.6-2.1,19.4-0.6,29.1-0.9c1.1,0,2.2,0.4,3.2,0.8c2.2,0.8,3.3,2.4,3.2,4.8c-0.1,0.8,0,1.6,0,2.4c0,22.9,0.1,45.8,0,68.6
		c0,18.9-0.1,37.8-0.2,56.6c0,0.6,0,1.3,0,1.9c-0.1,4.4-2.6,7.1-7.1,7.1c-8.6,0.1-17.3,0.1-25.9,0c-4,0-5.4-1.5-5.5-5.6
		c-0.1-5.4,0-10.9,0-16.3c0-2.2-0.2-2.4-2.5-2.4c-4.2,0-8.3,0-12.5,0c-16.2,0-32.3,0-48.5,0c-2.2,0-4.5-0.2-6.7,0
		c-3.1,0.3-4.8-1.3-5.6-4.1c-0.5-1.7-0.8-3.4-0.8-5.2c-0.1-5,0-9.9,0-14.9c0-2.4-0.2-2.6-2.4-2.6c-6.9,0-13.8,0-20.6,0
		c-1.5,0-2.3,0.4-3,1.7c-4.5,8.5-9,16.9-13.6,25.4c-0.6,1.2-0.8,2.3-0.7,3.6c0.2,2.1-0.7,3-2.6,3.3c-1.1,0.2-2.2,0.2-3.3,0.2
		c-27,0-54.1,0-81.1,0c-1.6,0-3.4-0.7-4.7-0.1c-1.2,0.6-1.7,2.5-2.6,3.8c-1,1.4-2.1,2.8-3.4,4c-6.7,6.3-15.3,6.2-22.3,0.9
		c-9.3-7-7.8-21.6,0.6-27.4c3.4-2.3,7.1-3.6,11.2-3.6c3.3,0,6.3,1.1,8.8,3.3c2.8,2.5,4.9,5.5,6.2,9c1.5,4.1,1.5,4.1,6,4.1
		c13.4,0,26.9,0,40.3,0c1.6,0,3.1-0.1,4.9-0.2c-1.5-9.4-3-18.5-4.5-27.9c-1.5,0-3.1-0.1-4.7-0.1c-8.5,0-17,0-25.4,0
		c-1.4,0-2.9,0-4-1.1c-1.2-1.1-1.3-2.7,0-3.7c0.6-0.5,1.4-0.8,2.1-1c0.8-0.2,1.6-0.1,2.4-0.1c9.6,0,19.2,0,28.8,0c0.5,0,1,0,1.4,0
		c2.5,0.2,3.1,0.8,3.4,3.6c0.1,0.6,0,1.3,0.2,1.9c2.7,6.8,3.1,14,4.6,21c1.9,8.8,0,7.5,8.7,7.6c7.2,0.1,14.4,0,21.6,0
		c2.9,0,3,0,3.8-2.6c3.1-9.9,8.4-18.6,13.3-27.6c1.6-2.9,3.9-3.9,7.1-3.9c6.2,0,12.5,0,18.7,0c1.1,0,2.2,0,3.4,0
		c1,0,1.4-0.7,1.4-1.6c0-0.5,0-1,0-1.4c0-9.4,0.1-18.9,0.1-28.3c0-1.9-0.3-2.2-2.2-2.2c-1,0-1.9,0-2.9,0c-10.6,0-21.1-0.2-31.7,0.1
		c-3.7,0.1-5.7-1.3-7.2-4.2c-0.6-1.1-1-2.3-1.4-3.5c-1.7-5-3.3-10-5-15c-0.8-2.4-1-2.6-3.3-2.6c-10.7,0-21.4,0-32.2,0
		c-2.2,0-2.5,0.4-2.6,2.5c0,3,0,6.1,0,9.1c0,1.4,0,2.9-0.1,4.3c-0.1,1.2,0,2.9-0.7,3.6c-1.1,1-2.7,1.6-4.3,2
		c-1.2,0.3-2.5,0.2-3.8,0.2c-27,0-54.1,0-81.1,0c-1.6,0-3.2-0.1-4.8-0.1c-1.4,0-2.4-0.8-3-2c-0.9-1.6-1.5-3.1-1.5-5
		c0.1-11.2,0.1-22.4,0.3-33.6c0.1-4.7,1-5.5,5.8-5.5c7.7-0.1,15.4,0,23,0c20.2,0,40.3,0,60.5,0c2.2,0,4.5,0.1,6.7,0.4
		c2,0.2,2.8,1.1,3,3.1c0.1,2.4,0.1,4.8,0.1,7.2c0.1,2.4,0.2,4.7,0.4,7.1c2.4,1.2,5,0.6,7.5,0.6c8.6,0.1,17.3,0,25.9,0
		c1.1,0,2.3-0.1,3.4,0.1c2.9,0.5,5,1.8,5.9,4.8c1.8,5.8,3.8,11.5,5.7,17.3C184.1,72.4,184.6,73.4,185.1,74.6"/>
	<path class="st5" d="M321,183.4c-3.4-0.2-7.3,0.3-11.1-0.7c-1.2-0.3-2.5-0.1-3.8-0.1c-8,0-16,0-24-0.1c-1.3,0-2.6-0.1-3.8-0.4
		c-0.5-0.1-1-0.8-1.1-1.3c-0.2-0.9,0.5-1.5,1.3-1.7c0.7-0.2,1.6-0.3,2.4-0.3c15.6-1.4,31.3-0.8,46.9-1c1.3,0,2.6,0,3.8,0.2
		c1.7,0.4,2.3,2.4,1.2,3.8c-0.8,1.1-1.9,1.7-3.3,1.7C326.8,183.4,324.1,183.4,321,183.4"/>
	<path class="st6" d="M98,97.8c6.1,0,12.1,0,18.2,0c1.6,0,3.2,0.2,4.4,1.4c0.9,0.9,1,2,0.1,2.9c-0.9,0.9-2,1.6-3.4,1.6
		c-1,0-1.9,0-2.9,0c-11.1,0-22.3-0.1-33.4-0.1c-1.4,0-2.9-0.1-4.3-0.4c-1.1-0.2-2-1.3-2-2.4c-0.1-1.2,0.9-2.5,2.2-2.7
		c1.3-0.2,2.5-0.2,3.8-0.2C86.6,97.8,92.3,97.9,98,97.8L98,97.8z"/>
	<path class="st6" d="M266.1,81.9c-5.6,0-11.2,0-16.8,0c-1.1,0-2.2-0.1-3.3-0.2c-1.1-0.2-1.9-1.3-2-2.4c-0.1-1.1,0.5-2.4,1.6-2.7
		c1.4-0.4,2.8-0.5,4.2-0.6c9-0.1,17.9,0,26.9,0c2.6,0,5.1,0,7.7,0c0.8,0,1.6,0,2.4,0.2c1.6,0.3,2.7,1.8,2.5,3
		c-0.2,1.2-1.2,2.3-2.6,2.5c-1.1,0.2-2.2,0.2-3.3,0.2C277.6,81.8,271.9,81.8,266.1,81.9L266.1,81.9z"/>
	<path class="st6" d="M266.4,120.9c-5.4,0-10.9,0-16.3,0c-1.1,0-2.2,0-3.4-0.1c-1.6-0.2-2.7-1.4-2.7-2.8c0-1.5,1-2.6,2.6-2.9
		c0.9-0.1,1.9-0.2,2.9-0.2c11.4,0,22.7,0,34.1,0c1.3,0,2.6,0.1,3.8,0.4c1.1,0.2,1.9,1.5,1.9,2.5c0,1.1-0.5,2-1.5,2.3
		c-1.3,0.4-2.8,0.8-4.2,0.8C277.9,120.9,272.2,120.9,266.4,120.9L266.4,120.9z"/>
	<path class="st6" d="M266.8,66.2c-5.6,0-11.2,0-16.8,0c-1.4,0-2.9-0.2-4.2-0.6c-1.1-0.3-1.8-1.5-1.7-2.6c0.1-1.1,0.9-2.2,2-2.4
		c1.1-0.2,2.2-0.3,3.3-0.3c11.7,0,23.3,0,35,0c0.8,0,1.6,0,2.4,0.2c1.3,0.3,2.3,1.4,2.3,2.7c0,1.3-0.7,2.2-1.8,2.6
		c-1,0.4-2.2,0.5-3.3,0.5C278.3,66.2,272.6,66.2,266.8,66.2"/>
	<path class="st7" d="M266.8,99.1c5.7,0,11.5,0,17.2,0c1.1,0,2.2,0.1,3.3,0.4c1.1,0.4,1.8,1.3,1.9,2.5c0.1,1.2-0.9,2.5-2.2,2.8
		c-1.1,0.2-2.2,0.3-3.3,0.3c-10.9,0-21.7,0-32.6,0c-1.4,0-2.9-0.1-4.3-0.3c-1.5-0.2-2.5-1.2-2.6-2.4c-0.2-1.4,0.8-2.6,2.5-3
		c1.2-0.3,2.5-0.3,3.8-0.3C255.9,99,261.3,99.1,266.8,99.1"/>
	<path class="st8" d="M94.5,90.5c-5,0-9.9,0-14.9,0c-1.3,0-2.6-0.1-3.8-0.4c-1-0.2-1.5-1.1-1.6-2.2c0-1.1,0.5-1.9,1.5-2.2
		c1.2-0.3,2.5-0.4,3.8-0.5c6.4-0.1,12.8-0.2,19.2-0.3c3.5-0.1,7-0.2,10.5-0.3c1.3,0,2.6,0,3.8,0.2c1.6,0.3,2.6,1.6,2.5,3
		c-0.1,1.3-1,2.3-2.4,2.6c-0.9,0.2-1.9,0.2-2.9,0.2c-5.3,0-10.5,0-15.8,0C94.5,90.7,94.5,90.6,94.5,90.5"/>
	<path class="st9" d="M255.7,179.3c0.1,2.1-1.7,4-3.9,4c-1.6,0-3.2-1.6-3.5-3.4c-0.2-1.4,1.6-3.1,3.5-3.2
		C254.1,176.5,255.6,177.5,255.7,179.3"/>
	<path class="st0" d="M305.4,35.1c0.5-0.2,0.8-0.4,1.1-0.4c8,0,16,0,24,0.1c2,0,2.3,0.3,2.3,2.1c0,1.4,0,2.9,0,4.3
		c0,40.8,0.1,81.5,0.1,122.3c0,0.5-0.1,0.9-0.2,1.6c-0.8,0.1-1.5,0.3-2.3,0.3c-7.2,0-14.4,0-21.6,0c-0.5,0-1,0-1.4,0
		c-0.9-0.1-1.5-0.5-1.5-1.5c0-1.3,0-2.6,0-3.8c-0.1-11.7-0.1-23.3-0.2-35c0-3.8-0.4-7.6-0.6-11.5c-0.1-1.1-0.1-2.2-0.1-3.4
		c0.1-23.5,0.2-47,0.3-70.5C305.2,38.1,305.3,36.6,305.4,35.1"/>
	<path class="st0" d="M85.4,71.1H47c-1.1,0-2.2,0-3.4,0c-2-0.1-2.1-0.2-2.1-2.2c-0.1-10.1-0.1-20.1-0.2-30.2c0-1.2,0.5-1.8,1.6-1.9
		c0.8,0,1.6,0,2.4,0c26.5,0,53.1,0,79.6,0c4.2,0,4.2-0.3,4.2,4.1c0,8.6,0,17.3,0,25.9c0,0.8,0,1.6,0,2.4c-0.1,1.6-0.3,1.9-2,1.9
		c-7.2,0-14.4,0-21.6,0C98.8,71.1,92.1,71.1,85.4,71.1"/>
	<path class="st5" d="M62.6,149.8c-0.1-7.4,5.4-11.6,12-11.9c2.1-0.1,4,0.8,5.6,2.4c2.2,2.2,3.6,4.8,4.5,7.8
		c0.7,2.3,0.4,4.4-0.9,6.4c-0.7,1-1.5,2.1-2.4,3c-6,6-13.6,3.2-17.1-1.5C63,154,62.5,151.9,62.6,149.8"/>
</g>
</svg>
