<?xml version="1.0" encoding="utf-8"?>
<!-- Generator: Adobe Illustrator 22.1.0, SVG Export Plug-In . SVG Version: 6.00 Build 0)  -->
<svg version="1.1" id="Capa_1" xmlns="http://www.w3.org/2000/svg" xmlns:xlink="http://www.w3.org/1999/xlink" x="0px" y="0px"
	 viewBox="0 0 416 242" style="enable-background:new 0 0 416 242;" xml:space="preserve">
<style type="text/css">
	.st0{clip-path:url(#SVGID_2_);fill:#FFFFFF;}
	.st1{clip-path:url(#SVGID_2_);fill:#010000;}
	.st2{clip-path:url(#SVGID_2_);fill:#020201;}
	.st3{clip-path:url(#SVGID_2_);fill:#010101;}
	.st4{clip-path:url(#SVGID_2_);fill:#090909;}
	.st5{clip-path:url(#SVGID_2_);fill:#030303;}
	.st6{clip-path:url(#SVGID_2_);fill:#FF9900;}
	.st7{clip-path:url(#SVGID_2_);fill:#FEFEFD;}
	.st8{clip-path:url(#SVGID_2_);fill:#FEFEFE;}
	.st9{clip-path:url(#SVGID_2_);fill:#FDFCFB;}
	.st10{clip-path:url(#SVGID_2_);fill:#070400;}
	.st11{clip-path:url(#SVGID_2_);fill:#080500;}
</style>
<g>
	<defs>
		<rect id="SVGID_1_" x="-498" y="-34" width="1920" height="1080"/>
	</defs>
	<clipPath id="SVGID_2_">
		<use xlink:href="#SVGID_1_"  style="overflow:visible;"/>
	</clipPath>
	<path class="st0" d="M207.6,233.8c-59.4,0-118.7-0.1-178.1,0.1c-5.3,0-9.7-1.6-13.8-4.5c-2.5-1.7-4.6-4-6-6.8
		c-1.9-3.9-3.2-7.9-3.1-12.4c0.1-59.7,0.1-119.4,0-179c0-4.3,1.1-8.2,2.9-11.9c1.8-3.7,4.6-6.4,8.2-8.5c3.9-2.2,7.9-3.1,12.3-3.1
		c103.4,0,206.7,0,310.1,0c15.4,0,30.7,0.4,46.1,0c7.6-0.2,17.9,6,20.4,13.4c1.1,3.2,2,6.3,1.9,9.8c-0.1,13.4,0,26.9,0,40.3
		c0,46.4,0,92.8,0,139.2c0,4.5-1,8.5-3.1,12.4c-1.4,2.8-3.4,5-6,6.8c-4.2,2.8-8.6,4.4-13.9,4.4C326.4,233.8,267,233.8,207.6,233.8"
		/>
	<path class="st1" d="M207.7,13.9c59.2,0,118.4,0,177.6,0c2.4,0,4.6,0,7,1.1c4.7,2.1,7.9,5.3,9.4,10.2c0.4,1.3,0.7,2.8,0.8,4.2
		c0.1,4.3,0.1,8.6,0.1,13c0,56,0,112,0,168c0,2.9-0.4,5.7-1.7,8.3c-3,6.1-7.9,9.1-14.5,9.2c-15,0.2-30.1,0.1-45.1,0.1
		c-103.5,0-207,0-310.5,0c-3.4,0-6.6-0.5-9.6-2.2c-5.4-3-7.9-7.8-8.3-13.7c-0.3-4.3-0.1-8.6-0.1-13c0-55.8,0.1-111.6,0-167.5
		c0-3.3,0.6-6.3,2.1-9.2c1.3-2.7,3.2-4.7,5.8-6.2c3-1.6,6.1-2.4,9.6-2.4C89.4,13.9,148.6,13.9,207.7,13.9"/>
	<path class="st0" d="M207.6,20.6c59.7,0,119.4,0,179,0c1.9,0,3.8-0.3,5.5,0.9c2.7,1.9,4.1,4.4,4.4,7.6c0.1,1.8,0.1,3.5,0.1,5.3
		c0,57.6,0,115.2,0,172.8c0,1.6,0.1,3.2-0.1,4.8c-0.1,1.3-0.3,2.5-0.8,3.7c-1.4,3.6-4.2,5.5-8.1,5.5c-9.8,0-19.5,0-29.3,0
		c-109.6,0-219.2,0-328.8,0c-0.6,0-1.3,0-1.9,0c-4.3,0-7.2-2.1-8.5-6.3c-0.4-1.4-0.5-2.8-0.6-4.2c-0.1-3.5,0-7,0-10.6
		c0-52.8,0-105.6,0-158.4c0-3.7-0.1-7.4,0-11c0-1.3,0.2-2.6,0.5-3.8c1.2-4.3,4-6.3,8.4-6.3c9.8,0,19.5,0,29.3,0
		C107.1,20.6,157.4,20.6,207.6,20.6L207.6,20.6z"/>
	<path class="st2" d="M259,137.6c-34.7,0-69.4,0-104.1,0c-1.3,0-2.6,0.1-3.8,0c-3.3-0.2-4.9-1.9-5.3-5.1c-0.1-1-0.1-1.9-0.1-2.9
		c0-18.1,0-36.1,0-54.2c0-1,0-1.9,0.1-2.9c0.3-3.2,2-4.8,5.3-5c4.8-0.2,9.6-0.3,14.4-0.3c43-0.1,86-0.2,129.1-0.3
		c21.1,0,42.2-0.2,63.3-0.2c3.5,0,7,0.4,10.4,1c2.6,0.4,4.1,2,4.2,4.5c0,1.1,0,2.2,0,3.4c0,17.8,0,35.5,0,53.3c0,0.8,0,1.6,0,2.4
		c0.2,5.2-1.9,5.3-5.5,6.2c-1.4,0.3-2.9,0.1-4.3,0.1C328.1,137.6,293.5,137.6,259,137.6L259,137.6z"/>
	<path class="st3" d="M267.2,31.3c36.1,0,72.3,0,108.4,0c1.4,0,2.9-0.1,4.3,0.1c1.8,0.2,3.2,1.6,3.5,3.4c0.2,1.4,0.1,2.9,0.2,4.3
		c0.1,2.2,0.1,4.5,0.3,6.7c0.2,2.1-0.2,4.2-1.1,6.1c-0.3,0.6-1.2,1.4-1.8,1.3c-3-0.5-6,0.3-9,0.2c-13.7-0.4-27.5-0.6-41.2-0.8
		c-2.6,0-5.1,0-7.7,0c-55.6,0-111.3-0.1-166.9-0.1c-1.3,0-2.6,0-3.8,0c-1.4-0.1-2.5-0.8-2.8-2.2c-0.4-1.7-0.8-3.4-0.8-5.2
		c-0.1-2.6,0-5.1,0.2-7.7c0.2-3.5,2-5.5,5.6-5.8c1.1-0.1,2.2-0.1,3.4-0.1c26.1-0.1,52.1-0.1,78.2-0.1
		C246.4,31.3,256.8,31.3,267.2,31.3L267.2,31.3z"/>
	<path class="st3" d="M127.5,83c-0.7,25.6-21.2,45.4-46.5,45c-25.8-0.5-45.4-21.4-44.8-46.6C36.7,55.8,57.7,36,82.9,36.6
		C106.8,37.1,127.7,56.7,127.5,83"/>
	<path class="st4" d="M323.7,197.7c10.5,0,21.1,0,31.6,0c1.1,0,2.2-0.1,3.3,0.1c2.3,0.2,3.7,1.4,3.6,3.1c-0.1,1.6-1.5,2.7-3.8,2.9
		c-1.1,0.1-2.2,0.1-3.3,0.1c-8.5,0-16.9,0-25.4,0c-12.8,0-25.5,0-38.3,0c-1.6,0-3.2-0.1-4.7-0.4c-1.3-0.3-2.3-1.6-2.2-2.8
		c0-1.2,1.1-2.4,2.4-2.7c1.4-0.2,2.9-0.3,4.3-0.3C302,197.7,312.9,197.7,323.7,197.7L323.7,197.7z"/>
	<path class="st5" d="M322.2,162.8c-11,0-22,0-33,0c-1.4,0-2.9,0-4.3-0.2c-1.4-0.2-2.3-1.4-2.3-2.7c0-1.4,1-2.7,2.6-2.9
		c1.3-0.2,2.5-0.2,3.8-0.2c22.5,0,45,0,67.5,0c1.1,0,2.2,0,3.3,0.1c1.4,0.2,2.4,1.2,2.5,2.5c0.2,1.4-0.9,2.9-2.4,3.1
		c-1.2,0.2-2.5,0.2-3.8,0.2C344.8,162.8,333.5,162.8,322.2,162.8L322.2,162.8z"/>
	<path class="st5" d="M321.6,183.2c-10.9,0-21.7,0-32.6,0c-1.4,0-2.9,0-4.3-0.2c-1.3-0.2-2.2-1.4-2.2-2.7c0-1.3,0.7-2.1,1.8-2.6
		c0.6-0.3,1.2-0.3,1.8-0.4c1-0.1,1.9,0,2.9,0c21.9,0,43.7,0,65.6,0c1.3,0,2.6,0,3.8,0.1c1.6,0.2,2.7,1.5,2.7,2.9
		c0,1.5-1,2.6-2.7,2.8c-1.3,0.1-2.5,0.1-3.8,0.1C343.7,183.2,332.7,183.2,321.6,183.2L321.6,183.2z"/>
	<path class="st6" d="M366.4,74.8c0.9,5.7,0.6,11.4,0.6,17.1c0,11.7,0,23.4,0,35c0,1.3,0,2.6-0.2,3.8c-0.1,0.5-0.7,1.1-1.2,1.2
		c-1.1,0.2-2.2,0.1-3.3,0.1c-67.2,0-134.4,0-201.5,0c-1.5,0-3.2,0.5-4.6-0.7c-0.8-1.8-0.9-3.7-1-5.6c-0.3-14.4,0.7-28.8-0.7-43.1
		c-0.4-4.5,1.5-6.5,6.1-6.7c4.8-0.3,9.5,0.9,14.3,0.9c60.4-0.1,120.8,0,181.2,0C359.7,76.8,363.3,76.8,366.4,74.8"/>
	<path class="st7" d="M366.4,74.8c-0.1,1.1-0.3,2.2-0.5,3.6c-1.4,0-2.6,0-3.9,0c-55.6-0.1-111.2-0.1-166.8-0.2c-8,0-16-0.1-24-0.2
		c-3.3,0-6.7-0.3-10-0.5c-1.1,0-2.2-0.1-3.3,0c-1.1,0.1-1.8,0.6-1.8,1.8c0,1.4,0,2.9,0.1,4.3c0.2,15.2,0.4,30.3,0.6,45.5
		c0,0.8-0.3,1.5-0.5,2.3c-1.1,0-2.2,0-3.3-0.1c-0.4,0-0.8-0.5-0.9-0.9c-0.2-0.6-0.1-1.3-0.1-1.9c0-17.9,0-35.8,0-53.7
		c0-3,0.1-3,2.9-3c4.8,0,9.6,0.1,14.4,0.1c41.2,0.1,82.5,0.2,123.7,0.3c21.7,0.1,43.5,0.2,65.2,0.3c2.2,0,4.5,0.2,6.7,0.4
		C365.7,73,366.3,73.7,366.4,74.8"/>
	<path class="st8" d="M266.4,37c35.5,0,71,0,106.6,0c1.1,0,2.2,0,3.4,0c2,0.1,2.1,0.2,2.1,2.3c0,2.2-0.1,4.5-0.1,6.7
		c0,1.2-0.7,1.6-1.9,1.6c-5.1,0-10.3,0.7-15.3-0.1c-7.8-1.3-15.6-0.8-23.4-0.7C278.3,47.6,219,47,159.6,47.3c-5.9,0-5.4,0.6-5.4-5.4
		c0-1,0-1.9,0-2.9c0-1.7,0.3-2,1.8-2.1c1.1,0,2.2,0,3.4,0C195,36.9,230.7,36.9,266.4,37L266.4,37z"/>
	<path class="st6" d="M97.6,85.1c6.2-0.2,12.4-1.3,18.6-0.6c6.4,0.7,7.1-0.6,5.2,6.9c-4,16.4-14.4,26.6-30.8,30.6
		c-6.4,1.6-13,1.2-19.4-0.3c-3.6-0.9-7-2.3-9.5-5.1c-0.4-0.2-0.7-0.5-1.1-0.8l0.1,0.1c-6.7-6.4-9.3-14.8-11.1-23.4
		c-0.9-4.3,0.2-5.5,4.6-5.8c1.6-0.1,3.2-0.2,4.8,0.1C72,88.5,84.8,85.7,97.6,85.1"/>
	<path class="st0" d="M96.3,45c-1.7,3.3-3.3,6.4-4.8,9.6c-3.8,8.1-7.7,16.1-11.3,24.3c-1,2.3-2.2,2.7-4.3,2.7c-4.8-0.1-9.6,0-14.4,0
		c-5.6,0-11.2,0.1-16.8,0.1c-0.3,0-0.6,0-1,0c-1.5-0.1-2-0.6-1.9-2.1c1.4-14.6,8.4-25.7,21.3-32.7C73.8,41.2,84.9,40.9,96.3,45"/>
	<path class="st0" d="M102.3,81.5c-5.3,0-10.6,0-15.8,0c-1.9,0-2.1-0.5-1.2-2.3c4.3-8.6,8.5-17.2,12.8-25.8c0.8-1.6,1.5-3.2,2.2-4.8
		c0.5-1.1,1-1.3,2.2-0.6c11.4,7.2,17.9,17.5,19.2,31c0.1,1.3-0.3,1.8-1.6,1.9c-1.1,0.1-2.2,0.2-3.4,0.2c-4.8,0-9.6,0-14.4,0V81.5z"
		/>
	<path class="st9" d="M97.6,85.1c-2.3,0.5-4.6,1-7,1.4c-8.4,1.2-16.7,2.3-25.2,2.2c-3.3-0.1-6.7-0.4-10-0.6c-0.6,0-1.3,0-1.9,0
		c-2.5,0-3.4,0-2.8,3.3c1.6,8.1,4.2,15.7,9.1,22.4c0.4,0.6,0.6,1.4,0.9,2.1c-1.1-0.6-2.3-1.1-3.2-1.9c-9.2-7.3-14.4-16.8-15.5-28.6
		c0.6-0.2,1.1-0.5,1.5-0.5c17.6,0,35.1,0.1,52.7,0.2C96.7,85,97.2,85.1,97.6,85.1"/>
	<path class="st9" d="M60.7,115.7c0.4,0.3,0.7,0.5,1.1,0.8C61.4,116.3,61,116,60.7,115.7"/>
	<path class="st10" d="M260.8,101.3c-28,0-55.9,0-83.9,0c-1.4,0-2.9,0-4.3-0.2c-1-0.1-1.7-0.8-2-1.9c-0.2-0.9,0.8-2,2.1-2.3
		c0.9-0.2,1.9-0.2,2.9-0.2c3.4-0.1,6.7-0.1,10.1-0.1c53.4,0,106.8,0,160.2,0c1.3,0,2.6-0.1,3.8,0.1c0.7,0.1,1.4,0.6,2,1.1
		c0.8,0.6,0.8,1.9-0.1,2.5c-0.6,0.5-1.4,0.9-2.1,1c-1.4,0.2-2.9,0.1-4.3,0.1C317.1,101.4,289,101.4,260.8,101.3L260.8,101.3z"/>
	<path class="st10" d="M259.9,119.8c-25.1,0-50.2,0-75.3,0c-3.4,0-6.7,0-10.1-0.1c-0.9,0-2-0.1-2.8-0.5c-0.6-0.3-1.1-1.2-1.1-1.9
		c-0.1-0.4,0.6-1.3,1.1-1.4c1.2-0.4,2.5-0.7,3.7-0.8c3.2-0.1,6.4-0.1,9.6-0.1c41.9,0,83.8,0,125.7,0c11,0,22.1,0,33.1,0
		c1.6,0,3.3-0.3,4.6,0.7c0.6,0.4,1.1,1.3,1.1,1.9c0,0.6-0.7,1.3-1.3,1.8c-0.5,0.3-1.2,0.3-1.8,0.4c-1.4,0.1-2.9,0-4.3,0
		C314.6,119.8,287.3,119.8,259.9,119.8L259.9,119.8z"/>
	<path class="st11" d="M202.9,89.6c-9.1,0-18.2,0-27.3,0c-1.4,0-2.8-0.3-4.2-0.6c-0.5-0.1-1-0.8-1.1-1.4c-0.2-0.9,0.4-1.5,1.1-1.9
		c0.5-0.3,1.2-0.5,1.8-0.5c0.9-0.1,1.9-0.1,2.9-0.1c17.7-0.1,35.4-0.1,53.1-0.2c1.4,0,2.9-0.1,4.3,0.1c0.9,0.1,1.8,0.6,2.6,1.1
		c0.8,0.5,0.8,2,0,2.5c-0.8,0.5-1.7,0.9-2.6,1.1c-1.1,0.2-2.2,0.1-3.3,0.1c-9.1,0-18.2,0-27.3,0V89.6z"/>
</g>
</svg>
