<?xml version="1.0" encoding="utf-8"?>
<!-- Generator: Adobe Illustrator 22.1.0, SVG Export Plug-In . SVG Version: 6.00 Build 0)  -->
<svg version="1.1" id="Capa_1" xmlns="http://www.w3.org/2000/svg" xmlns:xlink="http://www.w3.org/1999/xlink" x="0px" y="0px"
	 viewBox="0 0 823.3 159.3" style="enable-background:new 0 0 823.3 159.3;" xml:space="preserve">
<style type="text/css">
	.st0{clip-path:url(#SVGID_2_);}
	.st1{clip-path:url(#SVGID_2_);fill:#FFFFFF;}
	.st2{clip-path:url(#SVGID_2_);fill:#FF9900;}
	.st3{clip-path:url(#SVGID_2_);fill:#F2F9F9;}
	.st4{clip-path:url(#SVGID_2_);fill:#F8F7EF;}
	.st5{clip-path:url(#SVGID_2_);fill:#0D0C0C;}
	.st6{clip-path:url(#SVGID_2_);fill:#0E0D0D;}
	.st7{clip-path:url(#SVGID_2_);fill:#0A0701;}
	.st8{clip-path:url(#SVGID_2_);fill:#0A0603;}
	.st9{clip-path:url(#SVGID_2_);fill:#120B03;}
	.st10{clip-path:url(#SVGID_2_);fill:#120D05;}
	.st11{clip-path:url(#SVGID_2_);fill:#C4BDBD;}
	.st12{clip-path:url(#SVGID_2_);fill:#DBDCDC;}
	.st13{clip-path:url(#SVGID_2_);fill:#D0DEDE;}
	.st14{clip-path:url(#SVGID_2_);fill:#E5EFEF;}
</style>
<g>
	<defs>
		<rect id="SVGID_1_" x="-938.7" y="-88" width="1920" height="1080"/>
	</defs>
	<clipPath id="SVGID_2_">
		<use xlink:href="#SVGID_1_"  style="overflow:visible;"/>
	</clipPath>
	<path class="st0" d="M65.6,126.5c-4,0.1-7.8,0.5-11.6,0.3c-22.1-1-41-16.1-46.5-37.2c-6.1-23.2,5.4-46.4,26-56.7
		c8.9-4.5,18.4-6.3,28.4-5.1c0.8,0.1,1.6,0.2,2.4,0.2c0.9,0.1,1.5-0.3,1.5-1.3c0-2.6,0-5.1,0-7.7c0-5.8,2.6-9.2,8.1-11
		c2.8-0.9,5.6-1.2,8.5-1.2c28.6,0,57.2,0,85.9,0c193.5,0,387,0,580.5,0.1c15.2,0,30.4,0.1,45.6,0.2c4.3,0,8.6,0.3,12.9,0.7
		c5.9,0.5,9.7,4.1,10.4,10c0.4,3.5,0.2,7,0.2,10.5c0,34.2,0,68.4,0,102.6c0,2.6,0.1,5.1,0,7.7c0,1.4-0.2,2.9-0.5,4.3
		c-0.9,4.1-3.6,6.8-7.6,7.8c-2.5,0.6-5.1,0.9-7.6,0.9c-12.9,0.2-25.9,0.3-38.9,0.3c-78.2,0.1-156.4,0.1-234.6,0.1
		c-106.5,0-213,0-319.5,0.1c-42.1,0-84.1,0-126.2,0.1c-3.4,0-6.7-0.4-9.9-1.5c-4.9-1.7-7.6-5.6-7.4-10.5c0.1-3.7,0-7.4,0-11
		C65.8,128.4,65.7,127.5,65.6,126.5"/>
	<path class="st1" d="M790.3,26.3c-0.2,5.3,1.8,8.9,6.7,10.7c0,4.4,0,8.7,0,13c0,22.5,0,45.1,0,67.6c0,1.1,0,2.2,0,3.4
		c0,1.1-0.4,1.7-1.3,2.3c-1.2,0.8-2.3,1.8-3.2,2.9c-1.3,1.5-2.1,3.2-2.1,5.2c0,1.2-0.7,1.7-1.8,1.8c-0.8,0.1-1.6,0.1-2.4,0.1
		c-8.5-0.1-16.9-0.4-25.4-0.4c-127.3-0.1-254.6-0.1-381.8-0.1c-92.6,0-185.2,0-277.7,0c-1.8,0-3.5,0-5.2,0c-1-3-2-5.9-3-8.7
		c2.1-2,4.1-3.9,6.1-5.6c6.3-5.4,10-12.4,12.3-20.2c3.5-11.6,2.7-23.1-1.8-34.2c-1.4-3.6-3.6-6.8-6.7-9.2c-3-2.3-4.5-5.7-6.8-8.6
		c-0.3-0.4-0.3-1.3,0-1.7c1.9-3.9,3.9-7.7,5.8-11.6c0.7-1.5,1.8-2,3.4-2.1c8.6-0.4,17.2-1.3,25.8-1.3c38.5-0.2,77.1,0,115.6-0.1
		c36.3-0.1,72.6-0.3,108.9-0.5c18.9-0.1,37.7-0.2,56.6-0.3c7.4-0.1,14.7-0.1,22.1-0.4c6.4-0.3,12.7-1,19.1-1.5
		c1.6-0.1,3.2-0.1,4.8-0.1c100.4-0.1,200.8-0.1,301.2-0.2c8.8,0,17.6-0.1,26.4-0.2C787.3,26.1,788.7,26.2,790.3,26.3"/>
	<path class="st2" d="M810.6,16.4c1.5,1.4,1.1,3.3,1.1,5c0,8.3-0.1,16.6-0.1,24.9c0,28.3,0,56.6,0,84.8c0,2.9,0.2,5.8,0.1,8.6
		c-0.1,3.5-1.4,5.3-4.8,6.3c-2,0.6-4.1,0.9-6.1,0.9c-19.3-0.1-38.7-0.5-58-0.5c-219.3-0.1-438.6-0.2-657.9-0.2c-1.4,0-2.9,0.1-4.3,0
		c-1.9-0.3-3.8-0.7-5.6-1.2c-1.9-0.6-2.8-2.1-3-4c-0.1-0.6-0.1-1.3-0.1-1.9c0-4,0.2-8,0.1-12c0-1.7,0.7-2.6,2.3-3.1
		c2.1-0.8,4.1-1.8,6.2-2.6c1.1-0.5,1.9,0.1,1.7,1.4c-0.1,1.1-0.5,2.2-0.7,3.2c-0.2,1.2,0.5,2.5,1.6,2.5c4.2-0.2,6,2.1,6.8,5.9
		c0.1,0.6,1.1,1.1,1.6,1.6c2.1,2.2,4.8,2.9,7.8,2.9c33.4,0,66.8,0.4,100.2-0.2c10.9-0.2,21.7-0.6,32.6-0.6
		c83.5,0,166.9,0.4,250.4-0.4c42.4-0.4,84.7-1.1,127.1-0.4c58.8,1,117.7,0.1,176.5,0.6c3.5,0,7.1,0.4,10.1-2c2.2-1.3,2.6,0.7,3.4,2
		c1.1,2,2.8,2.5,4.9,1.9c2.2-0.6,2.8-2.4,2.9-4.4c0-2.2-0.9-3.6-3.3-3.8c-1.1-0.1-2.3,0-2.4-1.6c1.7-16.3,4.1-32.5,3.9-49
		c-0.1-9.4,1.5-18.7-0.2-28.1c-0.9-5.1-1.6-10.3-3.6-15.2c-0.1-0.9-0.2-1.9-0.3-2.8c-0.1-0.9-0.4-1.5-1.3-1.7
		c-0.6-0.1-1.2-0.4-1.8-0.6c-1.9-0.9-3.1-2.2-3-4.4c0-0.5,0-1,0-1.4c-0.2-1.7-0.7-2.3-2.4-2.4c-4.5-0.2-8.9-0.6-13.4-0.6
		c-37.1-0.1-74.2-0.2-111.3-0.2c-149.3,0-298.7,0-448,0c-40,0-80,0-119.9,0c-1.3,0-2.6,0-3.8,0c-3.1-0.1-5.7,0.2-6.6,3.9
		c-0.5,1.8-2.2,2.5-4.2,2.5c-2.8,0-2.8,0.1-3.4,3.1c-0.1,0.3-0.3,0.6-0.5,1.1c-2.7-1.3-5.4-2.5-8.1-3.8c-0.8-3.2,0.1-6.3,0.8-9.3
		c1.1-4.5,3.2-5.9,8.2-5.9c2.2,2.4-0.5,2.8-1.6,3.4c-2,1.1-3.6,2.1-2.4,4.7c0.8,1.7,2.2,2.9,4.1,2.2c2.3-0.8,4.3-2.1,4-5.1
		c-0.3-1.9-1.7-4.1,1.6-4.8c2.7-0.5,5.4-0.4,8.1-0.4c232.1,0,464.3,0,696.4,0c2.7,0,5.4-0.2,8.1,0.3c1.6,0.5,3.2,1.1,1.2,3.1
		c-0.4,0.4-1,0.8-1.4,1.2c-1.9,1.7-2.5,3.7-1.1,5.9c1,1.7,2.6,2.3,4.5,1.6c2.5-1,3.4-3,3.3-5.7c0-2-2.9-3.3-1-5.6
		C807.8,15.2,809.2,15.5,810.6,16.4"/>
	<path class="st1" d="M56.4,122.1c-12.9-0.2-24-4.7-33.1-13.9C7,91.6,6.4,65.3,21.8,47.8C38.9,28.5,69.2,26.9,88,44.5
		c12.4,11.6,17.1,26.1,13.2,42.7c-3.9,16.7-14.8,27.5-31.1,32.9C65.7,121.5,61.1,122.3,56.4,122.1"/>
	<path class="st3" d="M797.6,136.1c-1.1,2.5-2.9,3.6-5.7,3.2c-1.4-0.2-2.9-0.2-4.3-0.2c-50.9,0-101.7,0.1-152.6,0
		c-33.6-0.1-67.2-0.5-100.7-0.5c-52.3,0.1-104.6,0.5-156.9,0.7c-44,0.1-88,0-131.9,0.1c-28.5,0.1-56.9,0.6-85.4,0.8
		c-20.6,0.1-41.3,0.1-61.9,0.1c-0.3,0-0.6,0-1,0c-3.7-0.1-4.4-0.7-5.7-4.5c7.2,0.1,14.4,0.3,21.5,0.3c211.9-0.1,423.7-0.1,635.6-0.2
		c12.9,0,25.9-0.2,38.9-0.4c1.4,0,2.9,0,4.3-0.2c1.9-0.2,2.9-1.1,3-3.1c0.1-2.4,1.3-3.9,3-5.2c0.8-0.6,1.6-1.1,2.2-1.8
		c0.9-0.9,1.5-2,1.5-3.4c0-1.8,0.1-3.5,0.1-5.3c0-24.8,0-49.5,0-74.3c0-1.6,0.1-3.2,0.1-4.8c1.2,0.4,1.7,1.4,2.1,2.4
		c0.7,2.1,1.4,4.2,1.8,6.4c2,9.3,2.1,18.6,1.5,28.1c-0.4,6.2-0.2,12.4-0.6,18.6c-0.5,7.5-1.2,14.9-1.9,22.4
		c-0.1,1.1-0.4,2.2-0.8,3.3c-0.7,2.2-1.6,4.3-0.1,6.8c1.1,1.7-0.5,3.6-1.7,5.1C800.9,132.7,799.8,134.9,797.6,136.1"/>
	<path class="st4" d="M82.7,15.8c-1.4,0.2-2.9,0.2-4.2,0.7c-1.7,0.6-2.8,1.9-3,3.9c-0.2,2.1-0.6,4.1-1,6.1c-0.3,1.2-0.7,2.4-1.1,3.6
		c-0.5-0.4-1.3-0.7-1.3-1.1c-0.2-3.3-0.3-6.7-0.3-10.1c0-2.5,1.4-4.2,3.8-4.9c1.8-0.5,3.7-0.8,5.6-1c1.4-0.2,2.9,0,4.3,0
		c187.5-0.1,375-0.1,562.5-0.2c41.6,0,83.1,0,124.7-0.1c9.4,0,18.9-0.2,28.3-0.3c2.6,0,5.1,0.3,7.4,1.5c1,0.5,2,1.1,2.1,2.4
		c-1.8,0.1-3.5,0.1-5.3,0.2c-0.7,0.7-1.4,0.7-2,0c-1.6-0.1-3.2-0.2-4.8-0.2c-233.2,0-466.4,0-699.6,0c-4.3,0-8.6,0-12.9-0.1
		C84.8,17.2,83.7,16.5,82.7,15.8"/>
	<path class="st5" d="M125.3,98.4c0,7.2-2.8,13.2-7.8,18.2c-0.8,0.7-1.8,1.3-2.8,1.6c-0.6,0.2-1.5-0.3-2-0.8c-0.3-0.3-0.3-1.2,0-1.7
		c0.3-0.7,0.9-1.3,1.4-1.9c2.7-2.8,4.5-6.1,5.9-9.7c1.2-2.9,2.4-5.9,3.6-8.8c0.1-0.3,0.7-0.5,1.1-0.5c0.2,0,0.5,0.4,0.6,0.6
		C125.3,96.5,125.3,97.5,125.3,98.4"/>
	<path class="st6" d="M129.4,114.2c0.2,3.3-1.4,5.8-3.9,7.8c-0.7,0.5-1.7,0.8-2.6,0.9c-1.7,0.1-3-2.1-2.1-3.4
		c2.1-2.8,4.3-5.5,6.5-8.2c0.5-0.6,1.7-0.2,1.9,0.6c0.1,0.3,0.1,0.6,0.1,0.9C129.3,113.3,129.4,113.7,129.4,114.2"/>
	<path class="st7" d="M803.3,16.6c0.7,0,1.4,0,2,0c0.6,0.5,1.3,0.9,1.9,1.4c1.8,2,2,4.3,1.1,6.6c-0.9,2.4-2.8,3.8-5.3,4.2
		c-2.4,0.4-4.6-1.1-5.5-3.5c-0.9-2.5-0.1-5.4,2.1-6.7C800.8,17.9,802.1,17.3,803.3,16.6"/>
	<path class="st8" d="M797.6,136.1c0.5-2.6,1.6-4.8,4.5-5.6c0.5,0,0.9-0.1,1.4-0.1c0.8-0.1,1.6-0.5,2.3-0.3c0.8,0.3,1.7,0.9,2.2,1.7
		c1.4,2.2,1.2,4.6,0.1,6.8c-1,2.1-2.9,3-5.1,2.9c-1.2-0.1-2.5-0.6-3.5-1.2C797.8,139.5,797.8,137.7,797.6,136.1"/>
	<path class="st9" d="M82.7,15.8c1.1,0.2,2.2,0.3,3.3,0.5c0.2,0.2,0.4,0.5,0.6,0.7c1.8,1.8,2.1,3.9,0.9,6.1
		c-1.2,2.2-3.2,3.5-5.8,3.6c-2.3,0.1-4.6-1.8-5-4.3c-0.1-0.9,0.1-1.9,0.4-2.8c0.5-1.2,1.4-1.9,2.8-2.3
		C80.9,17.3,81.8,16.4,82.7,15.8"/>
	<path class="st10" d="M76.2,136.8c-0.1-2.8,3.1-5.8,5.8-5.6c2.5,0.1,4.8,2.4,5,4.9c0.2,3.1-2.4,5.7-5.6,5.8
		C78.5,141.9,76.3,139.7,76.2,136.8"/>
	<path class="st0" d="M47,111.3c1.2-2.6,2.2-5.1,3.4-7.5c1.1-2.2,2.8-3.9,5-5c1.7-0.9,3.4-1.8,5-2.8c2.2-1.3,4.2-2.8,5.9-4.8
		c1.8-2,4.1-3.5,6.2-5.2c0.7-0.6,1.7-1,2.3-1.7c0.4-0.4,0.7-1.2,0.6-1.6c-0.2-0.5-0.9-0.9-1.4-1.1c-2.2-0.7-4.1-0.1-5.9,1.2
		c-1.2,0.8-2.3,1.7-3.4,2.6c-0.4,0.3-0.8,0.6-1.2,0.7c-0.6,0.1-1.2,0.2-1.8,0c-0.2-0.1-0.4-0.9-0.3-1.3c0.5-4,1.5-7.8,3.2-11.5
		c1.4-3,2.6-6.2,3.8-9.3c0.4-1,0.7-2.1,0.8-3.2c0.1-0.9-0.7-1.9-1.6-2.1c-0.9-0.2-1.6,0.1-2,0.9c-0.5,1-1,2-1.4,3
		c-1.2,3-2.2,6-3.4,8.9c-0.3,0.9-0.9,1.7-1.4,2.5c-0.1,0.2-0.7,0.4-0.8,0.4c-0.3-0.3-0.5-0.7-0.6-1.1C58,73,58.2,72.5,58.3,72
		c1.2-4.6,2.4-9.3,3.6-13.9c0.2-0.6,0.2-1.3,0.2-1.9c0-0.9-0.7-1.3-1.5-1.7c-0.9-0.4-1.7,0-2.1,0.6c-0.6,0.9-0.9,2-1.2,3.1
		c-1.2,4.5-2.4,8.9-3.6,13.4c-0.2,0.6-0.4,1.1-1.2,1.6c-0.1-0.8-0.3-1.7-0.2-2.4c0.5-3.5,1-6.9,1.5-10.4c0.1-0.9,0.3-1.9,0.3-2.8
		c0-0.9-1-1.9-1.9-1.8c-0.7,0.1-1.5,0.6-1.9,1.1c-0.4,0.6-0.5,1.5-0.7,2.2c-0.7,4.6-1.4,9.1-2.2,13.7c-0.1,0.5-0.7,0.9-1.1,1.3
		c-0.4-0.5-1-1-1-1.5c-0.1-1.9-0.1-3.8,0-5.7c0-1.3,0.2-2.5,0.2-3.8c0-0.8-0.5-1.7-1.4-1.6c-0.7,0.1-1.6,0.7-1.8,1.2
		c-0.5,1.3-0.8,2.8-0.9,4.2c-0.2,2.9-0.3,5.8-0.2,8.6c0.1,2.7-0.2,5.4-0.7,8.1c-0.5,2.5-0.6,5.1-0.7,7.6c-0.1,3.7-0.8,7.3-2.7,10.6
		c-0.2,0.3-0.7,0.8-0.9,0.7c-0.4-0.1-0.8-0.5-0.9-0.9c-1.8-4.2-2.7-8.6-2.9-13c-0.3-6.4-0.3-12.8-0.1-19.2c0.1-4.3,1.2-8.5,2.7-12.6
		c3.2-8.6,10.1-14.5,20.9-14.6c3.2,0,6.4,0.1,9.5,1c4.9,1.4,8.6,4.3,10.7,8.9c1.2,2.6,2.2,5.4,2.7,8.2c1.9,11.1,2.1,22.3-0.5,33.3
		c-0.7,2.8-1.7,5.5-3,8c-3.1,6.2-8.3,9.7-15.1,10.5c-3.8,0.5-7.6,0-11.5-0.1C48.4,112.2,47.8,111.7,47,111.3"/>
	<path class="st11" d="M802,25.5c-0.4-0.6-0.7-1.1-0.9-1.7c-0.3-0.9-0.2-1.8,0.6-2.5c0.7-0.5,2-0.4,2.6,0.2c0.6,0.7,0.5,1.5,0,2.1
		C803.7,24.2,803.1,24.6,802,25.5"/>
	<path class="st12" d="M802.8,138.1c-1.2,0.1-2.2-1-1.9-2.1c0.1-0.3,0.1-0.6,0.3-0.9c0.6-1.3,1.6-2,2.5-1.8c0.8,0.2,1.5,1.2,1.4,2.2
		C805,137,804.2,138,802.8,138.1"/>
	<path class="st13" d="M82.9,19.5c-0.3,0,0.2,0,0.7,0c0.9,0.2,1.6,1.4,1.1,2.2c-0.5,0.7-1.3,1.4-2,1.8c-0.9,0.5-1.9,0.2-2.6-0.6
		c-0.7-0.8-0.8-1.7-0.4-2.6c0.4-0.8,1.2-1,2-0.8C81.8,19.6,82,19.5,82.9,19.5"/>
	<path class="st14" d="M80.3,134.5c0.5,0.2,1.1,0.4,1.6,0.7c1.1,0.6,1.5,1.4,1.1,2.3c-0.4,1-1.7,1.5-2.8,1c-1.3-0.5-1.8-2.5-0.8-3.6
		C79.6,134.7,79.9,134.6,80.3,134.5"/>
</g>
</svg>
