<?xml version="1.0" encoding="utf-8"?>
<!-- Generator: Adobe Illustrator 22.1.0, SVG Export Plug-In . SVG Version: 6.00 Build 0)  -->
<svg version="1.1" id="Capa_1" xmlns="http://www.w3.org/2000/svg" xmlns:xlink="http://www.w3.org/1999/xlink" x="0px" y="0px"
	 viewBox="0 0 121.7 383.1" style="enable-background:new 0 0 121.7 383.1;" xml:space="preserve">
<style type="text/css">
	.st0{clip-path:url(#SVGID_2_);fill:#FFFFFF;}
	.st1{clip-path:url(#SVGID_2_);}
	.st2{clip-path:url(#SVGID_2_);fill:#FF9900;}
	.st3{clip-path:url(#SVGID_2_);fill:#CCCCCC;}
	.st4{clip-path:url(#SVGID_2_);fill:#FE9801;}
	.st5{clip-path:url(#SVGID_2_);fill:#CBCCCC;}
	.st6{clip-path:url(#SVGID_2_);fill:#FCFDFC;}
	.st7{clip-path:url(#SVGID_2_);fill:#FBFCFC;}
	.st8{clip-path:url(#SVGID_2_);fill:#FCFCFC;}
	.st9{clip-path:url(#SVGID_2_);fill:#FCFDFD;}
	.st10{clip-path:url(#SVGID_2_);fill:#F7F9F9;}
	.st11{clip-path:url(#SVGID_2_);fill:#FDFDFD;}
	.st12{clip-path:url(#SVGID_2_);fill:#FAFAFA;}
	.st13{clip-path:url(#SVGID_2_);fill:#CBC9C9;}
	.st14{clip-path:url(#SVGID_2_);fill:#B7BABA;}
	.st15{clip-path:url(#SVGID_2_);fill:#F2F3F3;}
	.st16{clip-path:url(#SVGID_2_);fill:#E9E9E9;}
	.st17{clip-path:url(#SVGID_2_);fill:#FB9806;}
	.st18{clip-path:url(#SVGID_2_);fill:#F6F9F9;}
	.st19{clip-path:url(#SVGID_2_);fill:#F8F8F6;}
	.st20{clip-path:url(#SVGID_2_);fill:#DD8C0D;}
	.st21{clip-path:url(#SVGID_2_);fill:#EC910A;}
	.st22{clip-path:url(#SVGID_2_);fill:#EC951B;}
	.st23{clip-path:url(#SVGID_2_);fill:#F9FBFB;}
	.st24{clip-path:url(#SVGID_2_);fill:#EBEDED;}
	.st25{clip-path:url(#SVGID_2_);fill:#FFFBF5;}
	.st26{clip-path:url(#SVGID_2_);fill:#E2E6E5;}
	.st27{clip-path:url(#SVGID_2_);fill:#F49606;}
	.st28{clip-path:url(#SVGID_2_);fill:#F79909;}
	.st29{clip-path:url(#SVGID_2_);fill:#DF8C0E;}
	.st30{clip-path:url(#SVGID_2_);fill:#E5E2E0;}
	.st31{clip-path:url(#SVGID_2_);fill:#ECE9E1;}
	.st32{clip-path:url(#SVGID_2_);fill:#EDEBE6;}
	.st33{clip-path:url(#SVGID_2_);fill:#090909;}
	.st34{clip-path:url(#SVGID_2_);fill:#1D1717;}
	.st35{clip-path:url(#SVGID_2_);fill:#040302;}
	.st36{clip-path:url(#SVGID_2_);fill:#F9F9F5;}
	.st37{clip-path:url(#SVGID_2_);fill:#0C0700;}
	.st38{clip-path:url(#SVGID_2_);fill:#180F00;}
	.st39{clip-path:url(#SVGID_2_);fill:#FAFBFB;}
	.st40{clip-path:url(#SVGID_2_);fill:#F9FCFC;}
	.st41{clip-path:url(#SVGID_2_);fill:#180E0E;}
	.st42{clip-path:url(#SVGID_2_);fill:#161313;}
</style>
<g>
	<defs>
		<rect id="SVGID_1_" x="-1101.3" y="-361.6" width="1920" height="1080"/>
	</defs>
	<clipPath id="SVGID_2_">
		<use xlink:href="#SVGID_1_"  style="overflow:visible;"/>
	</clipPath>
	<path class="st0" d="M91.9,160.9c1.3,0.1,2.5,0.1,3.8,0.2c4.6,0.4,6.9,2.4,8.2,6.8c0.1,0.5,0.2,0.9,0.3,1.4c0.2,1,0.8,1.7,1.9,1.9
		c0.9,0.2,1.9,0.3,2.8,0.7c3.2,1.5,5,4.1,5.2,7.5c0.3,4.3,0.4,8.6,0.2,12.9c-0.1,3.8-1.7,6.8-5.6,8c-2.1,0.7-3.3,1.9-4,4.2
		c-1.2,3.8-3.2,7-7.7,7.6c-0.9,0.1-1.2,0.9-1.3,1.8c0,1.3,0.2,2.6-0.1,3.8c-0.8,3.8-0.1,6.9,2.5,10.1c2.8,3.5,3.9,8,5,12.3
		c2.9,11.8,3,23.7,2.3,35.7c-0.5,7.5-1.3,14.9-2,22.8c0.6,0.3,1.4,0.8,2.2,1.2c2,1,3.3,2.7,4,4.6c0.8,2.1,1.9,3.3,4.1,3.9
		c4.3,1.1,6.9,4.3,7.3,8.5c0.5,5.2,0.4,10.5,0.1,15.8c-0.2,4-3.5,5.9-6.6,7.6c-0.8,0.5-1.8,0.7-2.7,0.8c-1.1,0.2-1.6,0.8-2.1,1.6
		c-2.2,3.7-5.2,6.4-9.8,6.9c-1.3,0.1-1.9,1.3-1.4,2.4c0.3,0.7,0.7,1.4,1.2,2c1.8,2.4,2.5,5.2,2.9,8c0.5,3.1-0.7,6-2.5,8.5
		c-3.2,4.6-7.5,7.5-13,9.1c-10.3,3-20.7,3.8-31.3,3.1c-11.3-0.7-22.6-2.2-33.7-4.3c-4.9-0.9-9.7-2.1-14-4.7c-1.5-0.9-2.8-2-4-3.3
		c-2.3-2.5-3-5.6-2.5-8.9c0.4-2.7,0.9-5.4,2.3-7.8c0.7-1.1,0.9-2.3,0.8-3.7c-0.5-6.6,1.1-12.7,4.5-18.3c1-1.7,1.2-3.3,0.7-5.3
		c-1.2-4.5-2.3-9-2.7-13.6C5,292.4,4.5,271.5,6,250.5c0.4-6.3,1.8-12.3,4.2-18.1c1.1-2.6,2.6-5.1,4.2-7.5c1-1.4,1.3-2.7,1.1-4.4
		c-0.6-5-0.3-9.9,0.9-14.7c0.8-3.3,1.8-6.5,3.6-9.3c1.2-1.8,1.4-3.8,1.4-5.9c0-17.7-0.1-35.5,0-53.2c0-9.6,0.2-19.2,0.3-28.8
		c0-6,1.6-11.4,5.9-15.7c1-1,1.2-2.1,1.1-3.5c-0.1-1.1-0.6-1.8-1.7-2c-2.1-0.3-4-1.2-5.7-2.5c-5.6-4.1-6.9-11.8-2.9-17.5
		c3.6-5.2,7.4-10.4,11.1-15.7c6.1-8.8,12.2-17.6,18.4-26.3c4.6-6.5,9.4-12.9,14-19.4c3.4-4.9,8.1-6,13.5-5c5.3,1,8.4,4.7,10.2,9.8
		c1.3,3.7-0.2,6.9-1.3,10.2c-0.3,0.7-0.7,1.5-1.2,2.1c-2,2.5-2.6,5-1.1,8.2c1.1,2.4,1.3,5.3,1.2,8c-0.2,5.7,0.2,11.5,0.1,17.2
		c-0.1,3.2,0,6.4,0,9.6c0,1.8,0.3,3.4,1.4,4.9c2.3,3.3,3.2,7,1.7,10.9c-0.4,1.1-0.3,2.1,0,3.3c0.6,2,1.1,4,0.3,6.1
		c-0.2,0.6,0.2,1.6,0.7,2.1c4.1,5.1,5.1,10.9,4.5,17.2c-0.1,0.8-0.2,1.6-0.2,2.4c0.8,9.9,0,19.8-0.2,29.7
		c-0.1,5.6-0.1,11.2-0.1,16.8C91.5,159.9,91.7,160.4,91.9,160.9"/>
	<path class="st1" d="M62.3,378.8c-11.2-0.4-22.3-1.4-33.4-3.3c-2.8-0.5-5.7-0.9-8.5-1.6c-3.2-0.9-6.4-1.9-9.5-3.3
		c-4-1.8-5.1-4.3-4.4-8.5c0.3-1.9,0.7-3.9,1.6-5.5c1.1-1.9,1.5-3.6,1.3-5.8c-0.5-4.9,0.3-9.6,2.8-13.9c1-1.7,1.8-3.4,2.8-5
		c0.9-1.3,1.2-2.4,0.2-3.9c-1.7-2.6-2.1-5.7-2.5-8.7c-0.8-5.5-1.5-11.1-1.9-16.7c-0.8-12.9-1.3-25.9-0.8-38.8
		c0.2-6.2,0.8-12.4,1.6-18.6c0.4-3.3,1.6-6.5,2.6-9.7c1.1-3.4,2.8-6.4,5.3-9c1.3-1.3,1.4-2.5,1.1-4.3c-1.4-8.8-0.2-17.2,4.6-24.9
		c1.1-1.7,1.7-3.4,1.2-5.4c-0.1-0.5-0.1-1-0.1-1.4c0.1-19.3,0.2-38.7,0.2-58c0-7.2,0.1-14.4,0.2-21.6c0-1-0.1-1.9,0-2.9
		c0.2-5.4,1.9-10,6.5-13.2c1.2-0.8,1.8-1.6,1-3.1c-0.9-1.8-0.7-3.7,0.2-5.5c0.4-0.7,0.7-1.4,1-2.2c0.3-0.9-0.7-1.9-1.7-1.7
		c-0.8,0.2-1.5,0.5-2.3,0.7c-1.8,0.4-3.5,0.3-5.2-0.5c-5.1-2.4-6.6-7.1-3.8-11.9c0.9-1.7,2.2-3.1,3.3-4.7
		c12.2-17.4,24.5-34.8,36.7-52.1c1.3-1.8,2.6-3.7,4.1-5.3c2.4-2.8,6.2-3.5,9.6-1.8c3.5,1.7,5.6,5.6,4.8,9c-0.4,1.7-1.1,3.3-1.8,4.9
		c-0.6,1.3-1.4,2.6-2.3,3.6c-1.9,2.2-2.2,4.1-0.4,6.7c1.9,2.6,2,6,1.9,9.2c0,3.7-0.2,7.3-0.2,11c0,5.9,0.1,11.8,0.2,17.7
		c0,1.6,0.2,3,1.5,4.3c2.4,2.4,2.6,5.4,1.4,8.4c-0.6,1.5-0.6,2.6,0,4.1c0.9,2.3,0.9,4.7-0.2,7c-0.5,1-0.4,1.8,0.6,2.5
		c4.9,3.7,5.7,8.9,5.3,14.6c-0.1,1.1-0.3,2.2-0.3,3.3c-0.1,16.1-0.2,32.3-0.3,48.4c0,1,0,1.9,0,2.9c0,1.2,0.7,1.7,1.8,1.7
		c1.6,0,3.2,0,4.8,0c1.1,0.1,2.2,0.1,3.3,0.5c1.4,0.4,2.5,1.4,2.8,3c0.1,0.5,0.2,0.9,0.3,1.4c0.6,1.6-0.3,3.9,1.2,4.9
		c1.2,0.7,3.1,0.4,4.6,0.5c1.6,0.2,2.6,1.2,3.2,2.6c0.4,1.2,0.6,2.5,0.7,3.7c0.1,2.9-0.1,5.8,0.1,8.6c0.2,2.9-1,4.5-3.7,5.3
		c-0.2,0-0.3,0.2-0.4,0.2c-1.3,0.4-3.1,0.4-3.9,1.3c-0.8,0.9-0.5,2.7-1,4c-0.6,1.6-1.5,3.2-2.4,4.6c-0.7,1-1.9,1.1-3,1.1
		c-1.4,0.1-2.8,0.3-4.2,0.5c0,1.4-0.2,2.8,0,4.2c0.5,3.7,0,7.3-0.7,10.9c-0.3,1.4-0.4,2.4,0.8,3.4c3.8,3.4,5.8,8,7.1,12.8
		c1.8,6.8,2.9,13.7,3,20.8c0.1,13-0.7,25.9-2.6,38.7c-0.1,0.6-0.2,1.3-0.2,1.9c-0.3,2.2-0.2,2.8,2.3,3c3.4,0.2,4.7,1.5,5.5,4.8
		c0.1,0.5,0.1,1,0.2,1.4c0.4,2,0.4,2,2.4,2.4c0.9,0.2,1.9,0.3,2.8,0.5c3.3,0.7,5,2.6,5.1,6c0.2,4,0.2,8,0.1,12c0,2.5-2.5,5-5.1,5.5
		c-0.3,0.1-0.6,0.1-1,0.1c-2.8-0.4-4.7,0.4-4.7,3.7c-1.8,2.4-3.3,5-7,4.9c-1.7-0.1-3.9-0.9-4.9,0.6c-0.7,1.1-0.2,3-0.2,4.6
		c0,0.8,0.1,1.6,0,2.4c-0.1,1.5,0.2,2.8,1.5,3.8c2.1,1.8,2.5,4.4,2.6,7c0.1,1.1-0.2,2.3-0.7,3.2c-2,3.1-4.1,6.2-7.8,7.5
		c-2.6,0.9-5.1,1.8-7.8,2.4C75.1,378.3,68.8,379.1,62.3,378.8"/>
	<path class="st0" d="M81.4,191.6c-6.2-6.5-13.4-9.8-21.5-11.2c-0.1-1.3-0.2-2.4-0.2-3.5c-1-25.6-0.5-51.1-0.7-76.7
		c0-0.6-0.1-1.3,0.1-1.9c0.2-0.5,0.7-1.2,1.1-1.2c4.9,0,9.9-0.6,14.7,0.9c4,1.2,6.2,3.8,6.5,7.9c0.2,2.7,0.3,5.4,0.3,8.1
		c0.1,17.1,0.3,34.2,0.3,51.3c0,8-0.1,16-0.2,24C81.8,189.8,81.7,190.2,81.4,191.6"/>
	<path class="st0" d="M55.2,180c-10,1.2-10.5,1.4-22.7,8.2c-0.7-1.1-0.4-2.4-0.4-3.6c-0.1-23.6-0.1-47.3-0.2-70.9
		c0-2.2-0.1-4.5-0.1-6.7c-0.1-4.2,2.2-6.9,5.6-8.8c1.6-0.9,3.5-1.4,5.5-1.4c3.5,0.1,7,0,10.5,0.1c2.5,0,2.6,0.1,2.6,2.8
		c-0.1,24.7-0.2,49.5-0.4,74.2C55.5,175.9,55.3,177.8,55.2,180"/>
	<path class="st2" d="M76.9,196.8c15.5,15.8,8.2,42.6-13,48.7c-12.2,3.5-25-0.8-32.4-10.8c-0.4-0.5-0.6-1.1-0.9-1.7
		c-2.7-7.5-2.8-14.9-0.1-22.4c6.4-17.8,23.4-25,40.6-17.1C73.1,194.4,75.1,195.3,76.9,196.8"/>
	<path class="st3" d="M60.5,309c-1.6-0.1-3.2-0.1-4.8-0.2c-2.4,0-4.8-0.1-7.2,0c-2.2,0.1-4.4,0.6-6.8,0.9c-0.2-0.9-0.5-1.8-0.5-2.7
		c-0.1-2.4-0.3-4.8-0.3-7.2c0-15.5,0-30.9,0-46.4c0-1,0-1.9,0-2.9c0.1-2.1,0.3-2.3,2.2-1.7c4.1,1.4,8.3,2.3,12.6,2.2
		c2.2-0.1,4.4-0.4,6.6-0.6c2.1,8.8,1.8,17.7,1.2,26.6c-0.6,8.9-0.9,17.8-1.7,26.6C61.9,305.6,62.2,307.6,60.5,309"/>
	<path class="st4" d="M66.9,29.1L46.6,58.6c-3.6,5.2-7.3,10.5-10.8,15.8c-1.4,2-3.2,3-5.5,3.3c-1.2,0.1-2.2-0.1-3-1
		c-0.5-0.6-1.1-1.2-0.5-2.1c0.8-1.3,1.7-2.7,2.6-4C39.5,55.7,49.7,40.8,59.9,26c2.7-3.9,5.4-7.8,8.1-11.8c3.1,1.2,2.4,3.7,2,6
		C69.5,23.4,67.5,26,66.9,29.1"/>
	<path class="st5" d="M87.5,368.4c-5,2.3-10.3,3.1-15.7,3.8c-7.5,1-15,0.3-22.5-0.3c-8.6-0.7-17.2-1.7-25.6-3.6
		c-3.2-0.7-6.4-1.8-9.6-3c-2.1-0.8-2.1-1.2-1.8-3.3c0.1-0.6,0.2-1.3,0.4-1.9c0.4-1.4,1.2-1.8,2.5-1.4c1.5,0.5,3,1.1,4.5,1.5
		c5.7,1.5,11.5,2.8,17.4,3.2c6.5,0.5,13.1,0.9,19.6,1c3.5,0.1,7-0.5,10.5-0.7c1.6-0.1,3.2-0.1,4.8-0.1c0.6,0.2-0.8,1.2,0.2,1
		c3.3-0.3,6.5-0.9,9.8-0.1C84.4,365.1,86.8,365.6,87.5,368.4"/>
	<path class="st6" d="M76.9,196.8c-2.3-0.8-4.5-1.5-6.7-2.4c-5.1-2.1-10.4-3-15.9-2.6c-2.3,0.1-4.4,0.6-6.5,1.6
		c-6.7,3-11.6,7.6-14.8,14.3c-3.4,7.1-3.6,14.5-2.6,22c0.1,1.1,0.2,2.2,0.3,3.3c-10.5-14.5-4.3-39.5,17.8-45
		c10.2-2.5,19.2,0.1,27.1,6.9C76,195.4,76.4,196.1,76.9,196.8"/>
	<path class="st7" d="M20,325.7c4.6-5.3,9.7-8.2,15.4-10c7.2-2.3,14.6-3.3,22.2-2.4c4,0.5,7.9,0.9,11.7,2.2
		c5.2,1.8,9.8,4.5,13.9,9.4C61.9,318.9,41.4,318.1,20,325.7"/>
	<path class="st7" d="M24.4,328.7c12.2-7.2,50.8-5.5,58.7,1.6C73.1,333.2,36.8,332.2,24.4,328.7"/>
	<path class="st8" d="M90.4,270.6c-2.6-0.5-4.9-1-7.2-1.5c0.2-1,0.9-0.9,1.4-0.9c2.7-0.1,5.4-0.1,8.1,0c1.8,0,2.2,0.4,2.1,2.4
		c-0.2,4.8-0.3,9.6-0.8,14.3c-1,11.9-2.9,23.7-5,35.5c-0.2,1.3-0.5,2.5-0.7,4c-1.9-0.8-2.9-2.5-4.1-3.8c-0.4-0.4-0.4-1.2-0.4-1.8
		c0-0.6,0.1-1.3,0.3-1.9c2.7-11.3,4-22.9,5.5-34.4C90.1,278.7,90.5,275,90.4,270.6"/>
	<path class="st9" d="M81.5,264c-3.5,0-7,0-10.5,0c-0.9,0-1.5-0.3-1.6-1.3c-0.2-1.9,0.1-2.9,1.3-3.2c1.6-0.3,3.1-0.4,4.7-0.6
		c3.3-0.4,6.7-0.7,9.9-1.3c2.4-0.4,3.4-1,3.4-4.2c-0.1-5.5-1.1-10.8-2.8-15.9c-0.6-1.9-0.4-3.4,0.8-4.9c0.4-0.6,1.2-0.7,1.5-0.2
		c1.1,1.9,2.3,3.9,3,5.9c2.7,7.6,3.6,15.5,3.7,23.5c0,1.5-0.4,2.1-1.9,2.1C89.1,264,85.3,263.9,81.5,264L81.5,264z"/>
	<path class="st10" d="M65.4,346.3c-2.6-4.7-6.9-7-12-7.6c-7.4-0.9-14.9-1.4-22.4-2.1c-2.9-0.3-5.3,0.8-7.4,2.8
		c-2.1,2-3.8,4.3-5,6.9c-0.9,1.8-1.7,3.8-2.5,5.6c-1-2.5-1.3-5.6-0.2-8.3c1.4-3.5,3.2-6.9,4.8-10.4c0.5-1,1.3-1.2,2.4-1
		c10.6,2.3,21.5,2.6,32.3,3.2c1.1,0.1,2.2,0.3,3.3,0.1c2.3-0.2,3.7,0.9,4.6,2.7c1.1,2.3,2.1,4.6,3.2,6.9
		C66.8,346.2,66.3,346.5,65.4,346.3"/>
	<path class="st11" d="M60.5,309c0.1-2.2,0.1-4.4,0.2-6.7c0.1-2.7,0.1-5.3,0.7-8c0.5-2.8,0.2-5.7,0.3-8.5c0.1-2.5-0.2-5.1,0.7-7.5
		c0.3-1,0.2-2.2,0.2-3.3c0-4.3,0.1-8.6,0-12.8c0-1.9-0.4-3.8-0.6-5.6c-0.3-2.1-0.6-4.1,0.7-6c0.5-0.1,0.9-0.3,1.4-0.4
		c1.5-0.2,1.8,0,1.8,1.3c0,0.6,0,1.3,0,1.9c-0.1,17.5-0.2,35.1-0.4,52.6c0,1,0,1.9-0.1,2.9c-0.1,1.1-1,1-1.8,0.8
		c-0.8-0.7-2-0.1-2.8-0.7L60.5,309z"/>
	<path class="st12" d="M73.5,359.6c-0.9-4.3-1.6-8.4-2.7-12.3c-1.1-3.8-2.7-7.4-4.2-11.4c1.7,0,3.2,0,4.7-0.1
		c3.7-0.2,7.3-0.5,11-0.8c1.3-0.1,1.9,0.5,2.2,1.9c0.1,0.7-0.1,1.4-0.8,1.4c-2.1,0.2-4.1,0.6-5.9,1.7c-2.1,1.3-2.4,1.9-1.6,4.3
		c1.4,4.1,1.9,8.4,2.3,12.7c0.1,0.9-0.2,1.6-1.2,1.8C76.1,359.1,74.9,359.3,73.5,359.6"/>
	<path class="st13" d="M74.1,92c-10.5,0-21,0.1-31.6,0.1c-0.3,0-0.6,0-1,0c-1.7-0.1-2.8-1.1-2.9-2.5c-0.1-1.6,1.1-3,2.9-3.2
		c1.6-0.2,3.2-0.3,4.8-0.3c7.5,0,15,0,22.5,0.1c0.5,0,0.9,0.1,1.4,0.2c0.3,4.7-3,4-5.4,4.3c1.1,0.6,2.7-0.3,4.2-0.5
		C71,90,73.2,89.2,74.1,92"/>
	<path class="st12" d="M69.2,60.7c0.1-6.6-0.4-13.1-1.6-19.5c-0.6-3.6,1.4-5.6,3.4-7.9c0.1-0.1,1,0.2,1,0.5c0.4,1.7,0.9,3.4,1,5.1
		c0.2,8.9,0.3,17.8,0.5,26.8c0,1,0,1.9,0,2.9c-0.1,1.7-1.8,2.7-3.4,1.8c-0.4-0.2-0.8-1-0.8-1.6C69.1,66.1,69.2,63.4,69.2,60.7"/>
	<path class="st14" d="M70.3,80.7c-3.6,0.2-7.3,0.4-10.9,0.5c-5.9,0.1-11.7,0.1-17.6,0.2c-1.9,0-2.6-0.8-2.2-2.6
		c0.5-2.2,1.4-3,3.5-3c10.3,0,20.6,0,31,0.1c-1.6,3.2-5,2.8-7.7,3.5c-1.8,0.5-3.7,0.6-5.2,0.7C63.9,80.5,67.2,78,70.3,80.7"/>
	<path class="st15" d="M22.9,296.2c-1.7-4.1-2.1-8-1.7-12c0.8-9.9,2-19.7,5-29.2c0.4-1.2,0.8-2.4,1.4-3.6c0.2-0.4,1-0.9,1.5-0.8
		c0.4,0.1,0.9,0.9,0.9,1.4c0,0.9-0.4,1.9-0.6,2.8c-2.8,10.5-4.3,21.3-5.1,32.1C24,289.9,23.4,292.9,22.9,296.2"/>
	<path class="st16" d="M16.5,266.2c-0.4-7.1-0.5-14.1,0.9-21c0.8-4.1,1.9-8.1,4-11.7c0.4-0.7,0.9-1.3,1.4-1.9
		c0.2-0.2,0.7-0.3,0.9-0.1c1.4,1,1.9,3.6,1.2,5.1c-0.9,1.9-1.9,3.7-2.4,5.7c-1.8,6.8-3.4,13.6-5.1,20.4
		C17.2,263.8,16.8,265,16.5,266.2"/>
	<path class="st17" d="M99,339.3c-1.1,0.1-2.2,0.2-3.3,0.2c-4.5-0.1-3.8,0.6-5.6-4.1c-0.5-1.3-0.6-2.4,0.2-3.5
		c0.2-0.2,0.3-0.5,0.5-0.8c2.5-4.2,2.5-4.2,7.8-3.9C101.7,331.1,100,335.2,99,339.3"/>
	<path class="st18" d="M87.5,368.4c-2.7-2.2-5.8-3-9.3-2.9c-2.9,0.1-5.9,0-9.6,0c1.7-0.9,2.6-1.3,3.4-1.8c3.7-0.7,7.5-1.3,11.2-2.1
		c1.6-0.3,3.1-0.7,4.6-1.2c0.9-0.3,1.6-0.9,2.6-0.2c1,0.7,1.7,1.6,1.6,2.7c-0.1,1.2-0.4,2.5-0.9,3.6C90.5,367.9,89,368.3,87.5,368.4
		"/>
	<path class="st19" d="M66.9,29.1c-0.1-0.7-0.5-1.5-0.3-2.2c0.5-2,1.2-4,2-5.9c1-2.4,1-4.6-0.6-6.8c0.2-0.6,0.4-1.3,0.7-1.7
		c1.6-2,3.8-2.5,5.4-1.3c2.1,1.6,2.6,4.1,1.1,6.2C72.5,21.4,69.7,25.2,66.9,29.1"/>
	<path class="st20" d="M106.6,324.1c0-1.3,0-2.5,0-3.8c-0.1-2.7,0.5-3.2,3.5-2.3c0.5,0.1,1.1,0.8,1.1,1.3c0.1,3.5,0,7-0.1,10.5
		c0,0.4-0.8,1.1-1.2,1.2c-2.7,0.4-3.3-0.1-3.2-2.5c0-1.4,0-2.9,0-4.3H106.6z"/>
	<path class="st21" d="M96.6,191.3c-3,1.2-5.9,0.2-8.8-0.2c-0.4-0.1-1-0.8-1.1-1.3c-0.1-2.2-0.1-4.4,0-6.7c0-0.4,0.7-1.1,1.2-1.1
		c1.4-0.2,2.8-0.2,4.2-0.3c0.9,0.5,1.3,1.4,1.3,2.4C93.1,187,94.6,189.2,96.6,191.3"/>
	<path class="st22" d="M101.4,322.5c-2,1-4,0.5-6.1,0.3c-0.3,0-0.9-1-0.8-1.4c0.6-3.6,1.3-7.2,2-10.8c0.1-0.3,1-0.4,1.5-0.6
		C101,313.6,99.3,318.5,101.4,322.5"/>
	<path class="st23" d="M70.3,80.7c-3.2-0.2-6.3-0.4-10-0.6c1.8-0.6,3.1-1,4.4-1.4c1.4-0.4,2.7-0.9,4.1-1.3c1.4-0.3,2.8-0.5,4.2-0.8
		c0.4-0.1,0.8-0.5,1.1-0.8c1.3-0.7,2-0.1,2.5,1.1c0.6,1.3,0.4,2.3-0.5,2.9c-0.6,0.4-1.4,0.8-2.1,0.9C72.8,80.9,71.5,80.8,70.3,80.7"
		/>
	<path class="st24" d="M50,348.3c0.3-0.5,0.8-1.6,1.4-2.7c1-1.6,2.6-1.7,3.9-0.3c1.6,1.7,1.8,3.7,0.7,5.6c-0.9,1.6-2.5,2.3-3.9,1.8
		C50.5,352.3,49.7,350.9,50,348.3"/>
	<path class="st25" d="M96.6,191.3c-4.2-0.3-4.3,0.6-4.2-4.5c0-1.7-0.2-3.4-0.2-5.1c5.2-1,4.9,0,4.9,4
		C97,187.5,96.7,189.4,96.6,191.3"/>
	<path class="st18" d="M74.1,92c-0.8-1-2-0.9-3.1-0.9c-2.5,0-4.9,0-7.3-0.2c4.7-1.4,4.7-1.4,6.5-4.6c1.4-0.1,2.8-0.3,4.2-0.2
		c1.5,0,2.6,1.2,2.4,2.8C76.6,90.5,76.2,91.9,74.1,92"/>
	<path class="st26" d="M101.4,322.5c-2.3-0.6-2.3-0.6-2.4-2.1c-0.3-3.5-0.6-7-0.9-10.5c0.6-0.1,1.3-0.3,1.9-0.1
		c0.5,0.1,1.3,0.6,1.4,0.9C101.7,314.6,102.4,318.6,101.4,322.5"/>
	<path class="st27" d="M92.6,202.3c-1.4,0.2-2.9,1.2-4,0.1c-1.2-1.2-1.8-2.9-1.9-4.7c-0.1-1.5,0.4-2.2,1.8-2.1
		c1.3,0,2.5,0.2,3.8,0.3C94,197.9,93.9,200.1,92.6,202.3"/>
	<path class="st28" d="M92.6,177.3c-0.3,0.1-0.6,0.2-0.9,0.2c-5.6,0.3-5.8,0.2-4.6-5.9c1.7,0.1,3.4,0.2,5.1,0.2
		C93.9,173.5,93.8,175.4,92.6,177.3"/>
	<path class="st29" d="M100.9,186.6c0-1.3-0.1-2.5,0.1-3.8c0.1-0.4,0.7-1,1.2-1.1c0.8-0.2,1.6,0.2,1.7,1.1c0.1,2.5,0,5.1,0,7.6
		c0,0.9-0.9,1.5-1.6,1.2c-0.5-0.2-1.1-0.8-1.1-1.2c-0.2-1.2-0.1-2.5-0.1-3.8H100.9z"/>
	<path class="st30" d="M99,339.3c-0.1-2-0.2-4-0.3-6c-0.1-2,0-4,0-6.1c0.8,0,1.7-0.4,2.2,0c0.5,0.3,0.8,1.3,0.8,2
		c-0.2,3-0.6,5.9-1,8.9C100.6,338.9,99.9,339.3,99,339.3"/>
	<path class="st31" d="M92.6,202.3c-0.1-2.2-0.3-4.3-0.4-6.5c1.1-0.1,2.2-0.2,3.3-0.2c0.3,0,0.8,0.6,0.8,0.9c0,1.1-0.1,2.2-0.2,3.3
		C95.6,202.3,95.6,202.2,92.6,202.3"/>
	<path class="st32" d="M92.6,177.3c-0.2-1.8-0.3-3.7-0.5-5.5c0.6-0.1,1.2-0.3,1.9-0.3c1.1-0.1,1.9,0.3,2,1.5
		c0.1,0.8,0.2,1.6,0.3,2.4c0.1,1.8-0.1,1.9-2.2,2C93.5,177.4,93,177.4,92.6,177.3"/>
	<path class="st0" d="M65.4,346.3c0.4-0.4,0.7-0.7,1.1-1.1c2,2.5,1.6,5.7,2.6,8.3c-0.2,0.3-0.3,0.4-0.4,0.5
		c-0.1-0.1-0.3-0.2-0.4-0.3C67.4,351.3,66.4,348.8,65.4,346.3"/>
	<path class="st0" d="M60.7,309c1.1-0.4,2.1-0.3,2.8,0.7C62.5,309.9,61.4,309.9,60.7,309"/>
	<path class="st33" d="M38.1,126.2c-0.6-1-1.2-1.6-1.3-2.3c-1.3-6.1-0.7-12,1.7-17.7c0.6-1.5,1.5-2.8,3.1-3.4
		c0.9-0.3,1.9-0.4,2.6,0.5c0.6,0.7,0.6,1.6,0.1,2.2c-2.8,3.9-3.3,8.5-3.9,13.1c-0.2,1.6-0.6,3.1-1,4.7
		C39.2,124,38.7,124.9,38.1,126.2"/>
	<path class="st34" d="M42.9,112.5c0.1-0.4,0.2-1.2,0.4-1.9c0.3-0.8,1-1.4,1.8-1.1c0.7,0.2,1.4,0.8,1.7,1.4c0.3,0.7,0.3,1.6,0.1,2.3
		c-0.2,1.5-1.4,2.8-2.2,2.8C43.8,115.9,43,114.4,42.9,112.5"/>
	<path class="st35" d="M44.1,227c-1.2-1-1.7-2.2-1.7-3.8c0-4.8,0-9.5,0-14.3c0-0.8,0.2-1.6,0.5-2.3c0.4-1.3,1.3-2.3,2.7-2.3
		c4.4-0.1,8.9-0.2,13.3,0c1.3,0.1,2.5,1.3,3.7,2c2.5,5.7,1.3,11.6,1,17.4c-0.1,1.3-0.9,2.6-2.1,3C55.8,229.1,50,230.3,44.1,227"/>
	<path class="st36" d="M44.1,227c3.7,0.1,7.3,0.2,11,0.1c2-0.1,4.1-0.5,6-1c0.6-0.1,1.3-1,1.4-1.7c0.3-1.1,0.2-2.2,0.2-3.3
		c0-4.9-0.1-9.9-0.1-14.8c1.8,0.4,2.7,1.7,3.2,3.3c1.6,4.8,2,9.6,0.7,14.6c-0.8,3-2.8,4.9-5.8,5.9c-3.7,1.3-7.5,1.6-11.3,0.9
		C47.1,230.6,44.5,230.2,44.1,227"/>
	<path class="st37" d="M77.5,221c-0.5,1.9-0.9,3.9-1.6,5.8c-1.2,3.3-3,6.3-5.2,9c-0.8,1-1.7,1.9-2.7,2.6c-0.8,0.6-1.7,0.7-2.6,0.1
		c-0.7-0.5-0.5-1.3,0.4-2.4c1.4-1.7,2.9-3.4,4.1-5.2c2.1-3,3.5-6.4,4-10.1c0.1-0.8,0.2-1.6,0.6-2.3c0.2-0.4,0.9-0.7,1.5-0.8
		c0.3,0,0.8,0.4,1,0.8C77.2,219.3,77.3,220.1,77.5,221"/>
	<path class="st38" d="M76.5,211.4c-0.2,0.5-0.3,1.1-0.6,1.7c-0.6,1.3-3,1.5-3.6,0.2c-0.5-1.1-0.7-2.4-0.8-3.6
		c0-1.1,1.1-2.1,2.1-2.2c1-0.1,2.1,0.8,2.4,1.9C76.3,210.1,76.4,210.7,76.5,211.4"/>
	<path class="st23" d="M59.6,267c0.1,3.7-3.1,7-6.8,7.2c-3.3,0.2-6.5-3.3-6.6-6.8c-0.1-3.2,2.4-7.2,7.1-7.6
		C56.3,259.7,59.6,263.5,59.6,267"/>
	<path class="st39" d="M53.7,296.4c-3.8,0-6-1.9-7-6c-0.6-2.4,1.1-5.9,3.7-7c1.8-0.8,3.7-0.7,5.6,0.1c1.8,0.7,2.7,2,3,3.9
		c0.3,1.9,1.1,3.6,0.1,5.5C57.9,295.3,56.3,296.7,53.7,296.4"/>
	<path class="st40" d="M47,214.9c0.3-1.4-0.8-3.5,0.5-5.4c1.9-0.1,3.8-0.2,5.6-0.3c1.1,0,2.2,0,3.3,0c2,0.1,2.1,0.2,2.2,2.3
		c0,2.9,0,5.7,0,8.6c0,1.1-0.4,1.8-1.6,1.8c-2.7,0-5.4,0-8.1,0c-1.6,0-1.8-0.3-1.8-2C47,218.3,47,216.9,47,214.9"/>
	<path class="st41" d="M52.8,264.9c2.4,0.2,3.5,1.3,3.3,3.2c-0.2,1.9-1.9,3.2-3.7,3c-1.8-0.3-3-2-2.7-3.9
		C49.9,265.6,51.1,264.8,52.8,264.9"/>
	<path class="st42" d="M56.4,289.2c0.1,2-1.9,4-3.9,4.1c-1.4,0-3.2-1.6-3.2-3c0-1.7,2.4-4.2,3.9-4.2
		C54.7,286.1,56.3,287.7,56.4,289.2"/>
</g>
</svg>
