<?xml version="1.0" encoding="utf-8"?>
<!-- Generator: Adobe Illustrator 22.1.0, SVG Export Plug-In . SVG Version: 6.00 Build 0)  -->
<svg version="1.1" id="Capa_1" xmlns="http://www.w3.org/2000/svg" xmlns:xlink="http://www.w3.org/1999/xlink" x="0px" y="0px"
	 viewBox="0 0 128 385.9" style="enable-background:new 0 0 128 385.9;" xml:space="preserve">
<style type="text/css">
	.st0{clip-path:url(#SVGID_2_);fill:#FFFFFF;}
	.st1{clip-path:url(#SVGID_2_);}
	.st2{clip-path:url(#SVGID_2_);fill:#FF9900;}
	.st3{clip-path:url(#SVGID_2_);fill:#CDCDCD;}
	.st4{clip-path:url(#SVGID_2_);fill:#FD9801;}
	.st5{clip-path:url(#SVGID_2_);fill:#CCCCCC;}
	.st6{clip-path:url(#SVGID_2_);fill:#FBFCFC;}
	.st7{clip-path:url(#SVGID_2_);fill:#FCFDFD;}
	.st8{clip-path:url(#SVGID_2_);fill:#FBFBFB;}
	.st9{clip-path:url(#SVGID_2_);fill:#F9FCFA;}
	.st10{clip-path:url(#SVGID_2_);fill:#F7F7F7;}
	.st11{clip-path:url(#SVGID_2_);fill:#F8FAFA;}
	.st12{clip-path:url(#SVGID_2_);fill:#FAFBFB;}
	.st13{clip-path:url(#SVGID_2_);fill:#F4F4F4;}
	.st14{clip-path:url(#SVGID_2_);fill:#CBC9C9;}
	.st15{clip-path:url(#SVGID_2_);fill:#B5B7B7;}
	.st16{clip-path:url(#SVGID_2_);fill:#F3F4F4;}
	.st17{clip-path:url(#SVGID_2_);fill:#F4F5F5;}
	.st18{clip-path:url(#SVGID_2_);fill:#FA9705;}
	.st19{clip-path:url(#SVGID_2_);fill:#F6FAFA;}
	.st20{clip-path:url(#SVGID_2_);fill:#F7F6F2;}
	.st21{clip-path:url(#SVGID_2_);fill:#E48E0B;}
	.st22{clip-path:url(#SVGID_2_);fill:#E58E0A;}
	.st23{clip-path:url(#SVGID_2_);fill:#F9FCFC;}
	.st24{clip-path:url(#SVGID_2_);fill:#E89013;}
	.st25{clip-path:url(#SVGID_2_);fill:#EDEFEF;}
	.st26{clip-path:url(#SVGID_2_);fill:#F2EDE4;}
	.st27{clip-path:url(#SVGID_2_);fill:#F5F9F9;}
	.st28{clip-path:url(#SVGID_2_);fill:#F0F1EE;}
	.st29{clip-path:url(#SVGID_2_);fill:#F99702;}
	.st30{clip-path:url(#SVGID_2_);fill:#F39708;}
	.st31{clip-path:url(#SVGID_2_);fill:#D5870F;}
	.st32{clip-path:url(#SVGID_2_);fill:#F2EFE9;}
	.st33{clip-path:url(#SVGID_2_);fill:#F2ECE0;}
	.st34{clip-path:url(#SVGID_2_);fill:#F2ECE1;}
	.st35{clip-path:url(#SVGID_2_);fill:#A9A7A7;}
	.st36{clip-path:url(#SVGID_2_);fill:#0A0909;}
	.st37{clip-path:url(#SVGID_2_);fill:#1B1B1B;}
	.st38{clip-path:url(#SVGID_2_);fill:#020201;}
	.st39{clip-path:url(#SVGID_2_);fill:#0B0A08;}
	.st40{clip-path:url(#SVGID_2_);fill:#090603;}
	.st41{clip-path:url(#SVGID_2_);fill:#F0F7F2;}
	.st42{clip-path:url(#SVGID_2_);fill:#F9FBFB;}
	.st43{clip-path:url(#SVGID_2_);fill:#FAFCFC;}
	.st44{clip-path:url(#SVGID_2_);fill:#E4E6E6;}
	.st45{clip-path:url(#SVGID_2_);fill:#FFFEFE;}
	.st46{clip-path:url(#SVGID_2_);fill:#140B0B;}
	.st47{clip-path:url(#SVGID_2_);fill:#1B1919;}
</style>
<g>
	<defs>
		<rect id="SVGID_1_" x="-956.2" y="-359.1" width="1920" height="1080"/>
	</defs>
	<clipPath id="SVGID_2_">
		<use xlink:href="#SVGID_1_"  style="overflow:visible;"/>
	</clipPath>
	<path class="st0" d="M65.3,385.9c-9.8,0.4-19.5-0.8-28.9-3.7c-4.4-1.3-7.9-3.6-11-7.2c-5-5.7-4.5-11.5-1.6-17.3
		c0.6-1.1,1.3-2.2,1.7-3.3c0.4-1-0.2-2-1.3-2.1c-4.8-0.5-7.8-3.3-10-7.2c-0.4-0.8-1-1.1-1.8-1.3c-2.5-0.3-4.4-1.6-6.3-3.2
		c-2.4-2-3.4-4.6-3.5-7.5c-0.1-3.7-0.1-7.4,0-11c0.1-2.6,0.7-5,2.3-7.2c1.5-2,3.2-3.6,5.7-4c1.9-0.3,3-1.1,3.6-3.2
		c0.6-2.1,2-4.2,4.1-5.1c2.5-0.9,2.3-2.6,2.1-4.5c-0.5-4.3-0.9-8.6-1.3-12.9c-0.9-8.9-1-17.9-0.5-26.8c0.3-7,1.6-14,3.8-20.7
		c1.2-3.7,2.9-7.1,5.4-10c0.9-1.1,1.3-2,1.1-3.4c-0.3-2.5-0.5-5.1-0.6-7.6c-0.1-1.1-0.4-1.9-1.6-2.1c-4.3-0.6-6.1-3.9-7.3-7.4
		c-0.7-2.1-1.8-3.6-4-4.2c-4.1-1.3-5.7-4.4-5.7-8.5c0-4,0-8,0.2-12c0.2-4.4,2.6-7.3,7-8.5c1.8-0.5,2.7-1.3,3-3.1
		c0.9-5.3,4.9-7.4,9.2-7.4c0.8,0,1.6,0,2.4-0.2c0.4-0.1,0.7-0.5,0.9-0.9c0.1-0.2,0.1-0.6,0.1-0.9c0-5,0-9.9,0-14.9
		c-0.1-9.6-0.4-19.2-0.5-28.7c0-2.6,0-5.1,0-7.7c-0.1-5.1,1-9.8,4.3-13.9c0.9-1.1,1.3-2.1,0.8-3.5c-0.6-1.6-0.2-3.2,0.4-4.7
		c0.5-1.4,0.6-2.8,0.1-4.2c-1.5-3.6-0.5-7,1.5-10c1.3-2,1.7-4,1.7-6.3c0-8.5,0-16.9,0-25.4c0-3.9,0.5-7.7,2.2-11.2
		c0.5-1,0.4-1.7-0.2-2.6c-1.7-2.7-3.4-5.4-4.2-8.5C36.6,12.3,42,4.2,50,3.4c4.9-0.5,9.1,0.8,12.1,5.1c4.6,6.5,9.4,12.9,14,19.4
		c8.1,11.5,16.1,23,24.2,34.5c1.6,2.4,3.3,4.7,5,7c5.1,7.1,2.7,16-5.3,19.6c-0.7,0.3-1.5,0.5-2.3,0.7c-2.4,0.7-3.2,3.2-1.6,5.1
		c1.8,2.1,3.5,4.2,4.5,6.7c1.2,3,1.7,6.1,1.7,9.3c0,27.2,0.1,54.3,0.2,81.5c0,2.3,0.3,4.3,1.5,6.4c4.2,7.5,5.7,15.6,4.7,24
		c-0.2,1.7-0.1,3,1,4.4c4.7,6.1,6.9,13.3,7.9,20.8c0.8,5.8,1.2,11.8,1.2,17.7c0.1,11.3,0.1,22.7-0.4,34c-0.5,10.3-1,20.8-4.3,30.7
		c-0.4,1.2-0.2,2.1,0.4,3.1c1.3,2.5,2.7,5.1,3.7,7.8c1.2,3.2,1.7,6.5,1.5,9.9c-0.1,2.3,0.1,4.3,1.2,6.4c1.3,2.6,1.7,5.4,1.8,8.4
		c0.1,4.4-1.9,7.6-5.5,10c-3,1.9-6.3,3.3-9.7,4.1c-8.1,1.9-16.3,3.3-24.5,4.1C77.1,384.9,71.2,385.4,65.3,385.9"/>
	<path class="st1" d="M43.8,96.9c-1.8-3.2-2.1-6.3-0.6-9.4c0.3-0.6,0.3-1.6,0-2.2c-1.9-3.8-1.5-7,1.5-10c0.6-0.6,0.9-1.7,0.9-2.6
		c0.1-2.1,0.1-4.2,0.1-6.2c0-8,0-16,0-24c0-3.8,0.5-7.4,2.9-10.4c1-1.3,0.7-2.3-0.1-3.4c-1.1-1.6-2.2-3.1-3.2-4.8
		c-0.8-1.4-1.4-2.8-1.9-4.4c-1.8-6.1,3.7-12.1,9.9-10.9c2,0.4,3.5,1.5,4.7,3.1c3.1,4.3,6.3,8.5,9.3,12.8
		C78.5,40.2,89.6,56,100.7,71.9c0.5,0.7,1,1.3,1.3,2c2.9,6-1.5,12.4-8.2,11.9c-1.3-0.1-2.5-0.6-3.7-0.8c-0.7-0.2-1.6,0.8-1.4,1.5
		c0.3,0.9,0.7,1.8,1.1,2.6c0.6,1.3,1.1,2.9,0.5,4.2c-1.1,2.3-0.6,3.5,1.5,5c4,2.7,5.4,7,5.7,11.6c0.2,2.5,0,5.1,0,7.7
		c0.1,23.6,0.1,47.3,0.2,70.9c0,1.1,0.1,2.2,0,3.4c-0.4,3.8,0.6,7,2.5,10.4c3.9,6.9,5,14.4,3.5,22.3c-0.4,1.9-0.2,3.2,1.2,4.8
		c4.9,5.4,6.8,12.2,8,19.2c0.7,4.1,1,8.3,1.1,12.4c0.1,12.8,0.1,25.6-0.2,38.3c-0.2,8.1-1.1,16.2-2.6,24.3c-0.5,2.7-1,5.3-2.5,7.7
		c-0.6,0.9-0.4,1.8,0.1,2.7c0.9,1.5,1.8,3,2.7,4.5c2.9,4.8,4,10.1,3.3,15.6c-0.2,1.7,0.1,3,0.9,4.5c1,1.9,1.7,4.1,2,6.3
		c0.6,4.1-0.5,6.3-4.2,8.2c-2.3,1.1-4.7,2.2-7.1,2.7c-5.8,1.3-11.5,2.6-17.4,3.3c-10.5,1.4-20.9,2.5-31.5,2.2
		c-6.7-0.2-13.3-1.5-19.8-3.4c-4.3-1.2-7.3-4-9.7-7.4c-2.4-3.5-1.6-7.2,0.6-10.3c1.4-2,2.3-3.7,2-6.1c-0.2-2,1.2-4,0-6
		c-1.9-0.1-3.8-0.3-5.7-0.4c-3.4-0.1-5.3-2.7-6.2-5.2c-0.9-2.6-2-3.4-4.7-3.4c-4.1,0-6.5-2.6-6.5-6.6c0-3.5,0.1-7,0.3-10.5
		c0.3-4.1,1.7-5.6,5.8-6.4c0.2,0,0.3-0.1,0.5-0.1c2.7,0.1,4.3-0.8,4.1-3.8c0-0.2,0.1-0.3,0.1-0.5c0.9-2.9,2.4-4.7,5.8-4.7
		c2.3,0,2.5-0.4,2.2-2.5c-0.8-6.5-1.7-13-2.2-19.5c-0.9-11-1.3-22,0.3-33c0.4-2.8,1.1-5.6,1.7-8.4c1.2-5.1,3.2-9.7,6.9-13.4
		c1-1,1.4-2,1.1-3.4c-1-4.7-1.3-9.5-0.3-14.3c0.2-1-0.5-1.4-1.4-1.5c-0.6-0.1-1.3,0-1.9-0.1c-3.9-0.2-6.1-2-6.8-5.9
		c-0.2-0.9-0.1-1.9-0.2-2.9c-0.1-0.9-0.5-1.5-1.4-1.6c-0.5-0.1-1,0-1.4-0.1c-4.9-1.2-5.7-2.2-5.7-7.2c0-2.4,0-4.8,0-7.2
		c0-0.8,0-1.6,0.1-2.4c0.4-2.8,1.9-4.4,4.8-4.3c4.1,0.1,4.2-0.3,4.7-4.1c0.6-5.2,1.8-6.1,7.2-6.1c1.4,0,2.9,0,4.3,0
		c1.2,0,1.7-0.6,1.8-1.8c0-1.3,0.1-2.6,0-3.8c-0.2-9.9-0.4-19.8-0.6-29.7c-0.1-7.8-0.1-15.6-0.2-23.5
		C37.1,104.6,38.7,100.2,43.8,96.9"/>
	<path class="st0" d="M42.5,194.1C42.3,187,42,181,42,174.9c0.1-13.1,0.3-26.2,0.5-39.3c0.1-7.8,0.1-15.6,0.1-23.5
		c0-1.4,0-2.9,0.2-4.3c0.4-3.5,2.1-5.9,5.6-7c2.8-0.9,5.5-1.6,8.4-1.3c2.7,0.2,5.4-0.6,8,0.5c0.1,2.5,0.2,5.1,0.2,7.6
		c-0.1,22.3-0.2,44.7-0.3,67c0,2.5,0,5.1,0,7.5c-4.2,1.5-8.1,2.8-11.9,4.3C49.1,188.1,46.2,190.8,42.5,194.1"/>
	<path class="st0" d="M92.1,191.4c-7.3-5.7-14.6-8.4-22.8-8.8c-0.9-1.7-0.6-3.5-0.6-5.3c-0.2-10.5-0.3-21.1-0.4-31.6
		c-0.1-13.9,0-27.8,0-41.6c0-1.1-0.1-2.2,0.1-3.3c0.1-0.5,0.7-1.3,1.1-1.3c4.6-0.1,9.3-0.3,13.9,0c2.7,0.2,5.2,1.5,6.9,3.8
		c1.5,2,2.4,4,2.3,6.6c-0.2,14.8-0.3,29.7-0.4,44.5c-0.1,10.5,0,21.1,0,31.6C92.1,187.5,92.1,188.9,92.1,191.4"/>
	<path class="st2" d="M88.9,198c5.5,4.2,8.2,10.1,9.3,16.7c2.6,15.6-7,29.8-22.4,33.6c-14.8,3.7-29.9-4.4-35-18.8
		c-0.4-1-0.5-2.1-0.8-3.2c0-5.9,1.6-11.4,3.7-17c5-12.9,22-20.7,35.4-15C82.3,195.7,85.8,196.3,88.9,198"/>
	<path class="st3" d="M61.9,253c6.7,1.2,13.3,0.6,19.7-1.8c0.3-0.1,0.6,0,0.9,0c0.1,0.1,0.2,0.2,0.3,0.3c0.1,0.1,0.2,0.3,0.2,0.4
		c0,18.7,0,37.3,0,56c0,1.1-0.1,2.2-0.2,3.3c0,0.3-0.3,0.6-0.5,1.1c-6-1.6-12.2-1-18.4-0.9c-2.6-3.6-2.2-7.9-2.4-11.9
		c-0.4-11.7-1.8-23.5-1.2-35.2C60.6,260.5,60.5,256.6,61.9,253"/>
	<path class="st4" d="M56.3,16.9c0.7,0.9,1.4,1.7,2.1,2.6c12.2,18,24.5,35.9,36.7,53.9c0.6,0.9,1.3,1.8,1.9,2.8c1.2,2,0.3,3.9-2,4.1
		c-2.3,0.1-4.4-0.5-5.9-2.5c-0.3-0.4-0.5-0.8-0.8-1.2c-9.4-13.7-18.9-27.3-28.3-41c-0.4-0.6-0.7-1.4-1.1-2.1
		c-1.2-3.4-3.9-6.2-4.4-9.9C54,21,53.2,18.4,56.3,16.9"/>
	<path class="st5" d="M52.4,366.2c1.4,0,2.9-0.1,4.3,0.1c7.6,1.2,15.3,1,22.9,0.5c6.5-0.4,13.1-1.1,19.4-2.6
		c3.2-0.8,6.4-1.8,9.6-2.8c1.6-0.5,2.3-0.1,2.8,1.6c0.1,0.3,0.2,0.6,0.2,0.9c0.5,2.6,0.4,3.2-2,4.1c-3,1.1-6,2.2-9.1,2.8
		c-13,2.7-26.2,4.1-39.5,4.4c-8.3,0.2-16.5-0.8-24.3-4.2c0-3.4,2.8-3.4,5-3.9c3.3-0.8,6.7-0.3,10,0.3
		C53.8,367.6,51.6,366.2,52.4,366.2"/>
	<path class="st6" d="M41,327.6c3-4,6.8-6.4,10.8-8.2c3.9-1.8,8.1-2.9,12.4-3.2c5.3-0.4,10.5-1,15.7,0c5,1,10,2.2,14.6,4.5
		c3.3,1.7,6.2,3.8,9.1,7.1c-4-0.6-7-2.4-10.4-2.9c-3.5-0.6-6.9-1.3-10.4-1.6c-3.5-0.3-7-0.4-10.5-0.4c-3.5,0-7,0.1-10.5,0.4
		c-3.5,0.3-7,0.9-10.4,1.6C48.1,325.5,44.8,326.6,41,327.6"/>
	<path class="st7" d="M41.1,332.9c2.5-2.2,7.1-3.9,14.5-5c15.3-2.4,34.9-1.5,44.2,3.1C90.1,334.6,51.8,335.8,41.1,332.9"/>
	<path class="st8" d="M36,327.3c-1-5.4-1.9-10.3-2.7-15.1c-1.8-11.4-3.2-22.8-3.7-34.3c0-0.8-0.1-1.6-0.2-2.4
		c-0.2-4.9-0.5-4.8,4.5-4.8c2.4,0,4.8,0,7.2,0.7c-0.6,0.2-1.2,0.5-1.8,0.7c-1.4,0.3-2.8,0.5-4.2,0.8c-0.9,0.2-1.3,0.8-1.3,1.7
		c0.1,2.4,0,4.8,0.4,7.2c1.5,10.4,3,20.9,4.6,31.3c0.4,2.7,1.2,5.3,1.6,8c0.1,0.7,0,1.7-0.4,2.2C38.9,324.5,37.6,325.7,36,327.3"/>
	<path class="st6" d="M36.6,234.3c2.1,1.8,2.5,3.5,1.7,5.8c-1.8,5.1-2.8,10.4-2.7,15.9c0,2.8,0.1,3.3,3,3.9c2.5,0.6,5,0.9,7.5,1.2
		c2.2,0.3,4.5,0.3,6.7,0.6c1.8,0.2,2.8,2.3,2,4c-0.2,0.3-0.7,0.6-1.1,0.7c-0.6,0.1-1.3,0.1-1.9,0.1c-6.1,0-12.1,0-18.2,0
		c-0.8,0-1.6,0-2.4-0.1c-1-0.1-1.8-0.5-1.8-1.8c0-1.1,0-2.2,0-3.3c0.4-6.9,1.3-13.6,3.5-20.2C33.8,238.8,34.8,236.5,36.6,234.3"/>
	<path class="st9" d="M88.9,198c-2.3-0.5-4.7-0.8-7-1.4c-1.2-0.3-2.4-0.8-3.6-1.2c-8.2-3.1-15.9-1.5-23.4,2.3
		c-2.9,1.5-5,3.9-6.8,6.5c-3.2,4.6-5.3,9.7-6.4,15.3c-0.4,2.3-1.2,4.6-1.8,6.9c-4.8-16.7,8.5-37.6,30.3-36.7
		c6.4,0.3,12.1,2.5,17.1,6.5C88,196.6,88.4,197.3,88.9,198"/>
	<path class="st10" d="M61.9,253c0.9,1.3,1,2.6,0.7,4.1c-0.4,1.9-0.7,3.8-0.7,5.7c-0.1,5.7-0.1,11.5,0,17.2c0,2.1,0.4,4.1,0.6,6.1
		c0.1,1.3,0.2,2.5,0.2,3.8c0.2,4.9-0.3,9.9,0.8,14.8c0.5,2.1,0.2,4.5,0.3,6.7l-0.2,0c-0.8,0.6-2,0.1-2.8,0.7
		c-0.8,0.1-1.6,0.5-1.9-0.6c-0.2-0.6-0.2-1.3-0.2-1.9c-0.2-18.2-0.4-36.4-0.6-54.7c0-0.5,0-1,0-1.4c0.2-1,0.8-1.2,1.7-1
		C60.7,252.7,61.3,252.9,61.9,253"/>
	<path class="st11" d="M58.9,344.8c0.1-0.3,0.1-0.6,0.3-0.9c2.8-5.5,2.8-5.5,9-5.9c7.5-0.5,15-1,22.4-1.6c3.5-0.3,6.9-1,10.4-1.6
		c1.3-0.2,2.2,0.2,2.7,1.3c1.5,3.2,3,6.3,4.4,9.5c1.3,3,0.8,6.3,0.7,10.4c-0.8-1.7-1.3-2.7-1.7-3.7c-1.2-3.2-2.8-6.1-5-8.7
		c-2.6-3.1-5.7-4.9-10-4.4c-7,0.8-14,1.2-21,2c-4.4,0.5-8.3,2.2-11.2,5.8c-0.3,0.3-0.7,0.6-0.8,1.1c-0.1,0.3-0.2,0.5-0.4,0.7
		c-0.9,0.2-1.3,0-0.9-1c0.1-0.6,0.3-1.1,0.4-1.7C58.5,345.5,58.7,345.2,58.9,344.8"/>
	<path class="st12" d="M58.1,338.7c-2.9,4.7-4.4,9.6-5.5,14.5c-0.6,2.5-0.9,5-1.4,7.5c-0.2,0.9-0.8,1.4-1.7,1.2
		c-4.1-0.9-4-0.5-3.6-4.5c0.4-3.8,1.1-7.6,2.4-11.2c0.6-1.6,0.2-2.2-1.2-3.2c-1.9-1.3-4-1.9-6.3-2.1c-0.7-0.1-1.2-0.6-1.1-1.3
		c0.2-0.7,0.6-1.4,1.1-2c0.1-0.2,0.6-0.2,0.9-0.1C47,337.9,52.2,338.2,58.1,338.7"/>
	<path class="st13" d="M52.5,34.6c1.4,1.9,2,2.8,2.7,3.6c1.5,1.7,1.6,3.5,1.3,5.7C55.6,50,55,56.2,55.1,62.4c0.1,2.7,0,5.4,0,8.1
		c0,2.3-0.6,2.7-2.9,2.5c-0.9-0.1-1.5-0.5-1.5-1.5c0-1,0-1.9,0-2.9c-0.5-9.4,0.6-18.7,0.7-28.1C51.4,38.9,52,37.3,52.5,34.6"/>
	<path class="st14" d="M54.3,88.8c4.5-0.1,8.9-0.3,13.4-0.3c4.9,0,9.9,0.2,14.8,0.3c1.5,0,2.3,0.8,2.9,2.1c0.7,1.5-0.4,3.4-1.9,3.6
		c-0.5,0.1-1,0.1-1.4,0.1c-10.5,0-21-0.1-31.6-0.1c0.8-2.5,2.9-2,4.7-1.9c1.6,0.1,3.2,0.8,5.1,0.5c0.5,0-0.5-0.9-0.2-0.4
		c0.1,0.2,0,0.3-0.4,0.3C57,92.7,53.5,93.5,54.3,88.8"/>
	<path class="st15" d="M50.4,78.5c7.3,0,14.6,0.1,21.9,0c3,0,6-0.2,9.1-0.2c2.2,0,3.9,2.4,3.2,4.7c-0.1,0.3-0.3,0.6-0.6,0.7
		c-0.4,0.2-0.9,0.3-1.4,0.3c-6.4,0-12.7-0.1-19.1-0.2c-3.2-0.1-6.3-0.3-9.5-0.5c3-2.7,6.1-0.4,8.7-0.6c-2.7-0.7-6.2-0.5-9.3-1.9
		C52.3,80.2,50.6,80.4,50.4,78.5"/>
	<path class="st16" d="M101.7,298.5c-1.8-5.1-1.7-10.4-2.2-15.6c-0.8-8.4-2.2-16.7-4.4-24.9c-0.4-1.4-0.5-2.8-0.6-4.2
		c0-0.2,0.4-0.5,0.6-0.6c0.3-0.1,0.8-0.1,0.9,0.1c0.5,0.7,1.2,1.5,1.4,2.4c1.2,4.6,2.6,9.2,3.5,13.9c1,5.5,1.5,11.1,2.2,16.6
		C103.6,290.3,103,294.3,101.7,298.5"/>
	<path class="st17" d="M107.4,267.4c-1.8-7.1-3.5-14.2-5.3-21.2c-0.5-2-0.9-4.3-2.1-5.8c-2.1-2.7-1-4.5,0.9-6.6
		c1.9,1.7,2.8,3.9,3.6,6.1c1.5,4,2.5,8.2,3,12.5C108.1,257.4,108.3,262.5,107.4,267.4"/>
	<path class="st18" d="M25.6,329.7c3.4-0.9,5.8-0.1,7.6,3.4c1.2,2.2,1.3,3.9,0.4,6.1c-1.2,2.7-1.1,2.8-4.1,2.8
		c-1.4,0-2.8-0.1-4.2-0.2C24.5,337.7,22.7,333.7,25.6,329.7"/>
	<path class="st19" d="M52.4,366.2c0.9,0.5,1.8,0.9,3.4,1.8c-4.5,0-8.2-0.1-11.9,0c-2.6,0.1-5.4,0.3-7.1,2.9
		c-3.8-1.1-5.1-2.6-4.7-5.8c0.3-2.2,1.8-2.9,4-2.4c5.1,1.2,10.2,2.2,15.3,3.2C51.8,366.1,52.1,366.1,52.4,366.2"/>
	<path class="st20" d="M56.3,16.9c-1.5,1.7-1.6,3.7-0.9,5.8c0.7,2.3,1.5,4.5,2.3,6.7c0.4,1.3,0.8,2.7,1.1,4.1
		c-3.3-4.5-6.6-9-9.9-13.5c-1.4-1.9-1-4.3,0.9-5.9c1.6-1.4,3.8-1.1,5.5,0.8C55.8,15.3,56,16.2,56.3,16.9"/>
	<path class="st21" d="M17.4,327.1c0,1.6,0,3.2,0,4.7c0,1.3-0.7,1.7-2.3,1.7c-1.6,0-2.1-0.4-2.2-1.8c-0.1-3-0.1-6-0.1-9
		c0-1.9,2.3-3.3,4-2.4c0.3,0.2,0.6,0.7,0.6,1.1c0.1,0.9,0,1.9,0,2.8v2.8H17.4z"/>
	<path class="st22" d="M32.2,184.2c6.4,0,5.5,0,5.5,5.8c0,0.8,0.1,1.6-0.1,2.4c-0.1,0.5-0.7,1.3-1.1,1.3c-2.9,0.4-5.9,1.4-8.8,0.2
		C31.6,191.8,30,187.1,32.2,184.2"/>
	<path class="st23" d="M50.4,78.5c0.2,0.2,0.4,0.6,0.7,0.6c4.3,0.3,8.2,2.5,12.4,3.2c0.1,0,0.1,0.3,0.2,0.4
		c-3.1,0.2-6.3,0.4-9.5,0.6c-1.5,0-3.1,0.1-4.6-0.1c-1.1-0.1-2-0.8-2.1-2.1c-0.1-1.1,0.2-2.2,1.3-2.8C49.1,78,49.8,78.4,50.4,78.5"
		/>
	<path class="st24" d="M26.3,312.4c1-0.2,1.5,0.4,1.6,1.2c0.4,2,0.7,4,1.1,6c1.2,6.3,0.7,6.7-6.1,5.4c1.4-2,1.1-4.3,1.2-6.5
		C24.3,316.3,24.3,314,26.3,312.4"/>
	<path class="st25" d="M74.4,351.3c0.1,2.2-0.8,3.5-2.1,4c-1.2,0.4-2.8-0.1-3.7-1.4c-1.3-1.7-1.2-3.9,0.1-5.7
		c1.5-1.9,3.2-1.8,4.4,0.3C73.7,349.6,74.1,350.7,74.4,351.3"/>
	<path class="st26" d="M32.2,184.2c-0.1,2.3-0.2,4.7-0.3,7c-0.1,2.1-0.3,2.4-2.4,2.6c-0.6,0.1-1.2,0.1-1.9,0.1
		c-0.1-2.8-0.2-5.6-0.3-8.3c0-1.1,0.5-1.8,1.7-1.7C30.1,183.9,31.1,184,32.2,184.2"/>
	<path class="st27" d="M54.3,88.8c0,1.5,0.7,2.4,2.1,2.9c1.5,0.5,3,0.9,5.3,1.6c-3.3,0.3-5.7,0.2-8.2,0.2c-1.1,0-2.3-0.1-3.1,0.9
		c-1.6,0.4-2.4-0.8-2.7-1.9c-0.2-1,0-2.1,0.4-3.1c0.1-0.4,1-0.8,1.6-0.8C51.1,88.6,52.7,88.8,54.3,88.8"/>
	<path class="st28" d="M26.3,312.4c-0.3,3.5-0.7,7-0.8,10.4c0,2-1.3,1.9-2.5,2.1c-1-3.9-0.3-7.9,0-11.8c0-0.3,0.6-0.8,1-0.8
		C24.7,312.3,25.5,312.4,26.3,312.4"/>
	<path class="st29" d="M32.1,198.3c0.6-0.1,1.2-0.2,1.8-0.2c3.1-0.4,4.6-0.2,3.1,4.4c-0.1,0.4-0.4,0.9-0.6,1.3
		c-0.8,1.6-0.9,1.7-2.9,1.4c-0.6-0.1-1.2-0.3-1.8-0.4C30.6,202.6,30.5,200.4,32.1,198.3"/>
	<path class="st30" d="M32.2,174.4c0.6-0.1,1.2-0.2,1.9-0.2c3.8-0.1,4,0.1,3.8,3.9c-0.1,1.8-0.4,2.1-2.3,2.1c-1.3,0-2.5-0.2-3.8-0.3
		C30.7,177.9,30.7,176.1,32.2,174.4"/>
	<path class="st31" d="M23.4,189.9c0,0.6,0,2-0.3,3.4c-0.1,0.4-0.9,0.7-1.5,0.8c-0.3,0-1-0.4-1-0.7c-0.1-2.8-0.1-5.7,0-8.5
		c0-0.3,1-0.8,1.5-0.7c0.5,0.1,1.2,0.7,1.2,1.1C23.5,186.5,23.4,187.8,23.4,189.9"/>
	<path class="st32" d="M25.6,329.7c0,2.3,0,4.6-0.1,7c0,1.7-0.1,3.4-0.2,5.1c-0.4,0-0.8-0.1-1.2-0.1l-0.1,0
		c-0.5-3.2-1.1-6.4-1.4-9.6C22.3,329.5,22.7,329.4,25.6,329.7"/>
	<path class="st33" d="M32.1,198.3c-0.1,2.2-0.3,4.3-0.4,6.5c-0.3,0-0.6,0.1-1,0.1c-1.2,0.1-2.3-0.1-2.4-1.6c0-0.5-0.1-1-0.2-1.4
		C27.7,197.9,27.7,197.9,32.1,198.3"/>
	<path class="st34" d="M32.2,174.4c-0.2,1.8-0.3,3.6-0.5,5.5c-0.8,0-1.5,0.1-2.3,0.1c-0.9,0-1.5-0.4-1.4-1.4c0-0.9,0.1-1.9,0.3-2.8
		c0.2-1.5,0.5-1.7,2.1-1.7C31,174.1,31.6,174.3,32.2,174.4"/>
	<path class="st0" d="M57.9,347.6c0.3,0.3,0.6,0.7,0.9,1c-0.6,1.6-1.3,3.2-1.9,4.7c-0.1,0.1-0.2,0.2-0.5,0.4"/>
	<path class="st0" d="M61,312.2c0.8-1,1.8-1,2.8-0.7C63,312.4,62,312.3,61,312.2"/>
	<polyline class="st18" points="24,341.6 24.1,341.4 24.1,341.6 24,341.6 	"/>
	<path class="st35" d="M58.9,344.8c-0.2,0.4-0.4,0.8-0.6,1.2C58.5,345.6,58.7,345.2,58.9,344.8"/>
	<path class="st35" d="M59.1,347.9c0.3-0.4,0.5-0.7,0.8-1.1L59.1,347.9z"/>
	<path class="st36" d="M88,119.4c0,3.5,0.1,5.9-1,8.1c-0.1,0.2-0.4,0.5-0.7,0.5c-0.3,0-0.7-0.2-0.8-0.4c-0.6-1.8-1.2-3.6-1.6-5.5
		c-0.4-1.9-0.6-3.8-0.9-5.6c-0.5-3-1.2-5.9-3.1-8.4c-0.7-0.9-0.7-1.8,0.2-2.6c0.8-0.7,1.9-0.8,2.6-0.2c1.1,0.9,2.3,1.9,2.8,3.1
		c1,2.7,1.6,5.5,2.2,8.2C88.1,117.9,88,119.2,88,119.4"/>
	<path class="st37" d="M81.3,115.1c0,1.6-0.7,3-1.5,3.2c-1,0.3-2.2-1.2-2.5-3c-0.3-2.1,0.6-3.7,2-3.6
		C80.6,112,81.3,113.1,81.3,115.1"/>
	<path class="st38" d="M70.1,230.8c-2.7-0.6-4-2.2-3.8-5.1c0.2-4.8,0.1-9.6,0.1-14.4c0-1.5,0.3-2.8,1.5-3.9c2-1.8,2.7-2.1,5-0.5
		c4,2.7,7.9,5.4,11.8,8.2c2.1,1.5,2.1,2.1,0.7,4.8C81.5,225.3,76.4,228.9,70.1,230.8"/>
	<path class="st39" d="M62,219.9c0,2.6,0,5.1,0,7.7c0,1.2-0.8,2-2,2.4c-2.3,0.9-4.7,0.8-7.1,0.4c-2.3-0.3-3.5-2-3.4-4.4
		c0.1-3.7,0.2-7.3,0.2-11c0-0.2,0-0.3,0-0.5c0.8-7.9,1.8-7.6,9.1-7.3c1.7,0.1,2.5,0.9,2.8,2.7c0.2,1.4,0.4,2.8,0.4,4.3
		C62.1,216.1,62.1,218,62,219.9L62,219.9z"/>
	<path class="st40" d="M95.8,219.7c-0.5,2.3-0.8,4.7-1.4,7c-0.2,0.9-0.7,1.8-1.4,2.4c-0.5,0.5-1.4,0.7-2.1,0.6c-0.4-0.1-1-0.9-1-1.4
		c-0.1-1.1-0.1-2.2,0.2-3.3c1.4-5.7,0.6-11-2.1-16.1c-0.3-0.6-0.7-1.2-0.7-1.7c0-0.6,0.2-1.3,0.6-1.6c0.4-0.3,1.4-0.4,1.7-0.2
		c1.2,1,2.4,2.1,3.2,3.4C94.8,212.1,95.5,215.8,95.8,219.7"/>
	<path class="st41" d="M70.1,230.8c3.6-2.5,7.2-4.9,10.7-7.4c1.5-1.1,2.9-2.3,4.4-3.5c1,1.7,0,3.2-0.9,4.4c-2.3,2.9-5.1,5.2-8.4,6.9
		C73.9,232,72,232.1,70.1,230.8"/>
	<path class="st42" d="M64.8,269.3c0,0,0-0.8,0.2-1.6c0.8-2.8,3.5-5.4,5.4-5.3c3.3,0,6.3,2.1,7.3,5.1c1,2.8-0.2,6.2-2.8,7.9
		c-2,1.3-4,1.8-6.2,0.5C66.5,274.7,64.6,273.1,64.8,269.3"/>
	<path class="st43" d="M77.5,291.7c-0.3,1.2-0.5,2.4-0.9,3.6c-1.6,4.8-8.5,4.7-10.9,1.2c-2-2.9-1-9,2.2-10.5
		C72.3,284,77.6,286.5,77.5,291.7"/>
	<path class="st44" d="M80.1,217.8c-2.8,1.9-5.3,3.6-7.7,5.3c-0.5,0.3-1.4-0.1-1.4-0.7c0-3.1-0.1-6.3-0.1-9.4c0-0.7,0.7-1.1,1.3-0.7
		C74.8,214.1,77.3,215.9,80.1,217.8"/>
	<path class="st45" d="M57.6,218.9c0,1.7,0,3.5,0,5.2c0,1.5-0.5,1.9-2.1,1.9c-1.1,0-1.8-0.5-1.9-1.6c-0.1-1.6-0.1-3.2-0.1-4.7
		c0-1.9-0.1-3.8-0.1-5.7c0-2,0.5-2.4,2.6-2.2c0.9,0.1,1.4,0.5,1.5,1.5C57.6,215.1,57.6,217,57.6,218.9L57.6,218.9z"/>
	<path class="st46" d="M74.5,270c0.1,1.9-1.3,3.6-3,3.6c-1.8,0-3.3-1.6-3.4-3.3c-0.1-1.7,1.3-2.8,3.7-2.9
		C73.4,267.3,74.4,268.4,74.5,270"/>
	<path class="st47" d="M71.7,295.8c-2.7-0.1-4.7-3.2-3.5-5.4c1.1-2,3.2-2.3,4.8-0.8c0.6,0.5,1.1,1.2,1.5,1.9
		C75.5,293.3,73.9,295.8,71.7,295.8"/>
</g>
</svg>
