<?xml version="1.0" encoding="utf-8"?>
<!-- Generator: Adobe Illustrator 22.1.0, SVG Export Plug-In . SVG Version: 6.00 Build 0)  -->
<svg version="1.1" id="Capa_1" xmlns="http://www.w3.org/2000/svg" xmlns:xlink="http://www.w3.org/1999/xlink" x="0px" y="0px"
	 viewBox="0 0 268 279" style="enable-background:new 0 0 268 279;" xml:space="preserve">
<style type="text/css">
	.st0{clip-path:url(#SVGID_2_);fill:#FFFFFF;}
	.st1{clip-path:url(#SVGID_2_);}
	.st2{clip-path:url(#SVGID_2_);fill:#FEFEFE;}
	.st3{clip-path:url(#SVGID_2_);fill:#FE9900;}
	.st4{clip-path:url(#SVGID_2_);fill:#CDCDCD;}
	.st5{clip-path:url(#SVGID_2_);fill:#FDFEFE;}
	.st6{clip-path:url(#SVGID_2_);fill:#F3FCFC;}
	.st7{clip-path:url(#SVGID_2_);fill:#FAFBFB;}
	.st8{clip-path:url(#SVGID_2_);fill:#FDFDFD;}
	.st9{clip-path:url(#SVGID_2_);fill:#FCFDFD;}
	.st10{clip-path:url(#SVGID_2_);fill:#FE9901;}
	.st11{clip-path:url(#SVGID_2_);fill:#FCFCFC;}
	.st12{clip-path:url(#SVGID_2_);fill:#FCFEFE;}
	.st13{clip-path:url(#SVGID_2_);fill:#EDF5F5;}
	.st14{clip-path:url(#SVGID_2_);fill:#C4C9C9;}
	.st15{clip-path:url(#SVGID_2_);fill:#C3C9C9;}
	.st16{clip-path:url(#SVGID_2_);fill:#E6F0F0;}
	.st17{clip-path:url(#SVGID_2_);fill:#F5F6F6;}
	.st18{clip-path:url(#SVGID_2_);fill:#F9F8F6;}
	.st19{clip-path:url(#SVGID_2_);fill:#F7F8F8;}
	.st20{clip-path:url(#SVGID_2_);fill:#F5F7F7;}
	.st21{clip-path:url(#SVGID_2_);fill:#F7FBFB;}
	.st22{clip-path:url(#SVGID_2_);fill:#F0F3F3;}
	.st23{clip-path:url(#SVGID_2_);fill:#F6F6EF;}
	.st24{clip-path:url(#SVGID_2_);fill:#F0F1F1;}
	.st25{clip-path:url(#SVGID_2_);fill:#F2F4F4;}
	.st26{clip-path:url(#SVGID_2_);fill:#F3F5F5;}
	.st27{clip-path:url(#SVGID_2_);fill:#F0F4F4;}
	.st28{clip-path:url(#SVGID_2_);fill:#FAF9F9;}
	.st29{clip-path:url(#SVGID_2_);fill:#FAF8F8;}
	.st30{clip-path:url(#SVGID_2_);fill:#A5A4A4;}
	.st31{clip-path:url(#SVGID_2_);fill:#B3B9B9;}
	.st32{clip-path:url(#SVGID_2_);fill:#EAE9E9;}
	.st33{clip-path:url(#SVGID_2_);fill:#AFB5B5;}
	.st34{clip-path:url(#SVGID_2_);fill:#A0A1A1;}
	.st35{clip-path:url(#SVGID_2_);fill:#060401;}
	.st36{clip-path:url(#SVGID_2_);fill:#FDF9F5;}
	.st37{clip-path:url(#SVGID_2_);fill:#120A00;}
	.st38{clip-path:url(#SVGID_2_);fill:#281700;}
	.st39{clip-path:url(#SVGID_2_);fill:#2F2D2D;}
	.st40{clip-path:url(#SVGID_2_);fill:#251E1E;}
	.st41{clip-path:url(#SVGID_2_);fill:#1E1A1A;}
	.st42{clip-path:url(#SVGID_2_);fill:#2A2828;}
	.st43{clip-path:url(#SVGID_2_);fill:#231C1C;}
	.st44{clip-path:url(#SVGID_2_);fill:#181313;}
	.st45{clip-path:url(#SVGID_2_);fill:#0E0E0E;}
	.st46{clip-path:url(#SVGID_2_);fill:#1C1919;}
</style>
<g>
	<defs>
		<rect id="SVGID_1_" x="-542.1" y="-280.2" width="1920" height="1080"/>
	</defs>
	<clipPath id="SVGID_2_">
		<use xlink:href="#SVGID_1_"  style="overflow:visible;"/>
	</clipPath>
	<path class="st0" d="M228,8.4c3.1-1.7,6.1-2.8,9.7-2.2c2.6,0.4,4.9,1.5,6.8,3.2c2.6,2.4,4.8,5.2,6.1,8.5c2.4,6.3,4.9,12.5,7.2,18.8
		c3.2,8.7,5.9,17.6,9.5,26.1c2.9,6.8-0.7,15.7-6.4,18.7c-1,0.5-2,1-3,1.4c-3.1,1.1-3.1,1.1-3.2,4.1c-0.1,3.8-0.1,7.7-0.3,11.5
		c-0.1,2.5-0.5,5.1-1.1,7.6c-1.8,7.5-8.2,13-15.9,13.8c-1,0.1-1.9,0.2-2.9,0.1c-2.8-0.5-4,1.1-4.9,3.4c-4.3,10.5-10.8,19.5-19.3,27
		c-1.1,1-2.2,1.9-3.3,2.7c-4.2,3.2-8.8,4.3-14,2.4c-0.2-0.1-0.6,0-1,0.1c-0.9,3.3-1.9,6.6-2.7,10c-0.8,3.3-2.9,5.2-6.2,5.9
		c-0.6,0.1-1.3,0.2-1.9,0.3c-1.1,0.3-1.8,1.4-1.7,2.6c0,0.3,0.1,0.6,0.2,0.9c0.9,2.3,0.9,4.7,0.2,7c-0.3,1,0.4,1.9,1.5,2
		c1.3,0.1,2.6,0.1,3.8,0.1c6.6,0.1,13.1,0.1,19.7,0.2c7.4,0.2,10.6,3.8,10.2,11.3c0,0.5-0.1,1-0.1,1.4c-0.3,1.9-1,3.9-0.7,5.7
		c0.3,1.9,2.8,2.3,4.2,3.7c4.4,4.3,5.1,12.3,1.9,16.8c-5.2,7.4-10.2,15.1-15.4,22.6c-5.4,7.9-11,15.7-16.5,23.5
		c-1,1.4-2.1,2.8-3.2,4.2c-5.1,6.5-15.3,7.8-21.2,1.9c-1.3-1.3-2.4-1.6-4.2-1.2c-4.3,1.1-8.7,1.8-13.1,2.7c-0.3,0.1-0.6,0.1-0.9,0.2
		c-5.4,2.1-11,1.4-16.6,1.5c-0.8,0-1.6,0-2.4-0.2c-6.5-1.4-13.1-2.9-19.6-4.4c-1.4-0.3-2.3,0-3.4,1c-5,4.6-11,5.4-16.8,2.5
		c-2-1-3.7-2.5-5-4.3c-2.9-3.8-5.8-7.6-8.5-11.6C65.6,250.5,57.8,239,50,227.6c-0.8-1.2-1.6-2.4-2.4-3.6c-3.1-4.8-2.7-9.7-0.4-14.6
		c1.1-2.2,3-3.7,5.1-4.9c1-0.6,1.2-1.3,1-2.4c-0.3-2.8-0.8-5.7-0.8-8.6c0-5.1,3.8-8.7,8.4-8.7c0.6,0,1.3-0.1,1.9-0.1
		c4.2-0.1,8.3-0.2,12.5-0.2c2.6,0,5.1,0,7.7,0c1.4,0,3.1,0.2,4.2-0.5c1.6-0.9,0-2.6,0.2-4c0.2-1.6,0.3-3.2,0.6-4.7
		c0.4-2.4,0-3-2.5-3.6c-0.3-0.1-0.6-0.1-0.9-0.1c-3.3-0.6-5.4-2.6-6.2-5.9c-0.6-2.3-1.1-4.7-1.6-7c-0.3-1.1-0.6-2.1-0.8-2.9
		c-1-0.6-1.5,0-2.1,0.1c-4.4,1.2-8.6,0.5-12.3-2.2c-2.7-2-5.3-4.2-7.6-6.5c-6.5-6.5-11.6-14-15.4-22.4c-0.4-0.9-0.8-1.7-1.1-2.6
		c-0.6-1.6-1.7-2.3-3.3-2.2c-0.8,0-1.6,0-2.4,0c-9.2-0.2-16-7.1-17.3-13.9c-0.4-2.3-0.9-4.7-1-7.1c-0.3-4.5-0.3-8.9-0.4-13.4
		c0-1.2-0.3-2.1-1.7-2.4c-1.2-0.3-2.4-0.8-3.5-1.4c-6.4-3.2-9.5-11.7-7.1-18C2.6,58.4,4.5,53,6.5,47.6c3.2-8.7,6.4-17.4,9.6-26.1
		c1.3-3.6,3-7,5.5-10c3.9-4.7,10-7.2,16.7-3.9C39.8,8.4,40.8,8,42,7.1c5.1-3.5,10.6-5.8,16.7-6.7C60.5,0.2,62.3,0,64,0
		c45.6,0,91.1,0,136.7,0.1c4.6,0,9.2,0.5,13.8,1.5c4.5,0.9,8.4,2.9,12,5.7C227,7.7,227.5,8,228,8.4"/>
	<path class="st1" d="M248.7,78.2c0,1.5-0.1,3.1-0.1,4.7c-0.1,5.3-0.1,10.5-0.2,15.8c-0.1,1.9-0.3,3.8-0.7,5.7
		c-1.5,6-5.9,9.5-12,9.9c-2.4,0.2-4.8,0.3-7.2,0.4c-1.5,0-2.3,0.8-2.7,2.1c-3.6,11.2-10,20.7-18.6,28.6c-1.6,1.5-3.4,2.9-5.3,4.1
		c-3.2,2-5.3,1.7-8.2-0.8c-1.4-1.3-2.9-2.6-4.3-3.8c-0.9-0.8-1.8-0.4-2,0.9c-0.7,3.6-1.3,7.2-2,10.8c-0.4,2.2-1.1,4.3-1.7,6.5
		c-0.8,2.8-1,2.9-4,3.2c-0.3,0-0.6,0-1,0c-1.1,0.1-2.5-0.2-3.2,0.4c-0.7,0.5-0.5,2-1,3c-0.7,1.4-1.5,2.8-2.4,4.3
		c0.4,0.7,1,1.6,1.5,2.6c0.7,1.5,1.1,3.1,0.3,4.6c-0.7,1.4-0.9,2.6,0,4c1.1,1.6,0.4,3.4,0.3,5.4c1.7,0.1,3.3,0.1,4.9,0.1
		c8.2,0,16.3,0.2,24.5,0c5.7-0.1,6.2,2.5,5.6,6.4c-0.5,3.2-1.1,6.3-1.6,9.4c-0.3,1.7-0.1,1.9,1.5,2.3c0.8,0.2,1.6,0.3,2.3,0.6
		c4.6,1.7,6.4,6.8,4,11c-1.3,2.2-2.7,4.3-4.2,6.4c-9.2,13.3-18.4,26.5-27.6,39.8c-1.1,1.6-2.2,3.2-3.6,4.5c-2.3,2.2-5.1,3.2-8.4,2.2
		c-3.2-1-4.7-3.1-4.9-6.6c-0.9,0.2-1.7,0.3-2.4,0.5c-5.6,1.9-11.3,3.4-17.2,4.1c-1.9,0.2-3.8,0.7-5.6,1.2c-4.6,1.1-9.2,0.8-13.8,0.3
		c-3.8-0.4-7.5-1.3-11.3-2.2c-5-1.2-9.9-2.5-15-3.8c-0.1,0.5-0.2,1.2-0.4,1.7c-1.1,3.7-4.4,5.7-8.1,5c-3-0.5-5.2-2.4-6.9-4.8
		c-2.5-3.4-4.9-6.7-7.3-10.1c-7.8-11.3-15.6-22.6-23.4-34c-0.8-1.2-1.6-2.4-2.3-3.6c-3.1-5.2-1-10.4,4.7-12.1c3-0.9,3-0.9,2.4-4
		c-0.5-3.1-1.1-6.3-1.3-9.5c-0.2-3.5,0.9-4.7,4.3-4.8c4.2-0.1,8.3-0.1,12.5-0.1c5.6,0,11.2,0,16.8,0c0.3,0,0.6-0.1,1.2-0.3
		c-0.1-2.1-0.5-4.3,0.8-6.3c0.3-0.4,0.2-1.3,0-1.7c-1.6-2.8-0.8-5.2,0.9-7.6c0.6-0.8,0.5-1.4-0.2-2c-1.5-1.4-2-3.2-2.1-5.2
		c0-0.4-0.7-1.1-1.2-1.2c-1.6-0.2-3.2-0.2-4.8-0.3c-1.4-0.1-2.2-0.7-2.7-2.2c-1.8-5.2-2.5-10.5-3.6-15.9c-0.2-1.2-0.7-2.4-1-3.6
		c-1.7-0.2-2.3,1.4-3.4,2.2c-0.9,0.7-1.7,1.4-2.5,2.2c-2.3,2.3-4.8,2.2-7.5,0.9c-1.4-0.7-2.7-1.7-3.9-2.7
		c-9.1-7.9-15.9-17.5-20-28.8c-0.3-0.7-0.5-1.5-0.8-2.3c-0.3-0.9-0.9-1.3-1.8-1.3c-2.2-0.1-4.5-0.3-6.7-0.4
		c-8.3-0.4-13.3-5.2-13.8-13.5c-0.3-4.6-0.2-9.3-0.3-13.9c-0.1-2.8,0.3-5.7-0.3-8.5c-1.9-0.2-3.6-0.3-5.3-0.6
		c-6.1-1.3-8.9-6.5-6.8-12.3C11.4,52.2,16.2,39,21,25.8c0.7-1.9,1.4-4,2.4-5.8c1.1-1.9,2.3-3.8,3.9-5.4c3-3,6.7-3,9.8-0.2
		c0.8,0.7,1.5,1.6,2.4,2.6c0.8-0.7,1.5-1.3,2.2-1.8c4.6-3.8,9.7-6.9,15.6-8c2.8-0.5,5.7-0.8,8.6-0.8c23,0,46,0.1,69.1,0.1
		c21.6,0,43.2,0,64.7,0.1c3.8,0,7.6,0.5,11.5,0.8c4.8,0.4,8.9,2.5,12.4,5.7c1,0.9,1.9,1.7,2.8,2.6c1.9,1.7,1.9,1.7,3.6-0.2
		c0.2-0.2,0.4-0.5,0.6-0.7c3.2-3.1,7-3.2,10.2-0.1c1.9,1.8,3.4,3.8,4.3,6.3c1.7,4.5,3.5,8.9,5.2,13.4c3.7,10.2,7.3,20.4,11,30.7
		c0.5,1.3,0.9,2.8,0.9,4.2c-0.1,4.6-2.8,7.7-7.5,8.6C252.8,78.1,250.9,78.1,248.7,78.2"/>
	<path class="st0" d="M168.7,85.1c-0.2,8.1-2.1,17-6.7,25.3c-3.1,5.7-7.2,10.5-12.6,14.2c-10.8,7.3-23.7,6.7-33.7-1.7
		c-5.4-4.5-9.2-10.2-11.6-16.7c-5.7-15.8-4.9-31.3,2.7-46.3c2.8-5.5,6.6-10.1,11.5-13.9c11.6-8.7,26.1-7.9,36.7,2.1
		c6,5.7,9.6,12.7,11.8,20.5C168.1,73.6,168.8,78.7,168.7,85.1"/>
	<path class="st2" d="M117.8,181.6c-1.6-1.4-3.5-1.4-5.4-1.4c-4.2,0-8.3,0-12.5,0c-0.6,0-1.6-0.4-1.6-0.6c0-0.7,0.1-1.6,0.6-2.1
		c1.7-1.7,3.7-3,6.3-2.9c2.7,0.1,5.4,0.1,8.1,0c1.1,0,2.2-0.3,3.2-0.6c0.4-0.1,0.8-0.7,0.8-1.1c0-0.4-0.4-1-0.8-1.1
		c-1.2-0.3-2.5-0.6-3.7-0.6c-2.9-0.1-5.8-0.1-8.6,0c-2.2,0.1-4.1-0.7-5.8-1.8c-0.5-0.3-0.7-1.4-0.6-2.1c0-0.5,0.7-1.1,1.2-1.3
		c0.5-0.2,1.3-0.2,1.9-0.2c6.7,0.1,13.4,0.1,20.1,0.2c1.1,0,1.8,0.3,2.1,1.5c0.4,1.6,1.7,2.2,3.3,2.2c4.8,0,9.6,0,14.4,0
		c2,0,3.4-0.6,4-2.7c0.3-1,1-1,1.9-1c6.6,0,13.1-0.1,19.7-0.2c0.8,0,1.6-0.1,2.4,0.2c0.5,0.2,1.2,0.8,1.2,1.2
		c0.1,0.7-0.1,1.7-0.6,2.1c-1.1,0.9-2.5,1.2-4,1.2c-2.9,0-5.8,0-8.6,0.2c-2,0.1-4.1,0.6-6.1,0.9c-0.2,0-0.4,0.5-0.4,0.7
		c0,0.3,0.1,0.7,0.4,0.8c0.6,0.3,1.2,0.5,1.8,0.6c3.5,0.2,7,0.5,10.5,0.6c2.8,0.1,4.7,1.7,6.4,3.6c0.9,1.1,0.3,2.7-1.2,2.9
		c-1.3,0.2-2.5,0.2-3.8,0.2c-2.4,0-4.8,0-7.2,0.1c-1.1,0.1-2.1,0.5-3.1,0.9c-0.7,0.3-0.6,1.7,0.1,2c1,0.4,2.1,0.7,3.2,0.7
		c2.9,0.1,5.8,0,8.6,0.1c0.9,0,1.8,0.3,2.7,0.8c0.5,0.3,1.2,1.1,1.1,1.4c-0.2,0.6-0.9,1.3-1.5,1.6c-1.6,0.6-3.4,1.1-5.1,1.4
		c-3.8,0.5-7.7,0.9-10.2-3.1c-10.4-9.7-26.2-9.5-36.4,0.3c-0.6,0.6-1.1,1.1-1.7,1.7c-0.7,0.8-1.4,1.2-2.5,1.2
		c-4.4,0.3-8.6-0.2-12.7-1.6c-1.3-0.5-1.5-1.6-0.6-2.6c2.7-2.9,2.7-2.9,7.1-3c2.7,0,5.4,0,8.1-0.1C115.6,183,115.6,183,117.8,181.6"
		/>
	<path class="st3" d="M127.6,185.1c5.6-2.2,11-1.2,16.2,1.3c7.4,3.6,11.8,9.6,13.3,17.7c2.5,14.3-10.7,26.9-25.1,23.8
		c-7.2-1.5-12.9-5.3-16.2-12.2C112.8,202.3,116.9,191.5,127.6,185.1"/>
	<path class="st4" d="M87.4,156.1c-0.3-0.4-0.7-0.7-0.7-1.1c-0.8-4.5-1.6-9.1-2.4-13.6c-0.2-1.1,0.1-1.8,0.9-2.4
		c6.6-5.7,13.2-11.5,20-17.4c2,1.8,4,3.5,5.9,5.4c0.5,0.5,0.9,1.3,1.1,2c1.9,7.2,3.8,14.4,5.7,21.6c-4.9,2.1-10.2,1.6-15.4,2.3
		C97.4,153.5,91.9,152.7,87.4,156.1"/>
	<path class="st5" d="M57.2,132.8c0.3-0.3,0.5-0.7,0.9-1c6-5,11.9-10.1,17.9-15.1c1.7-1.5,3.5-2.5,6-2.4c5.4,0.2,10.8,0.1,16.3,0
		c1.7,0,2.6,0.8,3.4,2.1c0.5,0.8,0.4,1.5-0.1,2.2c-0.3,0.4-0.7,0.7-1,1c-9.7,8.5-19.4,17-29.2,25.5c-0.7,0.6-1.3,0.7-2.1,0.1
		C65.8,142.7,60.3,137,57.2,132.8"/>
	<path class="st2" d="M218.6,17.7c4,2.2,6.8,5.1,8.9,8.8c3.3,5.8,6.8,11.6,10.1,17.4c2.2,3.9,4,8,4.7,12.5c0.3,1.6,0.5,3.2,0.5,4.8
		c0,11.5,0,23-0.1,34.5c-0.1,6.8,0.9,5.9-5.8,5.9c-0.6,0-1.3,0-1.9,0c-1.3-0.1-1.7-0.4-1.7-1.7c0.1-2.6,0.1-5.1,0.3-7.7
		c1.1-13.8,0.6-27.5-1.5-41.1c-1-6.7-3-13-6.2-19c-2-3.7-4-7.3-5.9-10.9C219.4,20.1,219.1,18.8,218.6,17.7"/>
	<path class="st5" d="M210.5,132.6c-4.1,5.4-8.1,9.5-13,12.9c-0.1,0-0.3,0-0.4-0.1c-10-8.7-19.9-17.3-29.9-26
		c-0.2-0.2-0.5-0.4-0.7-0.7c-0.2-0.2-0.3-0.6-0.3-0.8c0-1.2,2.1-3.4,3.4-3.5c1.1-0.1,2.2-0.1,3.3-0.1c4.3,0,8.6,0.1,12.9-0.1
		c2.3-0.1,4,0.8,5.6,2.2c3.6,3.1,7.1,6.3,10.8,9.5C204.8,128.1,207.5,130.3,210.5,132.6"/>
	<path class="st6" d="M38.9,28.5C44,19.1,51.3,14.1,61,12.4c1.7-0.3,3.5-0.2,5.3-0.2c6.6,0,13.1,0.2,19.7,0.2c38,0,76.1,0,114.1,0.1
		c3.8,0,7.6,0.5,11.5,0.8c1.6,0.1,3.1,0.6,4.4,1.6c-0.5,1.3-1.6,0.8-2.5,0.8c-10.4,0-20.8,0-31.2,0c-30.7-0.1-61.4-0.1-92.1-0.2
		c-7.7,0-15.3-0.1-23-0.4c-2-0.1-3.8,0.3-5.5,1.3C54.3,20.3,47,24.2,38.9,28.5"/>
	<path class="st4" d="M149.8,150.5c0.1-0.8,0.2-1.6,0.4-2.3c1.6-6,3.3-12,4.9-18c0.4-1.4,0.9-2.6,2.1-3.6c1.9-1.4,3.6-3.1,5.6-4.8
		c0.8,0.6,1.7,1.3,2.5,2c4.1,3.7,8.2,7.5,12.3,11.3c0.6,4-0.5,7.9-1.2,11.7c-0.4,1.8-1.3,3.4-3.3,3.7c-7.2,1.2-14.4,2.1-21.7,1
		C150.8,151.4,150.2,151,149.8,150.5"/>
	<path class="st7" d="M96.1,90.9c-1.2-10.2-0.1-20.1,3.6-29.7c2.9-7.2,6.9-13.7,12.7-18.9c4.7-4.3,10-7.4,16.2-8.8
		c9.6-2.2,18.3,0,26.3,5.7c5.2,3.7,8.8,8.8,11.8,14.3c7.8,14.6,8.6,29.8,3.4,45.4c0.4-2.8,0.8-5.6,1.2-8.4
		c1.4-12.1-0.6-23.6-6.4-34.3c-2.4-4.4-5.5-8.2-9.3-11.5c-10.8-9.2-25.5-10.1-37.3-2.2c-5.8,3.9-10.2,9.1-13.6,15.2
		c-3.8,6.8-5.9,14.1-6.8,21.8c-0.8,3-0.1,6.1-0.4,9.2C97.3,89.6,97.9,91,96.1,90.9"/>
	<path class="st8" d="M190,234.9c2.2-6.2,4.3-12.3,5.3-18.8c0.5-3.5,0.8-7,1-10.5c0.1-1.5-0.3-3.1-0.5-5h-35.3c-0.7-2-1.3-3.8-2-5.9
		c4.4-0.1,8.5-0.3,12.6-0.3c10.1-0.1,20.1-0.1,30.2-0.1c2.2,0,2.5,0.2,2.1,2.6c-0.9,4.9-1.8,9.7-3,14.5c-2.2,8.8-4.8,17.5-9.5,25.4
		C189.2,236.8,189.5,235.9,190,234.9"/>
	<path class="st9" d="M248.6,64.5c0.8-9.2-2.1-17.3-6.7-25.1c-2.9-5-5.7-10-8.7-14.9c-1-1.6-1.3-3.2-0.9-5c0.3-1.3,1.1-2.3,2.5-2.6
		c1.2-0.3,2.3,0.2,2.9,1.2c1.4,2.1,3,4.2,3.9,6.5c5.3,13.5,10.4,27.1,15.6,40.7c0.8,1.9,1,3.6-0.1,5.5c-1.4,2.4-4.9,3.5-7.5,2.4
		c-0.8-0.4-1.1-1-1.1-1.9C248.6,69,248.6,66.7,248.6,64.5"/>
	<path class="st10" d="M139.9,164.3c-0.4,0.1-0.9,0.4-1.3,0.4c-5.3-0.3-4.7,0.9-6.3-4.9c-1.8-6.9-3.9-13.7-5.8-20.6
		c-0.4-1.5-0.8-3-1.3-5c3.3,0.2,6.2,0.6,9.2,0.6c2.8,0,5.7-0.4,8.5-0.7c1.6,1.4,1,3.2,0.9,4.9C143.6,147.7,141.2,155.9,139.9,164.3"
		/>
	<path class="st11" d="M16.2,73.6c-3-0.1-4.8-1.4-5.9-4c-0.4-1.1-0.4-2.1,0-3.2c1.8-4.4,3.4-8.9,5.1-13.4
		c3.5-9.2,6.9-18.5,10.6-27.7c1-2.5,2.5-4.8,4-7c0.7-1.1,1.9-1.8,3.3-1.4c1.3,0.3,2.3,1.7,2.4,3.2c0.1,1.5-0.5,2.8-1.3,4
		c-3.3,5.6-6.6,11.3-9.7,17c-1.6,2.9-2.9,6-4,9.2c-1.3,3.5-1.8,7.1-1.7,10.8c0.1,3.2,0,6.4,0,9.6C19,72.9,18.2,73.7,16.2,73.6"/>
	<path class="st12" d="M96.6,108.2c-1.6,0-3.1,0.1-4.7,0.1c-16.9,0-33.8,0-50.7,0c-3,0-6.1,0-9.1,0.1c-2.1,0.1-3.8-0.7-5-2.3
		c-0.5-0.7-1.2-1.7-1.1-2.5c0.2-1.3,1.5-0.8,2.4-0.8c18.8,0.1,37.6,0.1,56.5,0.2c1.9,0,3.8,0,5.7,0
		C94.7,103.2,95.3,102.1,96.6,108.2"/>
	<path class="st13" d="M171.9,108.3c0.4-1.3,0.7-2.2,1.1-3c0.4-0.9,1.1-1.5,2.2-1.4c0.6,0.1,1.3,0,1.9,0c20.3,0.1,40.6,0.1,60.8,0.2
		c0.8,0,1.6,0,2.4,0.1c0.6,0,1,0.9,0.6,1.5c-1.1,1.7-2.5,2.9-4.6,2.9c-0.8,0-1.6,0-2.4,0c-18.7,0-37.4-0.1-56-0.1
		C176,108.3,174.1,108.3,171.9,108.3"/>
	<path class="st11" d="M149.8,150.5c4,0,8,0.1,11.9-0.1c3.8-0.2,7.6-0.6,11.4-1.1c0.5-0.1,1.2-0.6,1.4-1.1c0.5-1.3,0.8-2.7,1.1-4.1
		c0.5-2.7,0.8-5.3,1.2-8c0.1-0.4,0.6-0.7,0.8-1.1c0.5,0.3,1.1,0.6,1.6,1c1.4,1.3,2.8,2.5,4.2,3.8c-0.3,1.7-0.6,3.4-0.9,5.1
		c-0.5,2.7-0.9,5.3-1.4,8c-0.3,1.8-0.7,2.2-2.5,2.2c-9.7,0-19.4,0-29.1,0c-0.3,0-0.6-0.2-0.9-0.3
		C148.4,153.3,148.9,151.8,149.8,150.5"/>
	<path class="st11" d="M110.4,194.7c-1.8,6.3-0.4,5.7-6.5,5.6c-8.8,0-17.6-0.1-26.3-0.3c-2.7-0.1-5.4-0.3-8.1-0.6
		c-2-0.2-2.9-1.2-3.3-3c-0.2-1.1,0.3-2,1.4-2.1c0.8-0.1,1.6-0.1,2.4-0.1c12.8,0.1,25.5,0.1,38.3,0.2
		C108.9,194.6,109.5,194.7,110.4,194.7"/>
	<path class="st14" d="M210.2,128.2c-5.7-4.2-11.4-8.5-17-13.4c0.8-0.3,1.2-0.5,1.6-0.5c8-0.1,15.9-0.1,23.9-0.2c0.3,0,0.6,0,1,0
		c1,0.1,1,0.5,0.4,2c-2.2,0-3.4,1.2-4.5,3C213.7,122.2,212.4,125.5,210.2,128.2"/>
	<path class="st15" d="M53.6,127.5c-3-3.8-4.9-8-6.5-12.4c0.4-0.3,0.7-0.7,0.9-0.7c8.3-0.1,16.6-0.2,24.9-0.2c0.5,0,1,0.4,1.5,0.7
		c-0.5,0.4-0.9,0.7-1.4,1.1c-5.5-0.2-8.8,3.6-12.4,6.8C58.4,124.6,57.2,127.8,53.6,127.5"/>
	<path class="st16" d="M146.5,161.7c0.1-0.9,0.2-1.7,0.4-2.4c0.2-1.1,0.9-1.7,2-1.7c0.2,0,0.3,0,0.5,0c9.7,0,19.4,0,29.1,0.1
		c1.4,0,1.8,0.4,1.9,1.6c0.1,2-0.3,2.7-1.7,2.8c-0.5,0-1,0-1.4,0c-9.6,0-19.1-0.1-28.7-0.1C147.9,161.9,147.3,161.8,146.5,161.7"/>
	<path class="st5" d="M87.4,156.1c-0.1-1.8,0.8-3,2.6-3.4c0.3-0.1,0.6-0.2,0.9-0.2c4.6-0.4,9.1-0.7,13.7-1.1
		c1.7-0.2,3.4-0.6,5.2-0.7c2.7-0.1,5.4-0.1,8.1-0.1c0.6,1.8,1.2,3.5,1.9,5.6c-0.9,0.2-1.5,0.4-2,0.4c-9.4,0-18.7,0.1-28.1,0.1
		C88.9,156.5,88.1,156.2,87.4,156.1"/>
	<path class="st17" d="M117.9,131.4c3,0.6,4.4,1.8,5.1,4.3c2.1,8.2,4.5,16.2,6.8,24.3c0.2,0.8,0.5,1.5,0.6,2.3
		c0.2,0.8,0.2,1.6-0.7,2c-1,0.5-2.4-0.1-2.8-1.1c-0.1-0.3-0.2-0.6-0.3-0.9c-2.9-9.6-5.7-19.2-8.6-28.8
		C118,133,118,132.4,117.9,131.4"/>
	<path class="st17" d="M196.6,238.5c3.8-7.4,6.6-15.1,8.6-23.1c0.3-1.4,0.8-2.4,2.4-2.4c2.1-0.1,3.6,0.8,4.2,2.4
		c0.2,0.4,0.2,0.9,0.1,1.4c-0.1,0.4-0.3,0.9-0.6,1.3c-4.2,6-7,12.8-11.5,18.6c-0.8,1-1.5,2-2.3,3.1
		C196.7,239.8,196.2,239.6,196.6,238.5"/>
	<path class="st18" d="M139.9,164.3c-1.3-1-0.8-2.3-0.6-3.5c0.7-4.4,1.6-8.7,2.1-13c0.6-4.5,0.9-9.1,1.4-13.6
		c0.1-0.1,0.2-0.3,0.4-0.3c1.9-0.7,3.6-1.9,5.8-1.6c0.9,2.1-0.4,3.9-0.9,5.8c-2.3,7.7-4.6,15.5-6.9,23.2
		C140.8,162.3,140.3,163.3,139.9,164.3"/>
	<path class="st19" d="M68.1,236.9c-2.5-3.1-4.6-6.4-6.5-10c-1.5-2.8-3.3-5.5-4.9-8.2c-0.8-1.2-1.6-2.5-0.7-4c0.9-1.5,2.4-2,4.1-1.9
		c1.1,0.1,1.8,0.6,2.1,1.6c0.2,0.5,0.2,0.9,0.3,1.4c1.7,6.5,3.9,12.8,6.6,18.9C69.8,236,69.7,236.9,68.1,236.9"/>
	<path class="st20" d="M185.5,230.8c0,3.1-1.1,5.2-3,6.9c-1.9,1.6-4.1,1.8-6.3,0.8c-2-0.8-3.5-3.5-3.2-5.9c0.3-2.2,1.1-4.3,2.6-6.1
		c2-2.3,4.3-2.5,6.7-0.7C184.2,227.2,185.6,228.9,185.5,230.8"/>
	<path class="st21" d="M87.6,215.5c2.3-0.1,4.5,0.5,6.5,2c0.7,0.6,1.5,1.3,1.9,2.1c0.3,0.6,0.4,1.7,0.1,2.2
		c-0.3,0.4-1.5,0.6-2.1,0.4c-1-0.3-2-1-3-1.5c-4.6-2.1-9.6-0.6-12.4,3.8c-0.3,0.5-0.6,1.2-1.1,1.5c-0.5,0.3-1.2,0.5-1.7,0.3
		c-0.5-0.2-1-0.8-1.1-1.4c-0.4-1.9,0.6-3.4,1.7-4.8C79.3,217,83,215.4,87.6,215.5"/>
	<path class="st22" d="M88.1,226.2c3.4-0.1,6.7,3.7,6.7,7.4c-0.1,3-3.3,5.8-6.5,5.8c-3.5-0.1-6.4-3-6.3-6.5
		C82,229.3,84.8,226.3,88.1,226.2"/>
	<path class="st23" d="M127.6,185.1c-1.5,1.6-3.1,3.2-4.6,4.9c-5.6,6.6-8.3,14.1-7.2,22.9c0.1,0.9,0,1.9,0,2.9
		c-5.9-8.6-4.1-24.4,9.5-30.2C126,185.2,126.9,185.2,127.6,185.1"/>
	<path class="st24" d="M222.6,66.1c0-3,0-7.3,0-11.6c0-0.2,0.3-0.5,0.5-0.5c0.3,0,0.7,0.1,0.8,0.3c0.6,1.4,1.4,2.9,1.7,4.4
		c0.5,3,0.7,6,0.8,9c0.1,3.3,0,6.7-0.2,10c-0.1,1.2-0.3,2.5-0.7,3.7c-0.2,0.5-0.9,1-1.4,1.1c-0.8,0.1-1.6-0.4-1.7-1.3
		c-0.2-1.1-0.3-2.2-0.3-3.3C222.2,74.4,222.4,70.9,222.6,66.1"/>
	<path class="st13" d="M104.3,162c-4.6,0-9.3,0-13.9,0c-0.8,0-1.6,0-2.3-0.3c-0.4-0.2-0.6-1-0.6-1.6c0-0.3,0.4-0.9,0.7-1
		c0.8-0.2,1.6-0.1,2.4-0.1c8.9,0,17.9,0,26.8,0c0.8,0,1.6,0,2.4,0.1c0.9,0.2,1.2,0.9,1.1,1.8c0,0.9-0.7,0.9-1.3,0.9
		c-4.2,0.1-8.3,0.1-12.5,0.1C106.2,162,105.3,162,104.3,162"/>
	<path class="st25" d="M79.5,251.3c4.6,5.1,10,9.3,16.1,12.5c0.8,0.4,1.9,0.6,2,1.8c0.1,1.6-1.6,3.7-3.1,3.8c-1,0.1-2.2-0.2-3.2-0.6
		c-0.8-0.4-1.5-1.2-2.1-1.9c-3.6-4.9-7.1-9.8-10.6-14.6C78.3,251.2,78.7,251.1,79.5,251.3"/>
	<path class="st26" d="M188.2,253.1c-3.2,4.5-6.5,9-9.8,13.4c-0.4,0.5-0.8,1-1.3,1.4c-2.4,2.4-6.1,1.7-6.9-1.4
		c-0.1-0.5-0.3-0.9-0.5-1.5c3.1-1.9,6.3-3.6,9.2-5.8c2.9-2.2,5.5-4.8,8.2-7.2C188.1,252,188.5,252.2,188.2,253.1"/>
	<path class="st27" d="M163.7,228c0.2-2.5,1-4.9,2.7-6.9c2.9-3.4,6.7-5.3,11-6.1c1.6-0.3,3.2-0.1,4.4,1.2c0.7,0.7,0.5,2.1-0.3,2.4
		c-1,0.3-2.1,0.6-3.2,0.7c-3,0.2-5.5,1.5-7.8,3.2c-2.4,1.7-3.8,4.2-4.2,7.2c-0.1,0.7-0.4,1.4-1.1,1.1c-0.5-0.1-0.9-0.8-1.1-1.3
		C163.8,229.1,163.8,228.6,163.7,228"/>
	<path class="st28" d="M53.6,127.5c2.2-2,4.4-4.1,6.7-6.1c2-1.8,4-3.6,6.2-5.2c2.1-1.6,4.3-1.6,6.6-0.3c-5.4,4.3-10.7,8.6-16.1,12.8
		C55,130.2,54.9,130,53.6,127.5"/>
	<path class="st29" d="M210.2,128.2c0.2-1.1,0.3-2.2,0.8-3.1c1.5-2.9,3.1-5.8,4.8-8.7c1-1.6,1.9-1.6,4.3-0.2
		c-1.3,4.2-3.7,8-5.9,11.7C212.8,130.1,212.7,130,210.2,128.2"/>
	<path class="st30" d="M96.1,90.9c0.2-0.9,0.7-1.7,0.7-2.6c0.1-2.1,0-4.1,0.2-6.2c0.1-0.9,0.5-1.8,0.8-2.7c0,3,0,6,0,9
		c0.1,4.3,0.6,8.5,1.8,12.7c0.2,0.9,0.3,1.8,0.5,3.2C97.6,101.4,96.2,96.4,96.1,90.9"/>
	<path class="st31" d="M79.5,251.3c-0.3,0.3-0.5,0.6-0.8,0.9c-3.5-5.1-7.1-10.1-10.6-15.2c1.1-0.3,0.8-1.3,1.1-2.1
		c0.4,0.5,0.8,1,1.1,1.5C72.8,241.6,76.2,246.4,79.5,251.3"/>
	<path class="st32" d="M223.1,90.9c1.5,0.1,2.6,1.3,2.5,2.8c0,1.4-1.3,2.7-2.7,2.7c-1.5,0-3-1.6-2.8-3.1
		C220.3,92,221.7,90.8,223.1,90.9"/>
	<path class="st33" d="M188.2,253.1c-0.3-0.3-0.6-0.6-0.9-0.9c3.1-4.6,6.2-9.1,9.3-13.7c0.3,0.4,0.7,0.8,1,1.2
		C194.5,244.2,191.3,248.6,188.2,253.1"/>
	<path class="st34" d="M190,234.9l0.9,1.9c-1,3.1-2.8,5.6-5.4,8.6c0.4-1.5,0.4-2.3,0.8-2.9C187.5,239.9,188.7,237.4,190,234.9"/>
	<path class="st35" d="M147.2,205.6c0,1.4-0.4,2.5-1.7,3.1c-5,2.4-10,4.9-15.1,7.2c-2.9,1.3-5.2-0.1-5.3-3.2
		c-0.1-5.4,0.1-10.8,0.5-16.2c0.1-2.6,0.4-2.6,3.7-3.2c6.5,1.3,11.5,5.6,17.1,8.9C147.6,202.8,147.4,204.3,147.2,205.6"/>
	<path class="st36" d="M147.2,205.6c-0.4-1.9-1.5-2.9-3.2-3.9c-5-2.8-9.9-5.7-14.8-8.5c0.1-0.4,0.2-0.9,0.5-1.2
		c0.1-0.2,0.6-0.2,0.9-0.3c6.1-0.6,11.3,1.4,15.4,5.9c1,1.1,1.7,2.7,2.3,4.1C148.9,203.2,148.4,204.5,147.2,205.6"/>
	<path class="st37" d="M141.1,223.4c-0.4-0.1-0.8,0-1-0.2c-0.3-0.3-0.6-0.7-0.8-1.1c-0.1-0.2,0.1-0.7,0.4-0.8
		c0.7-0.4,1.4-0.8,2.1-1.1c3.8-1.6,6.9-4,8.9-7.6c0.3-0.6,0.6-1.2,1.1-1.5c0.4-0.3,1.2-0.6,1.6-0.4c0.5,0.2,0.8,0.9,0.9,1.5
		c0.1,0.4-0.1,1-0.2,1.4c-2.3,5.1-6.2,8.4-11.7,9.8C142,223.4,141.5,223.4,141.1,223.4"/>
	<path class="st38" d="M154.4,204.5c-0.4,0.3-0.9,1.2-1.7,1.4c-1.1,0.4-2.1-1.1-2-2.5c0.1-1,0.6-1.8,1.7-1.9
		C153.6,201.2,154.5,202.5,154.4,204.5"/>
	<path class="st39" d="M84.4,123.6c-1.4,0-2.7-1.4-2.7-2.7c0.1-1.5,1.7-3,3.2-2.8c1.2,0.1,2.3,1.4,2.4,2.5
		C87.4,122.1,85.9,123.6,84.4,123.6"/>
	<path class="st40" d="M78.7,128.4c0.1,1.5-1,2.8-2.5,2.9c-1.4,0.1-2.6-1.1-2.6-2.7c0-1.4,1-2.5,2.2-2.7
		C77.2,125.7,78.6,126.9,78.7,128.4"/>
	<path class="st41" d="M67.2,133.8c1.4-0.1,2.6,0.9,2.6,2.2c0.1,1.3-1.1,2.4-2.4,2.4c-1.2,0-2.1-0.8-2.3-2
		C64.9,135,65.8,133.9,67.2,133.8"/>
	<path class="st42" d="M185.9,121c-0.1,1.4-1.6,2.7-3,2.5c-1.5-0.2-2.6-1.5-2.6-2.9c0-1.4,1.5-2.7,2.9-2.5
		C184.6,118.3,186,119.8,185.9,121"/>
	<path class="st43" d="M191.6,131.3c-1.4,0-2.6-1.2-2.7-2.7c0-1.5,1.3-2.8,2.6-2.7c1.3,0.1,2.3,1.2,2.4,2.5
		C194.1,130,193.1,131.3,191.6,131.3"/>
	<path class="st44" d="M202.5,136.1c0,1.3-1.1,2.4-2.5,2.3c-1.4-0.1-2.4-1.2-2.3-2.5c0.1-1.1,1.1-2,2.2-2.1
		C201.4,133.7,202.5,134.8,202.5,136.1"/>
	<path class="st45" d="M179.7,230c1.6-0.1,2.7,0.8,2.9,2.5c0.2,1.8-0.9,3.2-2.6,3.3c-1.5,0.1-2.9-1.1-3-2.5
		C176.8,231.7,178.1,230.1,179.7,230"/>
	<path class="st46" d="M87.6,229.1c1.5,0.2,3.1,2.1,3,3.7c-0.1,1.6-1.6,3-3.2,2.8c-1.7-0.3-3-2.1-2.7-3.8
		C84.9,230.2,86.3,228.9,87.6,229.1"/>
	<path class="st25" d="M128.9,199.1c0.5-0.2,0.7-0.4,0.8-0.3c3.8,2.2,7.7,4.5,11.8,6.8c-3.7,2.4-7.4,4.2-11.1,6
		c-0.6,0.3-1.3,0-1.3-0.8C128.8,206.8,128.9,202.9,128.9,199.1"/>
</g>
</svg>
