<?xml version="1.0" encoding="utf-8"?>
<!-- Generator: Adobe Illustrator 22.1.0, SVG Export Plug-In . SVG Version: 6.00 Build 0)  -->
<svg version="1.1" id="Capa_1" xmlns="http://www.w3.org/2000/svg" xmlns:xlink="http://www.w3.org/1999/xlink" x="0px" y="0px"
	 viewBox="0 0 118.8 169.6" style="enable-background:new 0 0 118.8 169.6;" xml:space="preserve">
<style type="text/css">
	.st0{clip-path:url(#SVGID_2_);fill:#FFFFFF;}
	.st1{clip-path:url(#SVGID_2_);}
	.st2{clip-path:url(#SVGID_2_);fill:#CDCDCD;}
	.st3{clip-path:url(#SVGID_2_);fill:#FEFEFE;}
	.st4{clip-path:url(#SVGID_2_);fill:#FDFDFD;}
	.st5{clip-path:url(#SVGID_2_);fill:#FC9700;}
	.st6{clip-path:url(#SVGID_2_);fill:#F4F7F7;}
	.st7{clip-path:url(#SVGID_2_);fill:#F3F3F3;}
	.st8{clip-path:url(#SVGID_2_);fill:#312A2A;}
	.st9{clip-path:url(#SVGID_2_);fill:#F4F5F5;}
	.st10{clip-path:url(#SVGID_2_);fill:#F5F6F6;}
	.st11{clip-path:url(#SVGID_2_);fill:#E7ECEC;}
	.st12{clip-path:url(#SVGID_2_);fill:#EBECEC;}
	.st13{clip-path:url(#SVGID_2_);fill:#F8F9F9;}
	.st14{clip-path:url(#SVGID_2_);fill:#DEE1E1;}
	.st15{clip-path:url(#SVGID_2_);fill:#F8F8F8;}
	.st16{clip-path:url(#SVGID_2_);fill:#EBF0F0;}
	.st17{clip-path:url(#SVGID_2_);fill:#E3E9E9;}
	.st18{clip-path:url(#SVGID_2_);fill:#DCE4E4;}
	.st19{clip-path:url(#SVGID_2_);fill:#373030;}
	.st20{clip-path:url(#SVGID_2_);fill:#474747;}
	.st21{clip-path:url(#SVGID_2_);fill:#D2D4D4;}
	.st22{clip-path:url(#SVGID_2_);fill:#312B2B;}
	.st23{clip-path:url(#SVGID_2_);fill:#3D3131;}
	.st24{clip-path:url(#SVGID_2_);fill:#B2B8B8;}
	.st25{clip-path:url(#SVGID_2_);fill:#F9FEFE;}
	.st26{clip-path:url(#SVGID_2_);fill:#B5BBBB;}
	.st27{clip-path:url(#SVGID_2_);fill:#AFB2B2;}
	.st28{clip-path:url(#SVGID_2_);fill:#4F5959;}
	.st29{clip-path:url(#SVGID_2_);fill:#7C8787;}
	.st30{clip-path:url(#SVGID_2_);fill:#889191;}
	.st31{clip-path:url(#SVGID_2_);fill:#110F0F;}
	.st32{clip-path:url(#SVGID_2_);fill:#100D0D;}
	.st33{clip-path:url(#SVGID_2_);fill:#101111;}
	.st34{clip-path:url(#SVGID_2_);fill:#1C1818;}
	.st35{clip-path:url(#SVGID_2_);fill:#1C1713;}
	.st36{clip-path:url(#SVGID_2_);fill:#231A10;}
	.st37{clip-path:url(#SVGID_2_);fill:#150D00;}
	.st38{clip-path:url(#SVGID_2_);fill:#EDF4F4;}
	.st39{clip-path:url(#SVGID_2_);fill:#E3EBEB;}
	.st40{clip-path:url(#SVGID_2_);fill:#D98300;}
	.st41{clip-path:url(#SVGID_2_);fill:#F19200;}
</style>
<g>
	<defs>
		<rect id="SVGID_1_" x="-1299.5" y="-568.9" width="1920" height="1080"/>
	</defs>
	<clipPath id="SVGID_2_">
		<use xlink:href="#SVGID_1_"  style="overflow:visible;"/>
	</clipPath>
	<path class="st0" d="M36.7,19.7C39.4,8.4,46.1,0.7,58.1,0C73-0.9,80.9,7.7,84,22.2c2.5-2.5,4.4-4.6,6.4-6.6
		c1.2-1.3,2.6-2.4,4.4-2.8c3.1-0.8,6.3,0.9,7.1,4c0.3,1,0.2,2.3-0.1,3.2c-0.6,1.8-1.4,3.6-2.3,5.3c-2,4-4.2,7.9-6.3,11.8
		c-0.6,1-0.9,2.1-0.3,3.2c3,5.6,4,11.7,5.6,17.8c0.7,2.6,0.7,2.6,3.6,2.8c2.7,0.1,5.4,0.2,8.1,0.4c4.8,0.3,7.5,2.8,8.6,8.1
		c0.2,1.1,0.2,2.2,0.2,3.3c0,5.8-0.1,11.5,0,17.3c0.1,3.4-0.8,6.3-3.5,8.5c-0.8,0.7-1.2,1.3-0.9,2.4c1.6,5.6,1.6,11.4,2,17.1
		c0.9,11,1.4,22,2.2,33c0.2,3.2,0.7,6.4,0.7,9.5c0,5.3-2.2,7.9-7.5,8.8c-2.3,0.4-4.8,0.5-7.2,0.5c-28.8,0-57.5,0-86.3,0
		c-4,0-8,0-12,0c-3.2,0-5-1.3-6-4.4c-0.5-1.5-0.9-3.1-0.9-4.7c0.1-4.8,0.2-9.6,0.6-14.3c0.6-7.3,1.3-14.6,2.1-21.9
		c0.7-6.3,1.7-12.7,2.5-19c0.2-1.3,0.2-2.5,0.5-3.8c0.3-1.3-0.1-2.1-1.1-2.9C1.1,96-0.3,92.4-0.2,88.1c0.1-5.3,0.1-10.5,0.2-15.8
		c0-1.6,0.3-3.2,0.9-4.7c1.3-3.2,3.7-5.2,7.2-5.4c3.4-0.1,6.7-0.1,10.1-0.1c1.3,0,2-0.6,2.3-1.8c0.7-2.9,1.4-5.9,2.2-8.8
		c1.2-4.6,2.5-9.2,5.2-13.3c0.9-1.3,0.5-2.3-0.1-3.5c-2-3.6-3.9-7.3-5.8-11c-0.6-1.3-1.3-2.6-1.7-4c-1.2-4.3,2.3-7.7,6.9-7.1
		c2,0.3,3.4,1.5,4.8,3c1.3,1.4,2.7,2.7,4.1,4C36.2,19.8,36.4,19.7,36.7,19.7"/>
	<path class="st1" d="M100.7,96c0,0.8,0,1.5,0.1,2.1c0.5,2.4,0.6,2.5,3.2,2.6c5.4,0.2,6,0.7,6.6,6c0.5,4.8,0.9,9.5,1.3,14.3
		c0.7,10,1.3,20.1,2,30.1c0.2,2.7,0.7,5.4,0.8,8.1c0.2,4.7-0.7,5.5-5.5,5.7c-2.1,0.1-4.2,0.1-6.2,0.1c-28.8,0-57.5,0-86.3,0
		c-3.2,0-6.4-0.2-9.6-0.1c-1.4,0-2.1-0.8-2.3-2c-0.3-1.4-0.4-2.9-0.3-4.3c0.4-6.5,0.7-13.1,1.3-19.6c0.7-7.3,1.5-14.6,2.4-21.9
		c0.6-4.6,1.3-9.2,2.1-13.7c0.3-2,1.1-2.6,3.3-2.7c1-0.1,1.9,0,2.9,0c1.7-0.1,3.2-2.8,2.2-4.3c-0.2-0.3-0.8-0.6-1.2-0.6
		c-2.6-0.1-5.1-0.1-7.7-0.1c-2.2,0-3.6-1.2-4.3-3.1c-0.4-1.2-0.7-2.5-0.7-3.7c0-5.1,0.1-10.2,0.1-15.3c0-0.5,0.1-1,0.1-1.4
		c0.5-3.6,1.5-4.7,5.3-4.8c3-0.1,6.1,0,9.1,0c1.4,0,3.2,0.5,4.1-0.2c0.9-0.7,1-2.5,1.3-3.9c0.7-2.9,1.4-5.9,2.1-8.8
		c1.3-5.5,3.1-10.8,6.5-15.3c0.9-1.3,0.7-2.3,0-3.5c-2.1-3.9-4.2-7.9-6.2-11.9c-0.4-0.8-1-1.7-1.3-2.6c-0.3-0.9-1.7-2-0.2-2.8
		c1.2-0.7,2.1,0.5,2.8,1.3c3,3.1,5.9,6.3,8.8,9.5c0.9,0.9,1.7,1.9,2.7,2.7c0.2,0.2,0.9,0.2,1.3,0c0.4-0.2,0.7-0.7,0.8-1.1
		c0-0.8-0.2-1.6-0.2-2.4c-0.1-2.1-0.2-4.1-0.2-6.2c0.2-8.8,8.1-16.6,17.1-17c7-0.4,12.8,2.5,16.7,8.5c3.1,4.8,4.5,10.2,3.1,16
		c-0.2,0.6-0.4,1.4-0.2,1.9c0.3,0.7,0.9,1.3,1.6,1.6c0.4,0.2,1.3,0,1.6-0.4c1.3-1.2,2.4-2.6,3.6-3.9c2.8-3.1,5.6-6.1,8.5-9.1
		c0.5-0.6,1.2-1,1.9-1.4c0.3-0.1,0.9,0.1,1.3,0.3c0.2,0.1,0.3,0.6,0.2,0.8c-0.4,1-0.8,2.1-1.4,3.1c-2.5,4.8-5,9.6-7.6,14.4
		c-1,1.8-1.3,3.2-0.1,5.3c3,5,4.2,10.7,5.5,16.3c0.4,1.9,0.8,3.7,1.2,5.6c0.5,1.9,0.7,2.1,2.6,2.2c3.2,0.1,6.4,0.1,9.6,0.1
		c5.7,0.1,7.1,1.4,7.1,7.1c0.1,5.6,0,11.2,0,16.8c0,0.5,0,1,0,1.4c-0.2,2.8-1.4,4.1-4.2,4.2c-1.9,0.1-3.8,0-5.8,0.1
		C103,95.8,102,95.9,100.7,96"/>
	<path class="st2" d="M26.4,118.8c-0.5,0-1,0-1.4,0c-1.6,0.1-2.3,0.6-2,1.2c0.4,1,1.3,0.7,2,0.7c1.3,0.1,2.5,0,3.8,0
		c20.3,0,40.7,0,61.1,0c1,0,1.9,0.1,2.9,0c1-0.1,2.5,0.6,2.6-1.1c0-1.2-1.6-0.6-2.2-1.3c-0.1-0.1-0.2-0.3-0.3-0.4
		c2.1-3.8,4.5-7.5,8.4-9.8l0.1-0.1c0.4-0.2,0.6-0.4,0.7-0.8c0.2-0.2,0.5-0.5,0.7-0.6c1.5-1,2.1-0.8,2.3,0.7c0.3,4,0.6,8,1,11.9
		c0.8,7.8,1.7,15.6,2.5,23.3c0.6,5.4,1.1,10.8,1.7,16.4c-1.1,0.1-2,0.3-3,0.3c-31.8,0-63.6,0-95.4,0c-0.5,0-1,0-1.4,0
		c-1,0-1.4-0.7-1.3-1.6c0.2-2.2,0.3-4.5,0.5-6.7c1.5-12.5,3-25.1,4.5-37.6c0.3-2.2,0.5-4.4,0.9-6.6c0.2-1.2,1.2-0.7,1.9-0.4
		C21.1,109.8,25.4,113,26.4,118.8"/>
	<path class="st3" d="M59,115.8c-2.7,0-5.4,0-8.1-0.1c-0.4,0-0.9-0.7-1.3-1.1c-0.1-0.1-0.1-0.3-0.1-0.5c-0.1-2.5,0.4-5.3-0.3-7.6
		c-1.1-3.4-3-6.7-4.9-9.8c-2.8-4.5-4.3-9.1-3.8-14.4c0.3-3.2,0.2-6.4,0-9.5c-0.2-2.4,0.9-3.9,2.6-5.3c0.7-0.6,1.4-0.7,2.2-0.3
		c2.3,1.1,4.6,2.3,6.8,3.5c0.7,0.4,1.4,0.9,1.8,1.5c1.6,2.7,3.2,5.5,4.7,8.3c0.5,0.9,0.3,2.2,0.3,3.3c0.2,5.9,0.3,11.8,0.5,17.7
		C60.9,106.3,61.5,111.1,59,115.8"/>
	<path class="st4" d="M79.2,69.1c0,6.5-0.1,13-0.1,19.5c0,2.1-0.4,4.1-1.5,5.9c-1.4,2.3-2.6,4.8-4.2,6.9c-2.3,3-3.5,6.2-3.3,10.1
		c0.2,4.7,0.2,4.3-4.4,4.3c-1.4,0-2.9-0.1-4.3-0.1c-2-4.4-1.5-8.8-0.3-13.3c0.2-6,0.5-12.1,0.7-18.1c0.1-1.6-0.1-3.1,1.8-4.1
		c0.7-0.4,1.2-1.4,1.7-2.3c1-1.6,1.9-3.3,2.8-5c1.1-2.2,2.5-4,4.7-5.2C75.8,64.4,76.8,64.6,79.2,69.1"/>
	<path class="st5" d="M46.5,23.8c-0.1-4.2,1.3-7.6,4.3-10.4c4.4-3.9,9.2-4.7,14.7-2.6c7.9,3.1,13.1,16.8,4,24.2
		c-1,0.8-1.8,2.3-3.5,1.7c0.4-1.2,0.6-2.4,1.1-3.5c0.7-1.6,1.6-3.1,2.3-4.7c0.5-1.1-0.2-2.3-1.4-2.6c-1.3-0.4-3.1,0.5-2.9,1.6
		c0.7,3.3-1.3,5.8-2.5,8.5c-0.7,1.7-2.4,1.9-3.4,0.5c-1.1-1.5-2-3.2-3.1-4.8c-0.8-1.1,0.2-2.2-0.2-3.2c-0.2-0.6-0.9-1.4-1.5-1.6
		c-0.6-0.2-1.6,0.2-2.1,0.6c-0.5,0.5-0.9,1.6-0.7,2.1c1,2,2.3,3.8,3.4,5.7c0.1,0.2,0,0.6-0.1,0.8c-0.2,0.2-0.5,0.1-0.8,0.1
		c-0.1,0-0.3-0.1-0.4-0.2C49,33.3,46,29.5,46.5,23.8"/>
	<path class="st6" d="M62,59.3c4.3-4.9,8.7-9.8,13-14.7c1.9-2.2,3.7-4.4,5.7-6.5c0.4-0.4,1-0.6,1.5-1c1,1.3,0.4,2.5-0.4,3.5
		C76,49.3,70,57.7,63.7,66c-1.4,1.8-3.2,2.3-4.8,0.2C52,57.3,45,48.4,39.5,38.5c0.1-0.8,0.3-1.4,1.3-1.1C46,43.2,51,49.1,56.2,55
		c1.1,1.3,2.5,2.4,3.7,3.6C61,57.6,60.1,62.6,62,59.3"/>
	<path class="st7" d="M80.1,51.5c0.9-2,2-3.9,3.5-6.2c0.6,1.2,1.2,2,1.4,2.8c5,15.6,9.3,31.4,12.2,47.6c0.1,0.8,0.2,1.6,0.3,2.4
		c0.5,2.2-0.3,3.7-2.6,4.6c-0.6-2.5-0.9-5-1.3-7.4c-1.7-12-3.8-23.9-7.7-35.4c-0.8-2.2-1.9-4.4-2.9-6.5c-0.3-0.7-1-1.3-1.9-0.7
		C80.3,52.7,79.8,52.5,80.1,51.5"/>
	<path class="st8" d="M40,38.2c6.7,9.8,13.7,19.4,20.9,29c0.6-0.5,1-0.7,1.3-1.1c6.5-9,13-18.1,19.5-27.2c0.3-0.5,0.4-1.1,0.5-1.7
		l-0.1,0.1c0.2-0.3,0.5-0.4,0.8-0.3c0.3,0.2,0.3,0.5,0.3,0.9c0.2,0.7,0.8,1.5,0.6,2c-0.6,1.5-1.6,2.8-2.4,4.2
		c-0.8-0.1-0.7,0.6-1.1,1l0.1-0.1c-3.1,3.8-5.3,8.1-8.2,12c-2.3,4-5.4,7.4-8,11.2c-1.9,2.8-3.9,2.3-5.8,0.1
		c-3.5-4.1-6.7-8.4-9.4-13.1c-2.4-2.9-4.1-6.2-6.3-9.3l0.1,0.1c-0.5-0.8-0.9-1.7-1.9-2c-1.5-1.1-2-2.9-2.5-4.5
		c-0.1-0.3,0.6-0.9,1-1.4C39.6,37.8,39.8,37.8,40,38.2"/>
	<path class="st9" d="M49.4,54.7c3.8,5,7.6,10,11.2,14.7c0.6,0.1,0.8,0.2,0.9,0.1c0.1,0,0.3-0.2,0.4-0.3c3.3-4.3,6.5-8.5,9.8-12.8
		c0.9-0.1,1.4,0.2,1.2,1.2c-3.1,5.7-6.3,11.3-9.4,17c-0.1,0.3-0.5,0.4-0.9,0.8c-0.3-1.1-0.6-2-0.9-3.1c-0.6,1.3-1.2,2.4-1.9,3.9
		c-3.6-6.5-6.9-12.6-10.3-18.7c-0.2-0.4-0.4-0.8-0.7-1.1c-0.2-0.2-0.3-0.4-0.3-0.7C48.1,54.8,48.6,54.6,49.4,54.7"/>
	<path class="st10" d="M96.5,72h13c0.3,0.4,0.6,0.6,0.6,0.9c0.2,7.9,1.3,7.2-6.8,7.3c-1.7,0-3.5-0.2-5.2-0.4c-0.5-1.6-1-3.3-1.4-4.9
		C96.7,74.1,96.7,73.3,96.5,72"/>
	<path class="st11" d="M61.3,50c-3.6,0.1-6.8-0.8-8.8-3.9c-2-2.9-4.4-5.4-6.7-8c-0.4-0.5-0.7-1-1-1.6c-0.1-0.1,0-0.4,0.1-0.4
		c0.2-0.2,0.5-0.4,0.7-0.3c0.5,0.3,1,0.7,1.5,1.1c1.5,1.1,3,2.4,4.7,3.3c1.9,1,2.9,2.1,2.8,4.4c0,2,1.1,2.9,3,3
		c2.5,0.1,5.1,0,7.7-0.1c1.7-0.1,2.4-0.9,2.6-2.8c0.1-0.6,0.1-1.3,0.1-1.9c0-0.9,0.3-1.5,1-2c1.9-1.4,3.8-2.8,5.8-4.2
		c0.3-0.2,0.9-0.1,1.3,0.1c0.6,0.4,0.8,1,0.4,1.6c-2.6,3.2-5.2,6.5-8,9.5c-0.8,0.9-2.1,1.4-3.3,1.8C63.9,50,62.6,49.9,61.3,50"/>
	<path class="st12" d="M15.9,80.2c-0.2,0-0.3,0-0.5,0c-1.7-0.2-3.5,0.4-5.1-0.7c-0.1-2-0.3-4.1-0.3-6.1c0-0.4,0.8-1.1,1.3-1.1
		c3.5-0.1,7-0.1,10.5,0c0.3,0,0.6,0.6,0.9,0.9c0.1,0.1,0,0.3,0,0.5C22.6,79.8,22.2,80.1,15.9,80.2"/>
	<path class="st13" d="M98.2,82.2c2.4,0,4.2-0.1,5.9,0c1.9,0.1,3.8,0.3,5.7,0.4c1.1,2.3,0.4,4.7,0.4,7c0,0.4-0.7,1-1.2,1.2
		c-0.6,0.2-1.3,0.1-1.9,0.1c-2.4-0.1-4.8-0.2-7.1-0.3C98.8,88.2,98.7,85.5,98.2,82.2"/>
	<path class="st14" d="M39.9,93.9c-1.9-1.3-2.9-2.6-2.9-4.7c0-7.2,0-14.3-0.1-21.5c0-0.9,0.2-1.5,0.9-2c1.5-1.4,3-2.8,4.8-4.4
		c2.5,1.4,5,2.8,7.4,4.2c0.3,0.2,0.7,0.9,0.6,1.2c-0.3,0.8-1,0.5-1.5,0.3c-1.3-0.5-2.6-1.2-4-1.6c-0.9-0.3-1.9-0.2-2.6,0.5
		c-0.8,0.8-1.6,1.6-2.4,2.3c-0.7,0.7-1,1.5-1,2.6c0,6.2,0,12.4,0,18.6C39,90.7,39.5,92.1,39.9,93.9"/>
	<path class="st15" d="M21.4,82.5c-0.5,2.9-0.9,5.5-1.4,8.3c-1.3,0.1-2.3,0.2-3.4,0.2c-7.3,0-7.4-0.1-6.6-7.2c0.1-0.5,0.6-1.2,1-1.3
		C14.4,82.2,17.7,82.1,21.4,82.5"/>
	<path class="st16" d="M72.6,64.2c1.4-1,2.8-2,4.1-2.9c0.4,0.2,0.6,0.3,0.7,0.4c1.7,1.5,3.9,2.7,4.8,4.6c0.8,1.8,0.3,4.3,0.3,6.5
		c0,5.3,0,10.5,0,15.8c0,0.9-0.3,1.8-0.5,2.7c0,0.1-0.3,0.4-0.3,0.3c-0.2-0.2-0.7-0.3-0.7-0.5c-0.1-1-0.1-1.9-0.1-2.9
		c0-5.8,0-11.5,0-17.3c0-1.1,0.3-2.3-0.7-3.1C78.4,65.4,75,66,72.6,64.2"/>
	<path class="st17" d="M18.8,105.5c1.3-0.4,2.3-0.2,3.3,0.9c2.3,2.8,4.8,5.4,7.2,8.1c1.1,1.2,1.1,1.3-0.8,2.7
		C23.8,114.5,20.2,110.9,18.8,105.5"/>
	<path class="st18" d="M91.8,116.9c-0.3,0-0.7,0.1-0.9,0c-1.4-0.6-1.7-1.1-0.9-2c1.9-2.2,3.8-4.3,5.7-6.4c0.8-0.9,1.7-1.9,2.5-2.8
		c0.7-0.7,1.5-0.3,2.2-0.2c0.2,0.3,0.3,0.6,0.2,0.9c-0.2,0.2-0.4,0.4-0.4,0.7C98.1,110.9,95.9,114.7,91.8,116.9"/>
	<path class="st19" d="M18.8,105.5c0.1,0.4,0.1,1,0.4,1.3c3.1,3.5,6.2,6.9,9.3,10.4c-0.4,0.9-1,1.6-2.1,1.6c-1.9-2.5-3.9-5-5.8-7.5
		c-1.2-1.6-2.4-3.3-3.7-4.9C17.6,106.1,18.2,105.8,18.8,105.5"/>
	<path class="st20" d="M61,102.5c0.1,4.4,0.2,8.9,0.3,13.3c-0.8,0-1.5,0-2.3,0c0.1-3.3,0.2-6.7,0.2-10c0-1.4,0.1-2.8,0.1-4.3
		C59.9,101.8,60.4,102.2,61,102.5"/>
	<path class="st21" d="M32.8,54.2c0.5-4,1.8-7.7,4.2-11c2.3,2.4,2.3,2.4,1,4.1C36.3,49.6,34.6,51.9,32.8,54.2"/>
	<path class="st22" d="M91.8,116.9c2.8-3.3,5.6-6.5,8.4-9.8c0.3,0.4,0.7,0.8,1,1.1c-2.4,3.6-5.2,6.9-8.4,9.8
		C92.5,117.6,92.2,117.3,91.8,116.9"/>
	<path class="st23" d="M72.6,64.2c0.3,0.3,0.7,0.8,0.9,0.7c0.6-0.1,1.1-0.5,1.6-0.9c1.1-0.7,2-0.7,2.8,0.4c0.8,1.1,1.5,2.3,2.3,3.5
		c-0.4,0.4-0.8,0.7-1.1,1.1C79,69,78.9,69,78.7,68.9c-1-0.9-1.8-2.3-3-2.6c-0.9-0.2-2.1,0.9-3.2,1.5C71.3,65.7,71.3,65.7,72.6,64.2"
		/>
	<path class="st24" d="M72.8,57.7c-0.4-0.4-0.8-0.8-1.2-1.2c2.6-3.8,5.2-7.5,7.9-11.3c0.1-0.2,0.5-0.2,0.8-0.3
		c-0.3,0.7-0.4,1.5-0.8,2.1C77.3,50.6,75.1,54.1,72.8,57.7"/>
	<path class="st25" d="M60.4,43.5c0,0-0.3,0-0.6,0c-1.4,0-2.4-1.7-1.6-3c0.2-0.3,0.7-0.7,1.1-0.7c1.3,0,2.5,0,3.8,0.1
		c1,0.1,1.2,0.8,1.2,1.6c0,0.9-0.2,1.6-1.2,1.7C62.4,43.5,61.6,43.5,60.4,43.5"/>
	<path class="st26" d="M49.4,54.7c-0.3,0.4-0.7,0.7-1,1.1c-1.9-3-3.8-6-5.7-9c-0.1-0.2,0-0.6,0.1-0.9c1.5,0.5,1.9,1.9,2.7,3
		C46.9,50.8,48.1,52.8,49.4,54.7"/>
	<path class="st27" d="M80.1,51.5c0.4,0.4,0.7,0.8,1.1,1.2c-1.2,1.8-2.5,3.6-3.8,5.4c-0.1,0.2-0.6,0.3-0.8,0.2
		c-0.2-0.1-0.3-0.6-0.2-0.8C77.6,55.4,78.9,53.5,80.1,51.5"/>
	<path class="st28" d="M62,59.3v4.6c-0.9-1.3-1.4-1.7-1.5-2.2c-0.3-1-0.4-2.1-0.6-3.2C60.6,58.8,61.3,59.1,62,59.3"/>
	<path class="st29" d="M82.3,36.4c1-1.3,2-2.6,3.1-4c0.9,1.1,0.3,1.7-0.1,2.3c-0.7,1.1-1.4,2.1-2.1,3.1c-0.2-0.2-0.3-0.5-0.1-0.7
		C82.8,36.9,82.5,36.7,82.3,36.4"/>
	<path class="st30" d="M40,38.2l-0.3,0c0,0-0.3,0-0.3,0c-0.8-1.5-1.6-3-2.5-4.5l0.3-0.3c1.7,0.9,2.9,2.3,3.7,4
		C40.6,37.6,40.3,37.9,40,38.2"/>
	<path class="st26" d="M40.9,44c0.2-0.1,0.5-0.3,0.7-0.4c0.4,0.8,0.8,1.6,1.2,2.4C41.5,46.1,41.7,44.6,40.9,44"/>
	<path class="st24" d="M80.3,45.1c0.1-1.5,0.1-1.5,1.1-1C81,44.4,80.6,44.7,80.3,45.1"/>
	<path class="st22" d="M100.7,106.4c-0.1-0.3-0.1-0.6-0.2-0.9C101.3,105.8,101.3,105.8,100.7,106.4"/>
	<path class="st6" d="M82.3,36.4c0.3,0.2,0.5,0.4,0.8,0.6c-0.3,0.1-0.6,0.2-1,0.2C82.2,37,82.2,36.7,82.3,36.4"/>
	<path class="st22" d="M102.1,107.3c-0.2,0.3-0.5,0.5-0.7,0.8C101.6,107.9,101.8,107.6,102.1,107.3"/>
	<path class="st30" d="M36.9,33.7c-0.2-0.3-0.3-0.6-0.5-0.9c0.2,0.2,0.5,0.4,0.8,0.6L36.9,33.7z"/>
	<path class="st26" d="M48.7,56.5c0.2,0.4,0.5,0.7,0.7,1.1C49.2,57.2,49,56.9,48.7,56.5"/>
	<path class="st31" d="M22,144.6c1.6-0.2,3.1,0,4.1,1.6c1,1.8,1.3,3.6,0.4,5.5c-0.8,1.7-2.1,2.8-3.8,3.4c-3.4,1.1-7-1.9-6.4-5.4
		C16.7,146.4,19,143.9,22,144.6"/>
	<path class="st32" d="M35.5,144.6c3,0,4.7,1.6,4.8,4.6c0.1,2.9-2.1,5.6-5,6.1c-3.2,0.5-6-2.1-5.8-5.3
		C29.7,146.5,31.9,144.6,35.5,144.6"/>
	<path class="st33" d="M99.8,145.7c-0.4-3.8-0.8-7.6-1.2-11.4c-0.2-2.2,0.3-3.7,1.3-3.5c1.7,0.3,1.7,1.7,1.8,3
		c0.3,4,0.6,7.9,0.8,11.9c0.1,1.1,0,2.3-0.5,3.3c-0.7,1.3,0,3.4-2.2,3.7c-1-1.2-0.3-2.7-0.5-4c-0.1-0.9,0-1.9,0-2.9
		C99.5,145.8,99.7,145.7,99.8,145.7"/>
	<path class="st34" d="M92.7,146.1c0.2-1.2,0.3-2.2,0.6-3c0.2-0.5,0.9-1,1.4-1c0.5,0,1.3,0.5,1.5,0.9c0.7,2.2,0.7,4.4-1,6.2
		c-0.4,0.4-1.4,0.4-1.6-0.2C93.2,148.1,92.9,147,92.7,146.1"/>
	<path class="st35" d="M50.3,86.3c0,1.7,0.1,3.5,0,5.2c-0.2,1.6-1.7,2.9-3.2,3c-1.5,0.1-3.2-0.9-3.8-2.3c-0.2-0.6-0.4-1.2-0.4-1.8
		c0-2.9-0.1-5.7,0-8.6c0.1-2.1,1.7-3.6,3.6-3.7c1.9-0.1,3.5,1.3,3.9,3.5c0.1,0.3,0.1,0.6,0.1,0.9c0,1.3,0,2.5,0,3.8H50.3z"/>
	<path class="st36" d="M76.7,86.5c0,1.4,0.1,2.9,0,4.3c-0.2,2.2-1.6,3.6-3.6,3.8c-1.9,0.1-3.6-1.2-3.7-3.5c-0.1-3.3-0.2-6.7,0.1-9.9
		c0.3-2.8,3.6-4,5.8-2.2c0.7,0.5,1.2,1.5,1.3,2.4C76.8,83,76.6,84.8,76.7,86.5C76.6,86.5,76.6,86.5,76.7,86.5"/>
	<path class="st37" d="M55,20.6c0.2-1.5,0.4-3,0.6-4.6c0.1-0.8,0.3-1.8,1.3-1.7c0.7,0,1.3,0.7,2,1c0.1,0.1,0.2,0.3,0.3,0.4
		c0.7,0.8,0.8,2.4,2.1,2.3c0.8-0.1,1.4-1.2,2.2-1.7c1.4-1,2.9-0.5,3.2,1.3c0.2,1.8,0.9,2.4,2.6,2.5c1.4,0.1,2,1.1,1.7,2.3
		c-0.1,0.4-0.6,1-0.8,1c-1.5-0.1-3.1-0.4-4.6-0.7c-0.3-0.1-0.6-0.3-0.7-0.6c-0.7-1.5-1.4-1.8-2.8-0.6c-1.3,1.1-2.2,0-3.1-1
		c-0.7-0.9-1.2-0.7-1.5,0.4c-0.5,1.8-1,3.5-3.5,2.7c-0.3-0.1-0.8,0.3-1.2,0.5c-1.4,0.8-1.9,0.6-2.2-0.7c-0.5-2.4,0.3-3.1,2.8-2.7
		c0.3,0,0.6,0.1,0.9,0.1C54.5,20.7,54.6,20.6,55,20.6"/>
	<path class="st38" d="M24.2,148.6c-0.3,0.9-0.5,1.7-0.8,2.3c-0.6,0.9-2.1,1.2-2.9,0.7c-1-0.6-1.1-1.5-0.8-2.5
		c0.1-0.6,0.5-1.2,0.9-1.6c0.6-0.8,1.5-1.3,2.4-0.7C23.4,147.2,23.7,148,24.2,148.6"/>
	<path class="st39" d="M32.4,150.1c0.3-0.9,0.5-1.5,0.8-2c0.7-1.1,1.8-1.8,2.7-1.6c1,0.3,1.7,1.9,1.3,3.2c-0.4,1.3-1.6,2.4-2.8,2
		C33.6,151.6,33,150.7,32.4,150.1"/>
	<path class="st40" d="M45.1,86.4c0-1.4-0.1-2.9,0-4.3c0.1-0.8,0.6-1.5,1.6-1.4c0.9,0,1.5,0.7,1.5,1.5c0.1,2.9,0.1,5.7,0,8.6
		c0,0.8-0.6,1.5-1.6,1.4c-0.9-0.1-1.5-0.7-1.5-1.5C45,89.3,45,87.8,45.1,86.4C45.1,86.4,45.1,86.4,45.1,86.4"/>
	<path class="st41" d="M74.4,86.1c0,1.6,0,3.2,0,4.7c0,0.8-1,1.5-1.7,1.2c-0.5-0.2-1-0.8-1-1.3c-0.1-2.8-0.1-5.7,0-8.5
		c0-0.3,0.1-0.7,0.3-0.9c0.3-0.3,0.8-0.7,1.1-0.6c0.4,0,1,0.4,1.1,0.7c0.3,1.5,0.4,3.1,0.5,4.7L74.4,86.1z"/>
</g>
</svg>
