<?xml version="1.0" encoding="utf-8"?>
<!-- Generator: Adobe Illustrator 22.1.0, SVG Export Plug-In . SVG Version: 6.00 Build 0)  -->
<svg version="1.1" id="Capa_1" xmlns="http://www.w3.org/2000/svg" xmlns:xlink="http://www.w3.org/1999/xlink" x="0px" y="0px"
	 viewBox="0 0 294.5 180" style="enable-background:new 0 0 294.5 180;" xml:space="preserve">
<style type="text/css">
	.st0{clip-path:url(#SVGID_2_);fill:#FFFFFF;}
	.st1{clip-path:url(#SVGID_2_);fill:#010000;}
	.st2{clip-path:url(#SVGID_2_);fill:#FD9801;}
	.st3{clip-path:url(#SVGID_2_);fill:#F8F9F9;}
	.st4{clip-path:url(#SVGID_2_);fill:#F8FAFA;}
	.st5{clip-path:url(#SVGID_2_);fill:#F0F6F2;}
	.st6{clip-path:url(#SVGID_2_);fill:#F1F6F1;}
	.st7{clip-path:url(#SVGID_2_);fill:#1A1313;}
	.st8{clip-path:url(#SVGID_2_);fill:#FE9801;}
	.st9{clip-path:url(#SVGID_2_);fill:#8C9B9B;}
	.st10{clip-path:url(#SVGID_2_);fill:#482F03;}
	.st11{clip-path:url(#SVGID_2_);fill:#A56700;}
	.st12{clip-path:url(#SVGID_2_);fill:#96620B;}
	.st13{clip-path:url(#SVGID_2_);}
	.st14{clip-path:url(#SVGID_2_);fill:#1B1A1A;}
	.st15{clip-path:url(#SVGID_2_);fill:#231E1E;}
</style>
<g>
	<defs>
		<rect id="SVGID_1_" x="-1216" y="-316.5" width="1920" height="1080"/>
	</defs>
	<clipPath id="SVGID_2_">
		<use xlink:href="#SVGID_1_"  style="overflow:visible;"/>
	</clipPath>
	<path class="st0" d="M119.8,72.9c8.1-6.4,17-9.9,27.2-9.8c10.2,0.1,19,3.8,27,10.2c3.4-2.2,6.8-4.4,10.1-6.6
		c18-11.9,36-23.7,54-35.6c11.6-7.6,23.2-15.2,34.9-22.8c3.1-2,6.1-4,9.3-6c0.9-0.6,2-1.1,3-1.3c2.4-0.5,4.8-0.2,6.5,1.9
		c1.9,2.3,2.4,4.9,1.3,7.6c-0.8,2.1-2.3,3.8-4,5.3c-4.4,3.9-8.8,7.9-13.2,11.8c-12.3,11-24.5,21.9-36.9,32.8
		c-1.8,1.6-2.6,3.2-2.6,5.7c0.1,6.7-0.2,13.4-0.4,20.1c0,1.1,0.1,2.2,0.2,3.3c0.6,3.5-0.3,6.7-2.4,9.5c-2.5,3.3-5.1,6.5-7.7,9.8
		c-8.3,10.2-16.5,20.3-24.9,30.4c-5.7,6.9-11.3,13.8-17.8,20.1c-1,1-1.8,2.2-2.7,3.3c-8.7,10.5-19.5,17-33.3,17.4
		c-11.3,0.4-21.4-3.3-29.7-11.1c-2.7-2.5-4.9-5.5-7.3-8.2c-0.7-0.8-1.3-1.8-2.1-2.6c-7.6-7.8-14.3-16.3-21.2-24.7
		c-8-9.8-16-19.5-24-29.3c-1.3-1.6-2.6-3.2-3.8-4.9C57.8,97,57,94.5,57,91.7c0-6.5,0-13.1,0-19.6c0-2.4-0.1-4.8,0.1-7.2
		c0.2-1.8-0.4-3-1.7-4.2C51.2,57,47,53.2,42.9,49.5C30.3,38.3,17.8,27.2,5.3,16c-1.5-1.4-2.7-3.1-3.8-4.8c-0.6-0.9-0.9-2.1-1-3.1
		C0.1,2.9,4.7-0.7,9.7,1c1.2,0.4,2.3,1.2,3.3,1.8c20.6,13.4,41.2,26.8,61.8,40.3C89,52.5,103.2,62,117.5,71.5
		C118.1,71.9,118.8,72.3,119.8,72.9"/>
	<path class="st1" d="M120.2,79.2c1.4-1.1,2.6-2.1,3.9-3.1c6.4-4.9,13.6-7.7,21.7-7.9c9.4-0.2,17.5,3,24.7,8.9
		c3.5,2.9,2.5,3.1,6.8,0.3c30.7-20.2,61.4-40.4,92.1-60.6c4.4-2.9,8.8-5.7,13.3-8.6c0.9-0.6,1.9-1.2,2.9-1.7
		c0.9-0.6,1.8-0.5,2.6,0.3c0.7,0.8,0.8,1.8,0.3,2.7c-1,1.4-2.1,2.8-3.4,4c-3.8,3.5-7.6,6.8-11.4,10.2c-13.5,12-26.9,24-40.5,36
		c-1.5,1.3-1.7,2.6-1.7,4.6c0.2,6.5,0,13.1,0,19.6c0,2.1-0.2,4.2,0,6.2c0.4,2.9-0.3,5.4-2.1,7.6c-1.6,2-3.2,4-4.8,6
		c-9.3,11.4-18.7,22.7-28,34.1c-5.3,6.4-10.6,12.8-16.5,18.6c-1,1-1.8,2.2-2.7,3.3c-2.8,3.7-6.2,6.9-10.1,9.5
		c-12.8,8.3-26.1,8.7-39.5,1.6c-5.3-2.8-9.3-7.2-12.9-12c-1.3-1.8-2.8-3.5-4.2-5.2c-5.7-6.7-11.5-13.3-17.1-20
		c-8.8-10.6-17.5-21.2-26.2-31.9c-1.2-1.5-2.4-3-3.6-4.5c-1.3-1.6-1.8-3.3-1.8-5.3c0-8.3,0-16.6,0-24.9c0-1.4,0-2.9,0.3-4.3
		c0.3-1.5-0.3-2.4-1.3-3.3c-4.8-4.2-9.5-8.5-14.3-12.8c-12.4-11-24.8-22.1-37.3-33.1c-1-0.8-1.9-1.7-2.7-2.7c-0.5-0.6-1-1.4-1.1-2.1
		C5.4,8,5.7,7.1,6.1,6.5c0.5-0.8,1.4-0.8,2.1-0.4c1.3,0.7,2.5,1.4,3.7,2.2c19.8,12.9,39.6,25.8,59.4,38.8
		c15,9.8,29.8,19.7,44.8,29.6C117.4,77.6,118.8,78.4,120.2,79.2"/>
	<path class="st0" d="M185.6,121.7c-0.4,12.6-3.8,24.9-12.1,35.4c-3.3,4.2-7.2,7.7-11.8,10.3c-10.6,6-21.3,6-31.8-0.2
		c-5.5-3.2-9.8-7.6-13.3-12.8c-5.4-8-8.2-16.8-8.7-26.5c-0.6-11.6,1.6-22.5,7.2-32.7c3.7-6.7,8.6-12.3,15-16.4
		c15.9-10.1,34.5-5.2,44.5,8.8C182.7,98.9,185.4,109,185.6,121.7"/>
	<path class="st0" d="M66.9,88.3c-0.3-0.9-0.9-1.7-0.9-2.6c0-6.5,0.1-13.1,0.2-19.6c0-0.4,0.3-0.8,0.6-1c0.1-0.1,0.6,0.1,0.8,0.3
		c0.7,0.6,1.5,1.2,2.2,1.9c11.7,10.4,23.3,20.8,35,31.1c1.7,1.5,2,2.8,1.3,4.9c-2,6.3-2.7,12.7-2.8,19.3c0,0.9,0.4,1.9-0.7,2.8
		c-3.9-4.1-7.8-8.2-11.7-12.2c-3.6-1.3-4.7-4.8-7-7.3l-0.2-0.2c-0.1-0.4-0.4-0.6-0.7-0.8l-0.2-0.2c-0.1-0.4-0.4-0.6-0.8-0.8
		l-0.2-0.2c-0.1-0.4-0.4-0.6-0.8-0.8l-0.2-0.2c-0.2-0.4-0.4-0.6-0.8-0.8l-0.2-0.2c-0.2-0.4-0.4-0.6-0.8-0.8l-0.1-0.2
		c-0.2-0.4-0.5-0.6-0.8-0.8l-0.1-0.1c-0.2-0.3-0.5-0.6-0.8-0.8l-0.1-0.1c-0.2-0.3-0.5-0.6-0.8-0.9l-0.1-0.1
		c-0.2-0.3-0.5-0.6-0.8-0.9l-0.1-0.1c-0.2-0.3-0.5-0.6-0.8-0.9l-0.1-0.1c-0.3-0.3-0.6-0.6-0.9-0.9l-0.1-0.1
		c-0.3-0.3-0.6-0.6-0.9-0.9L72.6,94c-0.3-0.3-0.6-0.6-0.9-0.9L71.6,93c-0.3-0.3-0.6-0.6-0.9-0.9L70.7,92c-0.3-0.3-0.6-0.6-0.9-0.9
		l-0.1-0.1c-0.3-0.3-0.6-0.6-0.9-0.9l-0.1-0.1c-0.3-0.3-0.6-0.6-0.9-0.9l-0.1-0.1C67.5,88.9,67.2,88.6,66.9,88.3"/>
	<path class="st0" d="M189.6,126.2c0.3-8.8-0.4-16.2-2.7-23.4c-0.5-1.7,0.3-2.6,1.5-3.7c8.4-7.4,16.7-14.8,25-22.2
		c3.6-3.2,7.1-6.4,10.7-9.5c0.7-0.6,1.4-1.1,2.1-1.6c1.1,0.7,0.7,1.6,0.7,2.3c0.1,5.4,0,10.8,0.2,16.3c0.1,1.9-0.4,3.3-1.8,4.6
		c-4.4,4.4-8.7,8.8-13,13.3c-6.3,6.6-12.5,13.2-18.7,19.8C192.6,123.2,191.5,124.3,189.6,126.2"/>
	<path class="st2" d="M54.5,45.9c4.4,3,8.8,6,13.5,8.5c-5-4.7-10.1-9.1-15.5-13.3c1.1-0.4,2.2-0.5,3.2,0.2c4.5,3,8.9,6.1,13.4,9.1
		c1.4,1,2.9,1.9,4.4,2.9c0.7,1.2,1.9,1.6,3,2.3l-0.1,0c0.9,0.8,2,1.3,3,2l-0.1-0.1c9,6.8,18.9,12.3,27.2,19.9
		c0.9,0.9,2.1,1.5,2.8,2.6c0.5,0.8,1.2,1.6,0.5,2.6c-0.7,0.9-1.7,0.5-2.6,0.2c-1.3-0.9-2.6-1.8-3.9-2.7c-6.3-4.6-12.6-9.3-18.9-13.9
		c-0.5-0.4-1.1-0.5-1.7-0.8c-0.1,0-0.3,0.2-0.3,0.3c-0.1,0.1-0.2,0.3-0.1,0.4c0.4,0.6,0.8,1.3,1.4,1.8c8.3,6.8,16.6,13.6,24.9,20.3
		c0.6,0.5,1.3,1,1.9,1.5c0.7,0.6,0.9,1.3,0.5,2.1c-0.7,1.3-1.3,2.5-2.1,4c-0.8-0.5-1.5-0.8-2-1.3C88.9,78.7,71.1,62.9,53.4,47
		C53.3,46.1,53.6,45.7,54.5,45.9"/>
	<path class="st2" d="M239.7,48c-8.9,8-17.8,16-26.7,23.9c-8.2,7.3-16.4,14.6-24.7,21.9c-0.8,0.7-1.7,1.4-2.5,2.1
		c-0.5-0.3-0.8-0.4-0.9-0.6c-2.7-5.1-2.8-4.1,1.5-7.5c8.2-6.6,16.3-13.3,24.4-20c0.4-0.4,0.7-1,1-1.5c0.1-0.1-0.1-0.3-0.1-0.4
		c-0.1-0.1-0.3-0.4-0.3-0.3c-0.6,0.2-1.2,0.4-1.7,0.8c-4.8,3.4-9.6,6.9-14.3,10.4c-0.8,0.6-1.6,1.1-2.4,1.6
		c-1.8-0.3-2.8,1.4-4.2,1.9c-1.6,0.5-3.6,2-4.6,0c-0.8-1.6,1.1-2.6,2.5-3.5c6.3-4.2,12.5-8.6,19-12.6c5.7-3.5,11.2-7.2,16.9-10.7
		c0.9-0.6,1.8-1.4,3-1.1c2.7,2.2,4.2-2,6.6-1.4c0.3,0,0.6-0.2,0.8-0.4c0.4-0.1,0.7-0.3,1-0.7l0.1,0c0.3-0.3,0.6-0.7,1.1-0.8
		c0.3-0.1,0.5-0.2,0.7-0.4c0.4-0.1,0.7-0.3,0.9-0.7c0.6-0.4,1.3-0.7,1.9-1.1C239.5,46.6,239.8,47.1,239.7,48"/>
	<path class="st3" d="M186.7,141.9c0.7-3,1.5-4.9,1.6-6.7c0.2-3.8,2.2-6.4,4.7-9c10.6-11.1,21.1-22.2,31.6-33.4
		c0.7-0.7,1.4-1.3,2.1-1.9c0.1-0.1,0.7-0.1,0.8,0.1c0.2,0.2,0.2,0.6,0.1,0.8c-0.4,0.7-0.9,1.3-1.4,1.9
		c-8.3,10.2-16.5,20.3-24.8,30.5c-4.1,5.1-8.2,10.2-12.4,15.3C188.6,140.1,188,140.6,186.7,141.9"/>
	<path class="st4" d="M89.7,114.4c4,4.5,8,9.1,12.1,13.5c1.5,1.6,2.5,3.1,2.7,5.4c0.3,2.5,1,4.9,1.8,8.2c-1.3-1.3-2.1-1.9-2.7-2.7
		c-11.8-14.5-23.5-29-35.3-43.4c-0.7-0.8-1.5-1.6-2.3-2.4c-0.9-0.8-0.8-1.7-0.1-2.6c1.4,1.2,2.7,2.5,4.1,3.7
		c0.1,0.4,0.3,0.6,0.7,0.7l0.2,0.2c0.1,0.4,0.4,0.6,0.8,0.8l0.2,0.2c0.2,0.4,0.4,0.6,0.8,0.8l0.1,0.2c0.2,0.3,0.5,0.6,0.8,0.8
		l0.1,0.2c0.2,0.3,0.5,0.6,0.8,0.8l0.1,0.2c0.2,0.3,0.5,0.6,0.8,0.8l0.1,0.1c0.3,0.3,0.5,0.6,0.8,0.8l0.1,0.1
		c0.3,0.3,0.6,0.6,0.8,0.9l0.1,0.1c0.3,0.3,0.6,0.6,0.9,0.9l0.1,0.1c0.3,0.3,0.6,0.6,0.9,0.9l0.1,0.1c0.3,0.3,0.6,0.6,0.9,0.9
		l0.1,0.1c0.3,0.2,0.6,0.6,0.9,0.9l0.1,0.1c0.4,0.2,0.7,0.5,0.9,0.9l0.1,0.1c0.4,0.2,0.7,0.5,0.9,0.9l0.1,0.1
		C86.3,109,88.6,111.1,89.7,114.4"/>
	<path class="st5" d="M226.2,52.8c-0.6,0.2-1.2,0.3-1.7,0.6c-11.9,7.6-23.8,15.3-35.7,23c-1.5,1-3.3,1.8-4.3,3.9
		c2.6-0.2,4.5-1.3,6.4-2.2c0.8-0.4,1.5-0.5,2.1,0.3c-4,3.1-7.9,6.4-12.3,9.3c-1.5-1.9-2.8-3.7-4.2-5.5c0.6-0.5,1-1,1.5-1.3
		c19.5-12.6,39-25.2,58.5-37.9c1-0.3,1.3,0.2,1.3,1.1c-1,0.9-2,1.9-3.1,2.8c-0.3,0.5-0.7,0.9-1.3,1c-0.2,0-0.4,0-0.4,0.3
		c-0.5,0.1-0.8,0.4-1,0.8l-0.1,0.1c-0.4,0.2-0.7,0.5-1,0.8l0,0c-0.3,0.5-0.6,1-1.1,1.3c-0.3,0.2-0.6,0.4-0.9,0.6
		c-0.3,0.2-0.6,0.4-0.9,0.5c-0.4,0.2-0.9,0.3-1.4,0.4C226.5,52.8,226.4,52.8,226.2,52.8"/>
	<path class="st6" d="M107.2,82.8c0.8-0.2,1.5-0.3,2.6-0.6c-0.5-0.6-0.7-1.1-1.2-1.5c-5.8-4.7-11.5-9.6-17.5-14.2
		c-3.3-2.5-6.8-4.7-10.2-7c-0.7-0.5-1.7-0.9-1.6-2.1c0.6,0.2,1.2,0.3,1.7,0.7c11.4,7.3,22.7,14.6,34.1,22c0.8,0.5,1.5,1.1,2.3,1.8
		c-1.4,1.9-2.8,3.6-4.2,5.5C111,86.1,109.1,84.5,107.2,82.8"/>
	<path class="st7" d="M89.7,114.4c-2.2-2.3-4.4-4.6-6.6-6.8c0.3-0.6,0.6-1.2,1-1.8c2.3,2.4,4.7,4.9,7,7.3
		C90.7,113.5,90.2,114,89.7,114.4"/>
	<path class="st8" d="M55.8,41.3c-1.1-0.1-2.2-0.1-3.2-0.2c-3.1-2.2-6.1-4.4-9.6-7C46,34.5,47.9,35.6,55.8,41.3"/>
	<path class="st0" d="M237.8,44.1c-0.4-0.4-0.9-0.7-1.3-1.1c3.6-3,7.3-5.7,11.7-7.5l-0.1-0.1c-0.1,0.3,0,0.7-0.2,0.9
		C244.6,38.9,241.2,41.5,237.8,44.1"/>
	<path class="st8" d="M54.5,45.9c-0.4,0.4-0.8,0.7-1.1,1.1c-3.9-2.8-7.5-5.8-10.5-9.6l0.1-0.1c0.3,0.1,0.7,0,0.9,0.2
		C47.4,40.3,51,43.1,54.5,45.9"/>
	<path class="st2" d="M239.7,48c-0.4-0.4-0.8-0.8-1.2-1.1c3.3-2.5,6.5-5,9.8-7.5c0.2-0.2,0.6,0,0.9,0l-0.1-0.1
		c-0.9,1-1.7,2.2-2.7,3.1C244.2,44.3,241.9,46.1,239.7,48"/>
	<path class="st2" d="M229.5,50.7c0.5-0.3,1-0.6,1.4-0.8c0.4,0.4,0.7,0.7,1.1,1c-1.7,1.3-3.5,2.7-5.2,3.9c-0.3,0.2-0.8,0-1.2,0
		c0.1-0.4,0.2-0.8,0.4-1.3c0.1-0.3,0.2-0.6,0.3-0.9c0,0-0.1,0-0.1,0c0.5-0.6,1.5-0.4,1.9-1.1l-0.1,0.1
		C228.5,51.4,228.9,51,229.5,50.7"/>
	<path class="st2" d="M76.5,55.6c-1.6,0-2.7-0.7-3-2.3C74.8,53.8,76,54.2,76.5,55.6"/>
	<path class="st6" d="M79.4,57.6c-1.6,0.2-2.3-0.8-3-2C77.7,55.8,78.8,56.4,79.4,57.6"/>
	<path class="st7" d="M66,90.4c0,0.9,0,1.7,0.1,2.6c-1.3-0.5-1.3-1.5-1-2.6C65.1,90.3,65.7,90.3,66,90.4"/>
	<path class="st9" d="M250.2,34.6c-0.7,0.3-1.4,0.5-2,0.8c0,0,0.1,0.1,0.1,0.1C248.6,34.4,249.5,34.7,250.2,34.6L250.2,34.6z"/>
	<path class="st7" d="M76.4,100.7c-0.3-0.3-0.6-0.6-0.8-0.9C75.9,100.1,76.1,100.4,76.4,100.7"/>
	<path class="st7" d="M77.4,98.9c0.3,0.3,0.6,0.6,0.8,0.9C78,99.5,77.7,99.2,77.4,98.9"/>
	<path class="st7" d="M75.5,99.7c-0.3-0.3-0.5-0.6-0.8-0.8C74.9,99.1,75.2,99.4,75.5,99.7"/>
	<path class="st7" d="M76.5,98c0.3,0.3,0.6,0.6,0.8,0.9C77,98.5,76.8,98.2,76.5,98"/>
	<path class="st7" d="M78.4,99.9c0.3,0.3,0.5,0.6,0.8,0.8C78.9,100.5,78.7,100.2,78.4,99.9"/>
	<path class="st7" d="M82.2,103.8c0.3,0.3,0.5,0.5,0.8,0.8C82.7,104.3,82.5,104.1,82.2,103.8"/>
	<path class="st7" d="M74.5,98.7c-0.3-0.3-0.5-0.5-0.8-0.8C74,98.2,74.2,98.4,74.5,98.7"/>
	<path class="st7" d="M83.2,104.8c0.2,0.3,0.5,0.5,0.7,0.8C83.7,105.3,83.4,105,83.2,104.8"/>
	<path class="st7" d="M82.1,106.5c-0.3-0.3-0.6-0.6-0.9-0.9C81.5,105.9,81.8,106.2,82.1,106.5"/>
	<path class="st7" d="M75.5,97c0.3,0.3,0.6,0.6,0.8,0.9C76.1,97.6,75.8,97.3,75.5,97"/>
	<path class="st7" d="M73.6,97.7c-0.3-0.3-0.5-0.5-0.8-0.8C73,97.2,73.3,97.5,73.6,97.7"/>
	<path class="st7" d="M74.6,96c0.3,0.3,0.6,0.6,0.8,0.9C75.1,96.6,74.9,96.3,74.6,96"/>
	<path class="st7" d="M72.6,96.8c-0.3-0.3-0.5-0.6-0.8-0.8C72.1,96.2,72.4,96.5,72.6,96.8"/>
	<path class="st7" d="M73.6,95c0.3,0.3,0.6,0.6,0.9,0.9C74.2,95.6,73.9,95.3,73.6,95"/>
	<path class="st7" d="M71.7,95.7c-0.3-0.3-0.5-0.5-0.8-0.8C71.2,95.2,71.4,95.5,71.7,95.7"/>
	<path class="st7" d="M72.7,94.1c0.3,0.3,0.6,0.6,0.9,0.9C73.3,94.6,73,94.3,72.7,94.1"/>
	<path class="st7" d="M70.7,94.7c-0.2-0.2-0.4-0.5-0.7-0.7C70.3,94.3,70.5,94.5,70.7,94.7"/>
	<path class="st7" d="M80.2,104.6c-0.3-0.3-0.6-0.6-0.9-0.9C79.6,104,79.9,104.3,80.2,104.6"/>
	<path class="st7" d="M70.8,92.1c0.3,0.3,0.6,0.6,0.9,0.9C71.3,92.7,71.1,92.4,70.8,92.1"/>
	<path class="st7" d="M69.8,91.2c0.3,0.3,0.6,0.6,0.9,0.9C70.4,91.8,70.1,91.5,69.8,91.2"/>
	<path class="st7" d="M68.9,90.2c0.3,0.3,0.6,0.6,0.9,0.9C69.4,90.8,69.1,90.5,68.9,90.2"/>
	<path class="st7" d="M67.9,89.2c0.3,0.3,0.6,0.6,0.9,0.9C68.5,89.8,68.2,89.5,67.9,89.2"/>
	<path class="st7" d="M77.4,101.7c-0.3-0.3-0.6-0.6-0.8-0.9C76.8,101.1,77.1,101.4,77.4,101.7"/>
	<path class="st7" d="M83.1,107.5c-0.3-0.3-0.6-0.6-0.9-0.9C82.5,106.9,82.8,107.2,83.1,107.5"/>
	<path class="st7" d="M66.9,88.3c0.3,0.3,0.6,0.6,0.9,0.9C67.5,88.9,67.2,88.6,66.9,88.3"/>
	<path class="st10" d="M233.5,47.9c0.4-0.3,0.8-0.7,1.3-1C234.3,47.2,233.9,47.6,233.5,47.9"/>
	<path class="st7" d="M79.3,100.9c0.3,0.3,0.5,0.5,0.8,0.8C79.9,101.4,79.6,101.2,79.3,100.9"/>
	<path class="st10" d="M232,49c0.3-0.3,0.7-0.5,1-0.8C232.7,48.4,232.4,48.7,232,49"/>
	<path class="st10" d="M236.6,48c-0.3,0.2-0.6,0.5-0.9,0.7C236,48.4,236.3,48.2,236.6,48"/>
	<path class="st11" d="M249.2,39.4c0.1-0.2,0.2-0.5,0.3-0.7C250.3,39.4,249.4,39.2,249.2,39.4L249.2,39.4z"/>
	<path class="st10" d="M231,49.9c0.3-0.3,0.6-0.6,1-0.8C231.6,49.3,231.3,49.6,231,49.9"/>
	<path class="st10" d="M235,49.1c-0.4,0.3-0.7,0.5-1.1,0.8C234.2,49.6,234.6,49.3,235,49.1"/>
	<path class="st12" d="M42.9,37.4c-0.2-0.1-0.4-0.3-0.6-0.4c0.5-0.6,0.6,0,0.7,0.3L42.9,37.4z"/>
	<path class="st7" d="M81.2,105.6c-0.3-0.3-0.6-0.6-0.9-0.9C80.6,105,80.9,105.3,81.2,105.6"/>
	<path class="st9" d="M250.3,34.7c0-0.1,0-0.2,0-0.3C250.3,34.5,250.2,34.6,250.3,34.7C250.2,34.6,250.3,34.7,250.3,34.7"/>
	<path class="st10" d="M233.8,49.9l-1,0.7L233.8,49.9z"/>
	<path class="st7" d="M78.3,102.6c-0.3-0.3-0.6-0.6-0.9-0.9C77.7,102.1,78,102.3,78.3,102.6"/>
	<path class="st7" d="M80.3,101.9c0.3,0.3,0.5,0.5,0.8,0.8C80.8,102.4,80.5,102.1,80.3,101.9"/>
	<path class="st7" d="M79.3,103.6c-0.3-0.3-0.6-0.6-0.9-0.9C78.7,103,79,103.3,79.3,103.6"/>
	<path class="st7" d="M81.2,102.9c0.3,0.3,0.5,0.5,0.8,0.8C81.8,103.4,81.5,103.1,81.2,102.9"/>
	<path class="st7" d="M71.7,93.1c0.3,0.3,0.6,0.6,0.9,0.9C72.3,93.7,72,93.4,71.7,93.1"/>
	<path class="st13" d="M142.7,117.6c0.2-1.9,0.3-3.8,0.6-5.6c0.5-3.3,1.1-6.6,1.6-9.9c0.1-0.8,0.1-1.6,0-2.4c-0.2-1-0.9-1.8-2-1.7
		c-0.7,0.1-1.6,0.5-2,1c-0.5,0.7-0.7,1.7-0.9,2.7c-0.8,5-1.5,10.1-2.3,15.1c-0.1,0.5-0.3,0.9-0.5,1.3c-0.2,0.2-0.5,0.5-0.7,0.5
		c-0.2,0-0.6-0.3-0.7-0.5c-0.3-0.7-0.6-1.5-0.6-2.2c0-2.2,0.1-4.5,0.2-6.7c0-1.1,0.1-2.2-0.1-3.3c-0.1-0.5-0.7-1.3-1.1-1.3
		c-0.7,0-1.6,0.3-2,0.8c-0.5,0.7-0.9,1.7-1,2.6c-0.3,4-0.6,8-0.5,12c0.1,2.4,0.2,4.8-0.4,7.1c-1,3.6-1.1,7.2-1.1,10.9
		c0,3.9-0.9,7.6-2.8,11c-0.3,0.5-0.7,1-1.3,1.7c-2-3.4-2.7-7-3.4-10.6c-1-5-1.1-10.2-1.2-15.3c-0.1-5.9,0-11.8,1.1-17.7
		c0.8-4.1,2-8.1,4-11.7c3.9-7.1,9.8-11.1,17.8-12.2c4.2-0.6,8.3-0.4,12.4,0.4c7,1.3,11.8,5.4,14.5,11.9c1.7,4.2,2.6,8.5,3.1,13
		c0.8,7.8,0.9,15.6,0,23.5c-0.5,4.8-1.5,9.5-3.3,13.9c-3.6,9-10.3,14-19.9,15c-4.3,0.4-8.6,0.4-13.1-1c1.3-4,2.7-7.8,5.3-11
		c1.1-1.3,2.6-2.4,4-3.3c2.2-1.4,4.5-2.4,6.7-3.8c1.5-0.9,3.1-1.9,4.1-3.2c2.2-2.9,5.2-4.7,7.9-6.9c0.6-0.5,1.4-0.8,2-1.3
		c0.9-0.7,2.1-1.4,1.5-2.6c-0.5-1.1-1.7-1.3-2.9-1.4c-2.2-0.2-4,0.7-5.8,2c-1.7,1.2-3.3,2.4-5.1,3.6c-1,0.6-1.9,0-1.8-1.2
		c0.1-3.9,1.1-7.6,2.6-11.1c1.7-4.1,3.4-8.2,5.1-12.4c0.5-1.2,0.8-2.4,1-3.7c0.1-1-0.6-1.8-1.5-2.2c-1.1-0.5-1.9,0.1-2.5,0.9
		c-0.6,0.9-1.1,2-1.5,3c-1.5,3.9-3,7.7-4.5,11.6c-0.6,1.6-2,2.5-2.2,1.9c-0.2-0.9-0.3-1.9,0-2.7c1.3-5.4,2.8-10.8,4.2-16.2
		c0.4-1.6,0-2.4-1.4-3.1c-0.9-0.4-2.1-0.2-2.5,0.6c-0.5,1-0.9,2-1.2,3.1c-1.4,5.2-2.7,10.5-4.1,15.7c-0.2,0.6-0.8,1.2-1.2,1.8
		C143.1,117.7,142.9,117.7,142.7,117.6"/>
	<path class="st14" d="M181.8,130.5c-0.2,3.5-1.1,7.9-2.8,12.1c-0.3,0.7-1,1.2-1.6,1.7c-0.2,0.1-1-0.1-1.1-0.3
		c-0.2-0.6-0.4-1.2-0.3-1.8c0.2-1.1,0.5-2.2,0.8-3.2c1-3.8,2.2-7.7,2.3-11.7c0-0.7,0.5-1.5,1-1.9c0.4-0.4,1.3,0.7,1.5,1.9
		c0,0.3,0.1,0.6,0.1,1C181.9,128.6,181.8,129.1,181.8,130.5"/>
	<path class="st15" d="M180.6,117.2c-1.1,0-1.9-0.9-1.9-2.2c0-1.3,0.9-2.2,2-2.1c1.1,0.1,2,1,1.9,2.2
		C182.6,116.3,181.7,117.2,180.6,117.2"/>
	<path class="st2" d="M228.1,51.7c-0.4,0.9-1,1.3-1.9,1.1C226.4,51.9,227.1,51.6,228.1,51.7"/>
	<path class="st2" d="M229.5,50.7l-1.5,1C228.1,50.9,228.7,50.7,229.5,50.7"/>
</g>
</svg>
