<?xml version="1.0" encoding="utf-8"?>
<!-- Generator: Adobe Illustrator 22.1.0, SVG Export Plug-In . SVG Version: 6.00 Build 0)  -->
<svg version="1.1" id="Capa_1" xmlns="http://www.w3.org/2000/svg" xmlns:xlink="http://www.w3.org/1999/xlink" x="0px" y="0px"
	 viewBox="0 0 1155 899.1" style="enable-background:new 0 0 1155 899.1;" xml:space="preserve">
<style type="text/css">
	.st0{clip-path:url(#SVGID_2_);fill:#FFFFFF;}
	.st1{clip-path:url(#SVGID_2_);fill:#010000;}
	.st2{clip-path:url(#SVGID_2_);fill:#FEFEFE;}
	.st3{clip-path:url(#SVGID_2_);}
	.st4{clip-path:url(#SVGID_2_);fill:#010101;}
	.st5{clip-path:url(#SVGID_2_);fill:#060606;}
	.st6{clip-path:url(#SVGID_2_);fill:#030303;}
	.st7{clip-path:url(#SVGID_2_);fill:#FF9900;}
	.st8{clip-path:url(#SVGID_2_);fill:#CDCDCD;}
	.st9{clip-path:url(#SVGID_2_);fill:#FE9900;}
	.st10{clip-path:url(#SVGID_2_);fill:#CCCCCC;}
	.st11{clip-path:url(#SVGID_2_);fill:#F7F7F7;}
	.st12{clip-path:url(#SVGID_2_);fill:#FEFEFD;}
	.st13{clip-path:url(#SVGID_2_);fill:#FD9800;}
	.st14{clip-path:url(#SVGID_2_);fill:#CACACA;}
	.st15{clip-path:url(#SVGID_2_);fill:#FDFDFD;}
	.st16{clip-path:url(#SVGID_2_);fill:#FCFCFC;}
	.st17{clip-path:url(#SVGID_2_);fill:#FC9700;}
	.st18{clip-path:url(#SVGID_2_);fill:#FEFDFC;}
	.st19{clip-path:url(#SVGID_2_);fill:#FCFBFA;}
	.st20{clip-path:url(#SVGID_2_);fill:#FCFCFA;}
	.st21{clip-path:url(#SVGID_2_);fill:#FD9903;}
	.st22{clip-path:url(#SVGID_2_);fill:#F5F5F5;}
	.st23{clip-path:url(#SVGID_2_);fill:#CBCBCB;}
	.st24{clip-path:url(#SVGID_2_);fill:#FBFAF8;}
	.st25{clip-path:url(#SVGID_2_);fill:#F6F6F6;}
	.st26{clip-path:url(#SVGID_2_);fill:#F3F3F3;}
	.st27{clip-path:url(#SVGID_2_);fill:#FBFBFB;}
	.st28{clip-path:url(#SVGID_2_);fill:#FAFAFA;}
	.st29{clip-path:url(#SVGID_2_);fill:#F4F4F4;}
	.st30{clip-path:url(#SVGID_2_);fill:#FFFBF6;}
	.st31{clip-path:url(#SVGID_2_);fill:#F0F0F0;}
	.st32{clip-path:url(#SVGID_2_);fill:#F2F2F2;}
	.st33{clip-path:url(#SVGID_2_);fill:#EEEEEE;}
	.st34{clip-path:url(#SVGID_2_);fill:#F8F8F8;}
	.st35{clip-path:url(#SVGID_2_);fill:#E7E7E7;}
	.st36{clip-path:url(#SVGID_2_);fill:#E8E8E8;}
	.st37{clip-path:url(#SVGID_2_);fill:#F1F1F1;}
	.st38{clip-path:url(#SVGID_2_);fill:#E88B00;}
	.st39{clip-path:url(#SVGID_2_);fill:#E6E6E6;}
	.st40{clip-path:url(#SVGID_2_);fill:#E3E3E3;}
	.st41{clip-path:url(#SVGID_2_);fill:#EDEDED;}
	.st42{clip-path:url(#SVGID_2_);fill:#E2E2E2;}
	.st43{clip-path:url(#SVGID_2_);fill:#E5E5E5;}
	.st44{clip-path:url(#SVGID_2_);fill:#DCDCDC;}
	.st45{clip-path:url(#SVGID_2_);fill:#DEDEDE;}
	.st46{clip-path:url(#SVGID_2_);fill:#D3D3D3;}
	.st47{clip-path:url(#SVGID_2_);fill:#E0E0E0;}
	.st48{clip-path:url(#SVGID_2_);fill:#C4C4C4;}
	.st49{clip-path:url(#SVGID_2_);fill:#B7B7B7;}
	.st50{clip-path:url(#SVGID_2_);fill:#8E8E8E;}
	.st51{clip-path:url(#SVGID_2_);fill:#8F8F8F;}
	.st52{clip-path:url(#SVGID_2_);fill:#7E7E7E;}
	.st53{clip-path:url(#SVGID_2_);fill:#8A8A8A;}
	.st54{clip-path:url(#SVGID_2_);fill:#070707;}
	.st55{clip-path:url(#SVGID_2_);fill:#040404;}
	.st56{clip-path:url(#SVGID_2_);fill:#0A0A0A;}
	.st57{clip-path:url(#SVGID_2_);fill:#0B0B0B;}
	.st58{clip-path:url(#SVGID_2_);fill:#090909;}
	.st59{clip-path:url(#SVGID_2_);fill:#0C0C0C;}
	.st60{clip-path:url(#SVGID_2_);fill:#020101;}
	.st61{clip-path:url(#SVGID_2_);fill:#020202;}
	.st62{clip-path:url(#SVGID_2_);fill:#080808;}
	.st63{clip-path:url(#SVGID_2_);fill:#111111;}
	.st64{clip-path:url(#SVGID_2_);fill:#0E0E0E;}
	.st65{clip-path:url(#SVGID_2_);fill:#050300;}
	.st66{clip-path:url(#SVGID_2_);fill:#0F0900;}
	.st67{clip-path:url(#SVGID_2_);fill:#120B00;}
	.st68{clip-path:url(#SVGID_2_);fill:#0E0800;}
	.st69{clip-path:url(#SVGID_2_);fill:#070501;}
	.st70{clip-path:url(#SVGID_2_);fill:#FFFBF5;}
	.st71{clip-path:url(#SVGID_2_);fill:#0B0905;}
	.st72{clip-path:url(#SVGID_2_);fill:#0C0700;}
	.st73{clip-path:url(#SVGID_2_);fill:#080603;}
	.st74{clip-path:url(#SVGID_2_);fill:#FFF9EF;}
	.st75{clip-path:url(#SVGID_2_);fill:#190F00;}
	.st76{clip-path:url(#SVGID_2_);fill:#F9F2E9;}
	.st77{clip-path:url(#SVGID_2_);fill:#0D0D0D;}
	.st78{clip-path:url(#SVGID_2_);fill:#0F0F0F;}
	.st79{clip-path:url(#SVGID_2_);fill:#171717;}
	.st80{clip-path:url(#SVGID_2_);fill:#2A2A2A;}
	.st81{clip-path:url(#SVGID_2_);fill:#3B3B3B;}
	.st82{clip-path:url(#SVGID_2_);fill:#1A1A1A;}
	.st83{clip-path:url(#SVGID_2_);fill:#151515;}
	.st84{clip-path:url(#SVGID_2_);fill:#323232;}
	.st85{clip-path:url(#SVGID_2_);fill:#444444;}
	.st86{clip-path:url(#SVGID_2_);fill:#040301;}
	.st87{clip-path:url(#SVGID_2_);fill:#030202;}
	.st88{clip-path:url(#SVGID_2_);fill:#181818;}
	.st89{clip-path:url(#SVGID_2_);fill:#101010;}
	.st90{clip-path:url(#SVGID_2_);fill:#5F5F5F;}
	.st91{clip-path:url(#SVGID_2_);fill:#F99600;}
	.st92{clip-path:url(#SVGID_2_);fill:#F79400;}
	.st93{clip-path:url(#SVGID_2_);fill:#FE9800;}
	.st94{clip-path:url(#SVGID_2_);fill:#131313;}
	.st95{clip-path:url(#SVGID_2_);fill:#050505;}
	.st96{clip-path:url(#SVGID_2_);fill:#EBEBEB;}
</style>
<g>
	<defs>
		<rect id="SVGID_1_" x="-382" y="-82.8" width="1920" height="1080"/>
	</defs>
	<clipPath id="SVGID_2_">
		<use xlink:href="#SVGID_1_"  style="overflow:visible;"/>
	</clipPath>
	<path class="st0" d="M575.2,899.1c-179.8,0-359.7,0-539.5,0c-4.5,0-8.9-0.2-13.4-0.5c-9.5-0.7-15.6-6.1-19.2-14.5
		c-1.1-2.6-1.6-5.5-2.1-8.3c-0.8-4.7-1-9.5-1-14.3c0-67,0-134.1,0-201.1C0,542.8,0,425.4,0,307.9C0,218.3,0,128.8,0.1,39.2
		c0-6.3,0.4-12.5,1.9-18.6c0.7-3,1.8-5.8,3.5-8.3C9.8,5.9,15.8,2.4,23.5,2c5.6-0.3,11.2-0.6,16.8-0.6c355.8,0,711.6,0,1067.4,0
		c6.6,0,13.1,0.2,19.7,0.6c12.1,0.6,19.3,9,21.6,18.6c1.4,5.6,1.9,11.3,1.9,17.1c0,34.4,0,68.8,0,103.2c0,48.8,0,97.6,0,146.4
		c0,99.4,0.1,198.7,0.1,298.1c0,91.8-0.1,183.7-0.1,275.5c0,6.3-0.4,12.5-1.7,18.6c-0.8,4-2.5,7.5-5,10.8c-3.4,4.4-7.7,7.1-13.2,8
		c-2.8,0.4-5.7,0.7-8.6,0.8c-2.7,0.1-5.4,0.1-8.2,0.1c-111.8,0-223.7,0-335.5,0H575.2z"/>
	<path class="st1" d="M575.3,892.9c-62.4,0-124.8,0-187.2,0c-117.8,0-235.5,0-353.3-0.1c-3.7,0-7.4-0.1-11-0.2
		c-6.8-0.1-11.5-3.6-14.4-9.5c-1.2-2.5-2.1-5.4-2.5-8.2c-0.6-4.7-0.9-9.6-0.9-14.3C6,778.9,6,697.1,6,615.4
		C6,515,5.9,414.7,5.9,314.4C5.9,223.7,5.9,133,6,42.3C6,37,6.4,31.7,6.8,26.5c0.4-4.2,1.6-8.2,4.2-11.6c3-4.1,7-6.2,12.2-6.7
		c8-0.8,16-0.7,23.9-0.7c354.2,0,708.4,0,1062.6-0.1c6.2,0,12.5,0.3,18.7,0.9c6.4,0.5,10.5,4.2,13.3,9.7c1.6,3.2,2.4,6.6,2.5,10.2
		c0.2,4.5,0.5,8.9,0.5,13.4c0,81.8,0,163.5,0,245.3c0.1,99.8,0.3,199.7,0.3,299.5c0,91.7-0.2,183.3-0.3,275c0,5.4-0.1,10.9-1.2,16.2
		c-0.6,2.7-1.5,5.2-3,7.5c-3.1,4.7-7.4,7.4-13.2,7.6c-4,0.1-8,0.2-12,0.2c-112.5,0-224.9,0-337.4,0
		C710.4,892.8,642.9,892.8,575.3,892.9L575.3,892.9z"/>
	<path class="st2" d="M575.2,887.3c-61.8,0-123.5,0-185.3,0c-118.9,0-237.8,0.1-356.6,0.1c-3,0-6.1-0.2-9.1-0.3
		c-4.7,0-7.9-2.4-9.8-6.5c-1-2.1-1.7-4.5-1.9-6.9c-0.5-5.1-0.8-10.2-0.8-15.3c-0.1-83-0.1-166.1,0-249.1c0-97.8,0.2-195.5,0.2-293.3
		c0-92-0.1-184-0.1-276c0-4.6,0.5-9.3,0.9-13.9c0.2-1.7,0.6-3.5,1.3-5.1c2-4.9,5.5-7.7,11-7.7c2.6,0,5.1,0,7.7,0
		c254.6,0,509.1-0.1,763.7-0.1c104.8,0,209.6,0,314.4,0c5,0,9.9,0.1,14.9,0c7-0.1,10.4,4.1,12,9c0.5,1.5,0.9,3.1,1,4.7
		c0.3,4.6,0.7,9.3,0.7,13.9c0,82.4,0.1,164.8,0,247.2c-0.1,92.6-0.3,185.3-0.3,277.9c0,97.3,0.2,194.6,0.3,291.8
		c0,5.1-0.3,10.2-0.8,15.3c-0.2,2.5-1,5.1-2,7.3c-1.8,4.1-5.1,6.5-9.8,6.5c-4.2,0-8.3,0.3-12.5,0.3c-105.4,0-210.9,0-316.3,0H575.2
		V887.3z"/>
	<path class="st3" d="M691.5,133c0.5,0.1,1.2,0.2,1.8,0.2c6.2,0,12.5,0,18.7,0c1.6,0,2.6-0.4,3.5-1.8c2.1-3.2,4.6-6.1,7-9.4
		c-1-0.4-1.9,0.4-2.8,0.3c-1.4-0.1-2.8-0.3-4.2-0.6c-0.3-0.1-0.8-0.6-0.8-0.9c0-0.4,0.4-0.8,0.8-1c0.8-0.4,1.7-0.8,2.6-1.1
		c4.5-1.6,8.1-4.4,11-8.2c2.2-2.9,4.5-5.7,7-8.9c-1.4-0.3-2.8-0.5-4.1-0.9c-1-0.3-2.1-0.8-3-1.4c-0.7-0.5-1.8-1.2-1.2-2.2
		c0.2-0.4,1.4-0.2,2.1-0.2c6.3,0,11.9-2.1,17.2-5.2c3.6-2.1,7-4.4,10.5-6.7c4.3-2.8,9-5,14-6.1c8.4-1.8,16.2-0.6,23.3,4.3
		c3,2.1,5.7,4.6,7.1,8.3c1.2-0.3,2.3-0.6,3.3-0.8c11-2.4,20.5,0.6,28.7,8.2c2,1.9,3.5,4.2,3.6,7.1c0,0.9-0.4,1.5-1.3,1.6
		c-1.5,0.1-2.8-0.4-4.1-1.1c-1.9-1.1-3.9-2-6.1-2.9c7.8,8.3,9.9,18.1,8.3,29.1c0.9,0.2,1.7,0.4,2.4,0.4c18.9,0,37.8,0,56.6,0
		c0.3,0,0.6,0,1,0c1.9-0.1,2.1-0.3,2.1-2.3c0-9.3,0-18.6-0.1-27.8c0-2.3,0.1-4.5,0.9-6.6c2.1-5.2,5.5-8.9,11.5-9.6
		c1.9-0.2,3.8-0.5,5.7-0.5c33.8-0.1,67.5-0.1,101.3-0.1c2.5,0,5.1,0.2,7.6,0.8c5.2,1.2,8.7,6.4,7.8,11.6c-0.5,2.6-0.5,5.1-0.4,7.6
		c0.1,7.7,0.2,15.4,0.2,23c0,1,0,1.9,0,2.9c0.1,2.2,0.4,2.5,2.3,2.9c0.5,0.1,1,0.1,1.4,0.2c4.3,0.8,8.2,2.6,11.6,5.4
		c6.4,5.2,11,11.5,13.3,19.5c0.6,2,1.2,4,1.7,6c0.6,2,0.8,2.2,3,2.2c6.1,0,12.2,0,18.2,0c2.7,0,5.4,0,8.2,0c1,0,2-0.1,2.9,0.2
		c5.3,1.5,5.3,1.5,5.4,6.3c0.1,12.8,0.1,25.6,0.1,38.4c0,1.1-0.2,2.2-0.4,3.3c-0.7,3.7-1.6,4.5-5.4,4.6c-2.6,0.1-5.1,0-7.7-0.1
		c-6.4-0.1-12.8-0.1-19.2-0.2c-0.6,0-1.3-0.1-1.9,0.1c-0.5,0.2-1.1,0.8-1.2,1.2c-0.2,1.4-0.1,2.9-0.1,4.3c0,31.4,0,62.7,0,94.1
		c0,8-0.1,16-0.2,24c0,2.6-0.6,3.5-3.3,3.7c-4.5,0.3-8.9,0.5-13.4,0.5c-12.5,0.1-25,0-37.4,0.1c-2.3,0-4.7-1.2-6.9,0.3
		c0,2.2-0.1,4.5-0.1,6.7c0,14.9,0,29.8,0,44.6c0,1.9,0.1,3.8-1.3,5.5c-0.9,1-1.7,1.9-3.1,2c-2.5,0.2-5.1,0.5-7.6,0.6
		c-9.3,0.1-18.6,0.2-27.8,0.2c-247.8,0-495.6,0-743.5,0c-2.1,0-4.2,0-6.2,0c-1.6,0-2.8-0.5-3.7-1.8c-0.5-0.6-1.1-1.2-1.5-1.8
		c-7.8-10.9-15.7-21.8-23.5-32.8c-2.5-3.5-4.7-7.3-6.8-11c-1-1.7-2.2-2.4-4.2-2.3c-12.5,0.1-25,0.1-37.4,0.1c-5,0-9.9-0.1-14.9-0.1
		c-1,0-1.9,0-2.9-0.1c-3.9-0.3-4.3-0.7-4.3-4.6c0-17-0.1-33.9-0.1-50.9c0-1.3,0-2.6,0.1-3.8c0.2-1.9,1-2.9,2.9-3.3
		c1.6-0.3,3.2-0.4,4.8-0.5c14.4-0.1,28.8-0.2,43.2-0.3c1.3,0,2.6,0,3.8,0c1.2,0,1.7-0.6,1.7-1.8c0-1.3,0-2.6,0-3.8
		c0.1-28.5,0.1-57,0.4-85.4c0.2-20.8,0.6-41.6,1-62.4c0-1.4,0.1-2.9,0.2-4.3c0.2-3.1,1.6-4.5,4.8-4.7c1.4-0.1,2.9,0,4.3,0
		c81.6,0,163.2,0,244.8,0.1c4,0,8,0,12,0c1.9,0,2.2-0.3,2.2-2.3c0.1-4.3,0.1-8.6,0.3-13c0.1-1.7,0.3-3.5,1-5.1
		c1.4-3.4,4-5.2,7.7-5.6c11.8-1.4,23.5-2.8,35.2-4.3c11.3-1.4,22.5-2.9,33.8-4.4c11.9-1.5,23.8-3,35.7-4.4c6.7-0.8,13.3-1.6,20-2.3
		c1.1-0.1,2.2-0.1,3.3-0.3c5.9-1,9.4,4,9.9,8.1c0.1,0.5,0.1,1,0.1,1.4c-0.5,5.4,1.1,10.8,0.6,16.2c0,0.3,0,0.6,0,1
		c0.1,1.3,0.5,1.8,1.7,1.7c1.4-0.1,2.9-0.3,4.3-0.4c15.6-1.9,31.1-3.8,46.7-5.7c11.4-1.4,22.8-2.9,34.3-4.3c1.6-0.2,3.2-0.1,4.8-0.3
		c6.3-0.8,10.6,4.8,11.3,9.5c0.2,1.7,0.4,3.5,0.2,5.3C689.9,127.1,690.5,130,691.5,133"/>
	<path class="st4" d="M22.9,865.5c-1.8-2.7-1.8-5.1-1.9-7.5c-0.1-6.9-0.1-13.8-0.2-20.6c-0.2-21.9-0.4-43.8-0.5-65.7
		c-0.1-55-0.2-110-0.3-165.1c-0.1-100.5-0.1-200.9-0.1-301.4c0-76,0.2-152,0.3-227.9c0-10.4,0.3-20.8,0.5-31.2
		c0-1.4,0.2-2.9,0.4-4.3c0.1-0.8,0.6-1.5,1.5-1.6c0.8-0.2,1.8,0.6,1.9,1.8c0.2,1.7,0.4,3.5,0.4,5.2c0.1,10.4,0.3,20.8,0.3,31.2
		c0.1,70.2,0.3,140.4,0.4,210.7c0.1,99.8,0.1,199.6,0.2,299.4c0,32.8-0.1,65.6-0.2,98.4c-0.2,55.8-0.5,111.6-0.8,167.5
		c0,2.5-0.3,5.1-0.6,7.6C24,863,23.5,863.9,22.9,865.5"/>
	<path class="st5" d="M590.9,33.1c-68.3,0-136.6,0-204.9,0c-3.7,0-7.4,0-11-0.1c-1.1,0-2.2-0.1-3.3-0.3c-1.4-0.3-2.2-1.5-2-2.8
		c0.1-1.1,0.9-2.2,2.1-2.3c1.4-0.2,2.9-0.2,4.3-0.2c31.8-0.1,63.7-0.3,95.5-0.3c104-0.1,208-0.1,312-0.1c6.2,0,12.5,0,18.7-0.1
		c5.1-0.1,10.2,0.4,15.3,1.3c1.6,0.3,3.2,0.2,4.7,0.5c0.5,0.1,1.1,0.9,1.1,1.3c0,0.5-0.7,1.3-1.1,1.3c-5.9,0.4-11.7,1.9-17.6,1.8
		C733.3,33.2,662.1,33.2,590.9,33.1L590.9,33.1z"/>
	<path class="st6" d="M235.2,872.2c-21,0-41.9,0-62.9,0c-37.3-0.1-74.6-0.2-111.8-0.3c-3.8,0-7.7-0.1-11.5-0.2c-1,0-1.9-0.1-2.9-0.3
		c-1-0.2-1.6-1-1.8-2c-0.2-1,0.8-2.2,1.8-2.5c0.6-0.1,1.3-0.2,1.9-0.2c2.6-0.1,5.1-0.2,7.7-0.2c30.7-0.1,61.4-0.2,92.2-0.3
		c90.6-0.1,181.1-0.2,271.7-0.3c2.7,0,5.5-0.2,7.9,1.3c0.4,0.2,0.8,0.5,1.2,0.8c0.6,0.5,0.5,1.7,0,2.2c-1.6,1.2-3.3,1.9-5.3,2
		c-1.4,0.1-2.9,0-4.3,0C357.8,872.2,296.5,872.2,235.2,872.2L235.2,872.2z"/>
	<path class="st6" d="M1127.1,133.7c0,27.7,0,55.4,0,83c0,1.3,0,2.6,0,3.8c0,0.6-0.1,1.4-0.5,1.8c-0.6,0.7-1.3,1.4-2.1,1.8
		c-0.7,0.3-2.1-0.7-2.5-1.8c-0.3-0.7-0.4-1.5-0.5-2.3c-0.1-1.1,0-2.2,0-3.4c0-45.6,0-91.2,0.1-136.8c0-9.1,0.3-18.2,0.4-27.3
		c0-1.1-0.1-2.2-0.3-3.3c-0.4-2.4-0.8-4.7-1.2-7.1c-0.5-3.2-1.6-6.2-3.8-8.6c-1.3-1.5-2.9-2.1-5.1-2.1c-15.8,0.1-31.7,0-47.5,0
		c-1.1,0-2.2-0.1-3.3-0.3c-1.1-0.3-1.9-1.5-1.7-2.6c0.1-1.1,0.8-1.8,1.8-2c1.1-0.2,2.2-0.3,3.3-0.3c15.2-0.1,30.4-0.2,45.6-0.2
		c2,0,4.1,0.4,6.1,0.9c2.1,0.5,3.6,2,5,3.6c2.1,2.5,3.2,5.5,4.1,8.6c0.5,1.8,1.1,3.6,1.5,5.5c0.3,1.9,0.5,3.8,0.5,5.7
		c0.1,8.5,0.1,17,0.1,25.4C1127.1,95,1127.1,114.3,1127.1,133.7L1127.1,133.7z"/>
	<path class="st3" d="M1124.3,362.7c0,34.5,0,69.1,0,103.6c0,1.1,0,2.2-0.1,3.4c0,0.6,0,1.4-0.3,1.9c-0.6,0.9-1.5,1.6-2.2,2.3
		c-0.7-0.8-1.7-1.5-2.1-2.4c-0.4-1-0.3-2.2-0.3-3.3c-0.1-5.1-0.1-10.2-0.1-15.4c0-48.5,0-96.9,0-145.4c0-15.7,0.2-31.3,0.3-47
		c0-1.9,0.2-3.8,0.5-5.7c0.2-1,1-1.7,2-1.7c1.1,0,1.8,0.7,2,1.8c0.2,1.4,0.3,2.9,0.3,4.3c0.1,14.6,0.2,29.1,0.2,43.7c0,20,0,40,0,60
		H1124.3z"/>
	<path class="st0" d="M507.9,218.1c0,1.9,0,3.5,0,5.1c0,12.5-0.1,25-0.1,37.4c0,2.9,0.1,5.8,0.3,8.6c0.3,3.8,2,6.7,5.6,8.2
		c1.5,0.7,3.1,0.8,4.7,0.6c5.4-0.7,10.8-1.2,16.2-2.1c16.1-2.7,32.2-5.4,48.2-8.3c14.8-2.6,29.6-5.4,44.3-8.1
		c11.6-2.1,23.3-4.2,34.9-6.3c5-0.9,10-2,15-3.1c1.9-0.4,3.8-0.9,5.5-1.8c5-2.6,8.1-6.3,8.1-12.4c0.1-30.7,0.4-61.4,0.6-92.1
		c0-4.5-0.3-4.2,4.1-4.2c5.3,0,10.5,0,16,0c0.6,1.9,0,3.6-0.1,5.2c-0.2,1.7-0.5,3.5-0.7,5.2c-1,6.8,1.3,12.6,5.4,17.8
		c1.1,1.4,2.3,2.7,3.3,4.1c1.6,2.2,1.8,4.7,0.9,7.3c-0.5,1.4-1.3,1.7-2.9,1.3c-0.5-0.1-0.9-0.3-1.4-0.4c-1.1-0.2-2.3,1-2,2.1
		c0.3,1,0.8,2.1,1.5,2.9c2.4,2.3,5.2,3.7,8.9,3.2c0,0.9,0.1,1.8,0,2.7c-0.5,4.2,0.3,8.3,1,12.4c1.6,9,4.1,17.7,6.9,26.4
		c2.3,7.1,7.1,10.7,14.2,11.9c6.6,1.2,13,0.7,19.4-1.2c0.4-0.1,0.9-0.1,1.4-0.2c-2.2,3.1-5.1,5.2-8.2,5.9c-5.7,1.2-9.8,4.5-12.8,9.3
		c-0.7,1.1-1.6,2.3-1.5,3.5c0.1,3.1-2,4.9-3.5,7c-1.4,1.9-1.4,1.9-3.8,0.8c-4-1.8-8.2-2.5-12.5-3.2c-3.6-0.6-7.1,0.3-10,2.4
		c-3.8,2.7-7.4,5.6-11,8.5c-1.2,0.9-1.8,2.1-2,3.7c-0.1,1.7-1,2.6-3,3.1c-9,2.3-17.9,4.8-26.8,7.3c-3.6,1-7.2,1.5-10.9,1.5
		c-17.3,0-34.6,0.1-51.8,0.2c-34.7,0.1-69.4,0.3-104.1,0.4c-0.8,0-1.6,0.1-2.4,0c-1.4-0.1-2.5,0.3-3.5,1.3c-0.2,0.2-0.5,0.4-0.7,0.7
		c-21,19.4-42.7,38.2-63.9,57.4c-15.2,13.7-30.6,27.3-45.4,41.4c-2.9,2.8-6.3,5.1-8.7,8.2c-1.9,2.5-3.9,3.1-6.8,3.1
		c-51.8-0.1-103.7-0.1-155.5-0.1c-6.3,0-4.6,0.7-8.1-4.2c-6.5-9.1-13.1-18.1-19.6-27.3c-2.1-3-4-6.2-6-9.3c-1.4-2.3-1.2-2.7,1.3-2.7
		c2.4,0,4.8,0,7.2,0c13.1,0,26.2-0.1,39.3-0.1c0.6,0,1.3,0,1.9,0c4-0.1,5.7-1.8,5.8-5.9c0.1-6.6,0-13.1,0-19.7c0-1.6,0-3.2,0-4.8
		c0-1,0.6-1.4,1.5-1.5c1.6,0,3.2,0,4.8,0c64.5,0,128.9,0,193.4,0c2.1,0,4.3,0.2,6.2-0.4c7.3-2.1,12.3-6.5,14-14.2
		c0.8-3.6,1.1-7.2,1.1-10.9c-0.1-23.8,0-47.7,0-71.5c0-3.5-0.8-4,4-4.8c12.2-2,24.3-4.1,36.4-6.2
		C503.5,218.8,505.5,218.4,507.9,218.1"/>
	<path class="st0" d="M826.2,245.8c1.3-1.5,2.4-2.3,3-3.4c1.1-1.7,2.2-3.5,2.9-5.5c0.9-2.4-0.1-4.4-2.2-5.8
		c-0.3-0.2-0.6-0.3-0.8-0.5c-4.8-2.1-9.6-4.3-14.4-6.4c-3-1.2-6.1-1.8-9.4-1.8c-0.8,0-1.5-0.2-2.5-0.4c0.7-1.4,1.4-2.4,1.7-3.6
		c0.3-1.2,0.2-2.6,0.4-3.8c0.2-1.3,0.6-2.5,1-3.7c0.5-1.5,1-1.5,2.9-1.4c2.5,0.2,5.1,0.4,7.6,0.3c1.9,0,2.8-1.4,2.4-3.3
		c-0.2-1.1-0.6-2.1-0.8-3.2c-0.9-5,0-9.8,1.9-14.5c1.8-4.3,4.1-8.3,6.8-12.1c1.8-2.5,3.5-5,4-8.1c0.4-3,0.5-6,0.7-9.2
		c1.3-0.3,3-0.7,4.7-1.1c0.9-0.3,1.3-1.1,0.7-1.9c-3.7-4.5-3.7-9.7-3.2-15c0.1-1.1,0.7-1.8,1.8-1.8c0.8-0.1,1.6,0,2.4,0
		c18.6,0,37.1,0,55.7,0c0.6,0,1.3,0,1.9,0c1.3,0.1,1.6,0.3,1.6,1.8c0,4.3,0,8.6,0,13c0.1,6.2,0.2,12.5,0.3,18.7
		c0.1,2.6,0.4,5.1,1.5,7.5c2,4.1,5.2,6.3,9.9,6.3c26.1,0,52.1,0.1,78.2,0.2c1,0,1.9-0.1,2.9,0c0.3,0,0.9,0.5,0.9,0.9
		c0.1,0.9,0.1,1.9,0.1,2.9c0,7.2,0,14.4-0.1,21.6c0,0.8,0,1.6,0,2.4c0.1,3.7,1.7,5.5,5.4,5.9c1.7,0.2,3.5,0.2,5.3,0.2
		c17.1,0,34.2,0.1,51.3,0.1c5.1,0,4.8-0.2,4.8,4.6c0,19.4,0,38.7,0,58.1c0,1,0,1.9,0,2.9c0,1-0.7,1.4-1.5,1.4c-0.6,0-1.3,0-1.9,0
		c-10.7,0.1-21.4,0.1-32.1,0.2c-1.5,0-2.4-0.5-3-1.8c-1.7-3.6-3.3-7.3-5-10.9c-0.3-0.7-0.7-1.4-1-2.2c-1.8-5.4-5.8-7.9-11.1-8.4
		c-8.8-0.7-17.5-1-26.2,1.4c-3.4,0.9-5.7,2.8-7.2,5.7c-1.6,3.1-3.1,6.3-4.6,9.5c-1,2.2-2.1,4.3-3.1,6.5c-0.6,1.4-1.6,1.8-3,1.7
		c-7.5-0.1-15-0.2-22.6-0.2c-4.2,0-8.3,0.1-12.5,0.1c-0.8,0-1.5-0.1-2.6-0.2c0.5-1.4,0.9-2.6,1.3-3.8c4-9.9,8.2-19.8,12.2-29.7
		c1.2-3,2.3-6,3.1-9.1c2-8.5-2.7-16.4-11.1-18.5c-3.3-0.8-6.7-0.8-10,0.2c-4,1.2-7.9,2.5-11.8,4c-14.9,5.8-29.8,11.6-44.2,18.4
		c-3.3,1.6-6.6,3.2-9.7,5.2c-6.5,4.2-11.3,9.8-14,17.2c-1.8,5-3.8,9.8-5.8,14.7c-0.5,1.3-1.3,1.7-2.6,1.5c-0.6-0.1-1.3-0.4-1.6-0.9
		c-0.5-1-0.9-2.1-1.1-3.2c-0.1-0.7,0.1-1.6,0.5-2.2c1.9-2.5,3.2-5.1,2.8-8.4c-0.1-0.6,0.6-1.4,1.1-1.9c1.7-1.6,3.7-3,5.3-4.8
		c2.1-2.4,3.2-5.3,1.2-8.3c-0.6-0.9-0.2-1.4,0.3-2.1c0.7-1.1,1.5-2.1,2-3.2c1.1-2.8,0.1-5.1-2.7-6.1c-2.2-0.8-4.6-1.4-6.9-2.1
		C828,246.4,827.4,246.2,826.2,245.8"/>
	<path class="st0" d="M740.1,345.3c0.7,2.6,1.4,4.9,1.8,7.3c0.1,0.8-0.3,1.8-0.8,2.6c-0.9,1.7-2.1,3.2-2.9,4.9
		c-0.7,1.7-0.7,3.8-1.6,5.3c-0.9,1.4-2.7,2.3-3.9,3.5c-1,1-2,2.1-2.7,3.3c-3.2,5.9-6.7,11.7-9.4,17.8c-1.6,3.6-3.3,7.3-4.8,10.9
		c-0.5,1.2-1.2,1.8-2.5,1.7c-1.1-0.1-2.2,0-3.4,0c-106.1,0-212.1,0-318.2,0c-1.8,0-3.7,0.7-5.4-0.7c1.2-1.3,2.3-2.6,3.6-3.8
		c26.6-25.7,54.9-49.4,82-74.7c4.8-4.5,9.9-8.6,14.7-13c4.4-4,8.7-8,12.9-12.2c1.4-1.4,2.7-1.9,4.6-1.9c9.4,0.1,18.9,0,28.3,0
		c34.9,0,69.8,0,104.6,0.1c0.8,0,1.6,0,2.4,0c0.6,1.2-0.6,1.3-1,1.7c-1.7,1.5-1.6,3.4-1.5,5.3c0.1,2,0.3,4.1,0.7,6.1
		c0.1,0.7,0.7,1.4,1.4,1.8c2.1,1.2,4.2,2.4,6.4,3.3c5.5,2.3,11,4.3,16.5,6.5c0.6,0.2,1.2,0.5,1.7,0.8c0.1,0.1,0,0.6,0,0.8
		c0,0.1-0.3,0.1-0.4,0.2c-4.4,1-8.7,2.1-13.1,3.1c-1.7,0.4-3,0.1-4.3-1.2c-4.2-4.2-8.5-8.3-12.7-12.4c-1.4-1.3-2.9-2.5-4.4-3.6
		c-2.4-1.7-5.1-1.8-7.8-0.7c-1.6,0.7-3.3,1.4-4.7,2.4c-2.2,1.6-4.3,1.6-6.8,1.1c-8.3-1.7-16.7-2.6-25.2-3.1c-12-0.8-24-0.3-35.9,1
		c-10.8,1.2-21.5,3.4-31.8,6.9c-5.8,2-11.3,4.4-16.5,7.6c-3.4,2.1-6.6,4.5-9.3,7.5c-2.2,2.4-3.9,5-5.1,8.1
		c-1.9,4.9-1.6,9.7,0.4,14.5c1.3,3,1.2,3-2.1,3.8c-3.6,0.9-7.2,1.7-10.7,2.6c-0.9,0.2-1.8,0.7-2.5,1.2c-0.3,0.2-0.4,0.9-0.3,1.3
		c0.1,0.4,0.6,0.9,0.9,0.9c0.6,0.1,1.2-0.1,1.8-0.2c4.7-1,9.4-2.1,14-3.2c1.5-0.4,2.7-0.3,3.8,0.9c5.6,6,12.6,9.7,20.1,12.8
		c10.4,4.3,21.3,6.8,32.4,8.4c11.6,1.7,23.2,2.4,34.9,1.9c17-0.6,33.8-2.8,49.9-8.5c2.9-1,5.7-2.2,8.4-3.4c1.6-0.7,3-0.8,4.6-0.2
		c5.1,1.9,10.2,3.9,15.3,5.7c1.3,0.5,2.8,0.7,4.2,0.8c0.6,0,1.4-0.8,1.7-1.4c0.2-0.4-0.2-1.4-0.6-1.7c-1-0.7-2.1-1.4-3.3-1.8
		c-3.6-1.3-7.2-2.5-10.9-3.8c-1-0.4-2-0.8-3.1-1.3c0.4-0.5,0.7-0.9,1.1-1.2c3.5-2.3,6.7-5,9.3-8.3c0.7-0.9,1.5-1.1,2.5-0.5
		c1,0.6,2,1,2.9,1.6c3,1.9,5.8,1.3,8.5-0.4c0.1-0.1,0.3-0.1,0.4-0.3c2.5-3.4,5.8-2.9,9.4-2.2c6.8,1.3,13.6,1.6,20.5,1.2
		c4.1-0.3,7.9-1.5,10.8-4.4c0.9-0.9,1.8-1.1,2.9-0.6c2.4,1.1,4.9,1.3,7.5,1.2c2.4-0.1,4.5-0.9,5.8-2.8c1.1-1.6,2.5-2.4,4.3-2.6
		C734,349.2,737,347.4,740.1,345.3"/>
	<path class="st0" d="M513.7,216.8c7.4-1.4,14.4-2.6,21.5-4c13.4-2.5,26.7-5,40-7.5c0.9-0.2,1.9-0.5,2.8-0.7c4.8-1.2,9.6-6,8.7-11.6
		c0.2-21.1,0.3-42.2,0.5-63.3c0-4.5-0.8-4.3,4.3-4.9c19.8-2.4,39.7-4.7,59.5-7c8.6-1,17.1-2,25.7-3.1c0.8-0.1,1.6-0.2,2.4-0.3
		c2.6-0.2,4.3,1.1,5.3,3.3c0.5,1.2,0.8,2.4,1,3.7c0.2,1.6,0.3,3.2,0.3,4.8c0,26.2,0,52.5,0.1,78.7c0,9.9,0.3,19.8,0.7,29.7
		c0.1,3.8-1.3,6.6-4.6,8.2c-1.7,0.8-3.6,1.4-5.4,1.8c-11.6,2.3-23.2,4.5-34.8,6.7c-23.6,4.4-47.1,8.9-70.7,13.1
		c-16.7,3-33.4,5.6-50.1,8.4c-0.6,0.1-1.3,0.3-1.9,0.3c-3,0.1-4.8-1.4-5.2-4.4c-0.1-0.6-0.1-1.3-0.1-1.9c0-15.8,0-31.7,0.1-47.5
		C513.5,218.6,513.6,218,513.7,216.8"/>
	<path class="st7" d="M208.6,257.4c1.8-0.1,3.5-0.2,5.3-0.2c30.2,0.1,60.4,0.1,90.7,0.2c48.1,0.1,96.2,0.3,144.4,0.5
		c1.3,0,2.6,0,3.8,0c1.7,0.1,2.1,0.5,2.1,2.4c0,6.6,0,13.1,0,19.7c0,8.2,0.1,16.3,0,24.5c0,2.4-0.4,4.8-0.9,7.1
		c-0.7,3.1-2.5,5.5-5.1,7.3c-1.9,1.3-3.9,2-6.2,2c-26.5-0.1-53.1-0.1-79.6-0.1c-39,0-78,0-117,0c-6.8,0-5.9,0.8-6-5.8
		c-0.1-3.8-0.1-7.7-0.1-11.5c0-0.8,0-1.6-0.1-2.4c-0.3-4.1-1.6-5.3-5.7-5.4c-6.9-0.1-13.8,0-20.6,0c-1.6,0-3.2-0.1-4.8-0.2
		c-1.7-1.3-1.8-3.3-1.8-5.2c-0.1-9.2-0.1-18.4,0-27.6C206.9,260.7,206.9,258.7,208.6,257.4"/>
	<path class="st7" d="M822.6,307.1c-1.1,3-2.2,6-3.3,8.9c-6.4,16.5-12.9,33-19.3,49.5c-3.8,9.7-7.5,19.3-11.2,29
		c-0.8,2.1-1.2,4.3-1.9,6.4c-0.5,1.6-1,2-2.7,2.1c-0.8,0-1.6,0-2.4,0c-18.8,0-37.7,0-56.5,0c-1.3,0-2.5,0-4.1,0
		c0.9-3.6,2.1-6.6,3.7-9.5c1.7-3.1,3.6-6,5.4-9c1.2-2.1,2.3-4.2,3.4-6.3c1.6-3,3.6-5.6,6.6-7.5c2.7-1.7,3.9-4.2,3.5-7.3
		c-0.4-2.4,0.4-4.4,1.7-6.2c1.3-1.7,2.2-3.5,2.6-5.6c7.8,0.2,15.6-0.1,23-3.1c-7.9-1.6-15.5,0.6-23.1,1.9c-2-3.4-2-7.4-2.6-11.1
		c-0.3-2.1,0.4-4.4,0.8-6.6c0.1-0.4,0.5-0.7,0.8-1.1c0.9-1.1,1.9-2.2,2.7-3.4c3.6-5.5,7.2-10.9,10.7-16.5c1.2-1.9,2.6-3.5,4.5-4.9
		c4.1-2.9,7.5-6.5,10.6-10.3c0.7-0.8,1-1.9,1.5-2.9c0.1-0.2-0.2-0.5-0.4-0.8c-0.1-0.1-0.3-0.1-0.4,0c-0.5,0.3-1.1,0.6-1.5,1.1
		c-1.6,1.6-3.1,3.2-4.7,4.8c-0.7,0.6-1.5,1.1-2.8,1.9c0.3-1.3,0.4-2.1,0.6-2.8c0.5-1.5,1.2-3,1.5-4.5c0.1-0.7-0.1-1.7-0.6-2.1
		c-0.6-0.6-1.5-0.1-2.1,0.5c-0.6,0.6-1.1,1.2-1.5,1.8c-1.5,2.2-3.1,4.5-4.6,6.7c-3,4.6-5.9,9.1-8.8,13.7c-2.9,4.6-5.6,9.3-8.4,13.9
		c-0.5,0.8-1.1,1.1-2,0.7c-3.3-1.4-6.2-3.3-8.7-5.9c-0.9-0.9-1.5-2.2-3-2.1c-0.8,0-0.7,2.5,0.5,4.3c0.9,1.4,2.2,2.8,3.6,3.8
		c1.9,1.4,4.2,2.3,6.3,3.5c1.4,0.8,1.5,1.2,0.8,2.7c-2.1,4-5.3,6.7-9.5,8.2c-0.9,0.3-1.9,0.4-2.8,0.7c-1.3,0.5-2.4,0.2-3.6-0.4
		c-3.4-1.7-6.6-3.9-9.6-6.3c-1.3-1.1-2.8-2.1-4.3-3c-0.6-0.4-1.2,0.1-1.4,0.8c-0.4,1.5,0.1,2.8,0.8,4.1c1.3,2.5,3.2,4.4,5.5,5.9
		c1.7,1.1,3.6,2.1,5.3,3.2c0.2,0.1,0.4,0.5,0.3,0.7c-0.1,0.3-0.4,0.6-0.6,0.6c-1.3,0.1-2.6,0.3-3.8,0c-2.5-0.5-4.9-1.6-6.9-3.2
		c-3.2-2.5-5.8-5.4-7.1-9.4c1.3-6.3,4.3-11.4,10.3-14.3c2.4,0.4,2.5,2.6,3.1,4.3c1.5,3.9,4.3,6.5,7.6,8.7c1.9,1.2,3.8,1.8,4.9-1.1
		c0.7-1.9-0.7-3-1.7-4.1c-1.2-1.3-2.7-2.3-4-3.4c-6.6-5.4-6.2-5.2-1.8-12.3c10-16.3,20.8-32.2,31.6-48c1.2-1.8,1.2-3.6,1.1-5.5
		c1.3-0.4,2.7-0.9,4-1.3c1.7-0.6,1.8-1.6,0.4-3.1c-0.2-0.2-0.4-0.4-0.7-0.7c0.2-1.7,1.6-2.3,2.9-2.9c6.3-3.3,12-7.8,18.8-10.4
		c0.5,0,0.9,0.1,1.4,0.3c0.3-0.1,0.5,0,0.6,0.2c2.6,1.1,5.3,0.7,8,0.7c8.9,0,17.1,2.9,25.2,6c0.7,0.3,1.4,0.8,1.7,1.5
		c-1.6,2.6-4.2,1.8-6.4,1.6c-2.7-0.1-5.3-0.7-7.9-1.5c5.3,2.3,10.9,2.9,16.5,3.9c1.6,0.3,3.6-0.2,4.6,1.7c-1.3,2.3-3.6,1.7-5.5,1.9
		c-2.8,0.3-5.8-0.5-8.5,0.8c-6.4,0.5-12.1-2.4-18-4.4c-2.7-0.9-5.4-1.9-6.8-2.3c2.4,0.4,5.9,2.1,9.2,3.9c7.2,3.9,15.1,5.9,23,8
		c3.5,0.9,6.9,1,10.3-0.6c1.1-0.1,2.1,0,2.8,0.9c-1.4,1.3-2.7,2.6-4.2,3.8c-1.9,1.5-3,3.2-2.7,5.7c0.1,0.8,0.2,1.6-0.1,2.4
		c-0.7,2.3-1.6,2.8-3.3,1.4c-5.5-4.3-11.2-8.4-17.4-11.7c-4.3-2.3-8.7-4.7-13.6-5.6c-0.9-0.2-1.9-0.4-2.8-0.3
		c-0.5,0-1.2,0.6-1.4,1.1c-0.1,0.4,0.2,1.3,0.6,1.6c1.2,0.8,2.5,1.3,3.8,2c11,5.6,19.8,13.6,26.6,23.9
		C818.7,295.1,821.6,300.7,822.6,307.1"/>
	<path class="st8" d="M927.7,253.4c-1.1,3-2.1,6-3.3,9C914,287.2,903.9,312,893,336.6c-6,13.4-11.1,27.2-15.9,41.1
		c-2.8,8-5.8,15.9-8.7,23.8c-0.3,0.9-0.8,1.3-1.7,1.3c-0.6,0-1.3,0-1.9,0c-16.5,0.1-32.9,0.1-49.4,0.2c-0.8,0-1.6,0-2.7,0
		c0.3-1.1,0.5-2,0.8-2.8c3.1-9.4,6.2-18.8,9.4-28.2c2.2-6.4,4.4-12.7,6.7-19c0.2-0.4,0.5-0.8,0.8-1.2c1.3,0.9,1,2.1,0.9,2.4
		c13.1-22.9,20.8-49,30.5-74.3c1.2-3.2,3.1-5.5,6-7.1c14-7.8,28.7-14.1,44-18.8c4.9-1.5,9.8-1.3,14.7-1.1
		C926.9,252.8,927.3,253,927.7,253.4"/>
	<path class="st0" d="M956.4,295.8c1.4,3.9,1.8,4.3,5.2,5.9c4.4,2,9.1,3.1,13.8,4c9.8,1.9,19.6,2.8,29.6,1.4
		c2.8-0.4,5.6-1.1,8.4-1.9c5.5-1.7,9.4-4.8,9.3-11.3c1.3-0.1,2.4-0.2,3.5-0.2c2.7,0.1,5.4,0.2,8,0.3c-0.3,3.3-2.9,5.2-4.8,7.4
		c-7,8.3-14.9,15.9-23.2,22.9c-12.9,11-26,21.7-39.2,32.4c-12,9.7-25.4,17.2-39.2,24c-11,5.4-22.2,10.7-33.7,14.9
		c-4,1.5-8.2,2.8-12.3,4.1c-2,0.6-4,1.1-5.5,2.7c-0.2,0.2-0.8,0.2-0.8,0.1c-0.2-0.4-0.5-0.9-0.4-1.2c10.2-26.7,19.3-53.8,31.4-79.8
		c3.5-7.5,6.6-15.2,9.8-22.9c0.8-1.8,1.7-2.9,3.9-2.7c3.3,0.2,6.7,0.3,10.1,0.3c7.7-0.1,15.4-0.2,23-0.3
		C954.2,295.8,955.4,295.8,956.4,295.8"/>
	<path class="st8" d="M460.9,192.7c0-8.2-0.2-16.3,0.1-24.5c0.3-8.4-5.2-15.2-13.1-17.2c-1.4-0.3-2.7-0.7-4.1-1
		c-0.1-1.6-0.3-3.2-0.4-4.7c-0.1-8-0.1-16-0.3-24c0-2.2,0.5-4,1.5-5.9c1.6-3.2,4.3-4.6,7.7-4.9c18.8-1.6,37.5-4.3,56.2-6.6
		c14.8-1.8,29.5-3.5,44.3-5.2c6.4-0.8,12.7-1.6,19-2.3c1.7-0.2,3.5-0.4,5.3-0.5c2.6-0.1,3.9,0.8,4.7,3.2c0.4,1.4,0.8,2.8,0.8,4.2
		c0.1,5.3,0.1,10.6,0,15.8c0,1.6-0.2,1.8-2,2.1c-2.8,0.5-5.7,0.9-8.5,1.2c-13.8,1.8-27.6,3.5-41.4,5.2c-3.8,0.5-7.6,0.8-11.4,1.3
		c-5.7,0.6-9.7,4.5-10.4,10.2c-0.2,1.3-0.2,2.6-0.2,3.8c-0.3,21.8-0.6,43.5-0.8,65.3c-0.1,5.3,0,5.3-5.2,6.3
		c-12.9,2.3-25.8,4.6-38.7,6.9c-0.6,0.1-1.3,0.2-1.9,0.1c-0.4-0.1-0.9-0.5-1-0.8c-0.2-1.1-0.2-2.2-0.2-3.3c0-8.2,0-16.3,0-24.5
		H460.9z"/>
	<path class="st0" d="M176.8,353.1h-54.2c-0.5,0-1,0-1.4,0c-1.9-0.1-2.1-0.2-2.1-2.3c0-7,0.1-14.1,0.1-21.1c0-8.1,0-16.3,0-24.4
		c0-1.1,0-2.2,0-3.4c0.1-1.3,0.4-1.6,1.8-1.7c0.5,0,1,0,1.4,0c23.3,0.1,46.7,0.1,70,0.2c0.8,0,1.6,0,2.4,0c1.9,0.1,2.2,0.3,2.2,2.3
		c0,3.4,0,6.7,0,10.1c0.1,4.6,1.7,8.5,5.8,10.9c3.3,2,6.9,3.4,10.8,3.4c5.3,0,10.5,0,15.8,0c1.1,0,2.2,0,3.4,0
		c0.9,0,1.6,0.3,1.6,1.3c0,7.8,0,15.7,0,23.5c0,1-0.7,1.3-1.6,1.3c-2.2,0-4.5,0-6.7,0c-16.5,0-32.9,0-49.4,0V353.1z"/>
	<path class="st0" d="M744.6,235.8c-0.8-0.3-1.4-0.5-1.9-0.7c-0.8-0.3-1.3-0.9-0.9-1.8c0.7-1.8,1.5-3.5,2-5.4
		c0.1-0.4-0.3-1.3-0.8-1.5c-0.4-0.2-1.3-0.1-1.7,0.2c-0.5,0.3-0.8,0.9-1.2,1.5c-0.5,0.7-0.9,1.5-1.4,2.5c-0.5-0.6-0.9-0.9-1.1-1.3
		c-3-8.1-5.5-16.3-7.1-24.8c-1.2-6.4-1.5-12.6-0.3-19c0.8-4.6,0.7-9.2,0-13.8c-1-6.3-1.4-12.7-1.4-19.1c0-0.9,0.2-1.9,0.6-2.7
		c3.7-7.5,9.2-12.6,17.7-13.8c2.2-0.3,4.4-0.6,6.7-0.7c3-0.1,6.1,0,9.1,0.1c6.9,0.4,13.7,0.2,20.5-3.1c-0.1,1.3,0,2.2-0.2,3.1
		c-1.7,7.5-0.9,14.6,2.9,21.3c0.5,0.9,0.8,2,1.1,3.1c1.2,6,4.9,9.9,10.6,11.9c0.9,0.3,1.8,0.5,2.7,0.9c1.2,0.5,1.3,1.1,0.5,2.2
		c-0.4,0.5-0.8,1-1.2,1.5c-0.8,1.2-0.9,2.3-0.1,2.4c1,0.3,1.3-0.6,1.8-1.1c0.8-0.8,1.5-1.7,2.3-2.4c1.9-1.5,3.7-1,4.6,1.2
		c0.1,0.3,0.2,0.6,0.3,0.9c1.6,6.7,0.3,13-3,18.9c-1.1,1.9-2.8,2.9-5.2,2.8c-3.6,0-4.6,0.8-5.4,4c-0.1,0.3,0,0.6-0.1,1
		c-0.1,0.8,0,1.8-1,1.8c-0.6,0-1.4-0.6-1.9-1.2c-1.9-2-3.2-4.3-4-7c-0.2-0.7-0.6-1.4-1-2.1c-0.1-0.2-0.6-0.3-0.8-0.2
		c-0.3,0-0.7,0.3-0.7,0.5c-0.2,0.8-0.4,1.6-0.3,2.3c0.5,4,2.5,7.2,5.5,9.8c1.4,1.2,1.4,2.8-0.1,3.4c-4.1,1.6-6.2,5.3-9,8.3
		c-3.7,4-7.3,8.1-10.9,12.1c-0.7,0.8-1.6,1.6-2.4,2.3c-0.8,0.6-1.6,0.4-2.2-0.6c-0.2-0.4-0.3-1-0.7-1.2c-0.5-0.3-1.1-0.6-1.6-0.6
		c-0.2,0-0.7,0.7-0.7,1.1c0,0.8,0.3,1.6,0.3,2.4c0,0.3-0.5,0.8-0.8,0.8c-0.4,0.1-1-0.1-1.2-0.4c-0.4-0.7-0.4-1.6-0.8-2.2
		c-0.3-0.4-1-0.9-1.5-0.8c-0.5,0.1-1.1,0.7-1.3,1.2c-0.3,0.7-0.2,1.6-0.4,2.3c-0.2,1.1-1.1,0.9-1.9,0.9c-0.8,0-1-0.6-0.9-1.3
		c0-1.1,0.2-2.2,0.1-3.3c-0.1-0.5-0.7-1.1-1.2-1.2c-0.5-0.1-1.4,0.4-1.5,0.8c-0.4,1-0.6,2.1-0.9,3.2c-0.1,0.5-0.1,1-0.4,1.4
		c-0.2,0.3-0.8,0.4-1.2,0.4c-0.4-0.1-1-0.5-1-0.8c0.2-1.6,0.5-3.1,0.8-4.7c0.4-1.8-0.1-3.2-1.1-3.2c-1.4,0-1.9,1.1-2.2,2.1
		C745.6,232,745.1,233.9,744.6,235.8"/>
	<path class="st9" d="M229.6,156.4c1.1-0.1,2.2-0.2,3.3-0.2c67.5,0.1,135,0.2,202.5,0.3c2.2,0,4.5,0,6.7-0.1
		c8.1-0.3,13.2,6.1,13.1,12.8c-0.2,13.3-0.3,26.6-0.4,39.8c0,1.3,0,2.6-0.1,3.8c-0.1,0.9-0.7,1.4-1.6,1.5c-1.6,0.1-3.2,0.1-4.8,0.1
		c-77,0-153.9,0-230.9,0c-3,0-6.1-0.1-9.1-0.2c-1.9-1.6-1.6-3.7-1.6-5.8c-0.1-11.8-0.1-23.6,0-35.4c0.1-10.1,4.8-15,14.6-15.9
		C224.3,157,227,156.9,229.6,156.4"/>
	<path class="st8" d="M908.2,139.9c0.9-0.1,1.9-0.3,2.8-0.2c6.4,0.1,12.8,0.3,19.2,0.2c3.7,0,7.3-0.4,11-0.5c23.3,0,46.7,0.1,70,0
		c4.6,0,9.2-0.4,14-0.7c0.1,0.8,0.2,1.5,0.3,2.3c0,2.1,0,4.2,0,6.2c0.2,5.1,0.4,10.2,0.6,15.3c0,1.1,0,2.2,0,3.4
		c-0.1,1.9-0.4,2.3-2.1,2.4c-1.3,0.1-2.6,0-3.8,0c-7.2,0.1-14.4,0.1-21.6,0.2c-0.8,0-1.6,0-2.4,0.1c-2.7,0.3-4.4,1.8-4.8,4.5
		c-0.3,1.7-0.3,3.5-0.4,5.2c-0.1,2.4-0.2,2.5-2.4,2.5c-3.7,0-7.4,0-11,0c-21.1,0.1-42.2,0.1-63.3,0.2c-1.8,0-3.5,0.1-5.3,0.2
		c-1,0-1.9-0.2-2.5-1c0.8-11.2,0.2-22.3,0.4-33.5C906.8,144.3,906.5,141.9,908.2,139.9"/>
	<path class="st8" d="M1024.4,94.8c1.5,2,1.8,4.3,1.8,6.7c-0.2,9.9-0.4,19.8-0.6,29.7c0,0.2,0,0.3,0,0.5c-0.1,2.3-0.4,2.5-2.5,2.4
		c-4.9-0.2-9.9-0.6-14.8-0.6c-32.6-0.1-65.1-0.1-97.7-0.1c-1.1,0-2.2-0.1-3.3-0.1c-0.9-1.8-0.5-3.8-0.6-5.7
		c-0.2-7.5,0.4-15-0.6-22.5c-1.1-8.6,1.5-11.9,10.1-11.5c19.6,0.9,39.3,0.8,58.9,0.8c13.9,0,27.8,0,41.7,0
		C1019.3,94.3,1021.9,94.3,1024.4,94.8"/>
	<path class="st8" d="M513.2,176.8c-0.1-10.2-0.1-20.5-0.5-30.7c-0.1-4,1.7-7.1,3.8-10c1.7-2.3,4.5-3,7.2-3.3
		c7.5-0.8,15-1.5,22.4-2.3c9.7-1.1,19.4-2.4,29-3.6c1.9-0.2,3.8-0.4,5.7-0.6c1.2-0.1,1.6,0.3,1.7,1.7c0,1.1,0,2.2,0,3.4
		c0.1,17.6,0.1,35.2,0.2,52.8c0,2.9,0.2,5.8,0.4,8.6c0.2,3.1-1,5.3-3.7,6.6c-1.3,0.6-2.7,1.1-4.1,1.3c-9.4,1.9-18.8,3.7-28.2,5.5
		c-9.7,1.8-19.5,3.6-29.2,5.4c-0.9,0.2-1.9,0.3-2.8,0.4c-1.2,0.1-1.7-0.3-1.7-1.6c-0.1-3.8-0.1-7.7-0.1-11.5c0-7.4,0-14.7,0-22.1
		C513.3,176.8,513.3,176.8,513.2,176.8"/>
	<path class="st0" d="M630.3,351.5c-1,0.9-1.5,1.5-2.1,1.8c-3.9,2.3-8.1,3.8-12.3,5.2c-1.5,0.5-2.8,0-4.2-0.4
		c-8.1-2.8-16.3-5.6-24.5-8.3c-7.3-2.5-14.5-4.9-21.8-7.3c-0.9-0.3-2-0.5-2.6-1.1c-2.4-2-5-1.8-7.7-1.1c-6.4,1.6-12.7,3.1-19.1,4.7
		c-7.1,1.8-14.3,3.4-21.4,5.3c-2.4,0.6-3.9,0-5.4-1.7c-3.6-4.2-3.5-8.8,0.2-12.9c2.3-2.5,5.1-4.3,8.2-5.8c6.3-3.2,13.1-5.1,20-6.5
		c19.3-4,38.7-4,58.6-1.8c-0.4,0.9-0.6,1.5-0.9,2.2c-0.8,1.9-1.7,3.8-2.4,5.7c-0.3,0.9-0.3,1.9-0.1,2.8c0.7,5,3.3,6.7,8.1,5.1
		c5.1-1.7,9.4-0.7,13.1,3.2c1.8,1.8,3.7,3.5,5.6,5.3C622.5,348.5,625.6,350.9,630.3,351.5"/>
	<path class="st0" d="M1057,174.7c0.2,1.2,0.6,2.3,0.6,3.3c-0.1,7.1,1.1,6.2-5.9,6.2c-10.7,0-21.4,0-32.1,0c-1.7,0-3.5,0.2-5.2,0.5
		c-0.8,0.1-1.6,0.9-1.3,1.7c0.2,0.6,0.9,1.5,1.4,1.6c1.9,0.3,3.8,0.5,5.7,0.5c10.9,0,21.8,0,32.6,0c1.3,0,2.6,0,3.8,0.2
		c0.4,0,0.9,0.5,0.9,0.9c0.1,1.3,0.1,2.6,0.1,3.8c0,1.9-0.3,2.2-2.3,2.2c-11.5,0.1-23,0.1-34.5,0.1c-1.8,0-3.5,0-5.3,0.1
		c-0.8,0.1-1.6,0.2-2.3,0.6c-0.4,0.3-0.7,1-0.8,1.6c0,0.4,0.4,0.9,0.8,1.1c0.5,0.3,1.2,0.5,1.8,0.6c1.6,0.1,3.2,0.2,4.8,0.2
		c11,0.1,22.1,0.1,33.1,0.1c1.1,0,2.3-0.1,3.3,0.1c0.5,0.1,1.2,0.7,1.2,1.2c0.1,4,0.1,8,0,12c0,0.9-0.7,1.4-1.6,1.4
		c-1,0-1.9,0-2.9,0c-17.4,0-34.9,0.1-52.3,0.1c-1.1,0-2.2,0-3.3-0.1c-0.3,0-0.8-0.6-0.9-0.9c-0.2-0.6-0.1-1.3-0.1-1.9
		c-0.1-11.8-0.2-23.7-0.4-35.5c0-1.8,0.2-2,1.8-2.1c0.6,0,1.3,0,1.9,0c17.9,0,35.8,0,53.7,0.1C1054.6,174.6,1055.7,174.7,1057,174.7
		"/>
	<path class="st8" d="M846.9,305.1c-0.1-0.9-0.1-1.8-0.2-3.5c-0.8,1.4-1.4,2.1-1.7,2.9c-11.8,28.8-24.1,57.4-33.6,87.1
		c-0.6,1.8-1.3,3.6-1.8,5.5c-0.5,1.8-0.9,3.7-1.5,5.9c-5.2,0.1-10.8,0.2-16.9-0.1c3-3.4,3.9-7.3,5.4-11
		c10.9-27.8,21.7-55.7,32.5-83.5c3.3-8.5,6.7-16.9,10-25.4c1-2.5,1.9-5.1,2.7-7.7c0.8-2.7,2-5,4.1-6.8c2.1,3.3,3.8,7.1,7.9,8.6
		c0.5,2.3-0.3,4.7,0.5,7c0,3.1-1.7,5.7-2.7,8.6c-1.2,3.5-2.9,6.7-2.9,10.5C848.5,304.2,848.2,305.2,846.9,305.1"/>
	<path class="st0" d="M698.3,323.1c-9.2-4.6-18.8-7.7-28.2-11.2c-8.3-3.2-16.6-6.6-24.8-10c-0.2-0.1-0.3-0.5-0.6-1
		c0.4-0.2,0.7-0.4,1.1-0.5c16.5-4.3,33.2-7.8,49.6-12.6c1.4-0.4,2.9-0.5,4.1-1.2c2.3-1.4,4.3,0.1,6.4,0.5c0.3,0.1,0.8,0.6,0.8,1
		c0.4,3.8,3.2,4.9,6.3,5.4c3.1,0.6,6.3,0.9,9.7,1.4c-1.5,3.1-2.4,6.4-5.1,8.8c-1.3,1.1-2.6,2.6-3,4.2c-0.8,3.2-3.1,4.8-5.6,6.1
		C704.7,316.1,701.4,319.2,698.3,323.1"/>
	<path class="st0" d="M516.8,353.3c11.3-2.7,22.1-5.3,33-7.9c2.2-0.5,4.4-0.9,6.5-1.6c2.1-0.7,4-0.4,6,0.3
		c12.5,4.5,25,8.9,37.5,13.3c2.4,0.8,4.8,1.7,7.8,2.8c-3.8,1.6-7.2,1.8-10.5,2.3c-14.1,2-28.3,2.3-42.6,0.9
		c-10.5-1-20.9-2.7-30.9-6.5c-1.8-0.7-3.6-1.4-5.3-2.2C517.9,354.6,517.5,354,516.8,353.3"/>
	<path class="st2" d="M1093.7,195c0,5.9,0,11.8,0,17.8c0,1.8-0.2,2.1-1.8,2.1c-8.8,0-17.6,0-26.4,0c-1.3,0-1.7-0.4-1.8-1.7
		c0-3.8,0-7.7,0-11.5c0-1,0.6-1.4,1.5-1.4c5.4,0,10.9,0,16.3,0c1,0,1.9,0.1,2.8-0.2c1-0.2,1.6-1.1,1.6-2.1c0-1-0.6-1.9-1.7-2.1
		c-0.9-0.2-1.9-0.1-2.9-0.1c-5.3,0-10.6,0-15.8,0c-1.6,0-1.9-0.3-1.9-2c0-1,0-1.9,0-2.9c0-2,0.2-2.2,2.2-2.2
		c5.1,0,10.2,0.1,15.4,0.1c1.3,0,2.6,0,3.8-0.4c0.9-0.3,1.7-1.2,1.4-2.2c-0.2-0.7-0.8-1.6-1.4-1.8c-1.2-0.4-2.5-0.4-3.8-0.4
		c-5.1,0-10.2,0.1-15.4,0.1c-2,0-2.3-0.6-2.3-2.2c0-0.2,0-0.3,0-0.5c0.1-2.2,0.2-4.4,0.3-6.6c2.1-1,4.4-0.4,6.6-0.5
		c6.9-0.1,13.8-0.1,20.6-0.1c2.5,0,2.6,0.1,2.6,2.7C1093.8,183.2,1093.8,189.1,1093.7,195L1093.7,195z"/>
	<path class="st10" d="M976.3,276.4c7,3.1,14.2,3.5,21.6,2c2.9-0.6,5.4-1.8,7.9-3.4c1.3-0.8,1.8-0.7,2.2,0.5
		c2.1,6.6,5.2,12.7,8.1,18.9c0.7,1.4,0.6,2.1-0.9,3.2c-3.1,2.2-6.7,3.1-10.3,3.6c-12.5,1.5-24.9,0.3-37-3.2c-0.1,0-0.3-0.2-0.4-0.3
		c0.2-2.1,0.7-4,2.4-5.4c6,0.6,11.7,2.8,17.7,3.5c6.8,0.8,13.2-0.8,19.7-1.9c-12.4,3-24.6,2.8-36.4-2.6
		C970.8,285.6,973.4,280.9,976.3,276.4"/>
	<path class="st10" d="M850.7,263.8c2.7-2.6,6-4.2,9.3-5.8c17.3-8.1,35.1-15.2,53-21.8c2.4-0.9,4.9-1.5,7.4-1.8
		c5.4-0.6,9.8,2.8,10.4,7.7c0.1,1.1,0.1,2.3-0.2,3.3c-0.8,2.7-1.9,5.4-2.9,8c-0.2-0.1-0.4-0.3-0.5-0.4c-1-1.3-0.9-3.1-1.6-4.6
		c-1.2-3.3-3.8-3.3-6.7-2.9c-6.6,0.8-12.4,3.8-18.4,6.5c-10.6,4.8-21.3,9.3-31.7,14.5c-4.7,2.3-8.3,6.4-13.3,8.1
		C853.5,271.2,852,267.6,850.7,263.8"/>
	<path class="st2" d="M926.4,248.4c1.7,1.3,1,3,0.7,4.6c-1.7,1.7-3.9,1.4-5.8,0.9c-1.5-0.4-2.7-0.2-4.2,0
		c-8.3,1.7-16.2,4.9-24.1,7.9c-8.1,3.1-15.7,7.1-23.3,11.1c-0.8,0.4-1.6,1-2.5,1.5c-2.3,1.2-3.4,3.1-4.3,5.5
		c-4.9,13.3-10,26.6-14.8,39.9c-2.9,8-6,15.8-9.9,23.4c-2.5,5-5.3,9.8-7.9,14.8c-1.2-0.6-0.7-1.4-0.6-2c0.3-1.4,1.1-2.7,0.6-4.2
		c0.6-2,1.2-3.9,1.9-5.9c4.9-13.6,9.8-27.2,14.7-40.9c0.9-0.6,1.2-1.6,0.9-2.5c-0.6-1.6-0.2-3,0.5-4.5c1.7-4.1,3.2-8.2,4.8-12.4
		c0.2-0.6,0.3-1.2,0.4-1.8c0-0.2,0-0.5,0.1-0.7c0-0.5,0.1-1,0.2-1.4c1.6-4,4.6-6.8,8.1-9.2c10.1-7.3,21.9-11.1,33.1-16.1
		c5.7-2.6,11.2-5.5,17.1-7.6C916.6,247.1,921.5,244.4,926.4,248.4"/>
	<path class="st10" d="M598.9,366.4c0.7-0.3,1.5-0.6,2.2-0.8c3.7-0.7,7.5-1.3,11.2-2.2c1.8-0.4,3.4-0.5,5.1,0.2
		c4,1.5,8.1,2.9,12.1,4.4c0.7,0.2,1.3,0.6,2.6,1.1c-1.8,0.9-3.1,1.5-4.4,2c-7.2,2.6-14.6,4.5-22.2,5.9c-12.3,2.1-24.7,3.2-37.1,2.9
		c-5.9-0.2-11.8-0.7-17.7-1c-0.4,0-0.8-0.2-1.4-0.4c1.1-3.6,2.1-7,3.2-10.5c0-0.1,0.3-0.2,0.4-0.2c1.3,1.5,3,2.3,5,2.6
		C572,371.9,585.5,370,598.9,366.4"/>
	<path class="st2" d="M707.2,351.6c-1.2,1.4-2.8,1.5-4.4,1.6c-10.9,0.5-21.7-0.2-32.4-2.7c-2.5-0.6-2.5-0.6-2.7-3.1
		c-0.3-4.7,0.4-9.2,1.8-13.7c0.5-1.6,1.5-2.3,3.2-2.4c4.1-0.2,8.3-0.4,12.4-0.5c3.3-0.1,6.7-0.1,10.1-0.1c1.1,0,1.9,0.3,1.9,1.5
		c0.3,7.5,3.7,13.4,9.3,18.2C706.8,350.7,707,351.2,707.2,351.6"/>
	<path class="st11" d="M1024.4,94.8c-0.5,0.3-1,0.9-1.6,1c-1.3,0.2-2.6,0.1-3.8,0.1c-28.3,0-56.6,0-84.9-0.1c-2.1,0-4.1-0.4-6.2-0.5
		c-5.1-0.2-10.2-0.3-15.3-0.2c-1.3,0-2.7,1-3.9,1.6c-1,0.4-1.4,1.2-1.4,2.3c0,1.9-0.3,3.9,0.1,5.7c1,4.1,0.7,8.3,0.7,12.4
		c0.1,3.8,0,7.7,0,11.5c0,1.6,0.1,3.2-1,4.6c-1,0-1.9,0.1-2.9,0.1c-1,0-1.4-0.6-1.5-1.5c-0.1-1.1-0.1-2.2-0.1-3.4
		c0-5.7,0-11.5,0-17.2c0-3-0.1-6.1-0.3-9.1c-0.4-5.4,4.6-10.1,9.8-10.1c35.1,0.2,70.2,0.2,105.3,0.3
		C1020.2,92.3,1022.8,92.1,1024.4,94.8"/>
	<path class="st12" d="M753.8,261.4c0.6,0.5,1.5,0.9,1.7,1.5c0.2,0.6,0,1.6-0.3,2.3c-0.4,0.9-1,1.6-1.6,2.4
		c-6,8.3-11.6,16.8-17,25.5c-3.1,5-6.2,10-10.3,14.4c-1,1-1.8,2.3-2.2,3.7c-1.1,4-3.6,7-6.8,9.8c3.2,2.7,6.4,5.3,9.5,7.9
		c1.1,0.9,2.1,1.9,3,3.1c0.9,1.1,0.8,2.4-0.4,3.4c-5.7-2.1-9.9-6-13.7-10.5c-0.6-0.7-0.8-2.3-2.4-1.5c-3.2,1.7-5.3,4.6-7,7.6
		c-1.2,2.1-2.4,4.1-3.5,6.2c-1.6-2.7-1.8-5.8-1.5-8.8c0.2-2.8,1.3-4.9,3.9-6.6c3.4-2.3,7.1-4.1,10.4-6.6c1.3-1,2.4-2,2.5-3.8
		c0.2-1.8,1.2-3.3,2.4-4.6c6-6.5,10.5-14,14.8-21.7c3.8-6.7,8.4-12.8,13-18.9C749.9,264.1,751.5,262.3,753.8,261.4"/>
	<path class="st13" d="M208.6,300.7c8,0,15.9-0.1,23.9-0.1c1.9,0,2.3,0.4,2.3,2.3c-0.1,5.4-0.2,10.8-0.4,16.3c0,0.9-0.6,1.4-1.5,1.5
		c-1.1,0-2.2,0.1-3.3,0.1c-5.9,0.1-11.8,0.2-17.7,0.3c-1.3,0-2.5-0.1-3.6-0.9C206.3,313.6,205.7,307.1,208.6,300.7"/>
	<path class="st14" d="M605.9,316.1c-1.4,1.9-2.9,2.7-5,2.4c-2.1-0.3-4.1-0.6-6.2-0.9c-11.8-1.5-23.6-1.6-35.4-1
		c-10.4,0.6-20.7,2.1-30.7,5c-3.5,1-7,2.3-10.4,3.7c-2.3,1-4.6,2.3-6.7,3.6c-4.6,2.9-8.1,6.7-8.9,12.2c-3.8,0.6-7.3,1.2-10.9,1.8
		c-0.6,0.1-1.2,0-1.8,0c0.1-0.7-0.1-1.6,0.2-2.2c1.3-2.2,2.7-4.4,4.3-6.3c2.6-3,6-5.2,9.5-7.2c8-4.6,16.6-7.5,25.5-9.5
		c17.5-4,35.3-5.5,53.3-4.3c7,0.4,14,1.1,21,2.2C604.4,315.7,605,315.9,605.9,316.1"/>
	<path class="st15" d="M1043.4,168.4c-3.5,0-7,0-10.5,0c-1.1,0-1.8-0.5-1.8-1.7c0-0.5,0-1,0-1.4c0.1-7.8,0.3-15.6,0.4-23.4
		c0-1.7,0.5-2,2.1-1.5c9.2,3.4,15.7,9.6,19.5,18.6c1,2.3,1.6,4.8,2.3,7.3c0.5,1.8,0.2,2.2-1.8,2.2
		C1050.1,168.4,1046.8,168.4,1043.4,168.4L1043.4,168.4z"/>
	<path class="st16" d="M379.3,149.5c3-0.9,6-1.9,9.1-2.7c4.6-1.2,9.3-2.4,13.9-3.5c1.9-0.5,3.8-0.9,5.2-2.3c1.2-1.1,2.5-1.3,3.9-1.3
		c8.5,0,16.9,0,25.4,0c0.5,0,1-0.1,1.4,0.1c0.5,0.3,1.1,0.8,1.2,1.2c0.2,1.1,0.1,2.2,0.1,3.3c-0.1,7,0.9,6.1-6.1,6.1
		c-16.4,0-32.9,0-49.3,0h-4.7C379.4,150.1,379.3,149.8,379.3,149.5"/>
	<path class="st2" d="M196.3,265.7c0.5,0.9,0.7,1.2,0.7,1.5c0,8.9,0,17.9,0,26.8c0,1.4-0.3,1.7-1.7,1.7c-5.7,0-11.5,0-17.2,0
		c-1.6,0-1.9-0.4-2-2c-0.2-2.1,0.1-4.1,1.3-5.9c1.1-1.7,2.1-3.6,3.5-5.1C185.8,277,190.9,271.6,196.3,265.7"/>
	<path class="st17" d="M604.7,324.1c4.5-4.1,9.5-7.5,14.9-10.3c1.1-0.6,2.4-1,3.6-1.2c0.5-0.1,1.2,0.3,1.6,0.7
		c0.2,0.2,0,0.9-0.3,1.3c-0.5,0.8-1.3,1.4-1.8,2.2c-2.8,4.2-2.4,9.5,0.9,13.3c3.2,3.7,9.1,4.3,13.6,1.4c1.3-0.8,2.5-1.8,3.8-2.7
		c1.2,0.8,2.3,1.8,3.6,2.3c1.6,0.6,3.3,0.8,5.2,1.2c-0.9,4.1-1.9,8.2-2.9,12.6c-2.6-0.7-5-2.2-7.7-1.1c-0.6,0.2-1.8-0.5-2.5-1.1
		c-2.6-1.9-5.1-3.8-7.6-5.8c-5.1-4.1-10.2-8.1-15.3-12.3c-1.6-1.3-3.2-1.9-5.3-1.4C607.2,323.8,606,323.9,604.7,324.1L604.7,324.1z"
		/>
	<path class="st18" d="M229.6,156.4c-2.3,0.6-4.6,1.1-7,1.7c-1.9,0.4-3.7,0.8-5.6,1.2c-2.9,0.6-4.8,2.1-6.2,4.7
		c-1.8,3.3-2.7,6.6-2.7,10.4c0.3,13.3,0.3,26.5,0.3,39.8c-0.5,0.1-0.9,0.2-1.4,0.3c-3.7,0.2-3.7,0.2-3.7-3.5c0-10.9,0-21.7-0.1-32.6
		c0-3.7-0.5-7.3,0.2-11c0.4-1.9,0.7-3.8,1.5-5.5c1.8-3.9,4.7-6.3,9.3-6.1C219.4,156.2,224.5,156.3,229.6,156.4"/>
	<path class="st19" d="M829.5,265.7c-0.9,0-1.9,0-2.8,0c-4.5-1.5-9.2-2.2-13.7-3.5c-1.7-0.5-3.8-0.5-4.7-2.6c0.5-0.8,1-1.7,2.1-1.7
		c2.2,0.1,4.5,0.2,6.7,0.2c1.6,0,3.2,0,4.7-0.1c0.3,0,0.5-0.7,0.8-1c-1-1.2-2.1-2.3-3.6-3c-0.9-0.5-1.8-0.8-2.7-1.3
		c-0.1-0.1-0.3-0.3-0.4-0.5c-9.2-3.9-18.5-7.1-28.6-6.8c-1.4,0-2.9,0-4.3-0.1c-1.1-0.1-1.6-0.9-1.8-1.9l0.4-0.2l0.1,0
		c4.8-1.4,9.7-1.6,14.7-0.5c7.5,1.6,14.9,3.3,22.1,6.1c3.6,1.4,7.3,2.3,10.9,3.4c1.1,0.3,2.1,0.8,3.2,1.2c-0.4,1.9-1.6,3.2-2.6,4.6
		c-0.8,1.2-0.8,2.3,0,3.5C831.5,263.6,831.4,263.7,829.5,265.7"/>
	<path class="st15" d="M515.4,370.9c1.1-0.7,1.9-1.3,2.7-1.7c3.6-1.7,7.2-3.5,10.8-5.1c0.8-0.4,1.8-0.7,2.7-0.5
		c5.8,1.1,11.5,2.3,17.5,3.5c-1.2,3.6-2.4,7.2-3.6,11C535.3,376.8,525.4,374.6,515.4,370.9"/>
	<path class="st20" d="M779.6,243.4c-1.2,0.8-2.3,1.6-3.5,2.3c-6.1,3.5-12.3,7.1-18.4,10.6h-6.1c1.1-1.9,2.7-3,4.3-3.9
		c13.8-7.8,27.4-15.7,41.8-22.5c4.5-2.1,8.8-2.4,13.5-1.3c3.6,0.9,6.7,2.9,10,4.6c-0.9,0.8-2,1.2-3.1,1c-10-1.9-19,1.5-28.1,4.7
		c-0.9,0.3-1.9,0.3-2.7,0.9l0.1,0c-0.5,0.5-1.2,0.5-1.8,0.8c-1.5,0.4-3,0.9-4.6,1.3C780,241.9,780.1,242.9,779.6,243.4"/>
	<path class="st10" d="M620.7,361.2c2.2-1,3.4-1.6,4.7-2.2c3.8-1.7,7.5-3.6,10.4-6.5c1.6-1.6,3.6-1.9,5.6-2.3
		c0.7-0.1,1.5,0.3,2.2,0.7c2.2,1.3,4.3,2.7,6.4,4.1c1.1,0.7,1.2,1.4,0.3,2.3c-2.1,2-4.2,3.9-6.4,5.7c-1.1,0.9-2.4,1.5-3.6,2.4
		c-1.8,1.3-3.7,1.5-5.8,0.8C630.2,364.6,625.9,363.1,620.7,361.2"/>
	<path class="st21" d="M787.2,239.8c2.2-2.5,5.3-3.3,8.3-4.3c3.3-1.1,6.7-1.8,10.1-2.5c3.4-0.8,6.9-0.9,10.3-0.2
		c1.7,0.3,3.4,0.3,5.2,0.4c1.2,0.5,2.4,0.8,3.5,1.4c3.4,1.6,2.6,1.8,1.7,4.3c-0.7,1.9-1.2,3.9-1.8,6.2c-2-0.8-3.9-1.5-5.8-2.2
		c-9.4-3.5-19.1-5-29.1-3.2C788.8,239.8,788,239.7,787.2,239.8"/>
	<path class="st22" d="M908.2,139.9c0,11.6,0,23.2,0,34.8c0,1.3,0,2.5,0,3.8c0,1.2-0.9,1.5-1.9,1.7c-1.6-0.5-2.2-1.9-2.5-3.2
		c-0.6-2.3-1.2-4.7-1.2-7c-0.1-9.2,0.1-18.4,0.2-27.6c0-0.6,0-1.3,0.2-1.9c0.1-0.4,0.6-0.9,0.9-0.9
		C905.4,139.7,906.8,139.8,908.2,139.9"/>
	<path class="st23" d="M495.7,358.8c0.5-0.2,1-0.6,1.6-0.7c1.5-0.4,3.1-0.8,4.6-1.1c2.8-0.6,5.6-1.3,8.4-1.9
		c2.4,1.2,4.8,2.5,7.2,3.6c1.9,0.9,3.8,1.6,5.7,2.4c0.2,0.1,0.4,0.5,0.4,0.7c0,0.3-0.2,0.6-0.5,0.7c-3.9,2.1-7.9,4.1-11.8,6.2
		c-0.4,0.2-1,0.2-1.3,0c-5.2-2.3-10.3-4.9-14.3-9.2C495.7,359.3,495.7,359.1,495.7,358.8"/>
	<path class="st11" d="M691.3,325.1c-0.6,0-1.3,0-1.9,0c-3.4,0.2-6.5-0.4-9.7-1.7c-7.1-2.9-14.4-5.1-21.6-7.8
		c-5.5-2.1-10.9-4.5-16.3-6.8c-1.1-0.5-0.9-3.5,0.2-4.1c0.3-0.1,0.6-0.2,0.9-0.1c1,0.4,2.1,0.8,3.1,1.3c11.4,5.3,23.2,9.8,35.1,13.9
		c3,1,5.9,2.3,8.9,3.6c0.5,0.2,1,0.6,1.5,0.9C691.4,324.6,691.4,324.8,691.3,325.1"/>
	<path class="st24" d="M822.6,307.1c-0.6-1.1-1.2-2.2-1.7-3.4c-2.9-8.5-7.9-15.6-13.9-22.2c-4.4-4.9-9.1-9.4-15-12.4
		c-1.4-0.7-2.7-1.6-3.5-3.1c1.7,0.8,3.5,1.4,5.2,2.3c8.1,4.2,15.6,9.2,22.8,14.7c1.1,0.8,1.7,1.8,2.1,3c0.6,2.1,1.3,4.2,1.9,6.4
		c0.8,2.8,1.6,5.5,3.5,7.7c0.8,1,0.8,2,0.3,3.1C823.7,304.5,823.2,305.8,822.6,307.1"/>
	<path class="st2" d="M208.6,257.4c0,12.7,0,25.4,0,38c-6.1,0.5-5.2,0.6-5.3-4.6c0-9.6,0-19.2,0-28.8c0-1.1,0-2.2,0-3.4
		c0-0.9,0.4-1.5,1.4-1.5C206.1,257.2,207.4,257.3,208.6,257.4"/>
	<path class="st25" d="M719,165c-3-3.8-4.1-8.3-3.6-13c1-10.4,4.7-19.5,12.8-26.4c2.1-1.8,4.2-3.4,6.4-4.9c1-0.7,2.2-1.3,3.4-1.7
		c0.4-0.2,0.9,0.1,1.4,0.1c-0.1,0.4,0,1-0.2,1.2c-1,1-2,2-3.1,3c-1.5,1.4-3.1,2.8-4.7,4.1c-6.7,5.5-10,13-12.3,21.2
		c-1.5,5.3-0.9,10.4,1,15.4C720.4,164.9,720,165.2,719,165"/>
	<path class="st2" d="M203.4,236c0-5.3,0-10.5,0-15.8c0-1.7,0.2-1.9,2-1.9c0.3,0,0.6,0,1,0c1.7,0.1,2,0.3,2.1,1.9
		c0.1,1.8,0.1,3.5,0.1,5.3c0,8.8,0.1,17.6,0.1,26.4c0,2.2-0.2,2.4-2.5,2.4c-0.2,0-0.3,0-0.5,0c-2.1,0-2.3-0.1-2.3-2c0-1,0-1.9,0-2.9
		C203.4,245,203.4,240.5,203.4,236L203.4,236z"/>
	<path class="st26" d="M706.4,279.7c1.5-1.1,2.8-2.1,4.3-3c0.5-0.3,1.2-0.3,1.8-0.4c0.3,0,0.6,0,0.9,0.1c5.7,0.6,11.4,0.4,17.1-0.8
		c0.5-0.1,0.9-0.1,1.4-0.1c1.3,0,1.8,0.7,1.2,1.8c-1,1.8-2.1,3.6-3.1,5.4c-1.2,2.1-2.3,4.2-3.5,6.2c-2.7-0.2-5.3-0.2-8-0.5
		c-2.4-0.2-4.7-0.6-7.1-1c-0.9-0.1-1.1-1.2-0.5-1.9c0.8-1,1.7-1.2,2.9-1.2c2.2,0,4.5,0,6.7-0.4c2.7-0.4,5.4-1.1,7.4-3.1
		c0.3-0.3,0.4-1.1,0.2-1.7c-0.1-0.3-0.7-0.6-1.1-0.7c-0.4-0.1-1-0.1-1.4,0.1c-2.8,0.9-5.7,0.9-8.5,0.9c-2.3-0.1-4.5,0.1-6.5,1.2
		C709.1,281.3,707.9,280.9,706.4,279.7"/>
	<path class="st27" d="M598.9,366.4c0.3,0.1,0.6,0.2,0.9,0.4c0.1,0.1,0.1,0.6,0,0.6c-4.3,1.2-8.5,2.6-13,3
		c-4.3,0.4-8.5,1.4-12.7,1.6c-5.2,0.3-10.5,0.8-15.7-0.4c-0.8-0.2-1.6-0.3-2.4-0.3c-2.7-0.1-3.2-0.7-2.9-3.7
		c1.4-0.1,2.8-0.3,4.2-0.1c10.2,0.9,20.4,0.7,30.6-0.1C591.6,367.1,595.3,366.8,598.9,366.4"/>
	<path class="st28" d="M788.3,218.6c2.2,1.5,4.6,2,7.1,2.4c0.6,0.1,1.2,0.4,1.8,0.6c1,0.5,1.1,2.2,0.1,2.8
		c-7.7,4.2-15.4,8.4-23.1,12.5c-0.2,0.1-0.6,0.1-0.9-0.1c-0.2-0.1-0.3-0.6-0.1-0.7c1.6-2.3,3.1-4.8,5.1-6.8
		C781.7,225.8,784.8,222.2,788.3,218.6"/>
	<path class="st25" d="M633.3,345.1c-3.6,0.3-5.8-0.8-7.8-2.6c-2.5-2.2-4.9-4.6-7.4-6.8c-1.6-1.4-3.1-2.8-4.9-3.8
		c-3.1-1.7-6.4-1.9-9.5,0.3c-1.3,1-2.7,1.7-4.4,1.6c-0.8-0.1-1.2-0.4-1-1.2c0.5-2.3,1.4-4.1,4.1-4.5c2-0.3,4-1,5.9-1.9
		c1.7-0.8,3-0.6,4.3,0.6c3.1,2.7,6.3,5.4,9.5,8.1c2.9,2.5,5.8,5,8.6,7.6C631.4,343.1,632,343.8,633.3,345.1"/>
	<path class="st29" d="M275.9,237.2c0.1-1.3,0.2-3.2,0.5-5.1c0.2-1.2,1.9-1.7,2.5-0.5c0.7,1.3,1.3,1.6,2.6,1
		c0.3-0.1,0.7-0.2,0.9-0.1c1.2,0.4,2.3,1,3.5,1.2c1.1,0.1,2.2-0.6,3.2-0.5c0.7,0,1.6,0.5,2,1.1c1.9,2.7,2.4,5.9,2.3,9.1
		c0,0.4-0.7,1.2-1.2,1.2c-0.5,0.1-1.3-0.4-1.5-0.8c-0.6-1.1-1-2.3-1.3-3.6c-0.3-1.1-0.5-2.2-0.9-3.2c-0.1-0.3-0.7-0.4-1.1-0.5
		c-0.2,0-0.6,0.4-0.6,0.6c-0.1,0.4,0,0.9,0,1.4c0.1,1.3,0.2,2.5,0.2,3.8c0,0.6-0.4,1.3-0.8,1.6c-0.4,0.4-1.1,0.5-1.7,0.5
		c-0.4,0-0.8-0.6-0.9-1c-0.2-0.6-0.2-1.2-0.3-1.9c-0.1-1.1-0.1-2.2-0.3-3.3c-0.3-1.7-0.9-2.5-1.8-2.4c-1,0.1-1.6,0.9-1.6,2.5
		c0,1.1,0,2.2-0.1,3.4c-0.2,1.9-1,3.1-1.9,2.7c-1.3-0.5-1.3-1.6-1.5-2.7c0-0.3,0-0.6,0-1C275.9,239.7,275.9,238.8,275.9,237.2"/>
	<path class="st22" d="M329.4,236.8c0.1-0.8,0.1-2.6,0.3-4.3c0.1-0.5,0.6-1.2,1.1-1.4c0.4-0.1,1.1,0.3,1.6,0.6
		c0.4,0.3,0.5,1,0.9,1.1c1.3,0.4,2.8-1,4.1,0.1c1.2,1,2.2,0.7,3.5,0.4c2.5-0.6,3.8-0.1,4.6,2.2c0.8,2.4,1.2,4.9,1.6,7.4
		c0.1,0.7-0.4,1.7-1.4,1.6c-0.5,0-1.3-0.5-1.5-0.9c-0.6-1.3-0.9-2.7-1.4-4.1c-0.3-0.9-0.5-1.8-0.9-2.7c-0.1-0.3-0.7-0.4-1.1-0.4
		c-0.2,0-0.6,0.4-0.6,0.7c0,1.3,0.3,2.5,0.3,3.8c0,0.9-0.2,1.9-0.6,2.7c-0.2,0.4-1,0.9-1.5,0.8c-0.5,0-1.2-0.7-1.3-1.1
		c-0.4-2-0.6-4.1-0.9-6.1c-0.1-0.9-0.8-1.6-1.6-1.3c-0.6,0.2-1.3,1-1.5,1.6c-0.3,0.9,0,1.9-0.1,2.9c-0.1,1.1-0.3,2.2-0.7,3.3
		c-0.1,0.3-0.7,0.8-1,0.8c-0.5-0.1-1.2-0.5-1.4-1c-0.3-0.5-0.4-1.2-0.4-1.8C329.4,240.3,329.4,239,329.4,236.8"/>
	<path class="st26" d="M295.9,243.4c0.2-2.8,0.3-6.2,0.6-9.5c0.2-1.8,1.3-2.5,3-2c1.8,0.6,3.6,1.2,5.4,1.9c1.9,0.7,3.2,2,3.3,4.2
		c0.1,2.2-1,3.7-2.7,4.7c-0.8,0.5-1.7,0.8-2.6,1.1c-3.6,1.2-3.1,0.4-3.4,4.6c-0.1,1.7-0.5,3.5-0.9,5.2c-0.2,0.8-0.9,1.4-1.8,1.2
		c-0.9-0.2-1.3-0.9-1.3-1.8c0-0.8,0-1.6,0.1-2.4C295.7,248.4,295.8,246.2,295.9,243.4"/>
	<path class="st27" d="M502.6,344.6c1.3,2.3,2.6,4.6,4,7.2c-0.5,0.3-1.1,0.7-1.8,0.9c-3.5,0.9-7,1.9-10.6,2.7
		c-1.8,0.5-2.1,0.3-3.1-1.3c-0.3-0.5-0.6-1.1-0.9-1.7c-2.2-5-1.9-5.8,3.5-6.7C496.7,345.3,499.7,345,502.6,344.6"/>
	<path class="st30" d="M747.9,350.5c0.8-0.9,1.6-2.1,3-2.2c6-0.7,12-1.9,18.1-1.8c0.3,0,0.6,0,1,0c1.6,0.2,3.1,0.4,4.3,1.6
		c-0.5,2.1-2.5,2.4-4,2.8c-6.2,1.6-12.5,2.1-18.9,2.5c-1.4,0.1-2.4-0.8-3.3-1.6C748,351.3,747.9,350.9,747.9,350.5"/>
	<path class="st29" d="M668.2,327.6c-4.3,8.7-5.5,17-4.7,25.7c0,0.5-0.2,1.2-0.5,1.6c-0.1,0.2-0.9-0.1-1.3-0.2c-1.7-0.7-2.8-2-2.9-4
		c-0.1-1.6-0.4-3.2-0.2-4.7c0.5-4.9,1.2-9.8,2.6-14.5c0.5-1.5,1.1-2.5,2.7-2.9C665.2,328.4,666.4,328,668.2,327.6"/>
	<path class="st31" d="M821,161c-0.4,0.3-0.7,0.7-0.8,0.6c-0.6-0.2-1.2-0.4-1.7-0.9c-2.7-2.8-6.1-4.6-9.8-5.6
		c-0.5-0.1-0.9-0.4-1.3-0.5c-6.8-2.3-10.7-7.3-12.4-14.1c-0.9-3.5-1.3-7.2-1.8-10.8c0-0.3,0.2-0.6,0.2-0.9c0.4,0.2,1.1,0.2,1.2,0.6
		c0.8,1.7,1.5,3.5,2.2,5.3c0.6,1.7,0.9,3.4,1.4,5.1c1.6,5.5,4.9,9.6,10.1,12.1c2.3,1.1,4.6,2.1,6.8,3.5c1.9,1.2,3.6,2.6,5.2,4.1
		C820.7,159.7,820.8,160.5,821,161"/>
	<path class="st29" d="M377.5,231.6c0.6,0.3,0.7,0.4,0.9,0.4c4.5,0.1,5.3,0.8,5.5,5c0.1,1.7,0.1,3.5,0,5.2c0,0.6-0.3,1.2-0.6,1.8
		c-0.3,0.7-1.8,0.8-2,0.1c-0.4-1.2-0.8-2.4-1-3.6c-0.2-1.4-0.2-2.8-0.3-4.3c-0.1-0.6-1.1-0.8-1.5-0.4c-1.4,1.2-1.9,2.8-2.2,4.6
		c-0.2,1.2-0.6,2.4-1.1,3.6c-0.2,0.4-1.1,0.5-1.6,0.4c-0.3,0-0.8-0.6-0.8-1c-0.1-0.9-0.2-1.9,0-2.8c0.6-4.6,1.2-9.1,1.9-13.7
		c0.1-0.6,0.3-1.4,0.7-1.7c0.5-0.4,1.3-0.8,2-0.7c0.4,0,0.9,0.9,0.9,1.4c0,1.1-0.2,2.2-0.4,3.3C377.7,229.9,377.6,230.7,377.5,231.6
		"/>
	<path class="st31" d="M743.2,131.4c0.2-0.4,0.2-0.9,0.5-1c4.4-2.2,9-3,13.9-2.6c3.7,0.3,7.3,0.4,11,0.5c5.3,0.2,10.5-0.4,15.7-1.6
		c0.5-0.1,1.2,0,2.5,0c-6,3.3-11.7,5.1-17.9,5.2c-1.9,0-3.8-0.1-5.7-0.2c-6.2-0.5-12.4-0.8-18.6-0.2c-0.5,0-0.9-0.1-1.4-0.2
		L743.2,131.4z"/>
	<path class="st32" d="M822.5,137.6c-1.1-0.4-1.2-1.4-1.5-2.3c-0.6-1.8-1.1-3.7-1.7-5.5c-1.9-6.6-5.9-11.6-11.4-15.6
		c-1.8-1.3-3.8-2.4-5.6-3.7c-0.3-0.2-0.4-0.8-0.6-1.2c0.4-0.1,0.9-0.3,1.3-0.4c0.3-0.1,0.6,0,0.9,0.1c7.3,2.1,13,6.2,16,13.3
		c2,4.7,2.5,9.8,2.7,15C822.7,137.4,822.6,137.5,822.5,137.6"/>
	<path class="st33" d="M789,88.3c-0.3-0.1-0.6-0.1-0.9-0.2c-7.8-2.9-15.2-1.7-22.4,1.9c-3.1,1.5-6.1,3.3-9.1,4.9
		c-0.3,0.3-0.6,0.5-1,0.7c-0.2,0.3-0.5,0.4-0.8,0.4c-0.4,0.2-0.8,0.5-1.1,0.7c-0.2,0.2-0.5,0.3-0.8,0.3c-1.1,0.4-1.3-0.2-1.1-1.1h0
		c0.3-0.3,0.6-0.5,1-0.7c0.2-0.2,0.4-0.4,0.7-0.4c0.5-0.1,0.8-0.5,1.2-0.8c2.7-1.9,5.4-3.9,8.3-5.6c2.3-1.3,4.8-2.4,7.3-3.3
		c7.3-2.7,14.3-1.9,20.9,2.3c0.4,0.2,0.6,0.6,1.1,0.8l0,0c0.2,0.9,0,1.4-1.1,1.1c-0.3,0-0.6-0.1-0.8-0.3
		C789.8,88.6,789.4,88.5,789,88.3"/>
	<path class="st29" d="M1002.1,270.8c-0.4,0.5-0.6,1-1,1.2c-7.2,3.3-14.5,3.2-21.8,0.3c-0.4-0.2-0.9-0.4-1.2-0.8
		c-0.3-0.3-0.4-0.7-0.4-1.1c0-0.2,0.4-0.5,0.7-0.5c2.8-0.3,5.7-1,8.5-0.9C992,269.2,997.1,269,1002.1,270.8"/>
	<path class="st34" d="M976.3,276.4c-1.3,3.8-2.6,7.7-4,11.4c-0.4,1-1.2,1.8-1.8,2.7c0,0.7-0.2,1.3-0.7,1.8c-0.2,2-0.6,4-2.4,5.3
		c-1.6-0.1-3.1-0.6-4.2-1.7c3.5-7,6.9-14,10.3-20.9C974.9,274.7,975.6,275.6,976.3,276.4"/>
	<path class="st35" d="M775.6,104.4c2.2,0.1,4.5-0.2,6.4,1.3c0.4,0.3,0.5,1.1,0.4,1.6c0,0.2-0.8,0.6-1.1,0.5
		c-6.5-1.9-12.6-0.3-18.6,2.1c-3.7,1.5-7.2,3.2-10.9,4.9c-0.3,0.1-0.6,0.3-0.9,0.3c-0.3,0-0.7-0.1-0.8-0.3c-0.1-0.2,0-0.7,0.1-0.8
		c1.2-1,2.3-2.2,3.7-3C760.5,106.7,767.8,104.6,775.6,104.4"/>
	<path class="st31" d="M398.1,234.5c1.4-1.2,2.6-2.3,3.9-3.2c0.3-0.2,1.2,0,1.7,0.3c0.2,0.1,0.3,0.9,0.1,1.2c-0.9,1.5-1.9,2.9-3,4.5
		c0.9,1.6,2,3.1,2.8,4.8c0.2,0.4-0.2,1.3-0.6,1.6c-0.4,0.3-1.2,0.2-1.7,0c-0.4-0.1-0.7-0.6-1.1-0.9c-0.5-0.4-0.9-0.9-1.5-1.5
		c-0.5,1.1-0.9,1.9-1.2,2.7c-0.4,0.8-0.9,1.3-1.8,1.2c-0.8-0.1-1.5-1-1.3-2.2c0.2-1.2,0.5-2.5,0.9-3.7c0.5-1.4,0.3-2.4-0.8-3.4
		c-0.6-0.5-1.1-1.2-1.4-1.9c-0.2-0.3,0-1,0.2-1.2c0.3-0.2,0.9-0.4,1.2-0.2C395.7,233.2,396.8,233.8,398.1,234.5"/>
	<path class="st27" d="M208.6,300.7c0,4.9,0,9.8,0,14.7c0,1.6-0.2,3.1-0.3,4.7c-1.6-0.4-3-1.2-3.9-2.5c-0.6-0.9-1.1-2-1.1-3
		c-0.1-3.8,0.1-7.7,0.2-11.5c0.1-2.4,0.2-2.6,2.9-2.5C207,300.5,207.8,300.6,208.6,300.7"/>
	<path class="st25" d="M732.3,113.9c1.6-1.9,3.3-3.9,4.9-5.8c3.8-4.3,8.9-5.2,14.2-5.6c0.4,0,1,0.4,1.1,0.7c0.1,0.6,0,1.4-0.4,1.7
		c-0.9,0.6-1.9,1.1-2.9,1.5c-3.2,1.1-6.1,2.7-8.6,4.9c-2.1,1.8-4.4,3.1-7,3.9C732.5,115.3,732.2,114.8,732.3,113.9"/>
	<path class="st16" d="M850.7,263.8c3.1,2.9,4.6,6.6,4.8,10.7c0,1.5,0,2.8-2.1,2.6c-1.8,0.1-3.6-0.4-4.8-1.7c-1.5-1.7-2.6-3.6-2.8-6
		c0-0.3,0-0.6-0.1-1C847.1,266.6,848.7,265,850.7,263.8"/>
	<path class="st36" d="M761.1,97.7c0.2-1.3,1-1.6,1.7-1.7c7.1-1.7,14.2-1.7,21.2,0.8c2.4,0.8,4.8,1.8,6.4,3.9
		c0.2,0.2,0.3,0.7,0.2,0.8c-0.3,0.3-0.8,0.6-1.1,0.6c-0.8-0.1-1.5-0.4-2.3-0.7c-6.4-2.9-13.1-3.9-20-3.7
		C765.2,97.8,763.2,97.7,761.1,97.7"/>
	<path class="st32" d="M352.1,241.5c1.6-0.1,2.7-0.1,3.7-0.2c0.7,0,1.4,0.2,1.4,0.9c0,0.5-0.2,1.3-0.6,1.6c-1.7,1.2-3.6,1.1-5.4,0.2
		c-1.6-0.8-2.4-2.1-2.3-3.8c0.2-3.2,1.6-5.8,4.3-7.6c1.9-1.2,4.8-0.9,5.7,0.5c0.9,1.3,0.4,3.8-1.3,5.1
		C356.1,239.4,354.3,240.2,352.1,241.5"/>
	<path class="st32" d="M320.3,241.3c2,0,3.2,0,4.4,0c0.7,0,1.2,1.3,0.8,1.9c-0.1,0.1-0.2,0.3-0.3,0.4c-1.6,1.5-3.5,1.3-5.3,0.6
		c-1.6-0.6-2.5-1.9-2.7-3.6c-0.3-2.9,2.2-7.1,4.7-8.3c1.9-0.8,4.5-0.4,5.3,0.9c0.8,1.2,0.4,3.4-1,4.8c-0.8,0.8-1.8,1.3-2.7,1.9
		C322.7,240.3,321.8,240.6,320.3,241.3"/>
	<path class="st31" d="M260.1,244.8c-0.6-0.2-1.9-0.5-2.9-1.1c-0.8-0.4-0.9-1.4-0.4-2.1c0.3-0.4,1-0.8,1.5-0.8
		c1.1,0,2.1,0.4,3.2,0.5c0.2,0,0.5-0.3,0.6-0.6c0.1-0.2,0-0.7-0.1-0.8c-0.9-0.7-1.8-1.2-2.7-1.9c-1.9-1.5-1.8-3.8,0.1-5.3
		c1.8-1.4,5.3-1.3,7.1,0.4c0.3,0.3,0.4,1.1,0.3,1.7c0,0.2-0.8,0.5-1.2,0.5c-0.9-0.1-1.8-0.5-2.8-0.6c-0.3,0-0.7,0.2-0.8,0.4
		c-0.1,0.2,0,0.7,0.1,0.8c0.6,0.5,1.4,0.8,1.9,1.4c0.7,0.7,1.3,1.4,1.7,2.2c1,2.4-0.1,4.5-2.7,5
		C262.3,244.7,261.5,244.7,260.1,244.8"/>
	<path class="st37" d="M315,233.3c-0.1,3.2-0.9,6.3,0,9.5c0.2,0.8-0.3,1.5-1.2,1.8c-1,0.3-2.1,0-2.5-0.8c-0.2-0.4-0.4-0.9-0.4-1.3
		c0.2-5.3,0.3-10.5,0.6-15.8c0.1-1.9,1.1-2.6,2.3-2.3c1.6,0.4,1.1,1.7,1.1,2.7C315.1,229.1,315,231.2,315,233.3"/>
	<path class="st38" d="M734.5,272.3c-6.3,0.7-12.5,1.4-19.4,2.2c0.6-1,0.8-1.5,1.2-1.9c1.2-1,2.5-2,3.7-3c2.8-2.3,5.8-2.4,8.9-0.8
		C730.9,269.8,732.6,271.2,734.5,272.3L734.5,272.3z"/>
	<path class="st39" d="M793.1,151.4c0.3,0.1,0.7,0.1,0.8,0.2c3,4.4,7.6,6.2,12.3,7.7c1.7,0.5,3.3,1.1,5,1.7c1.8,0.7,3.5,1.7,4.6,3.3
		c0.1,0.2,0.1,0.7,0,0.8c-0.1,0.2-0.6,0.3-0.8,0.2c-4.8-1.7-9.6-3.4-14.4-5.3c-3.4-1.3-6.1-3.4-7.8-6.7c-0.2-0.4-0.4-0.9-0.4-1.4
		C792.4,151.8,792.8,151.6,793.1,151.4"/>
	<path class="st40" d="M825.2,99.7c-1.4,0-3,0.1-4.5,0c-3.3-0.3-6.6-0.6-9.9-1.2c-2.2-0.4-4.8,0.3-6.3-2.1c1.9-1.4,4.1-1.4,6.3-1.4
		c4.7-0.1,9.1,0.8,13.3,3C824.6,98.3,825.4,98.5,825.2,99.7"/>
	<path class="st39" d="M820.8,112.1c-4.7-3.9-10.2-5.8-16.3-5.6c-0.6,0-1.3,0-1.9-0.2c-0.3-0.1-0.6-0.6-0.8-1
		c-0.1-0.2,0.1-0.6,0.3-0.8c0.4-0.3,0.8-0.6,1.3-0.6c7.3-0.6,14,0.6,18.6,7.1C822.2,111.9,821.8,112.3,820.8,112.1"/>
	<path class="st41" d="M360.9,240.2c0.1-0.4,0.3-1.4,0.7-2.2c1.3-2.4,3.3-4.2,5.6-5.7c0.5-0.3,1.2-0.4,1.8-0.5
		c0.8,0,1.6,0.3,1.7,1.2c0.1,0.8,0.1,1.7-1,1.8c-2.5,0.3-3.8,2.1-5,4c-0.8,1.3-0.6,1.9,0.9,2.2c1,0.2,1.9,0.3,2,1.5
		c0.1,1-0.8,1.9-2.1,2.1C362.8,245,360.8,243.4,360.9,240.2"/>
	<path class="st42" d="M734.9,127.5c5.4-5,11.6-8.1,19-8c0.6,0,1.3,0,1.9,0.3c0.5,0.2,1.1,0.5,1.5,1c0.4,0.5-0.3,1.1-1.5,1.2
		c-5.3,0.4-10.4,1.4-15.3,3.3C738.6,125.9,736.8,126.7,734.9,127.5"/>
	<path class="st43" d="M655.7,340.7c-0.2,3.2-0.3,6-0.5,8.7c0,0.7-0.8,1.1-1.4,0.8c-4.3-2.5-4.3-2-3.6-6.6c0.1-0.9,0.3-1.9,0.7-2.8
		c0.2-0.4,0.9-1,1.4-0.9C653.4,339.9,654.5,340.4,655.7,340.7"/>
	<path class="st22" d="M630.2,330.1c-0.5-0.1-1.4-0.3-2.3-0.6c-1.2-0.4-1.4-1.3-0.5-2.1c1-1,2.1-1.9,3.2-2.9
		c3.1-2.9,2.6-2.8,5.6-0.1c2,1.8,2,2.4-0.2,3.9C634.1,329.7,632.8,330.1,630.2,330.1"/>
	<path class="st44" d="M268.8,240.4c0.3-1.9,0.6-4.1,1.1-6.2c0.2-0.9,0.8-1.7,1.4-2.4c0.5-0.5,1.1-0.4,1.6,0.2
		c0.2,0.2,0.5,0.5,0.5,0.8c0.3,3.7-0.3,7.3-1,10.8c-0.1,0.5-0.8,1-1.4,1.1c-0.9,0.2-1.6-0.3-1.8-1.1
		C268.8,242.7,268.9,241.7,268.8,240.4"/>
	<path class="st35" d="M801.7,117.8c1.3,0,2.3-0.3,3,0.1c4.5,2.4,7.6,6.1,9.4,10.9c0.2,0.5,0.1,1.3-0.1,1.9c-0.1,0.2-0.7,0.5-1,0.4
		c-0.4-0.1-0.8-0.5-1.1-0.9c-1.6-2.2-3-4.5-4.7-6.6C805.7,121.6,803.8,119.9,801.7,117.8"/>
	<path class="st32" d="M631.8,320.1c-2.3,2.2-4.1,3.9-5.9,5.7c-0.5,0.4-1.4,0.2-1.6-0.4c-1.2-3.2-0.4-6.5,2.2-8.6
		c0.4-0.3,1.3-0.3,1.7,0C629.3,317.7,630.3,318.8,631.8,320.1"/>
	<path class="st45" d="M812.2,195.6c0.7-2.8,1.4-5.5,2.1-8.3c1-4.1,0.6-8.2-0.8-12.2c-0.1-0.3-0.2-0.6-0.2-0.9
		c0-0.3,0.2-0.8,0.3-0.8c0.4,0,0.9,0,1.3,0.3c0.4,0.3,0.7,0.7,0.9,1.1c1.6,3.8,2.3,7.6,0.8,11.6c-1.2,3.4-2.1,7-3.2,10.5
		C812.7,196.7,812.3,196.3,812.2,195.6"/>
	<path class="st46" d="M782,115.9c-0.4,0.5-0.5,0.8-0.7,0.8c-0.4,0.2-0.9,0.2-1.4,0.2c-4,0.1-7.8,1.2-11.2,3.4
		c-0.4,0.2-0.8,0.4-1.3,0.5c-0.3,0-0.7-0.1-0.8-0.3c-0.1-0.2-0.1-0.6,0-0.8c0.1-0.3,0.3-0.5,0.6-0.7c4-2.9,8.4-4.4,13.3-3.9
		C780.9,115.1,781.4,115.6,782,115.9"/>
	<path class="st47" d="M812.2,195.6c0.4,0.4,0.7,0.8,1.1,1.2c0.3,2.5,0.6,5,0.9,7.5c0.1,0.8-0.1,1.6-1.2,1.7
		c-0.9,0.1-1.6-0.2-1.9-1.1C809.9,201.6,809.7,198.5,812.2,195.6"/>
	<path class="st39" d="M651.9,336.5c0.4-1.5,0.8-3,1.2-4.5c0.1-0.4,0.6-0.8,1-1c1.2-0.4,2.4-0.6,3.6-0.8c0.7,1.4,0,2.4-0.3,3.4
		C656.5,337.3,656.4,337.2,651.9,336.5"/>
	<path class="st42" d="M798.8,123.4c0.3,0,0.7-0.1,0.9,0c3.2,1.7,5,4.6,6.4,7.9c0.1,0.2-0.1,0.7-0.3,0.8c-0.4,0.2-0.9,0.4-1.3,0.3
		c-0.4-0.1-0.8-0.4-1.1-0.8c-1.8-2.2-3.5-4.4-5.2-6.7c-0.2-0.2-0.2-0.6-0.1-0.9C798.2,123.7,798.5,123.6,798.8,123.4"/>
	<path class="st48" d="M271.8,224.4c1.6,0.2,2.6,1.2,2.4,2.2c-0.2,0.8-0.7,1.4-1.6,1.4c-1,0-2.1-1.2-1.9-2.2
		C270.8,225.2,271.5,224.7,271.8,224.4"/>
	<path class="st49" d="M751.7,95.8c0.4,0.4,0.7,0.7,1.1,1.1c-1.5,1.2-3.1,2-5.5,1.7C748.8,97.1,750.1,96.3,751.7,95.8"/>
	<path class="st50" d="M719,165c0.4-0.4,0.7-0.7,1.1-1.1c1.3,1.1,1,2.8,2.2,5C720,167.5,719.4,166.4,719,165"/>
	<path class="st51" d="M791.1,89.1c0.4-0.3,0.7-0.7,1.1-1c1.3,0.3,2.2,1,2.7,2.7C793.3,90.4,792,90.2,791.1,89.1"/>
	<path class="st52" d="M820.8,112.1c0.4-0.4,0.8-0.8,1.3-1.2c1,0.6,1.8,1.8,1,2.5C822,114.4,821.3,113,820.8,112.1"/>
	<path class="st53" d="M732.3,113.9c0.4,0.4,0.8,0.8,1.3,1.3c-1.1,1.2-2.3,2.1-4,1.7l0.1,0.1C730.5,115.9,731.4,114.9,732.3,113.9"
		/>
	<path class="st19" d="M779.6,243.4c0.1-0.8,0.5-1.4,1.4-1.5c-0.1,0.5-0.2,1-0.3,1.4C780.3,243.3,779.9,243.3,779.6,243.4"/>
	<path class="st31" d="M743.1,131.3c-0.3,0.2-0.6,0.5-0.9,0.6c0,0-0.2-0.1-0.3-0.2c0.3-0.2,0.6-0.4,0.9-0.5c0.1,0,0.2,0.1,0.4,0.2
		C743.2,131.4,743.1,131.3,743.1,131.3"/>
	<path class="st21" d="M785.5,240.5c0.6-0.3,1.2-0.5,1.8-0.8C786.7,240,786.1,240.2,785.5,240.5"/>
	<path class="st53" d="M729.6,116.8c0,0.2-0.1,0.3-0.1,0.4C729.6,117.2,729.6,117,729.6,116.8C729.7,116.9,729.6,116.8,729.6,116.8"
		/>
	<path class="st51" d="M789,88.3c0.4,0.2,0.8,0.4,1.2,0.6C789.8,88.6,789.4,88.4,789,88.3"/>
	<path class="st49" d="M754.6,93.8c-0.4,0.3-0.8,0.6-1.2,0.8C753.8,94.4,754.2,94.1,754.6,93.8"/>
	<path class="st49" d="M755.5,95.5c0.3-0.2,0.7-0.4,1-0.7C756.2,95,755.8,95.3,755.5,95.5"/>
	<polygon class="st7" points="781.7,243.3 781.6,243.3 781.7,243.1 	"/>
	<path class="st51" d="M792.1,88l-1.1-0.8L792.1,88z"/>
	<path class="st49" d="M752.7,95.1c-0.3,0.2-0.7,0.5-1,0.7C752.1,95.5,752.4,95.3,752.7,95.1"/>
	<path class="st17" d="M604.7,324l0,0.3C604.7,324.3,604.7,324.1,604.7,324C604.7,324.1,604.7,324,604.7,324"/>
	<path class="st49" d="M753.6,96.6l1.1-0.7L753.6,96.6z"/>
	<path class="st38" d="M734.5,272.4c0.1,0.2,0.3,0.3,0.4,0.5c-0.1,0-0.3-0.1-0.3-0.1C734.5,272.6,734.5,272.5,734.5,272.4
		C734.5,272.3,734.5,272.4,734.5,272.4"/>
	<path class="st5" d="M339.8,340.5c-11.8-0.1-23.6-0.3-35.4-0.5c-1.1,0-2.2-0.1-3.3-0.3c-1.5-0.2-2.4-1.2-2.5-2.5
		c-0.1-1.3,0.7-2.4,2.2-2.7c1.6-0.3,3.2-0.5,4.7-0.5c6.1-0.1,12.1-0.2,18.2-0.2c16.6,0,33.2,0,49.8,0c1.3,0,2.6-0.1,3.8,0
		c2.2,0.1,3.6,1.4,3.7,3c0.1,1.8-1.4,3.2-3.9,3.4c-1.1,0.1-2.2,0-3.3,0c-11.3,0-22.7,0-34,0C339.8,340.4,339.8,340.5,339.8,340.5"/>
	<path class="st54" d="M321,359.8c5.6,0,11.2,0,16.7,0c1.1,0,2.2,0,3.3,0.3c1.1,0.2,2.2,1.7,2.2,2.8c0,1.2-0.9,2.6-2.1,2.9
		c-0.9,0.3-1.9,0.4-2.8,0.4c-11.8,0-23.6,0-35.4,0c-1.1,0-2.2-0.3-3.2-0.6c-1.2-0.4-1.7-1.5-1.5-2.7c0.1-0.8,0.7-2,1.4-2.2
		c1.3-0.5,2.7-0.8,4.1-0.8C309.5,359.8,315.3,359.9,321,359.8L321,359.8z"/>
	<path class="st54" d="M320.2,354.8c-5.3,0-10.5,0-15.8,0c-1.1,0-2.2,0-3.3-0.3c-1.5-0.3-2.5-1.8-2.4-3.2c0.2-1.4,1-2.3,2.3-2.7
		c0.9-0.3,1.9-0.3,2.8-0.3c11.2,0,22.3,0,33.5,0c1.1,0,2.2,0.1,3.3,0.4c1.3,0.3,2.2,1.6,2.2,2.8c0,1.2-0.8,2.5-2.2,2.8
		c-1.2,0.3-2.5,0.4-3.8,0.4C331.3,354.8,325.8,354.8,320.2,354.8L320.2,354.8z"/>
	<path class="st55" d="M320.7,378.2c-5.7,0-11.5,0-17.2,0c-1.1,0-2.2,0-3.3-0.1c-1.4-0.2-2.4-1.2-2.5-2.4c-0.2-1.4,0.9-2.7,2.5-3
		c1.1-0.2,2.2-0.2,3.3-0.2c4.3,0,8.6,0,12.9-0.1c6.9,0,13.7,0,20.6,0c1.1,0,2.2,0,3.3,0.1c1.8,0.2,3.1,1.6,3,3.1
		c-0.1,1.3-1.3,2.5-2.9,2.6c-1.1,0.1-2.2,0.1-3.3,0.1C331.6,378.2,326.2,378.2,320.7,378.2L320.7,378.2z"/>
	<path class="st5" d="M319.4,389c-5.1,0-10.2,0-15.3,0c-1.3,0-2.6-0.1-3.8-0.3c-1.2-0.2-1.9-1.2-2-2.4c-0.1-1.3,0.8-2.5,2.1-2.8
		c1.2-0.2,2.5-0.4,3.8-0.4c10.5-0.1,21.1-0.1,31.6-0.1c1.1,0,2.3,0.2,3.2,0.7c0.7,0.4,1.2,1.5,1.4,2.3c0.2,0.9-0.8,2.3-1.8,2.5
		c-1.2,0.2-2.5,0.3-3.8,0.3C329.6,389,324.5,389,319.4,389L319.4,389z"/>
	<path class="st54" d="M362.8,358.7c1.8,0,3.5-0.1,5.3,0c1.7,0.1,2.7,1.2,2.7,2.7c0.1,1.5-1,2.9-2.6,2.9c-3.8,0.1-7.7,0-11.5,0
		c-0.3,0-0.6-0.1-0.9-0.2c-1.2-0.4-1.9-1.2-1.9-2.5c-0.1-1.3,0.8-2.5,2.2-2.7c1.4-0.2,2.9-0.2,4.3-0.3
		C361.2,358.7,362,358.7,362.8,358.7L362.8,358.7z"/>
	<path class="st56" d="M362.1,370.8c1.9,0.1,3.7,0.1,5.4,0.3c1.4,0.2,2.3,1.3,2.3,2.6c0,1.3-0.8,2.5-2.1,2.9
		c-0.5,0.1-0.9,0.3-1.4,0.3c-2.7,0-5.4,0.1-8.1,0c-0.8,0-1.6-0.3-2.3-0.6c-1-0.4-1.7-1.7-1.5-2.7c0.2-1.2,0.9-2.1,2.1-2.3
		C358.5,371,360.4,370.9,362.1,370.8"/>
	<path class="st57" d="M362,388.7c-1.7,0-3.5,0.1-5.2,0c-1.4-0.1-2.4-1.2-2.5-2.4c-0.1-1.4,0.9-2.9,2.4-3c3.6-0.1,7.3-0.1,10.9,0.1
		c1.5,0.1,2.3,1.3,2.3,2.6c0,1.5-0.9,2.6-2.6,2.8C365.5,388.8,363.7,388.8,362,388.7L362,388.7z"/>
	<path class="st55" d="M363.4,348.3c2.1,0,4.1-0.1,6.2,0c1.3,0.1,2.2,1.4,2.1,2.7c-0.1,1.1-0.9,2-2.1,2.3c-0.6,0.1-1.3,0.2-1.9,0.2
		c-3,0-6-0.1-9.1-0.2c-0.6,0-1.3-0.1-1.9-0.2c-1.1-0.2-2.1-1.3-2.1-2.3c0-1,1-2.3,2-2.4c2.2-0.2,4.4-0.3,6.7-0.4
		C363.4,348.2,363.4,348.2,363.4,348.3"/>
	<path class="st5" d="M914.6,193.8c0.5,0.2,1.1,0.2,1.4,0.5c1.4,1.5,2.9,3,4.2,4.6c4.2,5.2,8.3,10.6,12.5,15.8
		c8.1,10.1,16.3,20.1,24.4,30.1c3.4,4.2,6.8,8.4,10.2,12.7c0.6,0.7,1.2,1.5,1.4,2.4c0.2,0.5-0.1,1.3-0.5,1.7
		c-0.4,0.3-1.2,0.3-1.7,0.2c-0.4-0.1-0.8-0.5-1.1-0.8c-0.6-0.6-1-1.2-1.5-1.8c-15.2-19.5-30.5-38.9-45.7-58.4
		c-1.4-1.8-2.6-3.6-3.8-5.5C914,195,914.4,194.4,914.6,193.8"/>
	<path class="st58" d="M986.8,257.9c-0.2,0.4-0.3,0.9-0.6,1.2c-0.1,0.2-0.7,0.2-0.8,0.1c-0.5-0.8-1-1.6-1.2-2.5c-1.1-5-2.2-10-3-15
		c-1.7-9.6-3.2-19.2-4.8-28.8c-0.6-3.3-1.4-6.5-2.1-9.8c-0.2-0.9-0.5-1.9-0.3-2.8c0.1-0.6,0.8-1.4,1.4-1.7c0.8-0.4,1.6,0,2,0.8
		c0.4,0.7,0.7,1.4,0.8,2.2c1.3,8.3,2.6,16.7,3.9,25c1.1,7.1,2.3,14.2,3.4,21.2C986,251.2,986.4,254.5,986.8,257.9"/>
	<path class="st56" d="M974.5,246.7c-0.5,0.6-1,1.3-1.6,1.6c-0.4,0.2-1.4,0-1.7-0.4c-0.7-0.8-1.2-1.8-1.7-2.9
		c-1.3-3.1-2.4-6.3-3.8-9.3c-4.4-10.1-9-20.1-13.5-30.2c-0.3-0.6-0.6-1.1-0.8-1.7c-0.1-0.4,0-1,0.3-1.3c0.6-0.5,1.2-0.2,1.6,0.4
		c1.6,2.7,3.4,5.4,4.8,8.3c5.2,11,10.2,22,15.3,33C973.9,245,974.2,245.7,974.5,246.7"/>
	<path class="st56" d="M1008.7,263.9c-0.3-0.4-0.9-0.7-0.8-1c0.2-0.9,0.5-1.8,1-2.6c7.2-10.1,14.5-20.2,21.9-30.2
		c0.6-0.9,1.6-1.5,2.5-2.1c0.2-0.2,0.9,0.2,1.2,0.4c0.2,0.1,0.4,0.6,0.3,0.8c-0.5,1.1-1,2.3-1.8,3.3c-3.5,4.9-7.1,9.8-10.7,14.7
		c-3,4.1-6,8.2-9.1,12.3c-1,1.3-2,2.4-3.1,3.6C1009.8,263.5,1009.3,263.6,1008.7,263.9"/>
	<path class="st59" d="M1008.4,229.3c-0.2,1.1-0.4,2.4-0.6,3.6c-1.8,7.6-3.6,15.2-5.5,22.8c-0.4,1.5-1.1,3-1.8,4.4
		c-0.1,0.3-0.9,0.5-1.2,0.4c-0.4-0.1-0.8-0.6-0.9-0.9c-0.1-0.9,0-1.9,0.2-2.8c2.1-9.2,4.3-18.3,6.5-27.5c0.1-0.5,0.2-1,0.5-1.3
		c0.4-0.4,1.2-0.7,1.6-0.6c0.4,0.1,0.7,0.8,1.1,1.3C1008.4,228.7,1008.4,228.9,1008.4,229.3"/>
	<path class="st60" d="M656,169.8c2.3-4.6,4.4-8.7,6.4-12.8c3.3-6.6,6.6-13.1,9.9-19.7c1.2-2.3,2.2-3.1,3.4-2.7
		c1.7,0.6,1.5,2.2,1.8,3.6c0.4,1.6,0.2,3.1-0.3,4.7c-2.8,9.8-5.2,19.8-8.3,29.5c-2.3,7.1-4.5,14.3-7.9,21c-1.4,2.8-2.1,6-3.2,9
		c-0.2,0.6-0.4,1.2-0.6,1.8c-0.5,1-2.1,1.2-2.8,0.2c-0.5-0.6-1-1.3-1.3-2c-6.3-14.5-12.7-28.9-18.9-43.5c-1.4-3.4-2.5-6.9-3.6-10.4
		c-0.6-2-1-4-1.4-6.1c-0.1-0.5,0.4-1.3,0.8-1.5c0.4-0.3,1.4-0.3,1.8,0c1,0.7,1.9,1.6,2.7,2.6c5.5,6.8,11.1,13.7,16.6,20.5
		C652.6,166,654,167.9,656,169.8"/>
	<path class="st61" d="M594.3,185.8c0-1.8,0.1-3.5,0-5.3c-0.1-2.3,1-3.6,2.9-4.4c1.6-0.7,3.2-1.4,4.9-1.9c5.6-1.4,11.1-2.8,16.7-4.1
		c3-0.7,5.2,0.4,5.8,3.3c0.7,2.8,0.9,5.7,1.1,8.5c0.2,2.2-0.2,4.3-1,6.5c-1.8,5.4-3.2,11-4.5,16.6c-0.5,2.3-1.6,3.8-3.9,4.3
		c-2.6,0.6-5.3,1.2-7.9,1.7c-2.2,0.5-3.6-0.4-4.6-2.4c-2-4-4.1-8-6.2-11.9c-0.5-1-1.1-2.1-1.9-2.6c-1.7-1-1.9-2.4-1.9-4.1
		c0-1.4,0-2.9,0-4.3C594.1,185.8,594.2,185.8,594.3,185.8"/>
	<path class="st6" d="M597.9,153c-0.3-6.2,2.9-10.7,7.5-14.2c3.7-2.9,8.4-2.3,11.6,1.1c2.1,2.3,3.1,5.1,3.7,8.2
		c0.7,3.7,0.3,7.3-1.2,10.7c-2.1,4.7-6.2,7.4-10.9,7c-5.3-0.4-9.1-3.7-10.3-9.1C598,155.5,598,154.2,597.9,153"/>
	<path class="st55" d="M593.6,229.4c-1.4,0-2.2,0.1-3,0c-0.5-0.1-1.1-0.6-1.4-1.1c-0.4-0.8,0-1.6,0.8-2c0.7-0.4,1.4-0.7,2.2-0.9
		c1.9-0.5,3.7-0.9,5.6-1.3c10.1-2.3,20.3-4.5,30.4-6.8c1.1-0.2,2.2-0.4,3.3-0.5c1.2,0,2.1,0.9,2.3,2c0.2,1.1-0.3,2.3-1.4,2.8
		c-0.9,0.4-1.8,0.7-2.7,0.9c-10.6,2.2-21.3,4.3-31.9,6.4C596.2,229.1,594.6,229.2,593.6,229.4"/>
	<path class="st5" d="M674.7,225.9c0.1,4.3-3.4,8.8-7.3,9.9c-2.9,0.8-6.6-0.7-8.3-3.3c-1.8-2.7-1.9-6.5-0.1-9c1.6-2.3,4-3.6,6.4-4.8
		c1.6-0.8,3.4-0.4,5,0.5C673.2,220.6,674.5,223,674.7,225.9"/>
	<path class="st62" d="M606.1,232.9c2.3-0.1,3.4,0.6,3.7,1.8c0.4,1.5-0.3,2.9-1.9,3.3c-4.4,1.2-8.9,2.3-13.4,3.4
		c-0.4,0.1-1,0-1.4-0.1c-1.7-0.4-2.3-2.6-1.1-3.8c0.3-0.3,0.7-0.7,1.1-0.9C597.5,234.8,602.2,233.8,606.1,232.9"/>
	<path class="st63" d="M595.2,251.6c-0.8-0.8-1.6-1.3-1.9-2c-0.2-0.5,0.3-1.6,0.9-2c0.9-0.6,2-1,3-1.3c2.4-0.8,4.8-1.6,7.3-2.3
		c0.6-0.2,1.3-0.2,1.9-0.1c1,0.2,1.7,0.9,1.9,1.9c0.3,1.1-0.3,1.8-1,2.5c-0.1,0.1-0.3,0.2-0.4,0.2
		C603,249.5,599.2,250.6,595.2,251.6"/>
	<path class="st63" d="M525.3,248.4c-0.7-0.2-1.4-0.3-1.9-0.5c-0.4-0.2-0.8-0.6-0.9-1c-0.1-0.4,0.3-0.9,0.5-1.2
		c0.3-0.3,0.8-0.6,1.2-0.7c3.9-0.9,7.7-1.8,11.6-2.7c0.3-0.1,0.6,0,0.9,0.1c0.8,0.2,1.6,0.6,1.6,1.5c0,0.6-0.4,1.1-0.7,1.6
		c-0.1,0.2-0.5,0.4-0.8,0.5C533,246.7,529.1,247.5,525.3,248.4"/>
	<path class="st57" d="M524.6,257.5c-0.4-0.3-1.2-0.7-1.5-1.3c-0.4-0.8,0.2-1.8,1.3-2.1c3.7-1,7.4-2,11.1-2.9
		c0.6-0.1,1.3-0.1,1.9,0.1c0.4,0.1,0.9,0.5,1,0.9c0.1,0.6,0,1.2-0.2,1.8c-0.1,0.3-0.4,0.5-0.7,0.6
		C533.4,255.9,529.2,257.1,524.6,257.5"/>
	<path class="st64" d="M525.9,266.1c-0.7,0-1.1,0.1-1.4,0c-0.8-0.2-1.6-0.6-1.5-1.5c0-0.5,0.5-1.1,0.8-1.6c0.1-0.1,0.3-0.1,0.4-0.2
		c3.1-0.8,6.1-1.7,9.2-2.5c0.6-0.2,1.4-0.3,1.8,0c0.6,0.3,1.2,1,1.4,1.7c0.1,0.4-0.3,1.2-0.6,1.6c-0.4,0.4-1.1,0.7-1.7,0.8
		C531.4,265.1,528.5,265.6,525.9,266.1"/>
	<path class="st65" d="M336.4,312c-11.4,0-22.7,0-34,0c-2.3,0-3-0.5-3-2.7c0-4,0-8,0.2-12c0.1-2.1,0.9-2.7,3-2.9
		c0.8-0.1,1.6,0,2.4-0.1c0.9-0.1,1.4-0.7,1.5-1.6c0-0.3,0.1-0.6,0.1-1c0.1-4.5,0.1-8.9,0.2-13.4c0-1.1-0.4-1.9-1.6-1.9
		c-4.2-0.1-8.3-0.1-12.5-0.1c-0.9,0-1.5,0.6-1.5,1.5c-0.1,1.1,0,2.2-0.1,3.4c-0.2,3.1-1.4,4.3-4.4,4.5c-0.5,0-1,0-1.4,0
		c-12.3,0-24.6,0-36.9-0.1c-1.3,0-2.6,0-3.8-0.1c-3-0.2-3.8-0.8-3.9-3.7c0-4.6,0.1-9.3,0.3-13.9c0-1.5,0.6-2.1,2-2.2
		c0.8-0.1,1.6,0,2.4,0c12.9,0,25.9,0,38.8,0c0.5,0,1,0,1.4,0c4.7,0.1,4.9,0.2,5.5,5.1c0.1,1.2,0.8,1.7,1.8,1.7c3.5,0,7,0,10.6,0
		c1.1,0,2.2-0.1,3.4-0.1c2.6,0.1,3.3,0.7,3.4,3.5c0.1,4.2,0.1,8.3,0.1,12.5c0,1.3,0,2.6,0.1,3.8c0.1,1.5,0.6,1.9,2.2,1.9
		c1,0,1.9,0,2.9,0c15.5,0,31-0.1,46.5-0.1c2.1,0,4.1-0.2,6.2-0.3c1.8,0,3.5,0,5.3,0.2c1.2,0.1,2,1.3,1.7,2.4
		c-0.9,2.8-0.3,5.7-0.5,8.6c-0.1,1.3,0,2.6-0.2,3.8c-0.3,2.2-1.3,3-3.5,3.1c-3.8,0.1-7.7,0-11.5,0C351.7,312,344,312,336.4,312
		L336.4,312z"/>
	<path class="st66" d="M370.1,279.1c-11.5,0-23,0-34.5,0c-1.3,0-2.6-0.1-3.7-0.5c-0.5-0.2-1-1.2-1.1-1.9c-0.1-0.5,0.5-1.2,1-1.5
		c0.7-0.4,1.5-0.5,2.3-0.6c1.4-0.1,2.9-0.1,4.3-0.1c22.2,0,44.4,0,66.5,0.1c1,0,1.9,0,2.9,0.1c1.2,0.2,2.2,1.3,2,2.2
		c-0.2,1.1-0.9,1.7-1.9,1.9c-1.3,0.2-2.5,0.1-3.8,0.1C392.7,279,381.4,279,370.1,279.1L370.1,279.1z"/>
	<path class="st66" d="M370.6,264.6c11.5,0,23,0,34.5,0c1.3,0,2.6-0.1,3.8,0.2c0.6,0.1,1.3,1,1.3,1.6c0,0.6-0.6,1.6-1.2,1.8
		c-1,0.4-2.2,0.3-3.3,0.3c-8,0-16-0.1-24-0.1c-14.9,0-29.7,0-44.6-0.1c-1.4,0-2.9-0.1-4.3-0.2c-1.3-0.1-2-0.9-1.9-1.7
		c0.2-1.1,1.2-1.4,2.1-1.5c1.3-0.1,2.6-0.1,3.8-0.1c11.2,0,22.4,0,33.5,0V264.6z"/>
	<path class="st67" d="M398.2,301.3c-1.9,0-3.8,0-5.8,0c-0.8,0-1.6-0.1-2.3-0.5c-0.5-0.2-1-1-1-1.5c0-0.7,0.5-1.5,1-2
		c0.4-0.4,1.2-0.6,1.8-0.6c4.6,0,9.3,0,13.9,0c0.5,0,1.1,0.2,1.3,0.5c0.5,0.6,1.1,1.3,1,1.9c-0.1,0.6-0.7,1.4-1.3,1.8
		c-0.6,0.4-1.5,0.3-2.3,0.3C402.4,301.3,400.3,301.2,398.2,301.3L398.2,301.3z"/>
	<path class="st68" d="M399.6,289.8c-1.9,0-3.8,0-5.7,0c-0.6,0-1.3,0-1.8-0.3c-0.5-0.3-1.1-0.9-1.1-1.4c0.1-0.7,0.6-1.3,1.1-1.9
		c0.3-0.3,0.9-0.3,1.4-0.3c4-0.1,7.9-0.1,11.9-0.1c0.5,0,1.1,0,1.4,0.3c0.5,0.5,1.1,1.1,1.3,1.8c0.2,0.8-0.5,1.6-1.3,1.7
		c-2.4,0.1-4.7,0-7.1,0C399.6,289.7,399.6,289.8,399.6,289.8"/>
	<path class="st69" d="M808.3,259.5c4.5,1.1,8.9,2.2,13.4,3.3c1.2,0.3,2.5,0.5,3.6,1.1c0.6,0.3,0.9,1.1,1.4,1.7
		c-2,2.1-4.5,2.3-7.1,1.7c-9.2-2.1-18.3-4.3-26.7-8.8c-3.6-2-7.4-3.8-11.4-4.8c-0.6-0.1-1.3-0.3-1.4-1.2c1.1-0.9,2.4-0.6,3.5-0.3
		c2.5,0.6,4.9,1.3,7.3,2.2C796.6,256.8,802.4,258.4,808.3,259.5"/>
	<path class="st70" d="M768.2,380.9c-6.1,0.3-12.1-0.1-18-2.1c-2-0.7-4-1.2-5.4-2.9c-0.3-0.4-0.3-1.2-0.2-1.7
		c0.1-0.3,0.8-0.6,1.2-0.6c0.4,0,0.9,0.2,1.4,0.3c6.3,2.8,12.9,3.3,19.7,3.3c3.2,0,6.4-0.2,9.6-0.3c1.1,0,2.2-0.1,3.3,0
		c0.8,0.1,1.7,0.5,1.6,1.4c-0.1,0.6-0.8,1.5-1.4,1.7c-1.2,0.5-2.5,0.7-3.7,0.7C773.6,381,770.9,380.9,768.2,380.9"/>
	<path class="st71" d="M713.5,323.3c0.1-0.3,0.1-0.6,0.3-0.9c0.3-0.6,0.9-1.2,1.3-0.5c3.1,5,7.5,8.4,12.5,11.4c0.8,0.5,1.3,1.3,2,2
		c-0.5,2.4-1.5,3.4-3.3,2.9c-1.2-0.3-2.4-0.9-3.4-1.6c-3.7-2.6-6.8-5.8-8.2-10.2C714.3,325.3,713.8,324.3,713.5,323.3"/>
	<path class="st72" d="M818.6,253c1,0.4,2.1,0.7,3.1,1.2c1.3,0.6,1.4,1.6,1,2.8c-1.4,0.1-2.9,0.4-4.3,0.2c-5.5-1-11-1.9-16.3-3.8
		c-1-0.4-2.1-0.9-3-1.4c-0.3-0.2-0.6-0.8-0.6-1.2c0.1-0.8,0.8-0.9,1.5-0.7c5.2,1.5,10.6,2.3,16.1,2.2l-0.1,0
		C816.7,253,817.8,252.5,818.6,253"/>
	<path class="st73" d="M741.3,316.7c0.1,0.6,0.2,1.3,0.2,1.9c-0.2,1.3-1,2.1-2.1,2.1c-0.6,0-1.3,0-1.9-0.3c-3.7-1.5-6.2-4.3-7.7-7.9
		c-0.5-1.2,0.1-2,2-3.2C736.9,309.3,739.1,313,741.3,316.7"/>
	<path class="st74" d="M756.7,359.7c1.6,0.1,3.2,0,4.8,0.3c1.2,0.2,2.4,0.7,3.5,1.3c1,0.4,0.9,1.7-0.1,2.3c-0.5,0.3-1.1,0.7-1.7,0.8
		c-3.5,0.5-7,0.4-10.4-0.2c-0.3-0.1-0.6-0.2-0.9-0.4c-1-0.5-1.4-1.4-1.1-2.4c0.2-0.6,1-1.4,1.6-1.5
		C753.8,359.6,755.2,359.8,756.7,359.7C756.7,359.8,756.7,359.7,756.7,359.7"/>
	<path class="st75" d="M777.9,262.8c-1.2-0.2-2.1-0.5-3-0.6c-2.8-0.5-5.6-0.9-8.4-1.4c-0.6-0.1-1.3-0.1-1.8-0.4
		c-0.4-0.3-0.8-0.9-0.9-1.4c0-0.2,0.6-0.9,0.9-0.9c2.8,0,5.7-0.1,8.5,0.3c1.8,0.2,3.6,1,5.4,1.7c0.5,0.2,1.1,1.2,0.9,1.4
		C779.1,262.1,778.4,262.4,777.9,262.8"/>
	<path class="st76" d="M741.3,316.7c-1.8-1.5-3.5-3.1-5.3-4.5c-1.3-1.1-2.8-1.9-4.2-2.9c-0.1-0.5-0.3-0.9-0.3-1.4
		c-0.1-1.2,0.5-2.2,1.7-2.6c1.2-0.4,2.3,0.1,2.9,1.1c1.9,2.7,3.8,5.5,5.6,8.2C742.1,315.3,742,316.1,741.3,316.7"/>
	<path class="st61" d="M463.1,121.8c-0.8,0-2.5,0-4.2-0.3c-0.5-0.1-1.2-1-1.3-1.7c-0.1-0.4,0.4-1.4,0.9-1.5c1.7-0.6,3.4-1,5.1-1.3
		c17.6-2.1,35.2-4,52.8-6.1c9.8-1.2,19.6-2.8,29.4-4.2c5.2-0.7,10.4-1.5,15.6-2.2c0.9-0.1,2-0.2,2.8,0.1c0.6,0.2,1.2,1,1.5,1.6
		c0.4,1,0,2-0.9,2.5c-1,0.5-2.1,0.7-3.2,0.9c-5.7,0.8-11.4,1.6-17.1,2.4c-10.8,1.5-21.5,3-32.3,4.3c-14.7,1.8-29.5,3.4-44.2,5.1
		C466.6,121.6,465.3,121.7,463.1,121.8"/>
	<path class="st6" d="M478.6,209.4c-1.9-0.1-2.7-0.1-3.4-0.2c-1.3-0.2-2.4-1.4-2.5-2.6c-0.1-1.1,0.8-2.5,2-3
		c0.4-0.2,0.9-0.2,1.4-0.3c4.9-0.9,9.7-1.8,14.6-2.7c0.8-0.1,1.6-0.2,2.4-0.3c1.7,0,2.9,0.9,3.2,2.3c0.3,1.4-0.4,2.8-1.8,3.5
		c-0.3,0.1-0.6,0.2-0.9,0.3C488.2,207.5,482.9,208.5,478.6,209.4"/>
	<path class="st62" d="M494.1,171.2c0.1,0,0.3,0,0.4,0c1.3,0.1,2.4,0.8,2.6,1.7c0.2,1.1-0.7,2.3-2.3,2.6c-3.6,0.6-7.2,1.1-10.9,1.7
		c-2.4,0.3-4.7,0.7-7.1,0.9c-1.3,0.1-2.6,0.2-3.8,0c-0.6-0.1-1.3-1-1.4-1.6c0-0.6,0.6-1.4,1.1-1.8c0.4-0.4,1.2-0.4,1.8-0.5
		c5.5-0.9,11-1.7,16.5-2.6C492.1,171.4,493.1,171.4,494.1,171.2"/>
	<path class="st62" d="M475.4,166.2c-1.1-0.1-1.7-0.1-2.4-0.1c-0.8-0.1-1.6-0.4-1.7-1.4c-0.1-0.9,0.5-1.5,1.3-1.7
		c0.3-0.1,0.6-0.1,0.9-0.2c6.8-1.1,13.5-2.3,20.3-3.3c1.1-0.2,2.2-0.2,3.3,0c0.5,0.1,1.2,0.8,1.2,1.3c0,0.7-0.4,1.5-0.8,2.1
		c-0.2,0.3-0.8,0.4-1.3,0.5C489.2,164.3,482.1,165.3,475.4,166.2"/>
	<path class="st15" d="M475.7,150.4C476.1,150.4,475.9,150.4,475.7,150.4c-1-0.1-1.8-0.5-2-1.6c-0.1-0.8,0.6-1.7,1.7-1.9
		c3.7-0.7,7.5-1.4,11.2-2.1c1.6-0.3,3.1-0.7,4.7-0.9c1.9-0.2,2.9,0.4,3.1,1.5c0.3,1.5-0.5,2.8-2.1,3.2c-2,0.4-4,0.8-6.1,1
		c-2.8,0.2-5.7-0.2-8.5,0.9C477.2,150.5,476.7,150.4,475.7,150.4"/>
	<path class="st61" d="M763.9,171.9c0-1.9,0-3.8,0-5.7c0-0.8,0.1-1.6,0.3-2.4c0.4-1.5,2.1-2.7,3.6-2.6c1.4,0.1,2.8,1.2,3.1,2.5
		c0.2,0.6,0.3,1.3,0.3,1.9c0,4.5,0.1,8.9,0,13.4c-0.1,2.8-1.3,4.2-3.4,4.4c-2.3,0.1-3.7-1.3-3.9-4.3
		C763.8,176.6,763.9,174.2,763.9,171.9L763.9,171.9z"/>
	<path class="st61" d="M747.1,173c0,2.4,0.1,4.8,0,7.1c-0.1,1.9-1.3,3-3,3.2c-1.9,0.3-3.5-0.8-4-2.6c-0.1-0.5-0.2-0.9-0.2-1.4
		c0-4.8,0-9.5,0.1-14.3c0-0.5,0.1-0.9,0.3-1.4c0.4-1.3,1.9-2.4,3.2-2.4c1.5-0.1,3.2,1.1,3.5,2.7c0.2,0.9,0.2,1.9,0.2,2.8
		c0,2.1,0,4.1,0,6.2C747.2,173,747.1,173,747.1,173"/>
	<path class="st77" d="M750.7,209c-3.6,0-6.6-0.6-9.4-1.8c-0.7-0.3-1.3-0.9-1.8-1.4c-0.2-0.2-0.2-0.6,0-0.9c0.1-0.2,0.5-0.4,0.7-0.5
		c0.3-0.1,0.6,0,0.9,0.2c9.2,3.6,17.1,0.8,24.5-4.7c1.1-0.8,1.5-1.8,1.5-3.3c0-2.1,1.9-3.1,3.6-2c0.7,0.4,1.2,1,1.7,1.7
		c0.7,1,0.6,2.4-0.5,2.9c-1.9,0.8-3,2.4-4.4,3.6C762.4,206.9,756.5,208.5,750.7,209"/>
	<path class="st78" d="M742.3,146.4c1.7,0.4,3.4,0.8,5,1.3c1.1,0.4,1.7,1.7,1.3,2.7c-0.4,1-1.5,1.7-2.6,1.6c-0.3,0-0.6-0.1-0.9-0.2
		c-3.5-0.9-6.9-1-10,1.3c-0.3,0.2-1.1,0.2-1.3,0c-0.3-0.5-0.5-1.2-0.4-1.7c0.4-1.9,1.8-2.9,3.3-3.8
		C738.5,146.8,740.3,146.5,742.3,146.4"/>
	<path class="st79" d="M752.7,217.9c-2.4-0.2-4.5-1-6.3-2.4c-0.3-0.3-0.4-1.1-0.3-1.7c0-0.3,0.7-0.7,1.1-0.7c3.7,0.1,7.3,0,10.8-1.2
		c0.4-0.1,0.9,0,1.4,0.1c0.7,0.1,1.3,1.3,0.9,1.9c-0.6,0.9-1.3,1.9-2.2,2.3C756.4,217,754.5,217.4,752.7,217.9"/>
	<path class="st59" d="M767.8,145.1c1.9,0.1,3.9,0.4,5.4,1.6c0.7,0.5,1.2,1.4,1.7,2.2c0.2,0.3-0.1,0.9-0.3,1.3
		c-0.1,0.2-0.6,0.2-0.8,0.2c-0.6-0.2-1.2-0.4-1.8-0.7c-2.5-1.3-4.9-1-7.2,0.6c-0.8,0.5-1.6,1-2.5,1.3c-1,0.3-2-0.1-2.3-1.1
		c-0.2-0.7-0.1-1.6,0.2-2.2c0.9-1.4,2.3-2.2,3.9-2.6C765.2,145.4,766.5,145.3,767.8,145.1"/>
	<path class="st63" d="M788.4,167.8c0.6,0.1,1,0.1,1.3,0.2c0.3,0.1,0.6,0.3,0.8,0.5c2,2.8,4.1,5.6,6,8.4c0.3,0.4,0.4,1.3,0.2,1.7
		c-0.2,0.4-1.1,0.5-1.6,0.6c-0.4,0.1-1-0.1-1.4-0.3c-3.5-2-5.6-5-6.3-9C787.2,169.3,788,168.4,788.4,167.8"/>
	<path class="st80" d="M800.8,186.1c0.3-2.3,1.3-4.7,3.4-6.4c0.3-0.2,0.9-0.4,1.3-0.2c0.3,0.2,0.7,0.8,0.6,1.1
		c-0.6,1.5-1.1,2.9-0.1,4.5c0.2,0.3-0.3,1.1-0.7,1.5c-0.4,0.4-1.2,0.5-1.4,1c-0.4,0.7-0.1,2.3-1.4,2c-1.1-0.3-1.4-1.6-1.5-2.7
		C800.8,186.7,800.8,186.5,800.8,186.1"/>
	<path class="st81" d="M787.9,184c0.6-0.4,1.2-0.9,1.8-1.3c-0.5-1.2-1.1-2.4-1.7-3.7c-0.1-0.2,0.2-0.6,0.4-0.8
		c0.2-0.2,0.7-0.2,0.8-0.1c2.5,2.7,5.6,4.6,8.9,6.3c0.2,0.1,0.4,0.7,0.2,0.8c-0.2,0.3-0.7,0.8-1,0.7c-1.2-0.2-2.5-0.5-3.7-0.7
		c-0.2,0-0.5,0.5-0.7,0.8C790.9,186.4,789.2,185.5,787.9,184"/>
	<path class="st82" d="M792,194.7c0.4,0.4,0.8,0.7,1.3,1.1l-0.1-0.1c0,0.3,0,0.6,0.1,0.9c0.6,1.4,1.8,2.7,0.5,4.3
		c-1.9-0.2-2.5-1.8-3.3-3.1c-1.4-2.3-2.7-4.6-4-7c-0.2-0.4,0.2-1.1,0.3-1.7c0.4,0.1,1.1,0.1,1.3,0.3c1.1,1.3,2.1,2.7,3.1,4.1
		C791.4,194,791.7,194.3,792,194.7"/>
	<path class="st83" d="M787.9,184c2.1-0.4,3.3,1.6,5.1,2.1l0,0c0.4,0.4,0.7,0.7,1.3,0.7c0.5,0.3,1.1,0.5,1.6,0.9
		c0.3,0.3,0.5,1,0.4,1.2c-0.3,0.5-0.8,1-1.3,1c-3.2,0.3-5.3-1.5-6.9-4C787.5,185.4,787.2,184.7,787.9,184"/>
	<path class="st84" d="M784.9,204.1c0.6,0.3,1.2,0.3,1.4,0.7c0.6,1.1,1,2.3,1.4,3.5c0.2,0.7-0.8,1.5-1.5,1.3c-1.8-0.6-2.9-2.4-2.4-4
		C783.9,205,784.5,204.6,784.9,204.1"/>
	<path class="st85" d="M793.2,195.8c-0.2-0.4-0.4-0.9-0.4-1.3c-0.2-1.5,0.5-2.2,1.7-1.9c1.3,0.4,2.8,0.7,3.1,2.4
		c0.2,0.9-1.1,1.1-3.6,0.7c-0.3,0-0.6,0-0.9,0C793.1,195.7,793.2,195.8,793.2,195.8"/>
	<path class="st85" d="M792,194.7c-0.3-0.4-0.6-0.7-0.8-1.1C791.4,194,791.7,194.3,792,194.7"/>
	<path class="st81" d="M794.3,186.8c-0.4-0.2-0.9-0.5-1.3-0.7C793.4,186.3,793.9,186.5,794.3,186.8"/>
	<path class="st86" d="M328.6,208.8c-30.5,0-61.1,0-91.6,0c-3.3,0-6.7,0.6-10-0.5c-1.5-0.5-3.1-0.9-4.5-1.5
		c-5.4-2.3-8.6-6.3-9.6-12.2c-0.9-5.7-0.3-11.2,1.8-16.5c3.1-8.1,10-12.3,18.8-12c2.9,0.1,5.8,0,8.6,0c55.3,0,110.7,0,166-0.1
		c5.1,0,10.2,0,15.4-0.1c6.9,0,12,3,15.2,9.1c3.3,6.4,4.7,13.2,3.2,20.4c-1.6,7.9-9,13.9-17.2,13.9c-32-0.1-64-0.3-96-0.5
		C328.6,208.8,328.6,208.8,328.6,208.8"/>
	<path class="st6" d="M979.8,154.4c-8.6,0-18.1,0-27.5,0c-1.1,0-2.2,0-3.3-0.1c-1.6-0.1-2.6-1.1-2.5-2.4c0.1-1.1,0.9-2,2.2-2.1
		c1.6-0.2,3.2-0.2,4.8-0.2c16.6-0.1,33.2-0.1,49.8-0.2c2.4,0,4.8-0.1,7.2-0.1c0.8,0,1.6,0,2.4,0.1c1.3,0.2,2.3,1.4,2.2,2.7
		c0,1.3-1,2.3-2.4,2.6c-0.5,0.1-0.9,0.1-1.4,0.1C1000.9,154.6,990.7,154.5,979.8,154.4"/>
	<path class="st62" d="M980.1,102.1c8,0,16,0,23.9,0c2.5,0,5.1-0.2,7.6-0.3c0.5,0,1-0.1,1.4-0.1c1.9,0.1,3.2,1.4,3.1,2.9
		c-0.1,1.4-1.3,2.5-2.9,2.6c-0.5,0-1,0-1.4,0c-3.2-0.1-6.4-0.3-9.6-0.3c-16.4-0.1-32.9-0.1-49.3-0.1c-1.4,0-2.9-0.1-4.3-0.3
		c-0.9-0.1-1.7-1.2-1.5-2.1c0.1-1,0.7-1.8,1.8-1.9c1.3-0.1,2.5-0.1,3.8-0.1c9.1,0,18.2,0,27.3,0V102.1z"/>
	<path class="st62" d="M927.3,106.4c-3.2,0-6.4,0-9.6,0c-0.8,0-1.6,0-2.3-0.3c-0.5-0.2-0.9-1-1-1.5c0-0.5,0.4-1.3,0.9-1.5
		c0.7-0.4,1.5-0.5,2.3-0.5c6.6-0.1,13.1-0.2,19.7-0.2c0.3,0,0.6,0,0.9,0.1c1,0.3,1.7,0.9,1.8,2c0.1,0.9-0.7,1.9-1.6,2.1
		c-0.6,0.1-1.3,0.1-1.9,0.1c-3,0-6.1,0-9.1,0C927.3,106.5,927.3,106.4,927.3,106.4"/>
	<path class="st87" d="M527.6,171.2c0-2.7-0.1-5.4,0-8.1c0.1-2.8,0.6-3.2,3.3-3.8c2-0.4,4.1-0.7,6.1-1c8-1.2,16.1-2.4,24.1-3.6
		c1.7-0.2,3.5-0.4,5.2-0.4c1,0,1.8,0.7,2,1.7c0.2,1.1,0.4,2.2,0.4,3.3c0.1,4.1,0.2,8.3,0.3,12.4c0,1.7-0.7,2.8-1.7,4.2
		c-1.7,2.3-3.7,3.1-6.4,3.4c-7.6,0.9-15.1,2.2-22.7,3.3c-2.5,0.4-5.1,0.5-7.6,0.7c-2.1,0.1-2.8-0.5-3.2-2.7
		c-0.2-1.2-0.2-2.5-0.2-3.8c0-1.9,0-3.8,0-5.7C527.4,171.2,527.5,171.2,527.6,171.2"/>
	<path class="st55" d="M531.8,151.1c-0.5,0-1.3,0-2.1-0.2c-1.2-0.2-2.2-1.2-2.1-2.2c0.1-1,0.6-1.8,1.6-2.1c1.1-0.3,2.2-0.6,3.3-0.8
		c7.6-1,15.2-2,22.8-3c2.4-0.3,4.7-0.7,7.1-0.9c1.1-0.1,2.2-0.1,3.3,0.1c1,0.2,1.6,1,1.7,2c0.1,1.1-0.3,2-1.2,2.4
		c-1,0.4-2.1,0.7-3.2,0.9c-2.4,0.4-4.7,0.7-7.1,1C547.9,149.1,540,150.1,531.8,151.1"/>
	<path class="st15" d="M530.2,198.5c-0.5-0.1-1.1,0-1.4-0.3c-0.5-0.3-1.2-0.8-1.2-1.3c-0.1-0.4,0.5-1,0.9-1.5
		c0.2-0.2,0.5-0.4,0.8-0.4c4.9-1.1,9.9-2.2,14.8-3.3c5.3-1.2,10.7-1.5,15.8-3.3c1.1-0.4,2.5-0.4,3.7-0.3c1,0.1,1.7,1,1.6,2
		c-0.1,0.7-0.5,1.6-1.1,2c-1.1,0.6-2.3,1.1-3.6,1.3c-5.9,1.1-11.9,2.1-17.8,3.1c-3.6,0.6-7.2,1.1-10.8,1.7
		C531.5,198.4,530.8,198.5,530.2,198.5"/>
	<path class="st55" d="M853.5,277.2l2.1-2.6c6.2-6.2,13.8-10.1,21.7-13.6c9-4,18-8,27-12.1c4.8-2.2,9.7-4.1,15-4.6
		c1.6-0.2,3.2-0.1,4.7,0.2c2,0.4,2.9,1.8,2.5,3.9c-0.5,0.1-1,0.3-1.4,0.1c-3.2-1.5-6.3-0.7-9.3,0.3c-3.2,1.1-6.3,2.3-9.3,3.6
		c-9.3,4-18.6,8.2-27.9,12.3c-5.7,2.5-11.1,5.4-16.3,8.9c-3.6,2.4-6.3,5.3-7.7,9.4c-0.3,0.4-0.6,0.7-1,0.9l0,0
		c-1.1-0.6-1.5-1.5-1.2-2.7C852.6,279.8,853.1,278.5,853.5,277.2"/>
	<path class="st58" d="M969.8,292.3c0.2-0.6,0.5-1.2,0.7-1.8c1.7,0.4,3.4,0.7,5.1,1.3c10,3.2,20.1,3.4,30.2,0.6
		c1.2-0.3,2.5-0.5,3.7-0.6c0.3,0,0.8,0.5,0.9,0.9c0.1,0.4-0.1,1.1-0.3,1.2c-1.1,0.6-2.2,1.3-3.4,1.6c-6.6,1.4-13.3,1.9-20,1.3
		C980.9,296.2,975.2,295,969.8,292.3"/>
	<path class="st8" d="M853.4,283.9c0.3-0.3,0.7-0.6,1-0.9C854.4,283.6,854.1,283.9,853.4,283.9"/>
	<path class="st88" d="M700.4,350.5c-3.2,0.1-5.4-1.5-6.1-4.3c-0.1-0.4,0.1-1,0.4-1.3c0.5-0.6,1.2-0.4,1.6,0.1
		c1.2,1.5,2.8,2.4,4.5,3.3c0.4,0.2,0.9,1,0.8,1.4C701.4,350.1,700.7,350.3,700.4,350.5"/>
	<path class="st7" d="M818.6,253c-1,0.1-1.9,0.1-2.6-0.8C817,252.1,817.9,252.2,818.6,253"/>
	<path class="st89" d="M299.9,239c0-0.3,0.1-0.6,0.1-0.9c0.1-0.9-0.1-2.1,1.1-2.3c1.1-0.2,2.2,0.1,3,1.1c0.5,0.7,0.6,2.1-0.1,2.6
		c-0.6,0.5-1.3,0.8-2,1.1C300.7,241,299.8,240.4,299.9,239"/>
	<path class="st90" d="M353,237.7c-0.1-0.2-0.4-0.6-0.3-0.7c0.8-1.8,1.9-2.7,3.1-2.5c0.1,0,0.3,0.2,0.3,0.3c0.3,1-0.7,2.1-2.6,2.9
		C353.4,237.8,353.2,237.7,353,237.7"/>
	<path class="st90" d="M324.6,235.4c-0.7,1.5-2.3,2.5-3.2,2.3c-0.1,0-0.4-0.2-0.4-0.3c0-1.1,1.3-2.5,2.8-2.9c0.2,0,0.5,0.2,0.7,0.4
		C324.6,235,324.5,235.2,324.6,235.4"/>
	<path class="st91" d="M636.6,151.9c3.2,4.4,6.3,8.8,9.5,13.2c2.3,3.1,4.5,6.2,6.9,9.2c0.9,1.1,1.1,2.3,1.2,3.5
		c0.3,5.4,0.5,10.8,0.7,16.3c-0.5-0.1-1-0.1-1.1-0.2c-6.4-13.7-13.1-27.3-18.1-41.6C636.1,152.2,636.4,152,636.6,151.9"/>
	<path class="st92" d="M669.5,153.1c-2.4,12.5-6.4,24.4-11.3,36.1c-0.8-2.2-0.7-4.3-0.9-6.4c-0.2-2.1-0.4-4.1-0.5-6.2
		c0-0.7,0.2-1.6,0.7-2.2c3.9-5.5,6.5-11.6,9.7-17.5C668,155.7,668.8,154.4,669.5,153.1"/>
	<path class="st15" d="M620.3,175.4c0.9,3.1,0.5,6,0.8,8.8c0.3,2.8-0.3,5.3-1.2,7.9c-1.3,3.6-2.2,7.3-3.4,10.9
		c-0.2,0.5-0.6,1-1.1,1.3c-0.4,0.3-0.9,0.3-1.3,0.5c-7,1.8-5.1,2.6-8.6-3.6c-1.2-2.2-2.2-4.7-3.7-6.7c-2.9-3.8-2.5-8.1-2.5-12.3
		c0-0.9,0.4-1.5,1.3-1.8c0.6-0.2,1.2-0.4,1.8-0.5C608.2,178.4,614.1,176.9,620.3,175.4"/>
	<path class="st11" d="M615.8,153.3c-0.2,0.8-0.7,2.6-1.4,4.4c-0.9,2.1-2.8,3.1-5,3.2c-2.4,0.1-4.3-1.1-5.4-3.2
		c-0.4-0.8-0.7-1.8-0.9-2.7c-0.1-0.3,0.3-1,0.6-1.1c3.5-1.1,7-2.2,10.5-3.2C615.3,150.3,615.9,150.9,615.8,153.3"/>
	<path class="st32" d="M615.3,147c-3.8,2-7.6,3-11.3,4.3c-0.6,0.2-1.2-0.4-1.1-1.1c0.5-3.3,2.1-6,5.1-7.6c2.1-1.2,4-0.9,5.5,1
		C614.2,144.5,614.7,145.7,615.3,147"/>
	<path class="st22" d="M664.8,222.9c2.2-0.1,4.4,1.6,4.4,3.5c0,2.6-1.9,4.8-4.3,4.9c-2.1,0.1-3.9-1.7-3.9-4
		C661.1,225.5,663.2,223,664.8,222.9"/>
	<path class="st13" d="M337,308c-9.4,0-18.9,0-28.3,0c-1.3,0-2.6,0-3.8,0c-0.9,0-1.5-0.5-1.5-1.5c0-0.5-0.1-1-0.1-1.4
		c0.1-2.4,0.2-4.7,0.3-7.1c2.3-1.1,4.7-0.4,7-0.4c17.1,0,34.2,0,51.3,0.1c2.4,0,4.8,0.1,7.2,0.3c1.8,0.1,2.1,0.5,2.2,2.4
		c0,2.1,0,4.2-0.1,6.2c0,0.5-0.7,1.2-1.1,1.2c-1.2,0.2-2.5,0.2-3.8,0.2C356.5,308,346.8,308,337,308L337,308z"/>
	<path class="st7" d="M265.5,281.1c-5.6,0-11.2,0-16.7,0c-1,0-1.9,0.1-2.9-0.1c-0.5-0.1-1.1-0.8-1.2-1.2c-0.1-3.2-0.2-6.4-0.2-9.5
		c0-0.9,0.7-1.4,1.6-1.4c0.8,0,1.6-0.1,2.4-0.1c11.6,0,23.3,0,34.9,0c0.5,0,1,0,1.4,0c1.6,0.1,2.1,0.4,2.1,1.9c0.1,2.7,0,5.4,0,8.1
		c0,1.8-0.4,2.1-2.4,2.1C278.2,281,271.8,281,265.5,281.1L265.5,281.1z"/>
	<path class="st0" d="M328.9,169.7c30.9,0,61.7,0,92.6,0c1.7,0,3.5,0.1,5.2,0.6c4.1,1.1,7,3.7,8.7,7.6c1.8,3.8,2.7,7.8,2.8,12
		c0.1,5.1-1.9,9.3-5.8,12.6c-2.3,1.9-4.7,3.2-7.9,2.9c-1.4-0.1-2.9,0-4.3,0c-43.5,0.2-87,0.4-130.4,0.6c-16.3,0.1-32.6,0-48.9,0.1
		c-5,0-9.8-1.1-14.6-2.2c-1.8-0.4-3.5-1.5-5.1-2.5c-1.2-0.8-2.3-1.9-2.9-3.1c-2.1-4.1-2.7-8.5-2-13c0.4-2.2,1.3-4.3,2.2-6.3
		c2.1-4.6,5.6-7.8,10.7-8.8c2.2-0.4,4.4-0.7,6.6-0.7C266.8,169.6,297.8,169.6,328.9,169.7L328.9,169.7z"/>
	<path class="st93" d="M563.7,159.5c0,4.8,0,9.1,0,13.4c0,1.2-0.7,1.7-1.7,1.9c-2.3,0.5-4.7,1-7,1.4c-6.2,1-12.3,1.9-18.5,2.8
		c-1.1,0.2-2.2,0.3-3.3,0.2c-0.3,0-0.7-0.5-1-0.8c-0.2-0.2-0.1-0.6-0.1-0.9c-0.1-4-0.1-8-0.2-12c0-1.6,0.4-2,1.9-2.2
		c2.9-0.4,5.7-0.7,8.6-1c6.3-0.8,12.7-1.6,19-2.4C561.9,159.7,562.6,159.6,563.7,159.5"/>
	<path class="st94" d="M606.1,187.5c0-3.3,2.9-6.7,5.9-6.9c2.8-0.2,5.6,2.4,5.1,6c-0.3,2.1-1.5,3.8-3.3,5c-1.8,1.1-3.6,1.2-5.4,0.1
		C606.7,190.7,606.4,188.9,606.1,187.5"/>
	<path class="st5" d="M330.3,191.2c-0.6,0.4-1,0.7-1.3,0.9c-0.9,0.8-1.8,0.7-2.5-0.1c-1.1-1.3-2.1-2.7-3.1-4.2
		c-1.1,0.4-0.6,1.3-0.7,2c-0.2,2.5-0.1,5.1-0.4,7.7c0,0.5-0.8,1.2-1.2,1.2c-0.7,0-1.7-0.2-2.1-0.7c-0.5-0.7-0.8-1.8-0.8-2.7
		c0.2-5.3,0.4-10.5,0.7-15.8c0-0.4,0.3-0.9,0.5-1.3c0.4-0.9,1.8-1.3,2.4-0.6c1.2,1.2,2.3,2.6,3.4,4c0.8,1.1,1.5,2.4,2.2,3.6
		c1.4-2.1,2.5-4,3.8-5.8c0.4-0.5,1.5-0.9,2-0.7c0.6,0.2,1.2,1,1.5,1.7c0.3,0.5,0.1,1.3,0.2,1.9c0,4.2,0.1,8.3,0,12.5
		c0,0.9,0,2-0.4,2.8c-0.3,0.6-1.2,1.2-1.8,1.2c-0.6,0-1.4-0.7-1.7-1.3c-0.4-0.8-0.4-1.9-0.5-2.8
		C330.5,193.6,330.4,192.5,330.3,191.2"/>
	<path class="st95" d="M375,188.8c-0.1,2.7-0.3,5.4-0.3,8.1c0,1.1-0.5,1.8-1.6,1.9c-1.4,0.2-2.3-0.3-2.6-1.5
		c-0.3-1.4-0.4-2.8-0.6-4.3c-0.2-1.3-0.6-1.6-2.4-1.5c-1.3,0.1-1.7,0.4-1.7,1.7c-0.1,1.3,0,2.6-0.1,3.8c-0.1,1-0.8,1.7-1.9,1.8
		c-1.1,0.1-1.9-0.4-2.2-1.4c-0.3-0.9-0.5-1.9-0.4-2.8c0.3-4.6,0.6-9.2,1-13.8c0-0.5,0.1-1.1,0.4-1.3c0.6-0.5,1.3-1,2-1.1
		c0.9-0.2,1.5,0.5,1.7,1.3c0.2,0.9,0.3,1.9,0.3,2.8c0,1.1-0.2,2.2-0.2,3.3c0,0.8-0.2,1.6,0.9,1.9c1.5,0.4,2.8-0.2,3.1-1.5
		c0.3-1.4,0.3-2.9,0.6-4.3c0.3-1.4,0.7-2.8,1.3-4.1c0.2-0.4,1.1-0.7,1.6-0.7c0.5,0.1,1.2,0.5,1.5,1c0.3,0.7,0.4,1.5,0.4,2.3
		c-0.1,2.7-0.2,5.4-0.3,8.1C375.1,188.8,375.1,188.8,375,188.8"/>
	<path class="st5" d="M382.5,194c1.3-0.3,2.5-0.6,3.7-0.8c0.9-0.2,1.9-0.5,2.8-0.4c0.7,0.1,1.6,0.6,1.8,1.2c0.2,0.6-0.2,1.7-0.7,2
		c-2.9,1.9-6.1,2.8-9.5,2.5c-0.8-0.1-1.7-0.8-2.3-1.5c-1-1.1-1.1-2.6-0.9-4.1c0.6-3.8,1-7.6,1.9-11.3c0.8-3.4,2-4.3,5.3-4.4
		c1.7-0.1,3.5,0.1,5.2,0.2c0.6,0,1.2,0.3,1.8,0.5c0.8,0.3,1.3,1.1,1,1.9c-0.2,0.5-0.8,1.2-1.2,1.2c-2.1,0.1-4.1,0-6.2,0
		c-1.7,0-1.9,0.2-2.1,1.8c-0.1,0.5-0.1,1-0.1,1.4c-0.1,1.5,0.2,1.7,1.6,1.7c1.4,0,2.9-0.2,4.3-0.1c0.6,0.1,1.4,0.7,1.8,1.3
		c0.4,0.7-0.4,1.8-1.5,2c-1.5,0.3-3.1,0.4-4.7,0.5c-2.1,0.2-2.3,0.3-2.3,2.7C382.1,193,382.3,193.4,382.5,194"/>
	<path class="st5" d="M311.8,181.3c-1.6-0.1-2.4-0.1-3.2-0.2c-0.9-0.1-1.5,0.3-1.7,1.2c-0.1,0.6-0.2,1.3-0.3,1.9
		c-0.2,1.4,0.2,1.8,1.4,1.8c1.4,0,2.9-0.1,4.3-0.1c1.1,0,2.1,0.8,2.1,1.5c0,1.2-0.9,1.8-1.8,1.9c-1.6,0.3-3.2,0.3-4.7,0.4
		c-1.5,0.1-2.6,1.9-2,3.4c0.1,0.3,0.8,0.7,1.1,0.6c1.3-0.2,2.5-0.7,3.7-0.9c0.9-0.2,1.9-0.2,2.8,0c1.1,0.2,1.6,1.9,0.8,2.6
		c-0.6,0.5-1.2,1.1-1.9,1.3c-2.3,0.7-4.6,1.4-6.9,1.7c-2.1,0.3-3.7-1-4.1-3.1c-0.2-0.8-0.2-1.6-0.1-2.4c0.2-4.1,0.8-8.2,2-12.2
		c0.7-2.3,2.2-3.5,4.5-3.6c2.2-0.1,4.5,0.1,6.7,0.3c0.4,0,1,0.2,1.3,0.6c0.4,0.4,0.9,1.1,0.8,1.5c-0.1,0.5-0.7,1.3-1.1,1.3
		C313.9,181.3,312.5,181.3,311.8,181.3"/>
	<path class="st62" d="M416,193.6c-0.3,1.5-0.4,2.8-0.9,4c-0.2,0.6-1,1.2-1.7,1.4c-0.8,0.2-1.9-0.7-2.1-1.6
		c-0.1-0.3-0.2-0.6-0.1-0.9c0.3-5.7-0.4-11.5,0.5-17.2c0.2-1.4,0.6-1.8,1.7-1.9c1.1,0,1.9,0.6,2,1.6c0.2,2,0.2,4.1,0.4,6.6
		c0.8-0.4,1.5-0.6,2-1c1.5-1.2,2.8-2.6,4.3-3.8c0.6-0.5,1.2-1.1,1.9-1.3c0.5-0.2,1.3,0,1.7,0.4c0.3,0.3,0.5,1.3,0.3,1.7
		c-0.6,0.9-1.3,1.8-2.1,2.5c-1.8,1.7-3.8,3.4-5.9,5.3c2.3,2.2,4.4,4.1,6.4,6c0.8,0.8,1.8,1.5,1.2,2.8c-0.5,0.9-2.2,1.1-3.5,0.3
		c-1.1-0.7-2-1.5-3.1-2.3C418.1,195.3,417.2,194.5,416,193.6"/>
	<path class="st62" d="M240.9,199c-4,0-6.6-2.3-6.8-5.6c0-0.5,0.4-1.3,0.8-1.5c0.4-0.2,1.2,0.1,1.6,0.5c0.4,0.2,0.4,0.8,0.7,1.2
		c1.5,1.7,3,2,5.1,0.9c0.3-0.2,0.5-1.3,0.3-1.6c-1.6-1.5-3.2-3.1-5-4.4c-1.6-1.2-2.7-2.7-3-4.7c-0.1-0.9,0-1.9,0.3-2.8
		c1.2-3.1,6.7-5,9.4-3.3c1,0.6,1.6,1.9,2.2,3c0.5,1-0.2,2.4-1.1,2.9c-1.1,0.6-1.7-0.3-2.3-1.1c-1.3-1.5-1.9-1.7-3.1-1.2
		c-1.1,0.5-1.7,1.9-0.9,2.7c0.9,1.1,2.1,1.9,3.1,2.9c1.4,1.3,3,2.5,4.1,4c1.9,2.5,1.2,5.4-1.6,6.8
		C243.4,198.5,241.8,198.8,240.9,199"/>
	<path class="st54" d="M274.6,177.2c3.3,0,4.9,1.1,5.3,3.4c0.2,0.8-0.3,1.8-0.7,2.6c-0.2,0.3-1.2,0.5-1.6,0.3
		c-0.5-0.2-0.8-0.9-1.2-1.4c-1-1.1-2.1-1.3-3.3-0.7c-0.9,0.5-1.3,1.8-0.7,2.4c1.1,1.1,2.3,2.2,3.5,3.2c1.3,1.2,2.7,2.3,3.7,3.7
		c2,2.7,1.2,5.8-1.8,7.1c-1.3,0.6-2.8,0.9-4.2,0.9c-3.2,0.1-5.8-2.2-6.2-5.5c-0.1-0.5,0.4-1.2,0.8-1.6c0.5-0.5,1.2-0.2,1.6,0.4
		c0.4,0.5,0.6,1.2,1,1.6c1.4,1.5,3.5,1.7,5.2,0.4c0.2-0.2,0.3-1,0.1-1.2c-1.5-1.4-3-2.9-4.6-4.2c-1.3-1-2.5-2-3.1-3.5
		c-1.2-2.9-0.5-5.5,2.3-6.9C272.2,177.8,273.8,177.5,274.6,177.2"/>
	<path class="st54" d="M399.2,190.2c0.1,0.6,0.1,1.1,0.2,1.6c0.3,1.9,1.2,2.5,3,2.1c0.9-0.2,1.8-0.6,2.8-0.8c0.8-0.2,1.6,0,2,0.8
		c0.6,1,0.4,2-0.4,2.6c-1,0.8-2.1,1.5-3.3,1.9c-3.4,1.1-6,0-7.6-3.2c-1.7-3.5-2-7,0-10.5c1.3-2.2,2.5-4.4,4.6-6.1
		c2-1.5,4.1-1.7,6.3-0.9c2.1,0.8,3,2.8,2.3,5.1c-0.2,0.5-0.7,1.1-1.2,1.2c-0.5,0.1-1.2-0.3-1.6-0.6c-0.3-0.3-0.3-0.9-0.6-1.3
		c-0.8-1.1-1.9-1.3-2.8-0.3C400.7,184.2,399.1,186.9,399.2,190.2"/>
	<path class="st54" d="M344.3,189.3c0.7-4.5,2.9-8.5,6.9-11.2c1.9-1.3,3.9-1.1,5.9-0.1c2,1,2.7,3.1,1.7,5.3
		c-0.4,0.9-1.8,1.1-2.4,0.4c-0.1-0.1-0.2-0.3-0.3-0.4c-0.6-0.7-0.5-2-1.7-2.1c-1.5-0.1-2.3,1-3,2.1c-1.5,2.4-3.1,4.9-2.4,8
		c0.5,2.5,1.2,3,3.6,2.4c0.9-0.2,1.8-0.6,2.8-0.7c0.5,0,1.2,0.4,1.5,0.9c0.3,0.5,0.4,1.4,0.1,1.8c-0.7,0.8-1.5,1.7-2.5,2.1
		c-4.3,2.1-7.5,0.8-9.2-3.6c-0.3-0.7-0.5-1.5-0.7-2.3C344.5,191.2,344.5,190.4,344.3,189.3"/>
	<path class="st54" d="M253.4,188.7c-1.2-2.5-2.4-4.8-3.5-7.1c-0.3-0.7-0.5-1.6-0.3-2.3c0.2-0.6,0.9-1.3,1.6-1.5
		c0.4-0.2,1.3,0.2,1.6,0.6c0.9,1.3,1.5,2.8,2.3,4.2c0.3,0.7,0.6,1.3,1.1,2.5c1.4-1.7,2.5-3,3.6-4.3c0.9-1.1,1.9-2.2,3-3.1
		c0.4-0.3,1.3-0.4,1.8-0.2c0.8,0.4,1,1.2,0.6,2.1c-0.5,1-1,2-1.6,2.9c-1.8,2.6-3.7,5.2-5.5,7.8c-1.3,1.8-2.4,3.7-2.8,6
		c-0.3,2-1.4,2.8-2.7,2.5c-1.7-0.4-2.7-2.3-2.2-4.1c0.3-0.9,0.8-1.8,1.2-2.6c0.4-0.7,0.8-1.4,1.2-2.1
		C253,189.5,253.3,189,253.4,188.7"/>
	<path class="st56" d="M287.9,181.3c-1.5-0.1-2.8-0.1-4-0.2c-0.9-0.1-1.4-0.6-1.5-1.5c-0.1-1.1,0.4-1.9,1.4-2.2
		c0.5-0.1,0.9-0.2,1.4-0.2c4,0.3,7.9,0.7,11.9,1.1c0.3,0,0.7,0.1,0.9,0.3c0.4,0.6,1.1,1.3,1.1,1.9c-0.1,0.6-0.9,1.4-1.5,1.6
		c-1.1,0.3-2.2,0.1-3.3,0.1c-0.6,0-1.3,0-2.1,0c-0.1,1.2-0.2,2.3-0.2,3.4c0,3.8,0.1,7.7,0.1,11.5c0,0.8-0.3,1.5-1.3,1.8
		c-1.2,0.4-2.4-0.3-2.5-1.5c-0.1-2.7-0.1-5.4-0.1-8.1C288.2,186.5,288.3,184,287.9,181.3"/>
	<path class="st96" d="M613,186.6c0,1.5-1.3,2.9-2.6,2.8c-1-0.1-1.9-1.2-1.9-2.3c0-1.6,0.9-2.9,1.9-2.8
		C611.8,184.5,613,185.5,613,186.6"/>
</g>
</svg>
